%TF.GenerationSoftware,KiCad,Pcbnew,8.0.8*%
%TF.CreationDate,2025-03-13T21:39:24-06:00*%
%TF.ProjectId,Final_Project_PCB,46696e61-6c5f-4507-926f-6a6563745f50,rev?*%
%TF.SameCoordinates,Original*%
%TF.FileFunction,Legend,Top*%
%TF.FilePolarity,Positive*%
%FSLAX46Y46*%
G04 Gerber Fmt 4.6, Leading zero omitted, Abs format (unit mm)*
G04 Created by KiCad (PCBNEW 8.0.8) date 2025-03-13 21:39:24*
%MOMM*%
%LPD*%
G01*
G04 APERTURE LIST*
%ADD10C,0.150000*%
%ADD11C,0.254000*%
%ADD12C,0.120000*%
%ADD13C,0.127000*%
%ADD14C,0.200000*%
%ADD15C,0.100000*%
G04 APERTURE END LIST*
D10*
X149430000Y-69455000D02*
X166850000Y-69455000D01*
X166850000Y-86475000D01*
X149430000Y-86475000D01*
X149430000Y-69455000D01*
X138859398Y-51869819D02*
X139049874Y-51869819D01*
X139049874Y-51869819D02*
X139145112Y-51822200D01*
X139145112Y-51822200D02*
X139192731Y-51774580D01*
X139192731Y-51774580D02*
X139287969Y-51631723D01*
X139287969Y-51631723D02*
X139335588Y-51441247D01*
X139335588Y-51441247D02*
X139335588Y-51060295D01*
X139335588Y-51060295D02*
X139287969Y-50965057D01*
X139287969Y-50965057D02*
X139240350Y-50917438D01*
X139240350Y-50917438D02*
X139145112Y-50869819D01*
X139145112Y-50869819D02*
X138954636Y-50869819D01*
X138954636Y-50869819D02*
X138859398Y-50917438D01*
X138859398Y-50917438D02*
X138811779Y-50965057D01*
X138811779Y-50965057D02*
X138764160Y-51060295D01*
X138764160Y-51060295D02*
X138764160Y-51298390D01*
X138764160Y-51298390D02*
X138811779Y-51393628D01*
X138811779Y-51393628D02*
X138859398Y-51441247D01*
X138859398Y-51441247D02*
X138954636Y-51488866D01*
X138954636Y-51488866D02*
X139145112Y-51488866D01*
X139145112Y-51488866D02*
X139240350Y-51441247D01*
X139240350Y-51441247D02*
X139287969Y-51393628D01*
X139287969Y-51393628D02*
X139335588Y-51298390D01*
X102349931Y-60408209D02*
X101349931Y-60408209D01*
X101349931Y-60408209D02*
X101349931Y-60170114D01*
X101349931Y-60170114D02*
X101397550Y-60027257D01*
X101397550Y-60027257D02*
X101492788Y-59932019D01*
X101492788Y-59932019D02*
X101588026Y-59884400D01*
X101588026Y-59884400D02*
X101778502Y-59836781D01*
X101778502Y-59836781D02*
X101921359Y-59836781D01*
X101921359Y-59836781D02*
X102111835Y-59884400D01*
X102111835Y-59884400D02*
X102207073Y-59932019D01*
X102207073Y-59932019D02*
X102302312Y-60027257D01*
X102302312Y-60027257D02*
X102349931Y-60170114D01*
X102349931Y-60170114D02*
X102349931Y-60408209D01*
X102302312Y-59027257D02*
X102349931Y-59122495D01*
X102349931Y-59122495D02*
X102349931Y-59312971D01*
X102349931Y-59312971D02*
X102302312Y-59408209D01*
X102302312Y-59408209D02*
X102207073Y-59455828D01*
X102207073Y-59455828D02*
X101826121Y-59455828D01*
X101826121Y-59455828D02*
X101730883Y-59408209D01*
X101730883Y-59408209D02*
X101683264Y-59312971D01*
X101683264Y-59312971D02*
X101683264Y-59122495D01*
X101683264Y-59122495D02*
X101730883Y-59027257D01*
X101730883Y-59027257D02*
X101826121Y-58979638D01*
X101826121Y-58979638D02*
X101921359Y-58979638D01*
X101921359Y-58979638D02*
X102016597Y-59455828D01*
X102349931Y-58551066D02*
X101683264Y-58551066D01*
X101778502Y-58551066D02*
X101730883Y-58503447D01*
X101730883Y-58503447D02*
X101683264Y-58408209D01*
X101683264Y-58408209D02*
X101683264Y-58265352D01*
X101683264Y-58265352D02*
X101730883Y-58170114D01*
X101730883Y-58170114D02*
X101826121Y-58122495D01*
X101826121Y-58122495D02*
X102349931Y-58122495D01*
X101826121Y-58122495D02*
X101730883Y-58074876D01*
X101730883Y-58074876D02*
X101683264Y-57979638D01*
X101683264Y-57979638D02*
X101683264Y-57836781D01*
X101683264Y-57836781D02*
X101730883Y-57741542D01*
X101730883Y-57741542D02*
X101826121Y-57693923D01*
X101826121Y-57693923D02*
X102349931Y-57693923D01*
X102349931Y-57074876D02*
X102302312Y-57170114D01*
X102302312Y-57170114D02*
X102254692Y-57217733D01*
X102254692Y-57217733D02*
X102159454Y-57265352D01*
X102159454Y-57265352D02*
X101873740Y-57265352D01*
X101873740Y-57265352D02*
X101778502Y-57217733D01*
X101778502Y-57217733D02*
X101730883Y-57170114D01*
X101730883Y-57170114D02*
X101683264Y-57074876D01*
X101683264Y-57074876D02*
X101683264Y-56932019D01*
X101683264Y-56932019D02*
X101730883Y-56836781D01*
X101730883Y-56836781D02*
X101778502Y-56789162D01*
X101778502Y-56789162D02*
X101873740Y-56741543D01*
X101873740Y-56741543D02*
X102159454Y-56741543D01*
X102159454Y-56741543D02*
X102254692Y-56789162D01*
X102254692Y-56789162D02*
X102302312Y-56836781D01*
X102302312Y-56836781D02*
X102349931Y-56932019D01*
X102349931Y-56932019D02*
X102349931Y-57074876D01*
X102302312Y-56360590D02*
X102349931Y-56217733D01*
X102349931Y-56217733D02*
X102349931Y-55979638D01*
X102349931Y-55979638D02*
X102302312Y-55884400D01*
X102302312Y-55884400D02*
X102254692Y-55836781D01*
X102254692Y-55836781D02*
X102159454Y-55789162D01*
X102159454Y-55789162D02*
X102064216Y-55789162D01*
X102064216Y-55789162D02*
X101968978Y-55836781D01*
X101968978Y-55836781D02*
X101921359Y-55884400D01*
X101921359Y-55884400D02*
X101873740Y-55979638D01*
X101873740Y-55979638D02*
X101826121Y-56170114D01*
X101826121Y-56170114D02*
X101778502Y-56265352D01*
X101778502Y-56265352D02*
X101730883Y-56312971D01*
X101730883Y-56312971D02*
X101635645Y-56360590D01*
X101635645Y-56360590D02*
X101540407Y-56360590D01*
X101540407Y-56360590D02*
X101445169Y-56312971D01*
X101445169Y-56312971D02*
X101397550Y-56265352D01*
X101397550Y-56265352D02*
X101349931Y-56170114D01*
X101349931Y-56170114D02*
X101349931Y-55932019D01*
X101349931Y-55932019D02*
X101397550Y-55789162D01*
X102349931Y-54932019D02*
X101826121Y-54932019D01*
X101826121Y-54932019D02*
X101730883Y-54979638D01*
X101730883Y-54979638D02*
X101683264Y-55074876D01*
X101683264Y-55074876D02*
X101683264Y-55265352D01*
X101683264Y-55265352D02*
X101730883Y-55360590D01*
X102302312Y-54932019D02*
X102349931Y-55027257D01*
X102349931Y-55027257D02*
X102349931Y-55265352D01*
X102349931Y-55265352D02*
X102302312Y-55360590D01*
X102302312Y-55360590D02*
X102207073Y-55408209D01*
X102207073Y-55408209D02*
X102111835Y-55408209D01*
X102111835Y-55408209D02*
X102016597Y-55360590D01*
X102016597Y-55360590D02*
X101968978Y-55265352D01*
X101968978Y-55265352D02*
X101968978Y-55027257D01*
X101968978Y-55027257D02*
X101921359Y-54932019D01*
X101683264Y-54598685D02*
X101683264Y-54217733D01*
X101349931Y-54455828D02*
X102207073Y-54455828D01*
X102207073Y-54455828D02*
X102302312Y-54408209D01*
X102302312Y-54408209D02*
X102349931Y-54312971D01*
X102349931Y-54312971D02*
X102349931Y-54217733D01*
X101826121Y-52789161D02*
X101873740Y-52646304D01*
X101873740Y-52646304D02*
X101921359Y-52598685D01*
X101921359Y-52598685D02*
X102016597Y-52551066D01*
X102016597Y-52551066D02*
X102159454Y-52551066D01*
X102159454Y-52551066D02*
X102254692Y-52598685D01*
X102254692Y-52598685D02*
X102302312Y-52646304D01*
X102302312Y-52646304D02*
X102349931Y-52741542D01*
X102349931Y-52741542D02*
X102349931Y-53122494D01*
X102349931Y-53122494D02*
X101349931Y-53122494D01*
X101349931Y-53122494D02*
X101349931Y-52789161D01*
X101349931Y-52789161D02*
X101397550Y-52693923D01*
X101397550Y-52693923D02*
X101445169Y-52646304D01*
X101445169Y-52646304D02*
X101540407Y-52598685D01*
X101540407Y-52598685D02*
X101635645Y-52598685D01*
X101635645Y-52598685D02*
X101730883Y-52646304D01*
X101730883Y-52646304D02*
X101778502Y-52693923D01*
X101778502Y-52693923D02*
X101826121Y-52789161D01*
X101826121Y-52789161D02*
X101826121Y-53122494D01*
X102349931Y-51693923D02*
X101826121Y-51693923D01*
X101826121Y-51693923D02*
X101730883Y-51741542D01*
X101730883Y-51741542D02*
X101683264Y-51836780D01*
X101683264Y-51836780D02*
X101683264Y-52027256D01*
X101683264Y-52027256D02*
X101730883Y-52122494D01*
X102302312Y-51693923D02*
X102349931Y-51789161D01*
X102349931Y-51789161D02*
X102349931Y-52027256D01*
X102349931Y-52027256D02*
X102302312Y-52122494D01*
X102302312Y-52122494D02*
X102207073Y-52170113D01*
X102207073Y-52170113D02*
X102111835Y-52170113D01*
X102111835Y-52170113D02*
X102016597Y-52122494D01*
X102016597Y-52122494D02*
X101968978Y-52027256D01*
X101968978Y-52027256D02*
X101968978Y-51789161D01*
X101968978Y-51789161D02*
X101921359Y-51693923D01*
X102349931Y-51074875D02*
X102302312Y-51170113D01*
X102302312Y-51170113D02*
X102207073Y-51217732D01*
X102207073Y-51217732D02*
X101349931Y-51217732D01*
X102349931Y-50551065D02*
X102302312Y-50646303D01*
X102302312Y-50646303D02*
X102207073Y-50693922D01*
X102207073Y-50693922D02*
X101349931Y-50693922D01*
X102349931Y-50027255D02*
X102302312Y-50122493D01*
X102302312Y-50122493D02*
X102254692Y-50170112D01*
X102254692Y-50170112D02*
X102159454Y-50217731D01*
X102159454Y-50217731D02*
X101873740Y-50217731D01*
X101873740Y-50217731D02*
X101778502Y-50170112D01*
X101778502Y-50170112D02*
X101730883Y-50122493D01*
X101730883Y-50122493D02*
X101683264Y-50027255D01*
X101683264Y-50027255D02*
X101683264Y-49884398D01*
X101683264Y-49884398D02*
X101730883Y-49789160D01*
X101730883Y-49789160D02*
X101778502Y-49741541D01*
X101778502Y-49741541D02*
X101873740Y-49693922D01*
X101873740Y-49693922D02*
X102159454Y-49693922D01*
X102159454Y-49693922D02*
X102254692Y-49741541D01*
X102254692Y-49741541D02*
X102302312Y-49789160D01*
X102302312Y-49789160D02*
X102349931Y-49884398D01*
X102349931Y-49884398D02*
X102349931Y-50027255D01*
X101683264Y-49265350D02*
X102349931Y-49265350D01*
X101778502Y-49265350D02*
X101730883Y-49217731D01*
X101730883Y-49217731D02*
X101683264Y-49122493D01*
X101683264Y-49122493D02*
X101683264Y-48979636D01*
X101683264Y-48979636D02*
X101730883Y-48884398D01*
X101730883Y-48884398D02*
X101826121Y-48836779D01*
X101826121Y-48836779D02*
X102349931Y-48836779D01*
X102959875Y-57074874D02*
X103959875Y-56741541D01*
X103959875Y-56741541D02*
X102959875Y-56408208D01*
X103912256Y-55693922D02*
X103959875Y-55789160D01*
X103959875Y-55789160D02*
X103959875Y-55979636D01*
X103959875Y-55979636D02*
X103912256Y-56074874D01*
X103912256Y-56074874D02*
X103817017Y-56122493D01*
X103817017Y-56122493D02*
X103436065Y-56122493D01*
X103436065Y-56122493D02*
X103340827Y-56074874D01*
X103340827Y-56074874D02*
X103293208Y-55979636D01*
X103293208Y-55979636D02*
X103293208Y-55789160D01*
X103293208Y-55789160D02*
X103340827Y-55693922D01*
X103340827Y-55693922D02*
X103436065Y-55646303D01*
X103436065Y-55646303D02*
X103531303Y-55646303D01*
X103531303Y-55646303D02*
X103626541Y-56122493D01*
X103959875Y-55217731D02*
X103293208Y-55217731D01*
X103483684Y-55217731D02*
X103388446Y-55170112D01*
X103388446Y-55170112D02*
X103340827Y-55122493D01*
X103340827Y-55122493D02*
X103293208Y-55027255D01*
X103293208Y-55027255D02*
X103293208Y-54932017D01*
X103912256Y-54646302D02*
X103959875Y-54551064D01*
X103959875Y-54551064D02*
X103959875Y-54360588D01*
X103959875Y-54360588D02*
X103912256Y-54265350D01*
X103912256Y-54265350D02*
X103817017Y-54217731D01*
X103817017Y-54217731D02*
X103769398Y-54217731D01*
X103769398Y-54217731D02*
X103674160Y-54265350D01*
X103674160Y-54265350D02*
X103626541Y-54360588D01*
X103626541Y-54360588D02*
X103626541Y-54503445D01*
X103626541Y-54503445D02*
X103578922Y-54598683D01*
X103578922Y-54598683D02*
X103483684Y-54646302D01*
X103483684Y-54646302D02*
X103436065Y-54646302D01*
X103436065Y-54646302D02*
X103340827Y-54598683D01*
X103340827Y-54598683D02*
X103293208Y-54503445D01*
X103293208Y-54503445D02*
X103293208Y-54360588D01*
X103293208Y-54360588D02*
X103340827Y-54265350D01*
X103959875Y-53789159D02*
X103293208Y-53789159D01*
X102959875Y-53789159D02*
X103007494Y-53836778D01*
X103007494Y-53836778D02*
X103055113Y-53789159D01*
X103055113Y-53789159D02*
X103007494Y-53741540D01*
X103007494Y-53741540D02*
X102959875Y-53789159D01*
X102959875Y-53789159D02*
X103055113Y-53789159D01*
X103959875Y-53170112D02*
X103912256Y-53265350D01*
X103912256Y-53265350D02*
X103864636Y-53312969D01*
X103864636Y-53312969D02*
X103769398Y-53360588D01*
X103769398Y-53360588D02*
X103483684Y-53360588D01*
X103483684Y-53360588D02*
X103388446Y-53312969D01*
X103388446Y-53312969D02*
X103340827Y-53265350D01*
X103340827Y-53265350D02*
X103293208Y-53170112D01*
X103293208Y-53170112D02*
X103293208Y-53027255D01*
X103293208Y-53027255D02*
X103340827Y-52932017D01*
X103340827Y-52932017D02*
X103388446Y-52884398D01*
X103388446Y-52884398D02*
X103483684Y-52836779D01*
X103483684Y-52836779D02*
X103769398Y-52836779D01*
X103769398Y-52836779D02*
X103864636Y-52884398D01*
X103864636Y-52884398D02*
X103912256Y-52932017D01*
X103912256Y-52932017D02*
X103959875Y-53027255D01*
X103959875Y-53027255D02*
X103959875Y-53170112D01*
X103293208Y-52408207D02*
X103959875Y-52408207D01*
X103388446Y-52408207D02*
X103340827Y-52360588D01*
X103340827Y-52360588D02*
X103293208Y-52265350D01*
X103293208Y-52265350D02*
X103293208Y-52122493D01*
X103293208Y-52122493D02*
X103340827Y-52027255D01*
X103340827Y-52027255D02*
X103436065Y-51979636D01*
X103436065Y-51979636D02*
X103959875Y-51979636D01*
X103055113Y-50789159D02*
X103007494Y-50741540D01*
X103007494Y-50741540D02*
X102959875Y-50646302D01*
X102959875Y-50646302D02*
X102959875Y-50408207D01*
X102959875Y-50408207D02*
X103007494Y-50312969D01*
X103007494Y-50312969D02*
X103055113Y-50265350D01*
X103055113Y-50265350D02*
X103150351Y-50217731D01*
X103150351Y-50217731D02*
X103245589Y-50217731D01*
X103245589Y-50217731D02*
X103388446Y-50265350D01*
X103388446Y-50265350D02*
X103959875Y-50836778D01*
X103959875Y-50836778D02*
X103959875Y-50217731D01*
X103864636Y-49789159D02*
X103912256Y-49741540D01*
X103912256Y-49741540D02*
X103959875Y-49789159D01*
X103959875Y-49789159D02*
X103912256Y-49836778D01*
X103912256Y-49836778D02*
X103864636Y-49789159D01*
X103864636Y-49789159D02*
X103959875Y-49789159D01*
X102959875Y-49122493D02*
X102959875Y-49027255D01*
X102959875Y-49027255D02*
X103007494Y-48932017D01*
X103007494Y-48932017D02*
X103055113Y-48884398D01*
X103055113Y-48884398D02*
X103150351Y-48836779D01*
X103150351Y-48836779D02*
X103340827Y-48789160D01*
X103340827Y-48789160D02*
X103578922Y-48789160D01*
X103578922Y-48789160D02*
X103769398Y-48836779D01*
X103769398Y-48836779D02*
X103864636Y-48884398D01*
X103864636Y-48884398D02*
X103912256Y-48932017D01*
X103912256Y-48932017D02*
X103959875Y-49027255D01*
X103959875Y-49027255D02*
X103959875Y-49122493D01*
X103959875Y-49122493D02*
X103912256Y-49217731D01*
X103912256Y-49217731D02*
X103864636Y-49265350D01*
X103864636Y-49265350D02*
X103769398Y-49312969D01*
X103769398Y-49312969D02*
X103578922Y-49360588D01*
X103578922Y-49360588D02*
X103340827Y-49360588D01*
X103340827Y-49360588D02*
X103150351Y-49312969D01*
X103150351Y-49312969D02*
X103055113Y-49265350D01*
X103055113Y-49265350D02*
X103007494Y-49217731D01*
X103007494Y-49217731D02*
X102959875Y-49122493D01*
X105046009Y-58360589D02*
X105093628Y-58217732D01*
X105093628Y-58217732D02*
X105141247Y-58170113D01*
X105141247Y-58170113D02*
X105236485Y-58122494D01*
X105236485Y-58122494D02*
X105379342Y-58122494D01*
X105379342Y-58122494D02*
X105474580Y-58170113D01*
X105474580Y-58170113D02*
X105522200Y-58217732D01*
X105522200Y-58217732D02*
X105569819Y-58312970D01*
X105569819Y-58312970D02*
X105569819Y-58693922D01*
X105569819Y-58693922D02*
X104569819Y-58693922D01*
X104569819Y-58693922D02*
X104569819Y-58360589D01*
X104569819Y-58360589D02*
X104617438Y-58265351D01*
X104617438Y-58265351D02*
X104665057Y-58217732D01*
X104665057Y-58217732D02*
X104760295Y-58170113D01*
X104760295Y-58170113D02*
X104855533Y-58170113D01*
X104855533Y-58170113D02*
X104950771Y-58217732D01*
X104950771Y-58217732D02*
X104998390Y-58265351D01*
X104998390Y-58265351D02*
X105046009Y-58360589D01*
X105046009Y-58360589D02*
X105046009Y-58693922D01*
X104903152Y-57789160D02*
X105569819Y-57551065D01*
X104903152Y-57312970D02*
X105569819Y-57551065D01*
X105569819Y-57551065D02*
X105807914Y-57646303D01*
X105807914Y-57646303D02*
X105855533Y-57693922D01*
X105855533Y-57693922D02*
X105903152Y-57789160D01*
X105474580Y-56932017D02*
X105522200Y-56884398D01*
X105522200Y-56884398D02*
X105569819Y-56932017D01*
X105569819Y-56932017D02*
X105522200Y-56979636D01*
X105522200Y-56979636D02*
X105474580Y-56932017D01*
X105474580Y-56932017D02*
X105569819Y-56932017D01*
X104950771Y-56932017D02*
X104998390Y-56884398D01*
X104998390Y-56884398D02*
X105046009Y-56932017D01*
X105046009Y-56932017D02*
X104998390Y-56979636D01*
X104998390Y-56979636D02*
X104950771Y-56932017D01*
X104950771Y-56932017D02*
X105046009Y-56932017D01*
X105569819Y-55122494D02*
X105093628Y-55455827D01*
X105569819Y-55693922D02*
X104569819Y-55693922D01*
X104569819Y-55693922D02*
X104569819Y-55312970D01*
X104569819Y-55312970D02*
X104617438Y-55217732D01*
X104617438Y-55217732D02*
X104665057Y-55170113D01*
X104665057Y-55170113D02*
X104760295Y-55122494D01*
X104760295Y-55122494D02*
X104903152Y-55122494D01*
X104903152Y-55122494D02*
X104998390Y-55170113D01*
X104998390Y-55170113D02*
X105046009Y-55217732D01*
X105046009Y-55217732D02*
X105093628Y-55312970D01*
X105093628Y-55312970D02*
X105093628Y-55693922D01*
X105569819Y-54265351D02*
X105046009Y-54265351D01*
X105046009Y-54265351D02*
X104950771Y-54312970D01*
X104950771Y-54312970D02*
X104903152Y-54408208D01*
X104903152Y-54408208D02*
X104903152Y-54598684D01*
X104903152Y-54598684D02*
X104950771Y-54693922D01*
X105522200Y-54265351D02*
X105569819Y-54360589D01*
X105569819Y-54360589D02*
X105569819Y-54598684D01*
X105569819Y-54598684D02*
X105522200Y-54693922D01*
X105522200Y-54693922D02*
X105426961Y-54741541D01*
X105426961Y-54741541D02*
X105331723Y-54741541D01*
X105331723Y-54741541D02*
X105236485Y-54693922D01*
X105236485Y-54693922D02*
X105188866Y-54598684D01*
X105188866Y-54598684D02*
X105188866Y-54360589D01*
X105188866Y-54360589D02*
X105141247Y-54265351D01*
X104903152Y-53789160D02*
X105569819Y-53789160D01*
X104998390Y-53789160D02*
X104950771Y-53741541D01*
X104950771Y-53741541D02*
X104903152Y-53646303D01*
X104903152Y-53646303D02*
X104903152Y-53503446D01*
X104903152Y-53503446D02*
X104950771Y-53408208D01*
X104950771Y-53408208D02*
X105046009Y-53360589D01*
X105046009Y-53360589D02*
X105569819Y-53360589D01*
X105569819Y-52455827D02*
X105046009Y-52455827D01*
X105046009Y-52455827D02*
X104950771Y-52503446D01*
X104950771Y-52503446D02*
X104903152Y-52598684D01*
X104903152Y-52598684D02*
X104903152Y-52789160D01*
X104903152Y-52789160D02*
X104950771Y-52884398D01*
X105522200Y-52455827D02*
X105569819Y-52551065D01*
X105569819Y-52551065D02*
X105569819Y-52789160D01*
X105569819Y-52789160D02*
X105522200Y-52884398D01*
X105522200Y-52884398D02*
X105426961Y-52932017D01*
X105426961Y-52932017D02*
X105331723Y-52932017D01*
X105331723Y-52932017D02*
X105236485Y-52884398D01*
X105236485Y-52884398D02*
X105188866Y-52789160D01*
X105188866Y-52789160D02*
X105188866Y-52551065D01*
X105188866Y-52551065D02*
X105141247Y-52455827D01*
X105522200Y-51265350D02*
X105569819Y-51122493D01*
X105569819Y-51122493D02*
X105569819Y-50884398D01*
X105569819Y-50884398D02*
X105522200Y-50789160D01*
X105522200Y-50789160D02*
X105474580Y-50741541D01*
X105474580Y-50741541D02*
X105379342Y-50693922D01*
X105379342Y-50693922D02*
X105284104Y-50693922D01*
X105284104Y-50693922D02*
X105188866Y-50741541D01*
X105188866Y-50741541D02*
X105141247Y-50789160D01*
X105141247Y-50789160D02*
X105093628Y-50884398D01*
X105093628Y-50884398D02*
X105046009Y-51074874D01*
X105046009Y-51074874D02*
X104998390Y-51170112D01*
X104998390Y-51170112D02*
X104950771Y-51217731D01*
X104950771Y-51217731D02*
X104855533Y-51265350D01*
X104855533Y-51265350D02*
X104760295Y-51265350D01*
X104760295Y-51265350D02*
X104665057Y-51217731D01*
X104665057Y-51217731D02*
X104617438Y-51170112D01*
X104617438Y-51170112D02*
X104569819Y-51074874D01*
X104569819Y-51074874D02*
X104569819Y-50836779D01*
X104569819Y-50836779D02*
X104617438Y-50693922D01*
X105522200Y-49884398D02*
X105569819Y-49979636D01*
X105569819Y-49979636D02*
X105569819Y-50170112D01*
X105569819Y-50170112D02*
X105522200Y-50265350D01*
X105522200Y-50265350D02*
X105426961Y-50312969D01*
X105426961Y-50312969D02*
X105046009Y-50312969D01*
X105046009Y-50312969D02*
X104950771Y-50265350D01*
X104950771Y-50265350D02*
X104903152Y-50170112D01*
X104903152Y-50170112D02*
X104903152Y-49979636D01*
X104903152Y-49979636D02*
X104950771Y-49884398D01*
X104950771Y-49884398D02*
X105046009Y-49836779D01*
X105046009Y-49836779D02*
X105141247Y-49836779D01*
X105141247Y-49836779D02*
X105236485Y-50312969D01*
X105569819Y-49408207D02*
X104903152Y-49408207D01*
X104569819Y-49408207D02*
X104617438Y-49455826D01*
X104617438Y-49455826D02*
X104665057Y-49408207D01*
X104665057Y-49408207D02*
X104617438Y-49360588D01*
X104617438Y-49360588D02*
X104569819Y-49408207D01*
X104569819Y-49408207D02*
X104665057Y-49408207D01*
X104903152Y-49074874D02*
X104903152Y-48693922D01*
X105569819Y-48932017D02*
X104712676Y-48932017D01*
X104712676Y-48932017D02*
X104617438Y-48884398D01*
X104617438Y-48884398D02*
X104569819Y-48789160D01*
X104569819Y-48789160D02*
X104569819Y-48693922D01*
X137519819Y-95137030D02*
X137519819Y-95613220D01*
X137519819Y-95613220D02*
X137996009Y-95660839D01*
X137996009Y-95660839D02*
X137948390Y-95613220D01*
X137948390Y-95613220D02*
X137900771Y-95517982D01*
X137900771Y-95517982D02*
X137900771Y-95279887D01*
X137900771Y-95279887D02*
X137948390Y-95184649D01*
X137948390Y-95184649D02*
X137996009Y-95137030D01*
X137996009Y-95137030D02*
X138091247Y-95089411D01*
X138091247Y-95089411D02*
X138329342Y-95089411D01*
X138329342Y-95089411D02*
X138424580Y-95137030D01*
X138424580Y-95137030D02*
X138472200Y-95184649D01*
X138472200Y-95184649D02*
X138519819Y-95279887D01*
X138519819Y-95279887D02*
X138519819Y-95517982D01*
X138519819Y-95517982D02*
X138472200Y-95613220D01*
X138472200Y-95613220D02*
X138424580Y-95660839D01*
X137519819Y-94803696D02*
X138519819Y-94470363D01*
X138519819Y-94470363D02*
X137519819Y-94137030D01*
X150214160Y-95459104D02*
X150690350Y-95459104D01*
X150118922Y-95744819D02*
X150452255Y-94744819D01*
X150452255Y-94744819D02*
X150785588Y-95744819D01*
X151309398Y-94744819D02*
X151404636Y-94744819D01*
X151404636Y-94744819D02*
X151499874Y-94792438D01*
X151499874Y-94792438D02*
X151547493Y-94840057D01*
X151547493Y-94840057D02*
X151595112Y-94935295D01*
X151595112Y-94935295D02*
X151642731Y-95125771D01*
X151642731Y-95125771D02*
X151642731Y-95363866D01*
X151642731Y-95363866D02*
X151595112Y-95554342D01*
X151595112Y-95554342D02*
X151547493Y-95649580D01*
X151547493Y-95649580D02*
X151499874Y-95697200D01*
X151499874Y-95697200D02*
X151404636Y-95744819D01*
X151404636Y-95744819D02*
X151309398Y-95744819D01*
X151309398Y-95744819D02*
X151214160Y-95697200D01*
X151214160Y-95697200D02*
X151166541Y-95649580D01*
X151166541Y-95649580D02*
X151118922Y-95554342D01*
X151118922Y-95554342D02*
X151071303Y-95363866D01*
X151071303Y-95363866D02*
X151071303Y-95125771D01*
X151071303Y-95125771D02*
X151118922Y-94935295D01*
X151118922Y-94935295D02*
X151166541Y-94840057D01*
X151166541Y-94840057D02*
X151214160Y-94792438D01*
X151214160Y-94792438D02*
X151309398Y-94744819D01*
X152714160Y-95484104D02*
X153190350Y-95484104D01*
X152618922Y-95769819D02*
X152952255Y-94769819D01*
X152952255Y-94769819D02*
X153285588Y-95769819D01*
X154142731Y-95769819D02*
X153571303Y-95769819D01*
X153857017Y-95769819D02*
X153857017Y-94769819D01*
X153857017Y-94769819D02*
X153761779Y-94912676D01*
X153761779Y-94912676D02*
X153666541Y-95007914D01*
X153666541Y-95007914D02*
X153571303Y-95055533D01*
X155541541Y-50944819D02*
X156160588Y-50944819D01*
X156160588Y-50944819D02*
X155827255Y-51325771D01*
X155827255Y-51325771D02*
X155970112Y-51325771D01*
X155970112Y-51325771D02*
X156065350Y-51373390D01*
X156065350Y-51373390D02*
X156112969Y-51421009D01*
X156112969Y-51421009D02*
X156160588Y-51516247D01*
X156160588Y-51516247D02*
X156160588Y-51754342D01*
X156160588Y-51754342D02*
X156112969Y-51849580D01*
X156112969Y-51849580D02*
X156065350Y-51897200D01*
X156065350Y-51897200D02*
X155970112Y-51944819D01*
X155970112Y-51944819D02*
X155684398Y-51944819D01*
X155684398Y-51944819D02*
X155589160Y-51897200D01*
X155589160Y-51897200D02*
X155541541Y-51849580D01*
X150862969Y-50919819D02*
X150386779Y-50919819D01*
X150386779Y-50919819D02*
X150339160Y-51396009D01*
X150339160Y-51396009D02*
X150386779Y-51348390D01*
X150386779Y-51348390D02*
X150482017Y-51300771D01*
X150482017Y-51300771D02*
X150720112Y-51300771D01*
X150720112Y-51300771D02*
X150815350Y-51348390D01*
X150815350Y-51348390D02*
X150862969Y-51396009D01*
X150862969Y-51396009D02*
X150910588Y-51491247D01*
X150910588Y-51491247D02*
X150910588Y-51729342D01*
X150910588Y-51729342D02*
X150862969Y-51824580D01*
X150862969Y-51824580D02*
X150815350Y-51872200D01*
X150815350Y-51872200D02*
X150720112Y-51919819D01*
X150720112Y-51919819D02*
X150482017Y-51919819D01*
X150482017Y-51919819D02*
X150386779Y-51872200D01*
X150386779Y-51872200D02*
X150339160Y-51824580D01*
X160264160Y-95484104D02*
X160740350Y-95484104D01*
X160168922Y-95769819D02*
X160502255Y-94769819D01*
X160502255Y-94769819D02*
X160835588Y-95769819D01*
X161597493Y-95103152D02*
X161597493Y-95769819D01*
X161359398Y-94722200D02*
X161121303Y-95436485D01*
X161121303Y-95436485D02*
X161740350Y-95436485D01*
X135019819Y-95683458D02*
X135019819Y-95064411D01*
X135019819Y-95064411D02*
X135400771Y-95397744D01*
X135400771Y-95397744D02*
X135400771Y-95254887D01*
X135400771Y-95254887D02*
X135448390Y-95159649D01*
X135448390Y-95159649D02*
X135496009Y-95112030D01*
X135496009Y-95112030D02*
X135591247Y-95064411D01*
X135591247Y-95064411D02*
X135829342Y-95064411D01*
X135829342Y-95064411D02*
X135924580Y-95112030D01*
X135924580Y-95112030D02*
X135972200Y-95159649D01*
X135972200Y-95159649D02*
X136019819Y-95254887D01*
X136019819Y-95254887D02*
X136019819Y-95540601D01*
X136019819Y-95540601D02*
X135972200Y-95635839D01*
X135972200Y-95635839D02*
X135924580Y-95683458D01*
X135924580Y-94635839D02*
X135972200Y-94588220D01*
X135972200Y-94588220D02*
X136019819Y-94635839D01*
X136019819Y-94635839D02*
X135972200Y-94683458D01*
X135972200Y-94683458D02*
X135924580Y-94635839D01*
X135924580Y-94635839D02*
X136019819Y-94635839D01*
X135019819Y-94254887D02*
X135019819Y-93635840D01*
X135019819Y-93635840D02*
X135400771Y-93969173D01*
X135400771Y-93969173D02*
X135400771Y-93826316D01*
X135400771Y-93826316D02*
X135448390Y-93731078D01*
X135448390Y-93731078D02*
X135496009Y-93683459D01*
X135496009Y-93683459D02*
X135591247Y-93635840D01*
X135591247Y-93635840D02*
X135829342Y-93635840D01*
X135829342Y-93635840D02*
X135924580Y-93683459D01*
X135924580Y-93683459D02*
X135972200Y-93731078D01*
X135972200Y-93731078D02*
X136019819Y-93826316D01*
X136019819Y-93826316D02*
X136019819Y-94112030D01*
X136019819Y-94112030D02*
X135972200Y-94207268D01*
X135972200Y-94207268D02*
X135924580Y-94254887D01*
X135019819Y-93350125D02*
X136019819Y-93016792D01*
X136019819Y-93016792D02*
X135019819Y-92683459D01*
X103174931Y-95288220D02*
X102174931Y-95288220D01*
X102508264Y-94812030D02*
X103174931Y-94812030D01*
X102603502Y-94812030D02*
X102555883Y-94764411D01*
X102555883Y-94764411D02*
X102508264Y-94669173D01*
X102508264Y-94669173D02*
X102508264Y-94526316D01*
X102508264Y-94526316D02*
X102555883Y-94431078D01*
X102555883Y-94431078D02*
X102651121Y-94383459D01*
X102651121Y-94383459D02*
X103174931Y-94383459D01*
X102508264Y-93288220D02*
X102508264Y-92907268D01*
X103174931Y-93145363D02*
X102317788Y-93145363D01*
X102317788Y-93145363D02*
X102222550Y-93097744D01*
X102222550Y-93097744D02*
X102174931Y-93002506D01*
X102174931Y-93002506D02*
X102174931Y-92907268D01*
X102508264Y-92145363D02*
X103174931Y-92145363D01*
X102508264Y-92573934D02*
X103032073Y-92573934D01*
X103032073Y-92573934D02*
X103127312Y-92526315D01*
X103127312Y-92526315D02*
X103174931Y-92431077D01*
X103174931Y-92431077D02*
X103174931Y-92288220D01*
X103174931Y-92288220D02*
X103127312Y-92192982D01*
X103127312Y-92192982D02*
X103079692Y-92145363D01*
X103174931Y-91526315D02*
X103127312Y-91621553D01*
X103127312Y-91621553D02*
X103032073Y-91669172D01*
X103032073Y-91669172D02*
X102174931Y-91669172D01*
X102508264Y-91288219D02*
X102508264Y-90907267D01*
X103174931Y-91145362D02*
X102317788Y-91145362D01*
X102317788Y-91145362D02*
X102222550Y-91097743D01*
X102222550Y-91097743D02*
X102174931Y-91002505D01*
X102174931Y-91002505D02*
X102174931Y-90907267D01*
X103174931Y-90573933D02*
X102508264Y-90573933D01*
X102174931Y-90573933D02*
X102222550Y-90621552D01*
X102222550Y-90621552D02*
X102270169Y-90573933D01*
X102270169Y-90573933D02*
X102222550Y-90526314D01*
X102222550Y-90526314D02*
X102174931Y-90573933D01*
X102174931Y-90573933D02*
X102270169Y-90573933D01*
X103174931Y-89954886D02*
X103127312Y-90050124D01*
X103127312Y-90050124D02*
X103032073Y-90097743D01*
X103032073Y-90097743D02*
X102174931Y-90097743D01*
X103174931Y-89431076D02*
X103127312Y-89526314D01*
X103127312Y-89526314D02*
X103032073Y-89573933D01*
X103032073Y-89573933D02*
X102174931Y-89573933D01*
X103174931Y-89050123D02*
X102508264Y-89050123D01*
X102603502Y-89050123D02*
X102555883Y-89002504D01*
X102555883Y-89002504D02*
X102508264Y-88907266D01*
X102508264Y-88907266D02*
X102508264Y-88764409D01*
X102508264Y-88764409D02*
X102555883Y-88669171D01*
X102555883Y-88669171D02*
X102651121Y-88621552D01*
X102651121Y-88621552D02*
X103174931Y-88621552D01*
X102651121Y-88621552D02*
X102555883Y-88573933D01*
X102555883Y-88573933D02*
X102508264Y-88478695D01*
X102508264Y-88478695D02*
X102508264Y-88335838D01*
X102508264Y-88335838D02*
X102555883Y-88240599D01*
X102555883Y-88240599D02*
X102651121Y-88192980D01*
X102651121Y-88192980D02*
X103174931Y-88192980D01*
X103127312Y-87335838D02*
X103174931Y-87431076D01*
X103174931Y-87431076D02*
X103174931Y-87621552D01*
X103174931Y-87621552D02*
X103127312Y-87716790D01*
X103127312Y-87716790D02*
X103032073Y-87764409D01*
X103032073Y-87764409D02*
X102651121Y-87764409D01*
X102651121Y-87764409D02*
X102555883Y-87716790D01*
X102555883Y-87716790D02*
X102508264Y-87621552D01*
X102508264Y-87621552D02*
X102508264Y-87431076D01*
X102508264Y-87431076D02*
X102555883Y-87335838D01*
X102555883Y-87335838D02*
X102651121Y-87288219D01*
X102651121Y-87288219D02*
X102746359Y-87288219D01*
X102746359Y-87288219D02*
X102841597Y-87764409D01*
X102508264Y-86859647D02*
X103174931Y-86859647D01*
X102603502Y-86859647D02*
X102555883Y-86812028D01*
X102555883Y-86812028D02*
X102508264Y-86716790D01*
X102508264Y-86716790D02*
X102508264Y-86573933D01*
X102508264Y-86573933D02*
X102555883Y-86478695D01*
X102555883Y-86478695D02*
X102651121Y-86431076D01*
X102651121Y-86431076D02*
X103174931Y-86431076D01*
X102508264Y-86097742D02*
X102508264Y-85716790D01*
X102174931Y-85954885D02*
X103032073Y-85954885D01*
X103032073Y-85954885D02*
X103127312Y-85907266D01*
X103127312Y-85907266D02*
X103174931Y-85812028D01*
X103174931Y-85812028D02*
X103174931Y-85716790D01*
X103174931Y-84478694D02*
X103127312Y-84573932D01*
X103127312Y-84573932D02*
X103079692Y-84621551D01*
X103079692Y-84621551D02*
X102984454Y-84669170D01*
X102984454Y-84669170D02*
X102698740Y-84669170D01*
X102698740Y-84669170D02*
X102603502Y-84621551D01*
X102603502Y-84621551D02*
X102555883Y-84573932D01*
X102555883Y-84573932D02*
X102508264Y-84478694D01*
X102508264Y-84478694D02*
X102508264Y-84335837D01*
X102508264Y-84335837D02*
X102555883Y-84240599D01*
X102555883Y-84240599D02*
X102603502Y-84192980D01*
X102603502Y-84192980D02*
X102698740Y-84145361D01*
X102698740Y-84145361D02*
X102984454Y-84145361D01*
X102984454Y-84145361D02*
X103079692Y-84192980D01*
X103079692Y-84192980D02*
X103127312Y-84240599D01*
X103127312Y-84240599D02*
X103174931Y-84335837D01*
X103174931Y-84335837D02*
X103174931Y-84478694D01*
X102508264Y-83859646D02*
X102508264Y-83478694D01*
X103174931Y-83716789D02*
X102317788Y-83716789D01*
X102317788Y-83716789D02*
X102222550Y-83669170D01*
X102222550Y-83669170D02*
X102174931Y-83573932D01*
X102174931Y-83573932D02*
X102174931Y-83478694D01*
X102651121Y-82050122D02*
X102651121Y-82383455D01*
X103174931Y-82383455D02*
X102174931Y-82383455D01*
X102174931Y-82383455D02*
X102174931Y-81907265D01*
X103174931Y-81526312D02*
X102508264Y-81526312D01*
X102174931Y-81526312D02*
X102222550Y-81573931D01*
X102222550Y-81573931D02*
X102270169Y-81526312D01*
X102270169Y-81526312D02*
X102222550Y-81478693D01*
X102222550Y-81478693D02*
X102174931Y-81526312D01*
X102174931Y-81526312D02*
X102270169Y-81526312D01*
X102508264Y-81050122D02*
X103174931Y-81050122D01*
X102603502Y-81050122D02*
X102555883Y-81002503D01*
X102555883Y-81002503D02*
X102508264Y-80907265D01*
X102508264Y-80907265D02*
X102508264Y-80764408D01*
X102508264Y-80764408D02*
X102555883Y-80669170D01*
X102555883Y-80669170D02*
X102651121Y-80621551D01*
X102651121Y-80621551D02*
X103174931Y-80621551D01*
X103174931Y-79716789D02*
X102651121Y-79716789D01*
X102651121Y-79716789D02*
X102555883Y-79764408D01*
X102555883Y-79764408D02*
X102508264Y-79859646D01*
X102508264Y-79859646D02*
X102508264Y-80050122D01*
X102508264Y-80050122D02*
X102555883Y-80145360D01*
X103127312Y-79716789D02*
X103174931Y-79812027D01*
X103174931Y-79812027D02*
X103174931Y-80050122D01*
X103174931Y-80050122D02*
X103127312Y-80145360D01*
X103127312Y-80145360D02*
X103032073Y-80192979D01*
X103032073Y-80192979D02*
X102936835Y-80192979D01*
X102936835Y-80192979D02*
X102841597Y-80145360D01*
X102841597Y-80145360D02*
X102793978Y-80050122D01*
X102793978Y-80050122D02*
X102793978Y-79812027D01*
X102793978Y-79812027D02*
X102746359Y-79716789D01*
X103174931Y-79097741D02*
X103127312Y-79192979D01*
X103127312Y-79192979D02*
X103032073Y-79240598D01*
X103032073Y-79240598D02*
X102174931Y-79240598D01*
X103174931Y-77954883D02*
X102174931Y-77954883D01*
X102174931Y-77954883D02*
X102174931Y-77573931D01*
X102174931Y-77573931D02*
X102222550Y-77478693D01*
X102222550Y-77478693D02*
X102270169Y-77431074D01*
X102270169Y-77431074D02*
X102365407Y-77383455D01*
X102365407Y-77383455D02*
X102508264Y-77383455D01*
X102508264Y-77383455D02*
X102603502Y-77431074D01*
X102603502Y-77431074D02*
X102651121Y-77478693D01*
X102651121Y-77478693D02*
X102698740Y-77573931D01*
X102698740Y-77573931D02*
X102698740Y-77954883D01*
X103174931Y-76954883D02*
X102508264Y-76954883D01*
X102698740Y-76954883D02*
X102603502Y-76907264D01*
X102603502Y-76907264D02*
X102555883Y-76859645D01*
X102555883Y-76859645D02*
X102508264Y-76764407D01*
X102508264Y-76764407D02*
X102508264Y-76669169D01*
X103174931Y-76192978D02*
X103127312Y-76288216D01*
X103127312Y-76288216D02*
X103079692Y-76335835D01*
X103079692Y-76335835D02*
X102984454Y-76383454D01*
X102984454Y-76383454D02*
X102698740Y-76383454D01*
X102698740Y-76383454D02*
X102603502Y-76335835D01*
X102603502Y-76335835D02*
X102555883Y-76288216D01*
X102555883Y-76288216D02*
X102508264Y-76192978D01*
X102508264Y-76192978D02*
X102508264Y-76050121D01*
X102508264Y-76050121D02*
X102555883Y-75954883D01*
X102555883Y-75954883D02*
X102603502Y-75907264D01*
X102603502Y-75907264D02*
X102698740Y-75859645D01*
X102698740Y-75859645D02*
X102984454Y-75859645D01*
X102984454Y-75859645D02*
X103079692Y-75907264D01*
X103079692Y-75907264D02*
X103127312Y-75954883D01*
X103127312Y-75954883D02*
X103174931Y-76050121D01*
X103174931Y-76050121D02*
X103174931Y-76192978D01*
X102508264Y-75431073D02*
X103365407Y-75431073D01*
X103365407Y-75431073D02*
X103460645Y-75478692D01*
X103460645Y-75478692D02*
X103508264Y-75573930D01*
X103508264Y-75573930D02*
X103508264Y-75621549D01*
X102174931Y-75431073D02*
X102222550Y-75478692D01*
X102222550Y-75478692D02*
X102270169Y-75431073D01*
X102270169Y-75431073D02*
X102222550Y-75383454D01*
X102222550Y-75383454D02*
X102174931Y-75431073D01*
X102174931Y-75431073D02*
X102270169Y-75431073D01*
X103127312Y-74573931D02*
X103174931Y-74669169D01*
X103174931Y-74669169D02*
X103174931Y-74859645D01*
X103174931Y-74859645D02*
X103127312Y-74954883D01*
X103127312Y-74954883D02*
X103032073Y-75002502D01*
X103032073Y-75002502D02*
X102651121Y-75002502D01*
X102651121Y-75002502D02*
X102555883Y-74954883D01*
X102555883Y-74954883D02*
X102508264Y-74859645D01*
X102508264Y-74859645D02*
X102508264Y-74669169D01*
X102508264Y-74669169D02*
X102555883Y-74573931D01*
X102555883Y-74573931D02*
X102651121Y-74526312D01*
X102651121Y-74526312D02*
X102746359Y-74526312D01*
X102746359Y-74526312D02*
X102841597Y-75002502D01*
X103127312Y-73669169D02*
X103174931Y-73764407D01*
X103174931Y-73764407D02*
X103174931Y-73954883D01*
X103174931Y-73954883D02*
X103127312Y-74050121D01*
X103127312Y-74050121D02*
X103079692Y-74097740D01*
X103079692Y-74097740D02*
X102984454Y-74145359D01*
X102984454Y-74145359D02*
X102698740Y-74145359D01*
X102698740Y-74145359D02*
X102603502Y-74097740D01*
X102603502Y-74097740D02*
X102555883Y-74050121D01*
X102555883Y-74050121D02*
X102508264Y-73954883D01*
X102508264Y-73954883D02*
X102508264Y-73764407D01*
X102508264Y-73764407D02*
X102555883Y-73669169D01*
X102508264Y-73383454D02*
X102508264Y-73002502D01*
X102174931Y-73240597D02*
X103032073Y-73240597D01*
X103032073Y-73240597D02*
X103127312Y-73192978D01*
X103127312Y-73192978D02*
X103174931Y-73097740D01*
X103174931Y-73097740D02*
X103174931Y-73002502D01*
X102508264Y-72050120D02*
X102508264Y-71669168D01*
X103174931Y-71907263D02*
X102317788Y-71907263D01*
X102317788Y-71907263D02*
X102222550Y-71859644D01*
X102222550Y-71859644D02*
X102174931Y-71764406D01*
X102174931Y-71764406D02*
X102174931Y-71669168D01*
X103174931Y-71192977D02*
X103127312Y-71288215D01*
X103127312Y-71288215D02*
X103079692Y-71335834D01*
X103079692Y-71335834D02*
X102984454Y-71383453D01*
X102984454Y-71383453D02*
X102698740Y-71383453D01*
X102698740Y-71383453D02*
X102603502Y-71335834D01*
X102603502Y-71335834D02*
X102555883Y-71288215D01*
X102555883Y-71288215D02*
X102508264Y-71192977D01*
X102508264Y-71192977D02*
X102508264Y-71050120D01*
X102508264Y-71050120D02*
X102555883Y-70954882D01*
X102555883Y-70954882D02*
X102603502Y-70907263D01*
X102603502Y-70907263D02*
X102698740Y-70859644D01*
X102698740Y-70859644D02*
X102984454Y-70859644D01*
X102984454Y-70859644D02*
X103079692Y-70907263D01*
X103079692Y-70907263D02*
X103127312Y-70954882D01*
X103127312Y-70954882D02*
X103174931Y-71050120D01*
X103174931Y-71050120D02*
X103174931Y-71192977D01*
X103174931Y-70431072D02*
X102508264Y-70431072D01*
X102698740Y-70431072D02*
X102603502Y-70383453D01*
X102603502Y-70383453D02*
X102555883Y-70335834D01*
X102555883Y-70335834D02*
X102508264Y-70240596D01*
X102508264Y-70240596D02*
X102508264Y-70145358D01*
X104784875Y-95288220D02*
X103784875Y-95288220D01*
X103784875Y-95288220D02*
X104499160Y-94954887D01*
X104499160Y-94954887D02*
X103784875Y-94621554D01*
X103784875Y-94621554D02*
X104784875Y-94621554D01*
X104784875Y-94145363D02*
X104118208Y-94145363D01*
X103784875Y-94145363D02*
X103832494Y-94192982D01*
X103832494Y-94192982D02*
X103880113Y-94145363D01*
X103880113Y-94145363D02*
X103832494Y-94097744D01*
X103832494Y-94097744D02*
X103784875Y-94145363D01*
X103784875Y-94145363D02*
X103880113Y-94145363D01*
X104737256Y-93240602D02*
X104784875Y-93335840D01*
X104784875Y-93335840D02*
X104784875Y-93526316D01*
X104784875Y-93526316D02*
X104737256Y-93621554D01*
X104737256Y-93621554D02*
X104689636Y-93669173D01*
X104689636Y-93669173D02*
X104594398Y-93716792D01*
X104594398Y-93716792D02*
X104308684Y-93716792D01*
X104308684Y-93716792D02*
X104213446Y-93669173D01*
X104213446Y-93669173D02*
X104165827Y-93621554D01*
X104165827Y-93621554D02*
X104118208Y-93526316D01*
X104118208Y-93526316D02*
X104118208Y-93335840D01*
X104118208Y-93335840D02*
X104165827Y-93240602D01*
X104784875Y-92812030D02*
X104118208Y-92812030D01*
X104308684Y-92812030D02*
X104213446Y-92764411D01*
X104213446Y-92764411D02*
X104165827Y-92716792D01*
X104165827Y-92716792D02*
X104118208Y-92621554D01*
X104118208Y-92621554D02*
X104118208Y-92526316D01*
X104784875Y-92050125D02*
X104737256Y-92145363D01*
X104737256Y-92145363D02*
X104689636Y-92192982D01*
X104689636Y-92192982D02*
X104594398Y-92240601D01*
X104594398Y-92240601D02*
X104308684Y-92240601D01*
X104308684Y-92240601D02*
X104213446Y-92192982D01*
X104213446Y-92192982D02*
X104165827Y-92145363D01*
X104165827Y-92145363D02*
X104118208Y-92050125D01*
X104118208Y-92050125D02*
X104118208Y-91907268D01*
X104118208Y-91907268D02*
X104165827Y-91812030D01*
X104165827Y-91812030D02*
X104213446Y-91764411D01*
X104213446Y-91764411D02*
X104308684Y-91716792D01*
X104308684Y-91716792D02*
X104594398Y-91716792D01*
X104594398Y-91716792D02*
X104689636Y-91764411D01*
X104689636Y-91764411D02*
X104737256Y-91812030D01*
X104737256Y-91812030D02*
X104784875Y-91907268D01*
X104784875Y-91907268D02*
X104784875Y-92050125D01*
X104118208Y-91288220D02*
X105118208Y-91288220D01*
X104165827Y-91288220D02*
X104118208Y-91192982D01*
X104118208Y-91192982D02*
X104118208Y-91002506D01*
X104118208Y-91002506D02*
X104165827Y-90907268D01*
X104165827Y-90907268D02*
X104213446Y-90859649D01*
X104213446Y-90859649D02*
X104308684Y-90812030D01*
X104308684Y-90812030D02*
X104594398Y-90812030D01*
X104594398Y-90812030D02*
X104689636Y-90859649D01*
X104689636Y-90859649D02*
X104737256Y-90907268D01*
X104737256Y-90907268D02*
X104784875Y-91002506D01*
X104784875Y-91002506D02*
X104784875Y-91192982D01*
X104784875Y-91192982D02*
X104737256Y-91288220D01*
X104784875Y-90383458D02*
X104118208Y-90383458D01*
X104308684Y-90383458D02*
X104213446Y-90335839D01*
X104213446Y-90335839D02*
X104165827Y-90288220D01*
X104165827Y-90288220D02*
X104118208Y-90192982D01*
X104118208Y-90192982D02*
X104118208Y-90097744D01*
X104784875Y-89621553D02*
X104737256Y-89716791D01*
X104737256Y-89716791D02*
X104689636Y-89764410D01*
X104689636Y-89764410D02*
X104594398Y-89812029D01*
X104594398Y-89812029D02*
X104308684Y-89812029D01*
X104308684Y-89812029D02*
X104213446Y-89764410D01*
X104213446Y-89764410D02*
X104165827Y-89716791D01*
X104165827Y-89716791D02*
X104118208Y-89621553D01*
X104118208Y-89621553D02*
X104118208Y-89478696D01*
X104118208Y-89478696D02*
X104165827Y-89383458D01*
X104165827Y-89383458D02*
X104213446Y-89335839D01*
X104213446Y-89335839D02*
X104308684Y-89288220D01*
X104308684Y-89288220D02*
X104594398Y-89288220D01*
X104594398Y-89288220D02*
X104689636Y-89335839D01*
X104689636Y-89335839D02*
X104737256Y-89383458D01*
X104737256Y-89383458D02*
X104784875Y-89478696D01*
X104784875Y-89478696D02*
X104784875Y-89621553D01*
X104737256Y-88431077D02*
X104784875Y-88526315D01*
X104784875Y-88526315D02*
X104784875Y-88716791D01*
X104784875Y-88716791D02*
X104737256Y-88812029D01*
X104737256Y-88812029D02*
X104689636Y-88859648D01*
X104689636Y-88859648D02*
X104594398Y-88907267D01*
X104594398Y-88907267D02*
X104308684Y-88907267D01*
X104308684Y-88907267D02*
X104213446Y-88859648D01*
X104213446Y-88859648D02*
X104165827Y-88812029D01*
X104165827Y-88812029D02*
X104118208Y-88716791D01*
X104118208Y-88716791D02*
X104118208Y-88526315D01*
X104118208Y-88526315D02*
X104165827Y-88431077D01*
X104737256Y-87621553D02*
X104784875Y-87716791D01*
X104784875Y-87716791D02*
X104784875Y-87907267D01*
X104784875Y-87907267D02*
X104737256Y-88002505D01*
X104737256Y-88002505D02*
X104642017Y-88050124D01*
X104642017Y-88050124D02*
X104261065Y-88050124D01*
X104261065Y-88050124D02*
X104165827Y-88002505D01*
X104165827Y-88002505D02*
X104118208Y-87907267D01*
X104118208Y-87907267D02*
X104118208Y-87716791D01*
X104118208Y-87716791D02*
X104165827Y-87621553D01*
X104165827Y-87621553D02*
X104261065Y-87573934D01*
X104261065Y-87573934D02*
X104356303Y-87573934D01*
X104356303Y-87573934D02*
X104451541Y-88050124D01*
X104737256Y-87192981D02*
X104784875Y-87097743D01*
X104784875Y-87097743D02*
X104784875Y-86907267D01*
X104784875Y-86907267D02*
X104737256Y-86812029D01*
X104737256Y-86812029D02*
X104642017Y-86764410D01*
X104642017Y-86764410D02*
X104594398Y-86764410D01*
X104594398Y-86764410D02*
X104499160Y-86812029D01*
X104499160Y-86812029D02*
X104451541Y-86907267D01*
X104451541Y-86907267D02*
X104451541Y-87050124D01*
X104451541Y-87050124D02*
X104403922Y-87145362D01*
X104403922Y-87145362D02*
X104308684Y-87192981D01*
X104308684Y-87192981D02*
X104261065Y-87192981D01*
X104261065Y-87192981D02*
X104165827Y-87145362D01*
X104165827Y-87145362D02*
X104118208Y-87050124D01*
X104118208Y-87050124D02*
X104118208Y-86907267D01*
X104118208Y-86907267D02*
X104165827Y-86812029D01*
X104737256Y-86383457D02*
X104784875Y-86288219D01*
X104784875Y-86288219D02*
X104784875Y-86097743D01*
X104784875Y-86097743D02*
X104737256Y-86002505D01*
X104737256Y-86002505D02*
X104642017Y-85954886D01*
X104642017Y-85954886D02*
X104594398Y-85954886D01*
X104594398Y-85954886D02*
X104499160Y-86002505D01*
X104499160Y-86002505D02*
X104451541Y-86097743D01*
X104451541Y-86097743D02*
X104451541Y-86240600D01*
X104451541Y-86240600D02*
X104403922Y-86335838D01*
X104403922Y-86335838D02*
X104308684Y-86383457D01*
X104308684Y-86383457D02*
X104261065Y-86383457D01*
X104261065Y-86383457D02*
X104165827Y-86335838D01*
X104165827Y-86335838D02*
X104118208Y-86240600D01*
X104118208Y-86240600D02*
X104118208Y-86097743D01*
X104118208Y-86097743D02*
X104165827Y-86002505D01*
X104784875Y-85383457D02*
X104737256Y-85478695D01*
X104737256Y-85478695D02*
X104689636Y-85526314D01*
X104689636Y-85526314D02*
X104594398Y-85573933D01*
X104594398Y-85573933D02*
X104308684Y-85573933D01*
X104308684Y-85573933D02*
X104213446Y-85526314D01*
X104213446Y-85526314D02*
X104165827Y-85478695D01*
X104165827Y-85478695D02*
X104118208Y-85383457D01*
X104118208Y-85383457D02*
X104118208Y-85240600D01*
X104118208Y-85240600D02*
X104165827Y-85145362D01*
X104165827Y-85145362D02*
X104213446Y-85097743D01*
X104213446Y-85097743D02*
X104308684Y-85050124D01*
X104308684Y-85050124D02*
X104594398Y-85050124D01*
X104594398Y-85050124D02*
X104689636Y-85097743D01*
X104689636Y-85097743D02*
X104737256Y-85145362D01*
X104737256Y-85145362D02*
X104784875Y-85240600D01*
X104784875Y-85240600D02*
X104784875Y-85383457D01*
X104784875Y-84621552D02*
X104118208Y-84621552D01*
X104308684Y-84621552D02*
X104213446Y-84573933D01*
X104213446Y-84573933D02*
X104165827Y-84526314D01*
X104165827Y-84526314D02*
X104118208Y-84431076D01*
X104118208Y-84431076D02*
X104118208Y-84335838D01*
X104737256Y-83288218D02*
X104784875Y-83145361D01*
X104784875Y-83145361D02*
X104784875Y-82907266D01*
X104784875Y-82907266D02*
X104737256Y-82812028D01*
X104737256Y-82812028D02*
X104689636Y-82764409D01*
X104689636Y-82764409D02*
X104594398Y-82716790D01*
X104594398Y-82716790D02*
X104499160Y-82716790D01*
X104499160Y-82716790D02*
X104403922Y-82764409D01*
X104403922Y-82764409D02*
X104356303Y-82812028D01*
X104356303Y-82812028D02*
X104308684Y-82907266D01*
X104308684Y-82907266D02*
X104261065Y-83097742D01*
X104261065Y-83097742D02*
X104213446Y-83192980D01*
X104213446Y-83192980D02*
X104165827Y-83240599D01*
X104165827Y-83240599D02*
X104070589Y-83288218D01*
X104070589Y-83288218D02*
X103975351Y-83288218D01*
X103975351Y-83288218D02*
X103880113Y-83240599D01*
X103880113Y-83240599D02*
X103832494Y-83192980D01*
X103832494Y-83192980D02*
X103784875Y-83097742D01*
X103784875Y-83097742D02*
X103784875Y-82859647D01*
X103784875Y-82859647D02*
X103832494Y-82716790D01*
X104118208Y-82383456D02*
X104784875Y-82145361D01*
X104118208Y-81907266D02*
X104784875Y-82145361D01*
X104784875Y-82145361D02*
X105022970Y-82240599D01*
X105022970Y-82240599D02*
X105070589Y-82288218D01*
X105070589Y-82288218D02*
X105118208Y-82383456D01*
X104737256Y-81573932D02*
X104784875Y-81478694D01*
X104784875Y-81478694D02*
X104784875Y-81288218D01*
X104784875Y-81288218D02*
X104737256Y-81192980D01*
X104737256Y-81192980D02*
X104642017Y-81145361D01*
X104642017Y-81145361D02*
X104594398Y-81145361D01*
X104594398Y-81145361D02*
X104499160Y-81192980D01*
X104499160Y-81192980D02*
X104451541Y-81288218D01*
X104451541Y-81288218D02*
X104451541Y-81431075D01*
X104451541Y-81431075D02*
X104403922Y-81526313D01*
X104403922Y-81526313D02*
X104308684Y-81573932D01*
X104308684Y-81573932D02*
X104261065Y-81573932D01*
X104261065Y-81573932D02*
X104165827Y-81526313D01*
X104165827Y-81526313D02*
X104118208Y-81431075D01*
X104118208Y-81431075D02*
X104118208Y-81288218D01*
X104118208Y-81288218D02*
X104165827Y-81192980D01*
X104118208Y-80859646D02*
X104118208Y-80478694D01*
X103784875Y-80716789D02*
X104642017Y-80716789D01*
X104642017Y-80716789D02*
X104737256Y-80669170D01*
X104737256Y-80669170D02*
X104784875Y-80573932D01*
X104784875Y-80573932D02*
X104784875Y-80478694D01*
X104737256Y-79764408D02*
X104784875Y-79859646D01*
X104784875Y-79859646D02*
X104784875Y-80050122D01*
X104784875Y-80050122D02*
X104737256Y-80145360D01*
X104737256Y-80145360D02*
X104642017Y-80192979D01*
X104642017Y-80192979D02*
X104261065Y-80192979D01*
X104261065Y-80192979D02*
X104165827Y-80145360D01*
X104165827Y-80145360D02*
X104118208Y-80050122D01*
X104118208Y-80050122D02*
X104118208Y-79859646D01*
X104118208Y-79859646D02*
X104165827Y-79764408D01*
X104165827Y-79764408D02*
X104261065Y-79716789D01*
X104261065Y-79716789D02*
X104356303Y-79716789D01*
X104356303Y-79716789D02*
X104451541Y-80192979D01*
X104784875Y-79288217D02*
X104118208Y-79288217D01*
X104213446Y-79288217D02*
X104165827Y-79240598D01*
X104165827Y-79240598D02*
X104118208Y-79145360D01*
X104118208Y-79145360D02*
X104118208Y-79002503D01*
X104118208Y-79002503D02*
X104165827Y-78907265D01*
X104165827Y-78907265D02*
X104261065Y-78859646D01*
X104261065Y-78859646D02*
X104784875Y-78859646D01*
X104261065Y-78859646D02*
X104165827Y-78812027D01*
X104165827Y-78812027D02*
X104118208Y-78716789D01*
X104118208Y-78716789D02*
X104118208Y-78573932D01*
X104118208Y-78573932D02*
X104165827Y-78478693D01*
X104165827Y-78478693D02*
X104261065Y-78431074D01*
X104261065Y-78431074D02*
X104784875Y-78431074D01*
X104737256Y-78002503D02*
X104784875Y-77907265D01*
X104784875Y-77907265D02*
X104784875Y-77716789D01*
X104784875Y-77716789D02*
X104737256Y-77621551D01*
X104737256Y-77621551D02*
X104642017Y-77573932D01*
X104642017Y-77573932D02*
X104594398Y-77573932D01*
X104594398Y-77573932D02*
X104499160Y-77621551D01*
X104499160Y-77621551D02*
X104451541Y-77716789D01*
X104451541Y-77716789D02*
X104451541Y-77859646D01*
X104451541Y-77859646D02*
X104403922Y-77954884D01*
X104403922Y-77954884D02*
X104308684Y-78002503D01*
X104308684Y-78002503D02*
X104261065Y-78002503D01*
X104261065Y-78002503D02*
X104165827Y-77954884D01*
X104165827Y-77954884D02*
X104118208Y-77859646D01*
X104118208Y-77859646D02*
X104118208Y-77716789D01*
X104118208Y-77716789D02*
X104165827Y-77621551D01*
X104784875Y-76383455D02*
X103784875Y-76383455D01*
X106394819Y-94859649D02*
X105871009Y-94859649D01*
X105871009Y-94859649D02*
X105775771Y-94907268D01*
X105775771Y-94907268D02*
X105728152Y-95002506D01*
X105728152Y-95002506D02*
X105728152Y-95192982D01*
X105728152Y-95192982D02*
X105775771Y-95288220D01*
X106347200Y-94859649D02*
X106394819Y-94954887D01*
X106394819Y-94954887D02*
X106394819Y-95192982D01*
X106394819Y-95192982D02*
X106347200Y-95288220D01*
X106347200Y-95288220D02*
X106251961Y-95335839D01*
X106251961Y-95335839D02*
X106156723Y-95335839D01*
X106156723Y-95335839D02*
X106061485Y-95288220D01*
X106061485Y-95288220D02*
X106013866Y-95192982D01*
X106013866Y-95192982D02*
X106013866Y-94954887D01*
X106013866Y-94954887D02*
X105966247Y-94859649D01*
X105728152Y-94526315D02*
X105728152Y-94145363D01*
X105394819Y-94383458D02*
X106251961Y-94383458D01*
X106251961Y-94383458D02*
X106347200Y-94335839D01*
X106347200Y-94335839D02*
X106394819Y-94240601D01*
X106394819Y-94240601D02*
X106394819Y-94145363D01*
X105728152Y-93192981D02*
X105728152Y-92812029D01*
X105394819Y-93050124D02*
X106251961Y-93050124D01*
X106251961Y-93050124D02*
X106347200Y-93002505D01*
X106347200Y-93002505D02*
X106394819Y-92907267D01*
X106394819Y-92907267D02*
X106394819Y-92812029D01*
X106394819Y-92478695D02*
X105394819Y-92478695D01*
X106394819Y-92050124D02*
X105871009Y-92050124D01*
X105871009Y-92050124D02*
X105775771Y-92097743D01*
X105775771Y-92097743D02*
X105728152Y-92192981D01*
X105728152Y-92192981D02*
X105728152Y-92335838D01*
X105728152Y-92335838D02*
X105775771Y-92431076D01*
X105775771Y-92431076D02*
X105823390Y-92478695D01*
X106347200Y-91192981D02*
X106394819Y-91288219D01*
X106394819Y-91288219D02*
X106394819Y-91478695D01*
X106394819Y-91478695D02*
X106347200Y-91573933D01*
X106347200Y-91573933D02*
X106251961Y-91621552D01*
X106251961Y-91621552D02*
X105871009Y-91621552D01*
X105871009Y-91621552D02*
X105775771Y-91573933D01*
X105775771Y-91573933D02*
X105728152Y-91478695D01*
X105728152Y-91478695D02*
X105728152Y-91288219D01*
X105728152Y-91288219D02*
X105775771Y-91192981D01*
X105775771Y-91192981D02*
X105871009Y-91145362D01*
X105871009Y-91145362D02*
X105966247Y-91145362D01*
X105966247Y-91145362D02*
X106061485Y-91621552D01*
X105394819Y-89954885D02*
X106204342Y-89954885D01*
X106204342Y-89954885D02*
X106299580Y-89907266D01*
X106299580Y-89907266D02*
X106347200Y-89859647D01*
X106347200Y-89859647D02*
X106394819Y-89764409D01*
X106394819Y-89764409D02*
X106394819Y-89573933D01*
X106394819Y-89573933D02*
X106347200Y-89478695D01*
X106347200Y-89478695D02*
X106299580Y-89431076D01*
X106299580Y-89431076D02*
X106204342Y-89383457D01*
X106204342Y-89383457D02*
X105394819Y-89383457D01*
X105728152Y-88907266D02*
X106394819Y-88907266D01*
X105823390Y-88907266D02*
X105775771Y-88859647D01*
X105775771Y-88859647D02*
X105728152Y-88764409D01*
X105728152Y-88764409D02*
X105728152Y-88621552D01*
X105728152Y-88621552D02*
X105775771Y-88526314D01*
X105775771Y-88526314D02*
X105871009Y-88478695D01*
X105871009Y-88478695D02*
X106394819Y-88478695D01*
X106394819Y-88002504D02*
X105728152Y-88002504D01*
X105394819Y-88002504D02*
X105442438Y-88050123D01*
X105442438Y-88050123D02*
X105490057Y-88002504D01*
X105490057Y-88002504D02*
X105442438Y-87954885D01*
X105442438Y-87954885D02*
X105394819Y-88002504D01*
X105394819Y-88002504D02*
X105490057Y-88002504D01*
X105728152Y-87621552D02*
X106394819Y-87383457D01*
X106394819Y-87383457D02*
X105728152Y-87145362D01*
X106347200Y-86383457D02*
X106394819Y-86478695D01*
X106394819Y-86478695D02*
X106394819Y-86669171D01*
X106394819Y-86669171D02*
X106347200Y-86764409D01*
X106347200Y-86764409D02*
X106251961Y-86812028D01*
X106251961Y-86812028D02*
X105871009Y-86812028D01*
X105871009Y-86812028D02*
X105775771Y-86764409D01*
X105775771Y-86764409D02*
X105728152Y-86669171D01*
X105728152Y-86669171D02*
X105728152Y-86478695D01*
X105728152Y-86478695D02*
X105775771Y-86383457D01*
X105775771Y-86383457D02*
X105871009Y-86335838D01*
X105871009Y-86335838D02*
X105966247Y-86335838D01*
X105966247Y-86335838D02*
X106061485Y-86812028D01*
X106394819Y-85907266D02*
X105728152Y-85907266D01*
X105918628Y-85907266D02*
X105823390Y-85859647D01*
X105823390Y-85859647D02*
X105775771Y-85812028D01*
X105775771Y-85812028D02*
X105728152Y-85716790D01*
X105728152Y-85716790D02*
X105728152Y-85621552D01*
X106347200Y-85335837D02*
X106394819Y-85240599D01*
X106394819Y-85240599D02*
X106394819Y-85050123D01*
X106394819Y-85050123D02*
X106347200Y-84954885D01*
X106347200Y-84954885D02*
X106251961Y-84907266D01*
X106251961Y-84907266D02*
X106204342Y-84907266D01*
X106204342Y-84907266D02*
X106109104Y-84954885D01*
X106109104Y-84954885D02*
X106061485Y-85050123D01*
X106061485Y-85050123D02*
X106061485Y-85192980D01*
X106061485Y-85192980D02*
X106013866Y-85288218D01*
X106013866Y-85288218D02*
X105918628Y-85335837D01*
X105918628Y-85335837D02*
X105871009Y-85335837D01*
X105871009Y-85335837D02*
X105775771Y-85288218D01*
X105775771Y-85288218D02*
X105728152Y-85192980D01*
X105728152Y-85192980D02*
X105728152Y-85050123D01*
X105728152Y-85050123D02*
X105775771Y-84954885D01*
X106394819Y-84478694D02*
X105728152Y-84478694D01*
X105394819Y-84478694D02*
X105442438Y-84526313D01*
X105442438Y-84526313D02*
X105490057Y-84478694D01*
X105490057Y-84478694D02*
X105442438Y-84431075D01*
X105442438Y-84431075D02*
X105394819Y-84478694D01*
X105394819Y-84478694D02*
X105490057Y-84478694D01*
X105728152Y-84145361D02*
X105728152Y-83764409D01*
X105394819Y-84002504D02*
X106251961Y-84002504D01*
X106251961Y-84002504D02*
X106347200Y-83954885D01*
X106347200Y-83954885D02*
X106394819Y-83859647D01*
X106394819Y-83859647D02*
X106394819Y-83764409D01*
X105728152Y-83526313D02*
X106394819Y-83288218D01*
X105728152Y-83050123D02*
X106394819Y-83288218D01*
X106394819Y-83288218D02*
X106632914Y-83383456D01*
X106632914Y-83383456D02*
X106680533Y-83431075D01*
X106680533Y-83431075D02*
X106728152Y-83526313D01*
X106394819Y-81764408D02*
X106347200Y-81859646D01*
X106347200Y-81859646D02*
X106299580Y-81907265D01*
X106299580Y-81907265D02*
X106204342Y-81954884D01*
X106204342Y-81954884D02*
X105918628Y-81954884D01*
X105918628Y-81954884D02*
X105823390Y-81907265D01*
X105823390Y-81907265D02*
X105775771Y-81859646D01*
X105775771Y-81859646D02*
X105728152Y-81764408D01*
X105728152Y-81764408D02*
X105728152Y-81621551D01*
X105728152Y-81621551D02*
X105775771Y-81526313D01*
X105775771Y-81526313D02*
X105823390Y-81478694D01*
X105823390Y-81478694D02*
X105918628Y-81431075D01*
X105918628Y-81431075D02*
X106204342Y-81431075D01*
X106204342Y-81431075D02*
X106299580Y-81478694D01*
X106299580Y-81478694D02*
X106347200Y-81526313D01*
X106347200Y-81526313D02*
X106394819Y-81621551D01*
X106394819Y-81621551D02*
X106394819Y-81764408D01*
X105728152Y-81145360D02*
X105728152Y-80764408D01*
X106394819Y-81002503D02*
X105537676Y-81002503D01*
X105537676Y-81002503D02*
X105442438Y-80954884D01*
X105442438Y-80954884D02*
X105394819Y-80859646D01*
X105394819Y-80859646D02*
X105394819Y-80764408D01*
X106394819Y-79669169D02*
X105394819Y-79669169D01*
X105394819Y-79669169D02*
X105394819Y-79431074D01*
X105394819Y-79431074D02*
X105442438Y-79288217D01*
X105442438Y-79288217D02*
X105537676Y-79192979D01*
X105537676Y-79192979D02*
X105632914Y-79145360D01*
X105632914Y-79145360D02*
X105823390Y-79097741D01*
X105823390Y-79097741D02*
X105966247Y-79097741D01*
X105966247Y-79097741D02*
X106156723Y-79145360D01*
X106156723Y-79145360D02*
X106251961Y-79192979D01*
X106251961Y-79192979D02*
X106347200Y-79288217D01*
X106347200Y-79288217D02*
X106394819Y-79431074D01*
X106394819Y-79431074D02*
X106394819Y-79669169D01*
X106347200Y-78288217D02*
X106394819Y-78383455D01*
X106394819Y-78383455D02*
X106394819Y-78573931D01*
X106394819Y-78573931D02*
X106347200Y-78669169D01*
X106347200Y-78669169D02*
X106251961Y-78716788D01*
X106251961Y-78716788D02*
X105871009Y-78716788D01*
X105871009Y-78716788D02*
X105775771Y-78669169D01*
X105775771Y-78669169D02*
X105728152Y-78573931D01*
X105728152Y-78573931D02*
X105728152Y-78383455D01*
X105728152Y-78383455D02*
X105775771Y-78288217D01*
X105775771Y-78288217D02*
X105871009Y-78240598D01*
X105871009Y-78240598D02*
X105966247Y-78240598D01*
X105966247Y-78240598D02*
X106061485Y-78716788D01*
X105728152Y-77812026D02*
X106394819Y-77812026D01*
X105823390Y-77812026D02*
X105775771Y-77764407D01*
X105775771Y-77764407D02*
X105728152Y-77669169D01*
X105728152Y-77669169D02*
X105728152Y-77526312D01*
X105728152Y-77526312D02*
X105775771Y-77431074D01*
X105775771Y-77431074D02*
X105871009Y-77383455D01*
X105871009Y-77383455D02*
X106394819Y-77383455D01*
X105728152Y-77002502D02*
X106394819Y-76764407D01*
X106394819Y-76764407D02*
X105728152Y-76526312D01*
X106347200Y-75764407D02*
X106394819Y-75859645D01*
X106394819Y-75859645D02*
X106394819Y-76050121D01*
X106394819Y-76050121D02*
X106347200Y-76145359D01*
X106347200Y-76145359D02*
X106251961Y-76192978D01*
X106251961Y-76192978D02*
X105871009Y-76192978D01*
X105871009Y-76192978D02*
X105775771Y-76145359D01*
X105775771Y-76145359D02*
X105728152Y-76050121D01*
X105728152Y-76050121D02*
X105728152Y-75859645D01*
X105728152Y-75859645D02*
X105775771Y-75764407D01*
X105775771Y-75764407D02*
X105871009Y-75716788D01*
X105871009Y-75716788D02*
X105966247Y-75716788D01*
X105966247Y-75716788D02*
X106061485Y-76192978D01*
X106394819Y-75288216D02*
X105728152Y-75288216D01*
X105918628Y-75288216D02*
X105823390Y-75240597D01*
X105823390Y-75240597D02*
X105775771Y-75192978D01*
X105775771Y-75192978D02*
X105728152Y-75097740D01*
X105728152Y-75097740D02*
X105728152Y-75002502D01*
X150539160Y-85397200D02*
X150682017Y-85444819D01*
X150682017Y-85444819D02*
X150920112Y-85444819D01*
X150920112Y-85444819D02*
X151015350Y-85397200D01*
X151015350Y-85397200D02*
X151062969Y-85349580D01*
X151062969Y-85349580D02*
X151110588Y-85254342D01*
X151110588Y-85254342D02*
X151110588Y-85159104D01*
X151110588Y-85159104D02*
X151062969Y-85063866D01*
X151062969Y-85063866D02*
X151015350Y-85016247D01*
X151015350Y-85016247D02*
X150920112Y-84968628D01*
X150920112Y-84968628D02*
X150729636Y-84921009D01*
X150729636Y-84921009D02*
X150634398Y-84873390D01*
X150634398Y-84873390D02*
X150586779Y-84825771D01*
X150586779Y-84825771D02*
X150539160Y-84730533D01*
X150539160Y-84730533D02*
X150539160Y-84635295D01*
X150539160Y-84635295D02*
X150586779Y-84540057D01*
X150586779Y-84540057D02*
X150634398Y-84492438D01*
X150634398Y-84492438D02*
X150729636Y-84444819D01*
X150729636Y-84444819D02*
X150967731Y-84444819D01*
X150967731Y-84444819D02*
X151110588Y-84492438D01*
X151539160Y-84921009D02*
X151872493Y-84921009D01*
X152015350Y-85444819D02*
X151539160Y-85444819D01*
X151539160Y-85444819D02*
X151539160Y-84444819D01*
X151539160Y-84444819D02*
X152015350Y-84444819D01*
X152443922Y-85444819D02*
X152443922Y-84444819D01*
X152443922Y-84444819D02*
X153015350Y-85444819D01*
X153015350Y-85444819D02*
X153015350Y-84444819D01*
X153491541Y-85063866D02*
X154253446Y-85063866D01*
X154920112Y-84444819D02*
X155015350Y-84444819D01*
X155015350Y-84444819D02*
X155110588Y-84492438D01*
X155110588Y-84492438D02*
X155158207Y-84540057D01*
X155158207Y-84540057D02*
X155205826Y-84635295D01*
X155205826Y-84635295D02*
X155253445Y-84825771D01*
X155253445Y-84825771D02*
X155253445Y-85063866D01*
X155253445Y-85063866D02*
X155205826Y-85254342D01*
X155205826Y-85254342D02*
X155158207Y-85349580D01*
X155158207Y-85349580D02*
X155110588Y-85397200D01*
X155110588Y-85397200D02*
X155015350Y-85444819D01*
X155015350Y-85444819D02*
X154920112Y-85444819D01*
X154920112Y-85444819D02*
X154824874Y-85397200D01*
X154824874Y-85397200D02*
X154777255Y-85349580D01*
X154777255Y-85349580D02*
X154729636Y-85254342D01*
X154729636Y-85254342D02*
X154682017Y-85063866D01*
X154682017Y-85063866D02*
X154682017Y-84825771D01*
X154682017Y-84825771D02*
X154729636Y-84635295D01*
X154729636Y-84635295D02*
X154777255Y-84540057D01*
X154777255Y-84540057D02*
X154824874Y-84492438D01*
X154824874Y-84492438D02*
X154920112Y-84444819D01*
X155729636Y-85444819D02*
X155920112Y-85444819D01*
X155920112Y-85444819D02*
X156015350Y-85397200D01*
X156015350Y-85397200D02*
X156062969Y-85349580D01*
X156062969Y-85349580D02*
X156158207Y-85206723D01*
X156158207Y-85206723D02*
X156205826Y-85016247D01*
X156205826Y-85016247D02*
X156205826Y-84635295D01*
X156205826Y-84635295D02*
X156158207Y-84540057D01*
X156158207Y-84540057D02*
X156110588Y-84492438D01*
X156110588Y-84492438D02*
X156015350Y-84444819D01*
X156015350Y-84444819D02*
X155824874Y-84444819D01*
X155824874Y-84444819D02*
X155729636Y-84492438D01*
X155729636Y-84492438D02*
X155682017Y-84540057D01*
X155682017Y-84540057D02*
X155634398Y-84635295D01*
X155634398Y-84635295D02*
X155634398Y-84873390D01*
X155634398Y-84873390D02*
X155682017Y-84968628D01*
X155682017Y-84968628D02*
X155729636Y-85016247D01*
X155729636Y-85016247D02*
X155824874Y-85063866D01*
X155824874Y-85063866D02*
X156015350Y-85063866D01*
X156015350Y-85063866D02*
X156110588Y-85016247D01*
X156110588Y-85016247D02*
X156158207Y-84968628D01*
X156158207Y-84968628D02*
X156205826Y-84873390D01*
X156586779Y-84540057D02*
X156634398Y-84492438D01*
X156634398Y-84492438D02*
X156729636Y-84444819D01*
X156729636Y-84444819D02*
X156967731Y-84444819D01*
X156967731Y-84444819D02*
X157062969Y-84492438D01*
X157062969Y-84492438D02*
X157110588Y-84540057D01*
X157110588Y-84540057D02*
X157158207Y-84635295D01*
X157158207Y-84635295D02*
X157158207Y-84730533D01*
X157158207Y-84730533D02*
X157110588Y-84873390D01*
X157110588Y-84873390D02*
X156539160Y-85444819D01*
X156539160Y-85444819D02*
X157158207Y-85444819D01*
X158015350Y-84444819D02*
X157824874Y-84444819D01*
X157824874Y-84444819D02*
X157729636Y-84492438D01*
X157729636Y-84492438D02*
X157682017Y-84540057D01*
X157682017Y-84540057D02*
X157586779Y-84682914D01*
X157586779Y-84682914D02*
X157539160Y-84873390D01*
X157539160Y-84873390D02*
X157539160Y-85254342D01*
X157539160Y-85254342D02*
X157586779Y-85349580D01*
X157586779Y-85349580D02*
X157634398Y-85397200D01*
X157634398Y-85397200D02*
X157729636Y-85444819D01*
X157729636Y-85444819D02*
X157920112Y-85444819D01*
X157920112Y-85444819D02*
X158015350Y-85397200D01*
X158015350Y-85397200D02*
X158062969Y-85349580D01*
X158062969Y-85349580D02*
X158110588Y-85254342D01*
X158110588Y-85254342D02*
X158110588Y-85016247D01*
X158110588Y-85016247D02*
X158062969Y-84921009D01*
X158062969Y-84921009D02*
X158015350Y-84873390D01*
X158015350Y-84873390D02*
X157920112Y-84825771D01*
X157920112Y-84825771D02*
X157729636Y-84825771D01*
X157729636Y-84825771D02*
X157634398Y-84873390D01*
X157634398Y-84873390D02*
X157586779Y-84921009D01*
X157586779Y-84921009D02*
X157539160Y-85016247D01*
X158586779Y-85444819D02*
X158777255Y-85444819D01*
X158777255Y-85444819D02*
X158872493Y-85397200D01*
X158872493Y-85397200D02*
X158920112Y-85349580D01*
X158920112Y-85349580D02*
X159015350Y-85206723D01*
X159015350Y-85206723D02*
X159062969Y-85016247D01*
X159062969Y-85016247D02*
X159062969Y-84635295D01*
X159062969Y-84635295D02*
X159015350Y-84540057D01*
X159015350Y-84540057D02*
X158967731Y-84492438D01*
X158967731Y-84492438D02*
X158872493Y-84444819D01*
X158872493Y-84444819D02*
X158682017Y-84444819D01*
X158682017Y-84444819D02*
X158586779Y-84492438D01*
X158586779Y-84492438D02*
X158539160Y-84540057D01*
X158539160Y-84540057D02*
X158491541Y-84635295D01*
X158491541Y-84635295D02*
X158491541Y-84873390D01*
X158491541Y-84873390D02*
X158539160Y-84968628D01*
X158539160Y-84968628D02*
X158586779Y-85016247D01*
X158586779Y-85016247D02*
X158682017Y-85063866D01*
X158682017Y-85063866D02*
X158872493Y-85063866D01*
X158872493Y-85063866D02*
X158967731Y-85016247D01*
X158967731Y-85016247D02*
X159015350Y-84968628D01*
X159015350Y-84968628D02*
X159062969Y-84873390D01*
X148340350Y-50919819D02*
X148149874Y-50919819D01*
X148149874Y-50919819D02*
X148054636Y-50967438D01*
X148054636Y-50967438D02*
X148007017Y-51015057D01*
X148007017Y-51015057D02*
X147911779Y-51157914D01*
X147911779Y-51157914D02*
X147864160Y-51348390D01*
X147864160Y-51348390D02*
X147864160Y-51729342D01*
X147864160Y-51729342D02*
X147911779Y-51824580D01*
X147911779Y-51824580D02*
X147959398Y-51872200D01*
X147959398Y-51872200D02*
X148054636Y-51919819D01*
X148054636Y-51919819D02*
X148245112Y-51919819D01*
X148245112Y-51919819D02*
X148340350Y-51872200D01*
X148340350Y-51872200D02*
X148387969Y-51824580D01*
X148387969Y-51824580D02*
X148435588Y-51729342D01*
X148435588Y-51729342D02*
X148435588Y-51491247D01*
X148435588Y-51491247D02*
X148387969Y-51396009D01*
X148387969Y-51396009D02*
X148340350Y-51348390D01*
X148340350Y-51348390D02*
X148245112Y-51300771D01*
X148245112Y-51300771D02*
X148054636Y-51300771D01*
X148054636Y-51300771D02*
X147959398Y-51348390D01*
X147959398Y-51348390D02*
X147911779Y-51396009D01*
X147911779Y-51396009D02*
X147864160Y-51491247D01*
X145316541Y-50919819D02*
X145983207Y-50919819D01*
X145983207Y-50919819D02*
X145554636Y-51919819D01*
X163133207Y-52019819D02*
X162799874Y-51543628D01*
X162561779Y-52019819D02*
X162561779Y-51019819D01*
X162561779Y-51019819D02*
X162942731Y-51019819D01*
X162942731Y-51019819D02*
X163037969Y-51067438D01*
X163037969Y-51067438D02*
X163085588Y-51115057D01*
X163085588Y-51115057D02*
X163133207Y-51210295D01*
X163133207Y-51210295D02*
X163133207Y-51353152D01*
X163133207Y-51353152D02*
X163085588Y-51448390D01*
X163085588Y-51448390D02*
X163037969Y-51496009D01*
X163037969Y-51496009D02*
X162942731Y-51543628D01*
X162942731Y-51543628D02*
X162561779Y-51543628D01*
X163466541Y-51019819D02*
X164133207Y-52019819D01*
X164133207Y-51019819D02*
X163466541Y-52019819D01*
X165037969Y-52019819D02*
X164466541Y-52019819D01*
X164752255Y-52019819D02*
X164752255Y-51019819D01*
X164752255Y-51019819D02*
X164657017Y-51162676D01*
X164657017Y-51162676D02*
X164561779Y-51257914D01*
X164561779Y-51257914D02*
X164466541Y-51305533D01*
X157814160Y-95509104D02*
X158290350Y-95509104D01*
X157718922Y-95794819D02*
X158052255Y-94794819D01*
X158052255Y-94794819D02*
X158385588Y-95794819D01*
X158623684Y-94794819D02*
X159242731Y-94794819D01*
X159242731Y-94794819D02*
X158909398Y-95175771D01*
X158909398Y-95175771D02*
X159052255Y-95175771D01*
X159052255Y-95175771D02*
X159147493Y-95223390D01*
X159147493Y-95223390D02*
X159195112Y-95271009D01*
X159195112Y-95271009D02*
X159242731Y-95366247D01*
X159242731Y-95366247D02*
X159242731Y-95604342D01*
X159242731Y-95604342D02*
X159195112Y-95699580D01*
X159195112Y-95699580D02*
X159147493Y-95747200D01*
X159147493Y-95747200D02*
X159052255Y-95794819D01*
X159052255Y-95794819D02*
X158766541Y-95794819D01*
X158766541Y-95794819D02*
X158671303Y-95747200D01*
X158671303Y-95747200D02*
X158623684Y-95699580D01*
X145652255Y-64969819D02*
X145842731Y-64969819D01*
X145842731Y-64969819D02*
X145937969Y-65017438D01*
X145937969Y-65017438D02*
X146033207Y-65112676D01*
X146033207Y-65112676D02*
X146080826Y-65303152D01*
X146080826Y-65303152D02*
X146080826Y-65636485D01*
X146080826Y-65636485D02*
X146033207Y-65826961D01*
X146033207Y-65826961D02*
X145937969Y-65922200D01*
X145937969Y-65922200D02*
X145842731Y-65969819D01*
X145842731Y-65969819D02*
X145652255Y-65969819D01*
X145652255Y-65969819D02*
X145557017Y-65922200D01*
X145557017Y-65922200D02*
X145461779Y-65826961D01*
X145461779Y-65826961D02*
X145414160Y-65636485D01*
X145414160Y-65636485D02*
X145414160Y-65303152D01*
X145414160Y-65303152D02*
X145461779Y-65112676D01*
X145461779Y-65112676D02*
X145557017Y-65017438D01*
X145557017Y-65017438D02*
X145652255Y-64969819D01*
X146509398Y-65303152D02*
X146509398Y-66303152D01*
X146509398Y-65350771D02*
X146604636Y-65303152D01*
X146604636Y-65303152D02*
X146795112Y-65303152D01*
X146795112Y-65303152D02*
X146890350Y-65350771D01*
X146890350Y-65350771D02*
X146937969Y-65398390D01*
X146937969Y-65398390D02*
X146985588Y-65493628D01*
X146985588Y-65493628D02*
X146985588Y-65779342D01*
X146985588Y-65779342D02*
X146937969Y-65874580D01*
X146937969Y-65874580D02*
X146890350Y-65922200D01*
X146890350Y-65922200D02*
X146795112Y-65969819D01*
X146795112Y-65969819D02*
X146604636Y-65969819D01*
X146604636Y-65969819D02*
X146509398Y-65922200D01*
X147795112Y-65922200D02*
X147699874Y-65969819D01*
X147699874Y-65969819D02*
X147509398Y-65969819D01*
X147509398Y-65969819D02*
X147414160Y-65922200D01*
X147414160Y-65922200D02*
X147366541Y-65826961D01*
X147366541Y-65826961D02*
X147366541Y-65446009D01*
X147366541Y-65446009D02*
X147414160Y-65350771D01*
X147414160Y-65350771D02*
X147509398Y-65303152D01*
X147509398Y-65303152D02*
X147699874Y-65303152D01*
X147699874Y-65303152D02*
X147795112Y-65350771D01*
X147795112Y-65350771D02*
X147842731Y-65446009D01*
X147842731Y-65446009D02*
X147842731Y-65541247D01*
X147842731Y-65541247D02*
X147366541Y-65636485D01*
X148271303Y-65303152D02*
X148271303Y-65969819D01*
X148271303Y-65398390D02*
X148318922Y-65350771D01*
X148318922Y-65350771D02*
X148414160Y-65303152D01*
X148414160Y-65303152D02*
X148557017Y-65303152D01*
X148557017Y-65303152D02*
X148652255Y-65350771D01*
X148652255Y-65350771D02*
X148699874Y-65446009D01*
X148699874Y-65446009D02*
X148699874Y-65969819D01*
X149652255Y-65969819D02*
X149176065Y-65969819D01*
X149176065Y-65969819D02*
X149176065Y-64969819D01*
X150128446Y-65969819D02*
X150033208Y-65922200D01*
X150033208Y-65922200D02*
X149985589Y-65874580D01*
X149985589Y-65874580D02*
X149937970Y-65779342D01*
X149937970Y-65779342D02*
X149937970Y-65493628D01*
X149937970Y-65493628D02*
X149985589Y-65398390D01*
X149985589Y-65398390D02*
X150033208Y-65350771D01*
X150033208Y-65350771D02*
X150128446Y-65303152D01*
X150128446Y-65303152D02*
X150271303Y-65303152D01*
X150271303Y-65303152D02*
X150366541Y-65350771D01*
X150366541Y-65350771D02*
X150414160Y-65398390D01*
X150414160Y-65398390D02*
X150461779Y-65493628D01*
X150461779Y-65493628D02*
X150461779Y-65779342D01*
X150461779Y-65779342D02*
X150414160Y-65874580D01*
X150414160Y-65874580D02*
X150366541Y-65922200D01*
X150366541Y-65922200D02*
X150271303Y-65969819D01*
X150271303Y-65969819D02*
X150128446Y-65969819D01*
X151318922Y-65303152D02*
X151318922Y-66112676D01*
X151318922Y-66112676D02*
X151271303Y-66207914D01*
X151271303Y-66207914D02*
X151223684Y-66255533D01*
X151223684Y-66255533D02*
X151128446Y-66303152D01*
X151128446Y-66303152D02*
X150985589Y-66303152D01*
X150985589Y-66303152D02*
X150890351Y-66255533D01*
X151318922Y-65922200D02*
X151223684Y-65969819D01*
X151223684Y-65969819D02*
X151033208Y-65969819D01*
X151033208Y-65969819D02*
X150937970Y-65922200D01*
X150937970Y-65922200D02*
X150890351Y-65874580D01*
X150890351Y-65874580D02*
X150842732Y-65779342D01*
X150842732Y-65779342D02*
X150842732Y-65493628D01*
X150842732Y-65493628D02*
X150890351Y-65398390D01*
X150890351Y-65398390D02*
X150937970Y-65350771D01*
X150937970Y-65350771D02*
X151033208Y-65303152D01*
X151033208Y-65303152D02*
X151223684Y-65303152D01*
X151223684Y-65303152D02*
X151318922Y-65350771D01*
X152223684Y-65303152D02*
X152223684Y-66112676D01*
X152223684Y-66112676D02*
X152176065Y-66207914D01*
X152176065Y-66207914D02*
X152128446Y-66255533D01*
X152128446Y-66255533D02*
X152033208Y-66303152D01*
X152033208Y-66303152D02*
X151890351Y-66303152D01*
X151890351Y-66303152D02*
X151795113Y-66255533D01*
X152223684Y-65922200D02*
X152128446Y-65969819D01*
X152128446Y-65969819D02*
X151937970Y-65969819D01*
X151937970Y-65969819D02*
X151842732Y-65922200D01*
X151842732Y-65922200D02*
X151795113Y-65874580D01*
X151795113Y-65874580D02*
X151747494Y-65779342D01*
X151747494Y-65779342D02*
X151747494Y-65493628D01*
X151747494Y-65493628D02*
X151795113Y-65398390D01*
X151795113Y-65398390D02*
X151842732Y-65350771D01*
X151842732Y-65350771D02*
X151937970Y-65303152D01*
X151937970Y-65303152D02*
X152128446Y-65303152D01*
X152128446Y-65303152D02*
X152223684Y-65350771D01*
X153080827Y-65922200D02*
X152985589Y-65969819D01*
X152985589Y-65969819D02*
X152795113Y-65969819D01*
X152795113Y-65969819D02*
X152699875Y-65922200D01*
X152699875Y-65922200D02*
X152652256Y-65826961D01*
X152652256Y-65826961D02*
X152652256Y-65446009D01*
X152652256Y-65446009D02*
X152699875Y-65350771D01*
X152699875Y-65350771D02*
X152795113Y-65303152D01*
X152795113Y-65303152D02*
X152985589Y-65303152D01*
X152985589Y-65303152D02*
X153080827Y-65350771D01*
X153080827Y-65350771D02*
X153128446Y-65446009D01*
X153128446Y-65446009D02*
X153128446Y-65541247D01*
X153128446Y-65541247D02*
X152652256Y-65636485D01*
X153557018Y-65969819D02*
X153557018Y-65303152D01*
X153557018Y-65493628D02*
X153604637Y-65398390D01*
X153604637Y-65398390D02*
X153652256Y-65350771D01*
X153652256Y-65350771D02*
X153747494Y-65303152D01*
X153747494Y-65303152D02*
X153842732Y-65303152D01*
X153490350Y-51303152D02*
X153490350Y-51969819D01*
X153252255Y-50922200D02*
X153014160Y-51636485D01*
X153014160Y-51636485D02*
X153633207Y-51636485D01*
X162914160Y-95409104D02*
X163390350Y-95409104D01*
X162818922Y-95694819D02*
X163152255Y-94694819D01*
X163152255Y-94694819D02*
X163485588Y-95694819D01*
X164295112Y-94694819D02*
X163818922Y-94694819D01*
X163818922Y-94694819D02*
X163771303Y-95171009D01*
X163771303Y-95171009D02*
X163818922Y-95123390D01*
X163818922Y-95123390D02*
X163914160Y-95075771D01*
X163914160Y-95075771D02*
X164152255Y-95075771D01*
X164152255Y-95075771D02*
X164247493Y-95123390D01*
X164247493Y-95123390D02*
X164295112Y-95171009D01*
X164295112Y-95171009D02*
X164342731Y-95266247D01*
X164342731Y-95266247D02*
X164342731Y-95504342D01*
X164342731Y-95504342D02*
X164295112Y-95599580D01*
X164295112Y-95599580D02*
X164247493Y-95647200D01*
X164247493Y-95647200D02*
X164152255Y-95694819D01*
X164152255Y-95694819D02*
X163914160Y-95694819D01*
X163914160Y-95694819D02*
X163818922Y-95647200D01*
X163818922Y-95647200D02*
X163771303Y-95599580D01*
X124624819Y-97793333D02*
X125339104Y-97793333D01*
X125339104Y-97793333D02*
X125481961Y-97840952D01*
X125481961Y-97840952D02*
X125577200Y-97936190D01*
X125577200Y-97936190D02*
X125624819Y-98079047D01*
X125624819Y-98079047D02*
X125624819Y-98174285D01*
X125624819Y-96793333D02*
X125624819Y-97364761D01*
X125624819Y-97079047D02*
X124624819Y-97079047D01*
X124624819Y-97079047D02*
X124767676Y-97174285D01*
X124767676Y-97174285D02*
X124862914Y-97269523D01*
X124862914Y-97269523D02*
X124910533Y-97364761D01*
X120461905Y-61004819D02*
X120461905Y-60004819D01*
X120461905Y-60004819D02*
X120700000Y-60004819D01*
X120700000Y-60004819D02*
X120842857Y-60052438D01*
X120842857Y-60052438D02*
X120938095Y-60147676D01*
X120938095Y-60147676D02*
X120985714Y-60242914D01*
X120985714Y-60242914D02*
X121033333Y-60433390D01*
X121033333Y-60433390D02*
X121033333Y-60576247D01*
X121033333Y-60576247D02*
X120985714Y-60766723D01*
X120985714Y-60766723D02*
X120938095Y-60861961D01*
X120938095Y-60861961D02*
X120842857Y-60957200D01*
X120842857Y-60957200D02*
X120700000Y-61004819D01*
X120700000Y-61004819D02*
X120461905Y-61004819D01*
X121938095Y-60004819D02*
X121461905Y-60004819D01*
X121461905Y-60004819D02*
X121414286Y-60481009D01*
X121414286Y-60481009D02*
X121461905Y-60433390D01*
X121461905Y-60433390D02*
X121557143Y-60385771D01*
X121557143Y-60385771D02*
X121795238Y-60385771D01*
X121795238Y-60385771D02*
X121890476Y-60433390D01*
X121890476Y-60433390D02*
X121938095Y-60481009D01*
X121938095Y-60481009D02*
X121985714Y-60576247D01*
X121985714Y-60576247D02*
X121985714Y-60814342D01*
X121985714Y-60814342D02*
X121938095Y-60909580D01*
X121938095Y-60909580D02*
X121890476Y-60957200D01*
X121890476Y-60957200D02*
X121795238Y-61004819D01*
X121795238Y-61004819D02*
X121557143Y-61004819D01*
X121557143Y-61004819D02*
X121461905Y-60957200D01*
X121461905Y-60957200D02*
X121414286Y-60909580D01*
X157091637Y-89503791D02*
X157091637Y-90314863D01*
X157091637Y-90314863D02*
X157139347Y-90410283D01*
X157139347Y-90410283D02*
X157187058Y-90457994D01*
X157187058Y-90457994D02*
X157282478Y-90505704D01*
X157282478Y-90505704D02*
X157473318Y-90505704D01*
X157473318Y-90505704D02*
X157568739Y-90457994D01*
X157568739Y-90457994D02*
X157616449Y-90410283D01*
X157616449Y-90410283D02*
X157664159Y-90314863D01*
X157664159Y-90314863D02*
X157664159Y-89503791D01*
X158666072Y-90505704D02*
X158093550Y-90505704D01*
X158379811Y-90505704D02*
X158379811Y-89503791D01*
X158379811Y-89503791D02*
X158284391Y-89646921D01*
X158284391Y-89646921D02*
X158188970Y-89742341D01*
X158188970Y-89742341D02*
X158093550Y-89790052D01*
X155638674Y-93629400D02*
X156210548Y-93629400D01*
X155924611Y-94630180D02*
X155924611Y-93629400D01*
X156544141Y-94630180D02*
X156544141Y-93629400D01*
X156544141Y-93629400D02*
X156877735Y-94344243D01*
X156877735Y-94344243D02*
X157211328Y-93629400D01*
X157211328Y-93629400D02*
X157211328Y-94630180D01*
X157687890Y-94630180D02*
X157687890Y-93629400D01*
X157687890Y-93629400D02*
X158069140Y-93629400D01*
X158069140Y-93629400D02*
X158164452Y-93677056D01*
X158164452Y-93677056D02*
X158212109Y-93724712D01*
X158212109Y-93724712D02*
X158259765Y-93820024D01*
X158259765Y-93820024D02*
X158259765Y-93962993D01*
X158259765Y-93962993D02*
X158212109Y-94058305D01*
X158212109Y-94058305D02*
X158164452Y-94105962D01*
X158164452Y-94105962D02*
X158069140Y-94153618D01*
X158069140Y-94153618D02*
X157687890Y-94153618D01*
X158593358Y-93629400D02*
X159212889Y-93629400D01*
X159212889Y-93629400D02*
X158879295Y-94010649D01*
X158879295Y-94010649D02*
X159022264Y-94010649D01*
X159022264Y-94010649D02*
X159117576Y-94058305D01*
X159117576Y-94058305D02*
X159165232Y-94105962D01*
X159165232Y-94105962D02*
X159212889Y-94201274D01*
X159212889Y-94201274D02*
X159212889Y-94439555D01*
X159212889Y-94439555D02*
X159165232Y-94534867D01*
X159165232Y-94534867D02*
X159117576Y-94582524D01*
X159117576Y-94582524D02*
X159022264Y-94630180D01*
X159022264Y-94630180D02*
X158736327Y-94630180D01*
X158736327Y-94630180D02*
X158641014Y-94582524D01*
X158641014Y-94582524D02*
X158593358Y-94534867D01*
X160070700Y-93629400D02*
X159880075Y-93629400D01*
X159880075Y-93629400D02*
X159784763Y-93677056D01*
X159784763Y-93677056D02*
X159737107Y-93724712D01*
X159737107Y-93724712D02*
X159641794Y-93867681D01*
X159641794Y-93867681D02*
X159594138Y-94058305D01*
X159594138Y-94058305D02*
X159594138Y-94439555D01*
X159594138Y-94439555D02*
X159641794Y-94534867D01*
X159641794Y-94534867D02*
X159689451Y-94582524D01*
X159689451Y-94582524D02*
X159784763Y-94630180D01*
X159784763Y-94630180D02*
X159975388Y-94630180D01*
X159975388Y-94630180D02*
X160070700Y-94582524D01*
X160070700Y-94582524D02*
X160118356Y-94534867D01*
X160118356Y-94534867D02*
X160166013Y-94439555D01*
X160166013Y-94439555D02*
X160166013Y-94201274D01*
X160166013Y-94201274D02*
X160118356Y-94105962D01*
X160118356Y-94105962D02*
X160070700Y-94058305D01*
X160070700Y-94058305D02*
X159975388Y-94010649D01*
X159975388Y-94010649D02*
X159784763Y-94010649D01*
X159784763Y-94010649D02*
X159689451Y-94058305D01*
X159689451Y-94058305D02*
X159641794Y-94105962D01*
X159641794Y-94105962D02*
X159594138Y-94201274D01*
X152656666Y-89104819D02*
X152656666Y-89819104D01*
X152656666Y-89819104D02*
X152609047Y-89961961D01*
X152609047Y-89961961D02*
X152513809Y-90057200D01*
X152513809Y-90057200D02*
X152370952Y-90104819D01*
X152370952Y-90104819D02*
X152275714Y-90104819D01*
X153609047Y-89104819D02*
X153132857Y-89104819D01*
X153132857Y-89104819D02*
X153085238Y-89581009D01*
X153085238Y-89581009D02*
X153132857Y-89533390D01*
X153132857Y-89533390D02*
X153228095Y-89485771D01*
X153228095Y-89485771D02*
X153466190Y-89485771D01*
X153466190Y-89485771D02*
X153561428Y-89533390D01*
X153561428Y-89533390D02*
X153609047Y-89581009D01*
X153609047Y-89581009D02*
X153656666Y-89676247D01*
X153656666Y-89676247D02*
X153656666Y-89914342D01*
X153656666Y-89914342D02*
X153609047Y-90009580D01*
X153609047Y-90009580D02*
X153561428Y-90057200D01*
X153561428Y-90057200D02*
X153466190Y-90104819D01*
X153466190Y-90104819D02*
X153228095Y-90104819D01*
X153228095Y-90104819D02*
X153132857Y-90057200D01*
X153132857Y-90057200D02*
X153085238Y-90009580D01*
X145320952Y-90004819D02*
X145320952Y-89004819D01*
X145320952Y-89004819D02*
X145559047Y-89004819D01*
X145559047Y-89004819D02*
X145701904Y-89052438D01*
X145701904Y-89052438D02*
X145797142Y-89147676D01*
X145797142Y-89147676D02*
X145844761Y-89242914D01*
X145844761Y-89242914D02*
X145892380Y-89433390D01*
X145892380Y-89433390D02*
X145892380Y-89576247D01*
X145892380Y-89576247D02*
X145844761Y-89766723D01*
X145844761Y-89766723D02*
X145797142Y-89861961D01*
X145797142Y-89861961D02*
X145701904Y-89957200D01*
X145701904Y-89957200D02*
X145559047Y-90004819D01*
X145559047Y-90004819D02*
X145320952Y-90004819D01*
X146320952Y-90004819D02*
X146320952Y-89004819D01*
X146320952Y-89481009D02*
X146892380Y-89481009D01*
X146892380Y-90004819D02*
X146892380Y-89004819D01*
X147225714Y-89004819D02*
X147797142Y-89004819D01*
X147511428Y-90004819D02*
X147511428Y-89004819D01*
X148082857Y-89100057D02*
X148130476Y-89052438D01*
X148130476Y-89052438D02*
X148225714Y-89004819D01*
X148225714Y-89004819D02*
X148463809Y-89004819D01*
X148463809Y-89004819D02*
X148559047Y-89052438D01*
X148559047Y-89052438D02*
X148606666Y-89100057D01*
X148606666Y-89100057D02*
X148654285Y-89195295D01*
X148654285Y-89195295D02*
X148654285Y-89290533D01*
X148654285Y-89290533D02*
X148606666Y-89433390D01*
X148606666Y-89433390D02*
X148035238Y-90004819D01*
X148035238Y-90004819D02*
X148654285Y-90004819D01*
X149035238Y-89100057D02*
X149082857Y-89052438D01*
X149082857Y-89052438D02*
X149178095Y-89004819D01*
X149178095Y-89004819D02*
X149416190Y-89004819D01*
X149416190Y-89004819D02*
X149511428Y-89052438D01*
X149511428Y-89052438D02*
X149559047Y-89100057D01*
X149559047Y-89100057D02*
X149606666Y-89195295D01*
X149606666Y-89195295D02*
X149606666Y-89290533D01*
X149606666Y-89290533D02*
X149559047Y-89433390D01*
X149559047Y-89433390D02*
X148987619Y-90004819D01*
X148987619Y-90004819D02*
X149606666Y-90004819D01*
X130063333Y-59754819D02*
X129730000Y-59278628D01*
X129491905Y-59754819D02*
X129491905Y-58754819D01*
X129491905Y-58754819D02*
X129872857Y-58754819D01*
X129872857Y-58754819D02*
X129968095Y-58802438D01*
X129968095Y-58802438D02*
X130015714Y-58850057D01*
X130015714Y-58850057D02*
X130063333Y-58945295D01*
X130063333Y-58945295D02*
X130063333Y-59088152D01*
X130063333Y-59088152D02*
X130015714Y-59183390D01*
X130015714Y-59183390D02*
X129968095Y-59231009D01*
X129968095Y-59231009D02*
X129872857Y-59278628D01*
X129872857Y-59278628D02*
X129491905Y-59278628D01*
X130968095Y-58754819D02*
X130491905Y-58754819D01*
X130491905Y-58754819D02*
X130444286Y-59231009D01*
X130444286Y-59231009D02*
X130491905Y-59183390D01*
X130491905Y-59183390D02*
X130587143Y-59135771D01*
X130587143Y-59135771D02*
X130825238Y-59135771D01*
X130825238Y-59135771D02*
X130920476Y-59183390D01*
X130920476Y-59183390D02*
X130968095Y-59231009D01*
X130968095Y-59231009D02*
X131015714Y-59326247D01*
X131015714Y-59326247D02*
X131015714Y-59564342D01*
X131015714Y-59564342D02*
X130968095Y-59659580D01*
X130968095Y-59659580D02*
X130920476Y-59707200D01*
X130920476Y-59707200D02*
X130825238Y-59754819D01*
X130825238Y-59754819D02*
X130587143Y-59754819D01*
X130587143Y-59754819D02*
X130491905Y-59707200D01*
X130491905Y-59707200D02*
X130444286Y-59659580D01*
X136594286Y-58704819D02*
X137213333Y-58704819D01*
X137213333Y-58704819D02*
X136880000Y-59085771D01*
X136880000Y-59085771D02*
X137022857Y-59085771D01*
X137022857Y-59085771D02*
X137118095Y-59133390D01*
X137118095Y-59133390D02*
X137165714Y-59181009D01*
X137165714Y-59181009D02*
X137213333Y-59276247D01*
X137213333Y-59276247D02*
X137213333Y-59514342D01*
X137213333Y-59514342D02*
X137165714Y-59609580D01*
X137165714Y-59609580D02*
X137118095Y-59657200D01*
X137118095Y-59657200D02*
X137022857Y-59704819D01*
X137022857Y-59704819D02*
X136737143Y-59704819D01*
X136737143Y-59704819D02*
X136641905Y-59657200D01*
X136641905Y-59657200D02*
X136594286Y-59609580D01*
X137546667Y-58704819D02*
X138165714Y-58704819D01*
X138165714Y-58704819D02*
X137832381Y-59085771D01*
X137832381Y-59085771D02*
X137975238Y-59085771D01*
X137975238Y-59085771D02*
X138070476Y-59133390D01*
X138070476Y-59133390D02*
X138118095Y-59181009D01*
X138118095Y-59181009D02*
X138165714Y-59276247D01*
X138165714Y-59276247D02*
X138165714Y-59514342D01*
X138165714Y-59514342D02*
X138118095Y-59609580D01*
X138118095Y-59609580D02*
X138070476Y-59657200D01*
X138070476Y-59657200D02*
X137975238Y-59704819D01*
X137975238Y-59704819D02*
X137689524Y-59704819D01*
X137689524Y-59704819D02*
X137594286Y-59657200D01*
X137594286Y-59657200D02*
X137546667Y-59609580D01*
X138784762Y-58704819D02*
X138880000Y-58704819D01*
X138880000Y-58704819D02*
X138975238Y-58752438D01*
X138975238Y-58752438D02*
X139022857Y-58800057D01*
X139022857Y-58800057D02*
X139070476Y-58895295D01*
X139070476Y-58895295D02*
X139118095Y-59085771D01*
X139118095Y-59085771D02*
X139118095Y-59323866D01*
X139118095Y-59323866D02*
X139070476Y-59514342D01*
X139070476Y-59514342D02*
X139022857Y-59609580D01*
X139022857Y-59609580D02*
X138975238Y-59657200D01*
X138975238Y-59657200D02*
X138880000Y-59704819D01*
X138880000Y-59704819D02*
X138784762Y-59704819D01*
X138784762Y-59704819D02*
X138689524Y-59657200D01*
X138689524Y-59657200D02*
X138641905Y-59609580D01*
X138641905Y-59609580D02*
X138594286Y-59514342D01*
X138594286Y-59514342D02*
X138546667Y-59323866D01*
X138546667Y-59323866D02*
X138546667Y-59085771D01*
X138546667Y-59085771D02*
X138594286Y-58895295D01*
X138594286Y-58895295D02*
X138641905Y-58800057D01*
X138641905Y-58800057D02*
X138689524Y-58752438D01*
X138689524Y-58752438D02*
X138784762Y-58704819D01*
X146188095Y-54879819D02*
X146188095Y-55689342D01*
X146188095Y-55689342D02*
X146235714Y-55784580D01*
X146235714Y-55784580D02*
X146283333Y-55832200D01*
X146283333Y-55832200D02*
X146378571Y-55879819D01*
X146378571Y-55879819D02*
X146569047Y-55879819D01*
X146569047Y-55879819D02*
X146664285Y-55832200D01*
X146664285Y-55832200D02*
X146711904Y-55784580D01*
X146711904Y-55784580D02*
X146759523Y-55689342D01*
X146759523Y-55689342D02*
X146759523Y-54879819D01*
X147188095Y-54975057D02*
X147235714Y-54927438D01*
X147235714Y-54927438D02*
X147330952Y-54879819D01*
X147330952Y-54879819D02*
X147569047Y-54879819D01*
X147569047Y-54879819D02*
X147664285Y-54927438D01*
X147664285Y-54927438D02*
X147711904Y-54975057D01*
X147711904Y-54975057D02*
X147759523Y-55070295D01*
X147759523Y-55070295D02*
X147759523Y-55165533D01*
X147759523Y-55165533D02*
X147711904Y-55308390D01*
X147711904Y-55308390D02*
X147140476Y-55879819D01*
X147140476Y-55879819D02*
X147759523Y-55879819D01*
X145401190Y-67904819D02*
X145401190Y-66904819D01*
X145401190Y-66904819D02*
X145639285Y-66904819D01*
X145639285Y-66904819D02*
X145782142Y-66952438D01*
X145782142Y-66952438D02*
X145877380Y-67047676D01*
X145877380Y-67047676D02*
X145924999Y-67142914D01*
X145924999Y-67142914D02*
X145972618Y-67333390D01*
X145972618Y-67333390D02*
X145972618Y-67476247D01*
X145972618Y-67476247D02*
X145924999Y-67666723D01*
X145924999Y-67666723D02*
X145877380Y-67761961D01*
X145877380Y-67761961D02*
X145782142Y-67857200D01*
X145782142Y-67857200D02*
X145639285Y-67904819D01*
X145639285Y-67904819D02*
X145401190Y-67904819D01*
X146401190Y-67381009D02*
X146734523Y-67381009D01*
X146877380Y-67904819D02*
X146401190Y-67904819D01*
X146401190Y-67904819D02*
X146401190Y-66904819D01*
X146401190Y-66904819D02*
X146877380Y-66904819D01*
X147163095Y-66904819D02*
X147496428Y-67904819D01*
X147496428Y-67904819D02*
X147829761Y-66904819D01*
X148163095Y-67523866D02*
X148925000Y-67523866D01*
X149924999Y-67904819D02*
X149353571Y-67904819D01*
X149639285Y-67904819D02*
X149639285Y-66904819D01*
X149639285Y-66904819D02*
X149544047Y-67047676D01*
X149544047Y-67047676D02*
X149448809Y-67142914D01*
X149448809Y-67142914D02*
X149353571Y-67190533D01*
X150258333Y-66904819D02*
X150877380Y-66904819D01*
X150877380Y-66904819D02*
X150544047Y-67285771D01*
X150544047Y-67285771D02*
X150686904Y-67285771D01*
X150686904Y-67285771D02*
X150782142Y-67333390D01*
X150782142Y-67333390D02*
X150829761Y-67381009D01*
X150829761Y-67381009D02*
X150877380Y-67476247D01*
X150877380Y-67476247D02*
X150877380Y-67714342D01*
X150877380Y-67714342D02*
X150829761Y-67809580D01*
X150829761Y-67809580D02*
X150782142Y-67857200D01*
X150782142Y-67857200D02*
X150686904Y-67904819D01*
X150686904Y-67904819D02*
X150401190Y-67904819D01*
X150401190Y-67904819D02*
X150305952Y-67857200D01*
X150305952Y-67857200D02*
X150258333Y-67809580D01*
X151353571Y-67904819D02*
X151544047Y-67904819D01*
X151544047Y-67904819D02*
X151639285Y-67857200D01*
X151639285Y-67857200D02*
X151686904Y-67809580D01*
X151686904Y-67809580D02*
X151782142Y-67666723D01*
X151782142Y-67666723D02*
X151829761Y-67476247D01*
X151829761Y-67476247D02*
X151829761Y-67095295D01*
X151829761Y-67095295D02*
X151782142Y-67000057D01*
X151782142Y-67000057D02*
X151734523Y-66952438D01*
X151734523Y-66952438D02*
X151639285Y-66904819D01*
X151639285Y-66904819D02*
X151448809Y-66904819D01*
X151448809Y-66904819D02*
X151353571Y-66952438D01*
X151353571Y-66952438D02*
X151305952Y-67000057D01*
X151305952Y-67000057D02*
X151258333Y-67095295D01*
X151258333Y-67095295D02*
X151258333Y-67333390D01*
X151258333Y-67333390D02*
X151305952Y-67428628D01*
X151305952Y-67428628D02*
X151353571Y-67476247D01*
X151353571Y-67476247D02*
X151448809Y-67523866D01*
X151448809Y-67523866D02*
X151639285Y-67523866D01*
X151639285Y-67523866D02*
X151734523Y-67476247D01*
X151734523Y-67476247D02*
X151782142Y-67428628D01*
X151782142Y-67428628D02*
X151829761Y-67333390D01*
X152734523Y-66904819D02*
X152258333Y-66904819D01*
X152258333Y-66904819D02*
X152210714Y-67381009D01*
X152210714Y-67381009D02*
X152258333Y-67333390D01*
X152258333Y-67333390D02*
X152353571Y-67285771D01*
X152353571Y-67285771D02*
X152591666Y-67285771D01*
X152591666Y-67285771D02*
X152686904Y-67333390D01*
X152686904Y-67333390D02*
X152734523Y-67381009D01*
X152734523Y-67381009D02*
X152782142Y-67476247D01*
X152782142Y-67476247D02*
X152782142Y-67714342D01*
X152782142Y-67714342D02*
X152734523Y-67809580D01*
X152734523Y-67809580D02*
X152686904Y-67857200D01*
X152686904Y-67857200D02*
X152591666Y-67904819D01*
X152591666Y-67904819D02*
X152353571Y-67904819D01*
X152353571Y-67904819D02*
X152258333Y-67857200D01*
X152258333Y-67857200D02*
X152210714Y-67809580D01*
X153686904Y-66904819D02*
X153210714Y-66904819D01*
X153210714Y-66904819D02*
X153163095Y-67381009D01*
X153163095Y-67381009D02*
X153210714Y-67333390D01*
X153210714Y-67333390D02*
X153305952Y-67285771D01*
X153305952Y-67285771D02*
X153544047Y-67285771D01*
X153544047Y-67285771D02*
X153639285Y-67333390D01*
X153639285Y-67333390D02*
X153686904Y-67381009D01*
X153686904Y-67381009D02*
X153734523Y-67476247D01*
X153734523Y-67476247D02*
X153734523Y-67714342D01*
X153734523Y-67714342D02*
X153686904Y-67809580D01*
X153686904Y-67809580D02*
X153639285Y-67857200D01*
X153639285Y-67857200D02*
X153544047Y-67904819D01*
X153544047Y-67904819D02*
X153305952Y-67904819D01*
X153305952Y-67904819D02*
X153210714Y-67857200D01*
X153210714Y-67857200D02*
X153163095Y-67809580D01*
D11*
X136604318Y-82824762D02*
X135334318Y-82824762D01*
X136483365Y-81494285D02*
X136543842Y-81554761D01*
X136543842Y-81554761D02*
X136604318Y-81736190D01*
X136604318Y-81736190D02*
X136604318Y-81857142D01*
X136604318Y-81857142D02*
X136543842Y-82038571D01*
X136543842Y-82038571D02*
X136422889Y-82159523D01*
X136422889Y-82159523D02*
X136301937Y-82220000D01*
X136301937Y-82220000D02*
X136060032Y-82280476D01*
X136060032Y-82280476D02*
X135878603Y-82280476D01*
X135878603Y-82280476D02*
X135636699Y-82220000D01*
X135636699Y-82220000D02*
X135515746Y-82159523D01*
X135515746Y-82159523D02*
X135394794Y-82038571D01*
X135394794Y-82038571D02*
X135334318Y-81857142D01*
X135334318Y-81857142D02*
X135334318Y-81736190D01*
X135334318Y-81736190D02*
X135394794Y-81554761D01*
X135394794Y-81554761D02*
X135455270Y-81494285D01*
X136604318Y-80284761D02*
X136604318Y-81010476D01*
X136604318Y-80647619D02*
X135334318Y-80647619D01*
X135334318Y-80647619D02*
X135515746Y-80768571D01*
X135515746Y-80768571D02*
X135636699Y-80889523D01*
X135636699Y-80889523D02*
X135697175Y-81010476D01*
D10*
X120446905Y-89004819D02*
X120446905Y-88004819D01*
X120446905Y-88004819D02*
X120685000Y-88004819D01*
X120685000Y-88004819D02*
X120827857Y-88052438D01*
X120827857Y-88052438D02*
X120923095Y-88147676D01*
X120923095Y-88147676D02*
X120970714Y-88242914D01*
X120970714Y-88242914D02*
X121018333Y-88433390D01*
X121018333Y-88433390D02*
X121018333Y-88576247D01*
X121018333Y-88576247D02*
X120970714Y-88766723D01*
X120970714Y-88766723D02*
X120923095Y-88861961D01*
X120923095Y-88861961D02*
X120827857Y-88957200D01*
X120827857Y-88957200D02*
X120685000Y-89004819D01*
X120685000Y-89004819D02*
X120446905Y-89004819D01*
X121970714Y-89004819D02*
X121399286Y-89004819D01*
X121685000Y-89004819D02*
X121685000Y-88004819D01*
X121685000Y-88004819D02*
X121589762Y-88147676D01*
X121589762Y-88147676D02*
X121494524Y-88242914D01*
X121494524Y-88242914D02*
X121399286Y-88290533D01*
X130083333Y-72754819D02*
X129750000Y-72278628D01*
X129511905Y-72754819D02*
X129511905Y-71754819D01*
X129511905Y-71754819D02*
X129892857Y-71754819D01*
X129892857Y-71754819D02*
X129988095Y-71802438D01*
X129988095Y-71802438D02*
X130035714Y-71850057D01*
X130035714Y-71850057D02*
X130083333Y-71945295D01*
X130083333Y-71945295D02*
X130083333Y-72088152D01*
X130083333Y-72088152D02*
X130035714Y-72183390D01*
X130035714Y-72183390D02*
X129988095Y-72231009D01*
X129988095Y-72231009D02*
X129892857Y-72278628D01*
X129892857Y-72278628D02*
X129511905Y-72278628D01*
X131035714Y-72754819D02*
X130464286Y-72754819D01*
X130750000Y-72754819D02*
X130750000Y-71754819D01*
X130750000Y-71754819D02*
X130654762Y-71897676D01*
X130654762Y-71897676D02*
X130559524Y-71992914D01*
X130559524Y-71992914D02*
X130464286Y-72040533D01*
X136634286Y-71804819D02*
X137253333Y-71804819D01*
X137253333Y-71804819D02*
X136920000Y-72185771D01*
X136920000Y-72185771D02*
X137062857Y-72185771D01*
X137062857Y-72185771D02*
X137158095Y-72233390D01*
X137158095Y-72233390D02*
X137205714Y-72281009D01*
X137205714Y-72281009D02*
X137253333Y-72376247D01*
X137253333Y-72376247D02*
X137253333Y-72614342D01*
X137253333Y-72614342D02*
X137205714Y-72709580D01*
X137205714Y-72709580D02*
X137158095Y-72757200D01*
X137158095Y-72757200D02*
X137062857Y-72804819D01*
X137062857Y-72804819D02*
X136777143Y-72804819D01*
X136777143Y-72804819D02*
X136681905Y-72757200D01*
X136681905Y-72757200D02*
X136634286Y-72709580D01*
X137586667Y-71804819D02*
X138205714Y-71804819D01*
X138205714Y-71804819D02*
X137872381Y-72185771D01*
X137872381Y-72185771D02*
X138015238Y-72185771D01*
X138015238Y-72185771D02*
X138110476Y-72233390D01*
X138110476Y-72233390D02*
X138158095Y-72281009D01*
X138158095Y-72281009D02*
X138205714Y-72376247D01*
X138205714Y-72376247D02*
X138205714Y-72614342D01*
X138205714Y-72614342D02*
X138158095Y-72709580D01*
X138158095Y-72709580D02*
X138110476Y-72757200D01*
X138110476Y-72757200D02*
X138015238Y-72804819D01*
X138015238Y-72804819D02*
X137729524Y-72804819D01*
X137729524Y-72804819D02*
X137634286Y-72757200D01*
X137634286Y-72757200D02*
X137586667Y-72709580D01*
X138824762Y-71804819D02*
X138920000Y-71804819D01*
X138920000Y-71804819D02*
X139015238Y-71852438D01*
X139015238Y-71852438D02*
X139062857Y-71900057D01*
X139062857Y-71900057D02*
X139110476Y-71995295D01*
X139110476Y-71995295D02*
X139158095Y-72185771D01*
X139158095Y-72185771D02*
X139158095Y-72423866D01*
X139158095Y-72423866D02*
X139110476Y-72614342D01*
X139110476Y-72614342D02*
X139062857Y-72709580D01*
X139062857Y-72709580D02*
X139015238Y-72757200D01*
X139015238Y-72757200D02*
X138920000Y-72804819D01*
X138920000Y-72804819D02*
X138824762Y-72804819D01*
X138824762Y-72804819D02*
X138729524Y-72757200D01*
X138729524Y-72757200D02*
X138681905Y-72709580D01*
X138681905Y-72709580D02*
X138634286Y-72614342D01*
X138634286Y-72614342D02*
X138586667Y-72423866D01*
X138586667Y-72423866D02*
X138586667Y-72185771D01*
X138586667Y-72185771D02*
X138634286Y-71995295D01*
X138634286Y-71995295D02*
X138681905Y-71900057D01*
X138681905Y-71900057D02*
X138729524Y-71852438D01*
X138729524Y-71852438D02*
X138824762Y-71804819D01*
X130093333Y-66304819D02*
X129760000Y-65828628D01*
X129521905Y-66304819D02*
X129521905Y-65304819D01*
X129521905Y-65304819D02*
X129902857Y-65304819D01*
X129902857Y-65304819D02*
X129998095Y-65352438D01*
X129998095Y-65352438D02*
X130045714Y-65400057D01*
X130045714Y-65400057D02*
X130093333Y-65495295D01*
X130093333Y-65495295D02*
X130093333Y-65638152D01*
X130093333Y-65638152D02*
X130045714Y-65733390D01*
X130045714Y-65733390D02*
X129998095Y-65781009D01*
X129998095Y-65781009D02*
X129902857Y-65828628D01*
X129902857Y-65828628D02*
X129521905Y-65828628D01*
X130426667Y-65304819D02*
X131045714Y-65304819D01*
X131045714Y-65304819D02*
X130712381Y-65685771D01*
X130712381Y-65685771D02*
X130855238Y-65685771D01*
X130855238Y-65685771D02*
X130950476Y-65733390D01*
X130950476Y-65733390D02*
X130998095Y-65781009D01*
X130998095Y-65781009D02*
X131045714Y-65876247D01*
X131045714Y-65876247D02*
X131045714Y-66114342D01*
X131045714Y-66114342D02*
X130998095Y-66209580D01*
X130998095Y-66209580D02*
X130950476Y-66257200D01*
X130950476Y-66257200D02*
X130855238Y-66304819D01*
X130855238Y-66304819D02*
X130569524Y-66304819D01*
X130569524Y-66304819D02*
X130474286Y-66257200D01*
X130474286Y-66257200D02*
X130426667Y-66209580D01*
X136654286Y-65304819D02*
X137273333Y-65304819D01*
X137273333Y-65304819D02*
X136940000Y-65685771D01*
X136940000Y-65685771D02*
X137082857Y-65685771D01*
X137082857Y-65685771D02*
X137178095Y-65733390D01*
X137178095Y-65733390D02*
X137225714Y-65781009D01*
X137225714Y-65781009D02*
X137273333Y-65876247D01*
X137273333Y-65876247D02*
X137273333Y-66114342D01*
X137273333Y-66114342D02*
X137225714Y-66209580D01*
X137225714Y-66209580D02*
X137178095Y-66257200D01*
X137178095Y-66257200D02*
X137082857Y-66304819D01*
X137082857Y-66304819D02*
X136797143Y-66304819D01*
X136797143Y-66304819D02*
X136701905Y-66257200D01*
X136701905Y-66257200D02*
X136654286Y-66209580D01*
X137606667Y-65304819D02*
X138225714Y-65304819D01*
X138225714Y-65304819D02*
X137892381Y-65685771D01*
X137892381Y-65685771D02*
X138035238Y-65685771D01*
X138035238Y-65685771D02*
X138130476Y-65733390D01*
X138130476Y-65733390D02*
X138178095Y-65781009D01*
X138178095Y-65781009D02*
X138225714Y-65876247D01*
X138225714Y-65876247D02*
X138225714Y-66114342D01*
X138225714Y-66114342D02*
X138178095Y-66209580D01*
X138178095Y-66209580D02*
X138130476Y-66257200D01*
X138130476Y-66257200D02*
X138035238Y-66304819D01*
X138035238Y-66304819D02*
X137749524Y-66304819D01*
X137749524Y-66304819D02*
X137654286Y-66257200D01*
X137654286Y-66257200D02*
X137606667Y-66209580D01*
X138844762Y-65304819D02*
X138940000Y-65304819D01*
X138940000Y-65304819D02*
X139035238Y-65352438D01*
X139035238Y-65352438D02*
X139082857Y-65400057D01*
X139082857Y-65400057D02*
X139130476Y-65495295D01*
X139130476Y-65495295D02*
X139178095Y-65685771D01*
X139178095Y-65685771D02*
X139178095Y-65923866D01*
X139178095Y-65923866D02*
X139130476Y-66114342D01*
X139130476Y-66114342D02*
X139082857Y-66209580D01*
X139082857Y-66209580D02*
X139035238Y-66257200D01*
X139035238Y-66257200D02*
X138940000Y-66304819D01*
X138940000Y-66304819D02*
X138844762Y-66304819D01*
X138844762Y-66304819D02*
X138749524Y-66257200D01*
X138749524Y-66257200D02*
X138701905Y-66209580D01*
X138701905Y-66209580D02*
X138654286Y-66114342D01*
X138654286Y-66114342D02*
X138606667Y-65923866D01*
X138606667Y-65923866D02*
X138606667Y-65685771D01*
X138606667Y-65685771D02*
X138654286Y-65495295D01*
X138654286Y-65495295D02*
X138701905Y-65400057D01*
X138701905Y-65400057D02*
X138749524Y-65352438D01*
X138749524Y-65352438D02*
X138844762Y-65304819D01*
X120396905Y-53954819D02*
X120396905Y-52954819D01*
X120396905Y-52954819D02*
X120635000Y-52954819D01*
X120635000Y-52954819D02*
X120777857Y-53002438D01*
X120777857Y-53002438D02*
X120873095Y-53097676D01*
X120873095Y-53097676D02*
X120920714Y-53192914D01*
X120920714Y-53192914D02*
X120968333Y-53383390D01*
X120968333Y-53383390D02*
X120968333Y-53526247D01*
X120968333Y-53526247D02*
X120920714Y-53716723D01*
X120920714Y-53716723D02*
X120873095Y-53811961D01*
X120873095Y-53811961D02*
X120777857Y-53907200D01*
X120777857Y-53907200D02*
X120635000Y-53954819D01*
X120635000Y-53954819D02*
X120396905Y-53954819D01*
X121825476Y-52954819D02*
X121635000Y-52954819D01*
X121635000Y-52954819D02*
X121539762Y-53002438D01*
X121539762Y-53002438D02*
X121492143Y-53050057D01*
X121492143Y-53050057D02*
X121396905Y-53192914D01*
X121396905Y-53192914D02*
X121349286Y-53383390D01*
X121349286Y-53383390D02*
X121349286Y-53764342D01*
X121349286Y-53764342D02*
X121396905Y-53859580D01*
X121396905Y-53859580D02*
X121444524Y-53907200D01*
X121444524Y-53907200D02*
X121539762Y-53954819D01*
X121539762Y-53954819D02*
X121730238Y-53954819D01*
X121730238Y-53954819D02*
X121825476Y-53907200D01*
X121825476Y-53907200D02*
X121873095Y-53859580D01*
X121873095Y-53859580D02*
X121920714Y-53764342D01*
X121920714Y-53764342D02*
X121920714Y-53526247D01*
X121920714Y-53526247D02*
X121873095Y-53431009D01*
X121873095Y-53431009D02*
X121825476Y-53383390D01*
X121825476Y-53383390D02*
X121730238Y-53335771D01*
X121730238Y-53335771D02*
X121539762Y-53335771D01*
X121539762Y-53335771D02*
X121444524Y-53383390D01*
X121444524Y-53383390D02*
X121396905Y-53431009D01*
X121396905Y-53431009D02*
X121349286Y-53526247D01*
X120561905Y-75004819D02*
X120561905Y-74004819D01*
X120561905Y-74004819D02*
X120800000Y-74004819D01*
X120800000Y-74004819D02*
X120942857Y-74052438D01*
X120942857Y-74052438D02*
X121038095Y-74147676D01*
X121038095Y-74147676D02*
X121085714Y-74242914D01*
X121085714Y-74242914D02*
X121133333Y-74433390D01*
X121133333Y-74433390D02*
X121133333Y-74576247D01*
X121133333Y-74576247D02*
X121085714Y-74766723D01*
X121085714Y-74766723D02*
X121038095Y-74861961D01*
X121038095Y-74861961D02*
X120942857Y-74957200D01*
X120942857Y-74957200D02*
X120800000Y-75004819D01*
X120800000Y-75004819D02*
X120561905Y-75004819D01*
X121466667Y-74004819D02*
X122085714Y-74004819D01*
X122085714Y-74004819D02*
X121752381Y-74385771D01*
X121752381Y-74385771D02*
X121895238Y-74385771D01*
X121895238Y-74385771D02*
X121990476Y-74433390D01*
X121990476Y-74433390D02*
X122038095Y-74481009D01*
X122038095Y-74481009D02*
X122085714Y-74576247D01*
X122085714Y-74576247D02*
X122085714Y-74814342D01*
X122085714Y-74814342D02*
X122038095Y-74909580D01*
X122038095Y-74909580D02*
X121990476Y-74957200D01*
X121990476Y-74957200D02*
X121895238Y-75004819D01*
X121895238Y-75004819D02*
X121609524Y-75004819D01*
X121609524Y-75004819D02*
X121514286Y-74957200D01*
X121514286Y-74957200D02*
X121466667Y-74909580D01*
X130083333Y-69554819D02*
X129750000Y-69078628D01*
X129511905Y-69554819D02*
X129511905Y-68554819D01*
X129511905Y-68554819D02*
X129892857Y-68554819D01*
X129892857Y-68554819D02*
X129988095Y-68602438D01*
X129988095Y-68602438D02*
X130035714Y-68650057D01*
X130035714Y-68650057D02*
X130083333Y-68745295D01*
X130083333Y-68745295D02*
X130083333Y-68888152D01*
X130083333Y-68888152D02*
X130035714Y-68983390D01*
X130035714Y-68983390D02*
X129988095Y-69031009D01*
X129988095Y-69031009D02*
X129892857Y-69078628D01*
X129892857Y-69078628D02*
X129511905Y-69078628D01*
X130464286Y-68650057D02*
X130511905Y-68602438D01*
X130511905Y-68602438D02*
X130607143Y-68554819D01*
X130607143Y-68554819D02*
X130845238Y-68554819D01*
X130845238Y-68554819D02*
X130940476Y-68602438D01*
X130940476Y-68602438D02*
X130988095Y-68650057D01*
X130988095Y-68650057D02*
X131035714Y-68745295D01*
X131035714Y-68745295D02*
X131035714Y-68840533D01*
X131035714Y-68840533D02*
X130988095Y-68983390D01*
X130988095Y-68983390D02*
X130416667Y-69554819D01*
X130416667Y-69554819D02*
X131035714Y-69554819D01*
X136644286Y-68504819D02*
X137263333Y-68504819D01*
X137263333Y-68504819D02*
X136930000Y-68885771D01*
X136930000Y-68885771D02*
X137072857Y-68885771D01*
X137072857Y-68885771D02*
X137168095Y-68933390D01*
X137168095Y-68933390D02*
X137215714Y-68981009D01*
X137215714Y-68981009D02*
X137263333Y-69076247D01*
X137263333Y-69076247D02*
X137263333Y-69314342D01*
X137263333Y-69314342D02*
X137215714Y-69409580D01*
X137215714Y-69409580D02*
X137168095Y-69457200D01*
X137168095Y-69457200D02*
X137072857Y-69504819D01*
X137072857Y-69504819D02*
X136787143Y-69504819D01*
X136787143Y-69504819D02*
X136691905Y-69457200D01*
X136691905Y-69457200D02*
X136644286Y-69409580D01*
X137596667Y-68504819D02*
X138215714Y-68504819D01*
X138215714Y-68504819D02*
X137882381Y-68885771D01*
X137882381Y-68885771D02*
X138025238Y-68885771D01*
X138025238Y-68885771D02*
X138120476Y-68933390D01*
X138120476Y-68933390D02*
X138168095Y-68981009D01*
X138168095Y-68981009D02*
X138215714Y-69076247D01*
X138215714Y-69076247D02*
X138215714Y-69314342D01*
X138215714Y-69314342D02*
X138168095Y-69409580D01*
X138168095Y-69409580D02*
X138120476Y-69457200D01*
X138120476Y-69457200D02*
X138025238Y-69504819D01*
X138025238Y-69504819D02*
X137739524Y-69504819D01*
X137739524Y-69504819D02*
X137644286Y-69457200D01*
X137644286Y-69457200D02*
X137596667Y-69409580D01*
X138834762Y-68504819D02*
X138930000Y-68504819D01*
X138930000Y-68504819D02*
X139025238Y-68552438D01*
X139025238Y-68552438D02*
X139072857Y-68600057D01*
X139072857Y-68600057D02*
X139120476Y-68695295D01*
X139120476Y-68695295D02*
X139168095Y-68885771D01*
X139168095Y-68885771D02*
X139168095Y-69123866D01*
X139168095Y-69123866D02*
X139120476Y-69314342D01*
X139120476Y-69314342D02*
X139072857Y-69409580D01*
X139072857Y-69409580D02*
X139025238Y-69457200D01*
X139025238Y-69457200D02*
X138930000Y-69504819D01*
X138930000Y-69504819D02*
X138834762Y-69504819D01*
X138834762Y-69504819D02*
X138739524Y-69457200D01*
X138739524Y-69457200D02*
X138691905Y-69409580D01*
X138691905Y-69409580D02*
X138644286Y-69314342D01*
X138644286Y-69314342D02*
X138596667Y-69123866D01*
X138596667Y-69123866D02*
X138596667Y-68885771D01*
X138596667Y-68885771D02*
X138644286Y-68695295D01*
X138644286Y-68695295D02*
X138691905Y-68600057D01*
X138691905Y-68600057D02*
X138739524Y-68552438D01*
X138739524Y-68552438D02*
X138834762Y-68504819D01*
X130083333Y-63004819D02*
X129750000Y-62528628D01*
X129511905Y-63004819D02*
X129511905Y-62004819D01*
X129511905Y-62004819D02*
X129892857Y-62004819D01*
X129892857Y-62004819D02*
X129988095Y-62052438D01*
X129988095Y-62052438D02*
X130035714Y-62100057D01*
X130035714Y-62100057D02*
X130083333Y-62195295D01*
X130083333Y-62195295D02*
X130083333Y-62338152D01*
X130083333Y-62338152D02*
X130035714Y-62433390D01*
X130035714Y-62433390D02*
X129988095Y-62481009D01*
X129988095Y-62481009D02*
X129892857Y-62528628D01*
X129892857Y-62528628D02*
X129511905Y-62528628D01*
X130940476Y-62338152D02*
X130940476Y-63004819D01*
X130702381Y-61957200D02*
X130464286Y-62671485D01*
X130464286Y-62671485D02*
X131083333Y-62671485D01*
X136594286Y-61954819D02*
X137213333Y-61954819D01*
X137213333Y-61954819D02*
X136880000Y-62335771D01*
X136880000Y-62335771D02*
X137022857Y-62335771D01*
X137022857Y-62335771D02*
X137118095Y-62383390D01*
X137118095Y-62383390D02*
X137165714Y-62431009D01*
X137165714Y-62431009D02*
X137213333Y-62526247D01*
X137213333Y-62526247D02*
X137213333Y-62764342D01*
X137213333Y-62764342D02*
X137165714Y-62859580D01*
X137165714Y-62859580D02*
X137118095Y-62907200D01*
X137118095Y-62907200D02*
X137022857Y-62954819D01*
X137022857Y-62954819D02*
X136737143Y-62954819D01*
X136737143Y-62954819D02*
X136641905Y-62907200D01*
X136641905Y-62907200D02*
X136594286Y-62859580D01*
X137546667Y-61954819D02*
X138165714Y-61954819D01*
X138165714Y-61954819D02*
X137832381Y-62335771D01*
X137832381Y-62335771D02*
X137975238Y-62335771D01*
X137975238Y-62335771D02*
X138070476Y-62383390D01*
X138070476Y-62383390D02*
X138118095Y-62431009D01*
X138118095Y-62431009D02*
X138165714Y-62526247D01*
X138165714Y-62526247D02*
X138165714Y-62764342D01*
X138165714Y-62764342D02*
X138118095Y-62859580D01*
X138118095Y-62859580D02*
X138070476Y-62907200D01*
X138070476Y-62907200D02*
X137975238Y-62954819D01*
X137975238Y-62954819D02*
X137689524Y-62954819D01*
X137689524Y-62954819D02*
X137594286Y-62907200D01*
X137594286Y-62907200D02*
X137546667Y-62859580D01*
X138784762Y-61954819D02*
X138880000Y-61954819D01*
X138880000Y-61954819D02*
X138975238Y-62002438D01*
X138975238Y-62002438D02*
X139022857Y-62050057D01*
X139022857Y-62050057D02*
X139070476Y-62145295D01*
X139070476Y-62145295D02*
X139118095Y-62335771D01*
X139118095Y-62335771D02*
X139118095Y-62573866D01*
X139118095Y-62573866D02*
X139070476Y-62764342D01*
X139070476Y-62764342D02*
X139022857Y-62859580D01*
X139022857Y-62859580D02*
X138975238Y-62907200D01*
X138975238Y-62907200D02*
X138880000Y-62954819D01*
X138880000Y-62954819D02*
X138784762Y-62954819D01*
X138784762Y-62954819D02*
X138689524Y-62907200D01*
X138689524Y-62907200D02*
X138641905Y-62859580D01*
X138641905Y-62859580D02*
X138594286Y-62764342D01*
X138594286Y-62764342D02*
X138546667Y-62573866D01*
X138546667Y-62573866D02*
X138546667Y-62335771D01*
X138546667Y-62335771D02*
X138594286Y-62145295D01*
X138594286Y-62145295D02*
X138641905Y-62050057D01*
X138641905Y-62050057D02*
X138689524Y-62002438D01*
X138689524Y-62002438D02*
X138784762Y-61954819D01*
X150266666Y-69904819D02*
X150266666Y-70619104D01*
X150266666Y-70619104D02*
X150219047Y-70761961D01*
X150219047Y-70761961D02*
X150123809Y-70857200D01*
X150123809Y-70857200D02*
X149980952Y-70904819D01*
X149980952Y-70904819D02*
X149885714Y-70904819D01*
X151171428Y-69904819D02*
X150980952Y-69904819D01*
X150980952Y-69904819D02*
X150885714Y-69952438D01*
X150885714Y-69952438D02*
X150838095Y-70000057D01*
X150838095Y-70000057D02*
X150742857Y-70142914D01*
X150742857Y-70142914D02*
X150695238Y-70333390D01*
X150695238Y-70333390D02*
X150695238Y-70714342D01*
X150695238Y-70714342D02*
X150742857Y-70809580D01*
X150742857Y-70809580D02*
X150790476Y-70857200D01*
X150790476Y-70857200D02*
X150885714Y-70904819D01*
X150885714Y-70904819D02*
X151076190Y-70904819D01*
X151076190Y-70904819D02*
X151171428Y-70857200D01*
X151171428Y-70857200D02*
X151219047Y-70809580D01*
X151219047Y-70809580D02*
X151266666Y-70714342D01*
X151266666Y-70714342D02*
X151266666Y-70476247D01*
X151266666Y-70476247D02*
X151219047Y-70381009D01*
X151219047Y-70381009D02*
X151171428Y-70333390D01*
X151171428Y-70333390D02*
X151076190Y-70285771D01*
X151076190Y-70285771D02*
X150885714Y-70285771D01*
X150885714Y-70285771D02*
X150790476Y-70333390D01*
X150790476Y-70333390D02*
X150742857Y-70381009D01*
X150742857Y-70381009D02*
X150695238Y-70476247D01*
X150604761Y-83694104D02*
X151080951Y-83694104D01*
X150509523Y-83979819D02*
X150842856Y-82979819D01*
X150842856Y-82979819D02*
X151176189Y-83979819D01*
X151938094Y-83932200D02*
X151842856Y-83979819D01*
X151842856Y-83979819D02*
X151652380Y-83979819D01*
X151652380Y-83979819D02*
X151557142Y-83932200D01*
X151557142Y-83932200D02*
X151509523Y-83884580D01*
X151509523Y-83884580D02*
X151461904Y-83789342D01*
X151461904Y-83789342D02*
X151461904Y-83503628D01*
X151461904Y-83503628D02*
X151509523Y-83408390D01*
X151509523Y-83408390D02*
X151557142Y-83360771D01*
X151557142Y-83360771D02*
X151652380Y-83313152D01*
X151652380Y-83313152D02*
X151842856Y-83313152D01*
X151842856Y-83313152D02*
X151938094Y-83360771D01*
X152795237Y-83932200D02*
X152699999Y-83979819D01*
X152699999Y-83979819D02*
X152509523Y-83979819D01*
X152509523Y-83979819D02*
X152414285Y-83932200D01*
X152414285Y-83932200D02*
X152366666Y-83884580D01*
X152366666Y-83884580D02*
X152319047Y-83789342D01*
X152319047Y-83789342D02*
X152319047Y-83503628D01*
X152319047Y-83503628D02*
X152366666Y-83408390D01*
X152366666Y-83408390D02*
X152414285Y-83360771D01*
X152414285Y-83360771D02*
X152509523Y-83313152D01*
X152509523Y-83313152D02*
X152699999Y-83313152D01*
X152699999Y-83313152D02*
X152795237Y-83360771D01*
X153604761Y-83932200D02*
X153509523Y-83979819D01*
X153509523Y-83979819D02*
X153319047Y-83979819D01*
X153319047Y-83979819D02*
X153223809Y-83932200D01*
X153223809Y-83932200D02*
X153176190Y-83836961D01*
X153176190Y-83836961D02*
X153176190Y-83456009D01*
X153176190Y-83456009D02*
X153223809Y-83360771D01*
X153223809Y-83360771D02*
X153319047Y-83313152D01*
X153319047Y-83313152D02*
X153509523Y-83313152D01*
X153509523Y-83313152D02*
X153604761Y-83360771D01*
X153604761Y-83360771D02*
X153652380Y-83456009D01*
X153652380Y-83456009D02*
X153652380Y-83551247D01*
X153652380Y-83551247D02*
X153176190Y-83646485D01*
X154223809Y-83979819D02*
X154128571Y-83932200D01*
X154128571Y-83932200D02*
X154080952Y-83836961D01*
X154080952Y-83836961D02*
X154080952Y-82979819D01*
X154985714Y-83932200D02*
X154890476Y-83979819D01*
X154890476Y-83979819D02*
X154700000Y-83979819D01*
X154700000Y-83979819D02*
X154604762Y-83932200D01*
X154604762Y-83932200D02*
X154557143Y-83836961D01*
X154557143Y-83836961D02*
X154557143Y-83456009D01*
X154557143Y-83456009D02*
X154604762Y-83360771D01*
X154604762Y-83360771D02*
X154700000Y-83313152D01*
X154700000Y-83313152D02*
X154890476Y-83313152D01*
X154890476Y-83313152D02*
X154985714Y-83360771D01*
X154985714Y-83360771D02*
X155033333Y-83456009D01*
X155033333Y-83456009D02*
X155033333Y-83551247D01*
X155033333Y-83551247D02*
X154557143Y-83646485D01*
X155461905Y-83979819D02*
X155461905Y-83313152D01*
X155461905Y-83503628D02*
X155509524Y-83408390D01*
X155509524Y-83408390D02*
X155557143Y-83360771D01*
X155557143Y-83360771D02*
X155652381Y-83313152D01*
X155652381Y-83313152D02*
X155747619Y-83313152D01*
X156223810Y-83979819D02*
X156128572Y-83932200D01*
X156128572Y-83932200D02*
X156080953Y-83884580D01*
X156080953Y-83884580D02*
X156033334Y-83789342D01*
X156033334Y-83789342D02*
X156033334Y-83503628D01*
X156033334Y-83503628D02*
X156080953Y-83408390D01*
X156080953Y-83408390D02*
X156128572Y-83360771D01*
X156128572Y-83360771D02*
X156223810Y-83313152D01*
X156223810Y-83313152D02*
X156366667Y-83313152D01*
X156366667Y-83313152D02*
X156461905Y-83360771D01*
X156461905Y-83360771D02*
X156509524Y-83408390D01*
X156509524Y-83408390D02*
X156557143Y-83503628D01*
X156557143Y-83503628D02*
X156557143Y-83789342D01*
X156557143Y-83789342D02*
X156509524Y-83884580D01*
X156509524Y-83884580D02*
X156461905Y-83932200D01*
X156461905Y-83932200D02*
X156366667Y-83979819D01*
X156366667Y-83979819D02*
X156223810Y-83979819D01*
X156985715Y-83979819D02*
X156985715Y-83313152D01*
X156985715Y-83408390D02*
X157033334Y-83360771D01*
X157033334Y-83360771D02*
X157128572Y-83313152D01*
X157128572Y-83313152D02*
X157271429Y-83313152D01*
X157271429Y-83313152D02*
X157366667Y-83360771D01*
X157366667Y-83360771D02*
X157414286Y-83456009D01*
X157414286Y-83456009D02*
X157414286Y-83979819D01*
X157414286Y-83456009D02*
X157461905Y-83360771D01*
X157461905Y-83360771D02*
X157557143Y-83313152D01*
X157557143Y-83313152D02*
X157700000Y-83313152D01*
X157700000Y-83313152D02*
X157795239Y-83360771D01*
X157795239Y-83360771D02*
X157842858Y-83456009D01*
X157842858Y-83456009D02*
X157842858Y-83979819D01*
X158700000Y-83932200D02*
X158604762Y-83979819D01*
X158604762Y-83979819D02*
X158414286Y-83979819D01*
X158414286Y-83979819D02*
X158319048Y-83932200D01*
X158319048Y-83932200D02*
X158271429Y-83836961D01*
X158271429Y-83836961D02*
X158271429Y-83456009D01*
X158271429Y-83456009D02*
X158319048Y-83360771D01*
X158319048Y-83360771D02*
X158414286Y-83313152D01*
X158414286Y-83313152D02*
X158604762Y-83313152D01*
X158604762Y-83313152D02*
X158700000Y-83360771D01*
X158700000Y-83360771D02*
X158747619Y-83456009D01*
X158747619Y-83456009D02*
X158747619Y-83551247D01*
X158747619Y-83551247D02*
X158271429Y-83646485D01*
X159033334Y-83313152D02*
X159414286Y-83313152D01*
X159176191Y-82979819D02*
X159176191Y-83836961D01*
X159176191Y-83836961D02*
X159223810Y-83932200D01*
X159223810Y-83932200D02*
X159319048Y-83979819D01*
X159319048Y-83979819D02*
X159414286Y-83979819D01*
X160128572Y-83932200D02*
X160033334Y-83979819D01*
X160033334Y-83979819D02*
X159842858Y-83979819D01*
X159842858Y-83979819D02*
X159747620Y-83932200D01*
X159747620Y-83932200D02*
X159700001Y-83836961D01*
X159700001Y-83836961D02*
X159700001Y-83456009D01*
X159700001Y-83456009D02*
X159747620Y-83360771D01*
X159747620Y-83360771D02*
X159842858Y-83313152D01*
X159842858Y-83313152D02*
X160033334Y-83313152D01*
X160033334Y-83313152D02*
X160128572Y-83360771D01*
X160128572Y-83360771D02*
X160176191Y-83456009D01*
X160176191Y-83456009D02*
X160176191Y-83551247D01*
X160176191Y-83551247D02*
X159700001Y-83646485D01*
X160604763Y-83979819D02*
X160604763Y-83313152D01*
X160604763Y-83503628D02*
X160652382Y-83408390D01*
X160652382Y-83408390D02*
X160700001Y-83360771D01*
X160700001Y-83360771D02*
X160795239Y-83313152D01*
X160795239Y-83313152D02*
X160890477Y-83313152D01*
X120421905Y-67834819D02*
X120421905Y-66834819D01*
X120421905Y-66834819D02*
X120660000Y-66834819D01*
X120660000Y-66834819D02*
X120802857Y-66882438D01*
X120802857Y-66882438D02*
X120898095Y-66977676D01*
X120898095Y-66977676D02*
X120945714Y-67072914D01*
X120945714Y-67072914D02*
X120993333Y-67263390D01*
X120993333Y-67263390D02*
X120993333Y-67406247D01*
X120993333Y-67406247D02*
X120945714Y-67596723D01*
X120945714Y-67596723D02*
X120898095Y-67691961D01*
X120898095Y-67691961D02*
X120802857Y-67787200D01*
X120802857Y-67787200D02*
X120660000Y-67834819D01*
X120660000Y-67834819D02*
X120421905Y-67834819D01*
X121850476Y-67168152D02*
X121850476Y-67834819D01*
X121612381Y-66787200D02*
X121374286Y-67501485D01*
X121374286Y-67501485D02*
X121993333Y-67501485D01*
X120511905Y-82004819D02*
X120511905Y-81004819D01*
X120511905Y-81004819D02*
X120750000Y-81004819D01*
X120750000Y-81004819D02*
X120892857Y-81052438D01*
X120892857Y-81052438D02*
X120988095Y-81147676D01*
X120988095Y-81147676D02*
X121035714Y-81242914D01*
X121035714Y-81242914D02*
X121083333Y-81433390D01*
X121083333Y-81433390D02*
X121083333Y-81576247D01*
X121083333Y-81576247D02*
X121035714Y-81766723D01*
X121035714Y-81766723D02*
X120988095Y-81861961D01*
X120988095Y-81861961D02*
X120892857Y-81957200D01*
X120892857Y-81957200D02*
X120750000Y-82004819D01*
X120750000Y-82004819D02*
X120511905Y-82004819D01*
X121464286Y-81100057D02*
X121511905Y-81052438D01*
X121511905Y-81052438D02*
X121607143Y-81004819D01*
X121607143Y-81004819D02*
X121845238Y-81004819D01*
X121845238Y-81004819D02*
X121940476Y-81052438D01*
X121940476Y-81052438D02*
X121988095Y-81100057D01*
X121988095Y-81100057D02*
X122035714Y-81195295D01*
X122035714Y-81195295D02*
X122035714Y-81290533D01*
X122035714Y-81290533D02*
X121988095Y-81433390D01*
X121988095Y-81433390D02*
X121416667Y-82004819D01*
X121416667Y-82004819D02*
X122035714Y-82004819D01*
X130053333Y-56504819D02*
X129720000Y-56028628D01*
X129481905Y-56504819D02*
X129481905Y-55504819D01*
X129481905Y-55504819D02*
X129862857Y-55504819D01*
X129862857Y-55504819D02*
X129958095Y-55552438D01*
X129958095Y-55552438D02*
X130005714Y-55600057D01*
X130005714Y-55600057D02*
X130053333Y-55695295D01*
X130053333Y-55695295D02*
X130053333Y-55838152D01*
X130053333Y-55838152D02*
X130005714Y-55933390D01*
X130005714Y-55933390D02*
X129958095Y-55981009D01*
X129958095Y-55981009D02*
X129862857Y-56028628D01*
X129862857Y-56028628D02*
X129481905Y-56028628D01*
X130910476Y-55504819D02*
X130720000Y-55504819D01*
X130720000Y-55504819D02*
X130624762Y-55552438D01*
X130624762Y-55552438D02*
X130577143Y-55600057D01*
X130577143Y-55600057D02*
X130481905Y-55742914D01*
X130481905Y-55742914D02*
X130434286Y-55933390D01*
X130434286Y-55933390D02*
X130434286Y-56314342D01*
X130434286Y-56314342D02*
X130481905Y-56409580D01*
X130481905Y-56409580D02*
X130529524Y-56457200D01*
X130529524Y-56457200D02*
X130624762Y-56504819D01*
X130624762Y-56504819D02*
X130815238Y-56504819D01*
X130815238Y-56504819D02*
X130910476Y-56457200D01*
X130910476Y-56457200D02*
X130958095Y-56409580D01*
X130958095Y-56409580D02*
X131005714Y-56314342D01*
X131005714Y-56314342D02*
X131005714Y-56076247D01*
X131005714Y-56076247D02*
X130958095Y-55981009D01*
X130958095Y-55981009D02*
X130910476Y-55933390D01*
X130910476Y-55933390D02*
X130815238Y-55885771D01*
X130815238Y-55885771D02*
X130624762Y-55885771D01*
X130624762Y-55885771D02*
X130529524Y-55933390D01*
X130529524Y-55933390D02*
X130481905Y-55981009D01*
X130481905Y-55981009D02*
X130434286Y-56076247D01*
X136594286Y-55504819D02*
X137213333Y-55504819D01*
X137213333Y-55504819D02*
X136880000Y-55885771D01*
X136880000Y-55885771D02*
X137022857Y-55885771D01*
X137022857Y-55885771D02*
X137118095Y-55933390D01*
X137118095Y-55933390D02*
X137165714Y-55981009D01*
X137165714Y-55981009D02*
X137213333Y-56076247D01*
X137213333Y-56076247D02*
X137213333Y-56314342D01*
X137213333Y-56314342D02*
X137165714Y-56409580D01*
X137165714Y-56409580D02*
X137118095Y-56457200D01*
X137118095Y-56457200D02*
X137022857Y-56504819D01*
X137022857Y-56504819D02*
X136737143Y-56504819D01*
X136737143Y-56504819D02*
X136641905Y-56457200D01*
X136641905Y-56457200D02*
X136594286Y-56409580D01*
X137546667Y-55504819D02*
X138165714Y-55504819D01*
X138165714Y-55504819D02*
X137832381Y-55885771D01*
X137832381Y-55885771D02*
X137975238Y-55885771D01*
X137975238Y-55885771D02*
X138070476Y-55933390D01*
X138070476Y-55933390D02*
X138118095Y-55981009D01*
X138118095Y-55981009D02*
X138165714Y-56076247D01*
X138165714Y-56076247D02*
X138165714Y-56314342D01*
X138165714Y-56314342D02*
X138118095Y-56409580D01*
X138118095Y-56409580D02*
X138070476Y-56457200D01*
X138070476Y-56457200D02*
X137975238Y-56504819D01*
X137975238Y-56504819D02*
X137689524Y-56504819D01*
X137689524Y-56504819D02*
X137594286Y-56457200D01*
X137594286Y-56457200D02*
X137546667Y-56409580D01*
X138784762Y-55504819D02*
X138880000Y-55504819D01*
X138880000Y-55504819D02*
X138975238Y-55552438D01*
X138975238Y-55552438D02*
X139022857Y-55600057D01*
X139022857Y-55600057D02*
X139070476Y-55695295D01*
X139070476Y-55695295D02*
X139118095Y-55885771D01*
X139118095Y-55885771D02*
X139118095Y-56123866D01*
X139118095Y-56123866D02*
X139070476Y-56314342D01*
X139070476Y-56314342D02*
X139022857Y-56409580D01*
X139022857Y-56409580D02*
X138975238Y-56457200D01*
X138975238Y-56457200D02*
X138880000Y-56504819D01*
X138880000Y-56504819D02*
X138784762Y-56504819D01*
X138784762Y-56504819D02*
X138689524Y-56457200D01*
X138689524Y-56457200D02*
X138641905Y-56409580D01*
X138641905Y-56409580D02*
X138594286Y-56314342D01*
X138594286Y-56314342D02*
X138546667Y-56123866D01*
X138546667Y-56123866D02*
X138546667Y-55885771D01*
X138546667Y-55885771D02*
X138594286Y-55695295D01*
X138594286Y-55695295D02*
X138641905Y-55600057D01*
X138641905Y-55600057D02*
X138689524Y-55552438D01*
X138689524Y-55552438D02*
X138784762Y-55504819D01*
D12*
%TO.C,J1*%
X126610000Y-96130000D02*
X127940000Y-96130000D01*
X126610000Y-97460000D02*
X126610000Y-96130000D01*
X129210000Y-96130000D02*
X147050000Y-96130000D01*
X129210000Y-98790000D02*
X129210000Y-96130000D01*
X129210000Y-98790000D02*
X147050000Y-98790000D01*
X147050000Y-98790000D02*
X147050000Y-96130000D01*
%TO.C,J3*%
X149470000Y-96130000D02*
X150800000Y-96130000D01*
X149470000Y-97460000D02*
X149470000Y-96130000D01*
X152070000Y-96130000D02*
X164830000Y-96130000D01*
X152070000Y-98790000D02*
X152070000Y-96130000D01*
X152070000Y-98790000D02*
X164830000Y-98790000D01*
X164830000Y-98790000D02*
X164830000Y-96130000D01*
%TO.C,J2*%
X117466000Y-47870000D02*
X118796000Y-47870000D01*
X117466000Y-49200000D02*
X117466000Y-47870000D01*
X120066000Y-47870000D02*
X142986000Y-47870000D01*
X120066000Y-50530000D02*
X120066000Y-47870000D01*
X120066000Y-50530000D02*
X142986000Y-50530000D01*
X142986000Y-50530000D02*
X142986000Y-47870000D01*
%TO.C,J4*%
X144390000Y-47870000D02*
X145720000Y-47870000D01*
X144390000Y-49200000D02*
X144390000Y-47870000D01*
X146990000Y-47870000D02*
X164830000Y-47870000D01*
X146990000Y-50530000D02*
X146990000Y-47870000D01*
X146990000Y-50530000D02*
X164830000Y-50530000D01*
X164830000Y-50530000D02*
X164830000Y-47870000D01*
%TO.C,D5*%
X114320000Y-61655000D02*
X114320000Y-64745000D01*
X114320000Y-61655170D02*
G75*
G02*
X119870000Y-63199952I2560000J-1544830D01*
G01*
X119870000Y-63200048D02*
G75*
G02*
X114320000Y-64744830I-2990000J48D01*
G01*
X119380000Y-63200000D02*
G75*
G02*
X114380000Y-63200000I-2500000J0D01*
G01*
X114380000Y-63200000D02*
G75*
G02*
X119380000Y-63200000I2500000J0D01*
G01*
D13*
%TO.C,U1*%
X155305000Y-91750000D02*
X155805000Y-93350000D01*
X155805000Y-93350000D02*
X160005000Y-93350000D01*
X160005000Y-93350000D02*
X160505000Y-91750000D01*
X155305000Y-91688000D02*
G75*
G02*
X160505000Y-91688000I2600000J45383D01*
G01*
D14*
X154905000Y-92250000D02*
G75*
G02*
X154505000Y-92250000I-200000J0D01*
G01*
X154505000Y-92250000D02*
G75*
G02*
X154905000Y-92250000I200000J0D01*
G01*
D12*
%TO.C,J5*%
X145730000Y-93530000D02*
X145730000Y-92200000D01*
X147060000Y-93530000D02*
X145730000Y-93530000D01*
X148330000Y-90870000D02*
X153470000Y-90870000D01*
X148330000Y-93530000D02*
X148330000Y-90870000D01*
X148330000Y-93530000D02*
X153470000Y-93530000D01*
X153470000Y-93530000D02*
X153470000Y-90870000D01*
%TO.C,R5*%
X126210000Y-59300000D02*
X126980000Y-59300000D01*
X126980000Y-57930000D02*
X126980000Y-60670000D01*
X126980000Y-60670000D02*
X133520000Y-60670000D01*
X133520000Y-57930000D02*
X126980000Y-57930000D01*
X133520000Y-60670000D02*
X133520000Y-57930000D01*
X134290000Y-59300000D02*
X133520000Y-59300000D01*
D13*
%TO.C,U2*%
X144820000Y-53180000D02*
X163870000Y-53180000D01*
X144820000Y-68420000D02*
X144820000Y-53180000D01*
X163870000Y-53180000D02*
X163870000Y-68420000D01*
X163870000Y-68420000D02*
X144820000Y-68420000D01*
D14*
X162700000Y-52430000D02*
G75*
G02*
X162500000Y-52430000I-100000J0D01*
G01*
X162500000Y-52430000D02*
G75*
G02*
X162700000Y-52430000I100000J0D01*
G01*
D15*
%TO.C,IC1*%
X129160000Y-76585000D02*
X142460000Y-76585000D01*
X142460000Y-86585000D02*
X129160000Y-86585000D01*
D14*
X143350000Y-85445000D02*
X143350000Y-85445000D01*
X143350000Y-85645000D02*
X143350000Y-85645000D01*
X143350000Y-85445000D02*
G75*
G02*
X143350000Y-85645000I0J-100000D01*
G01*
X143350000Y-85645000D02*
G75*
G02*
X143350000Y-85445000I0J100000D01*
G01*
D12*
%TO.C,D1*%
X114420000Y-89555000D02*
X114420000Y-92645000D01*
X114420000Y-89555170D02*
G75*
G02*
X119970000Y-91099952I2560000J-1544830D01*
G01*
X119970000Y-91100048D02*
G75*
G02*
X114420000Y-92644830I-2990000J48D01*
G01*
X119480000Y-91100000D02*
G75*
G02*
X114480000Y-91100000I-2500000J0D01*
G01*
X114480000Y-91100000D02*
G75*
G02*
X119480000Y-91100000I2500000J0D01*
G01*
%TO.C,R1*%
X126210000Y-72300000D02*
X126980000Y-72300000D01*
X126980000Y-70930000D02*
X126980000Y-73670000D01*
X126980000Y-73670000D02*
X133520000Y-73670000D01*
X133520000Y-70930000D02*
X126980000Y-70930000D01*
X133520000Y-73670000D02*
X133520000Y-70930000D01*
X134290000Y-72300000D02*
X133520000Y-72300000D01*
%TO.C,R3*%
X126220000Y-65850000D02*
X126990000Y-65850000D01*
X126990000Y-64480000D02*
X126990000Y-67220000D01*
X126990000Y-67220000D02*
X133530000Y-67220000D01*
X133530000Y-64480000D02*
X126990000Y-64480000D01*
X133530000Y-67220000D02*
X133530000Y-64480000D01*
X134300000Y-65850000D02*
X133530000Y-65850000D01*
%TO.C,D6*%
X114355000Y-54505000D02*
X114355000Y-57595000D01*
X114355000Y-54505170D02*
G75*
G02*
X119905000Y-56049952I2560000J-1544830D01*
G01*
X119905000Y-56050048D02*
G75*
G02*
X114355000Y-57594830I-2990000J48D01*
G01*
X119415000Y-56050000D02*
G75*
G02*
X114415000Y-56050000I-2500000J0D01*
G01*
X114415000Y-56050000D02*
G75*
G02*
X119415000Y-56050000I2500000J0D01*
G01*
%TO.C,D3*%
X114420000Y-75655000D02*
X114420000Y-78745000D01*
X114420000Y-75655170D02*
G75*
G02*
X119970000Y-77199952I2560000J-1544830D01*
G01*
X119970000Y-77200048D02*
G75*
G02*
X114420000Y-78744830I-2990000J48D01*
G01*
X119480000Y-77200000D02*
G75*
G02*
X114480000Y-77200000I-2500000J0D01*
G01*
X114480000Y-77200000D02*
G75*
G02*
X119480000Y-77200000I2500000J0D01*
G01*
%TO.C,R2*%
X126210000Y-69100000D02*
X126980000Y-69100000D01*
X126980000Y-67730000D02*
X126980000Y-70470000D01*
X126980000Y-70470000D02*
X133520000Y-70470000D01*
X133520000Y-67730000D02*
X126980000Y-67730000D01*
X133520000Y-70470000D02*
X133520000Y-67730000D01*
X134290000Y-69100000D02*
X133520000Y-69100000D01*
%TO.C,R4*%
X126210000Y-62550000D02*
X126980000Y-62550000D01*
X126980000Y-61180000D02*
X126980000Y-63920000D01*
X126980000Y-63920000D02*
X133520000Y-63920000D01*
X133520000Y-61180000D02*
X126980000Y-61180000D01*
X133520000Y-63920000D02*
X133520000Y-61180000D01*
X134290000Y-62550000D02*
X133520000Y-62550000D01*
%TO.C,J6*%
X163670000Y-70295000D02*
X165000000Y-70295000D01*
X163670000Y-71625000D02*
X163670000Y-70295000D01*
X163670000Y-72895000D02*
X163670000Y-85655000D01*
X163670000Y-72895000D02*
X166330000Y-72895000D01*
X163670000Y-85655000D02*
X166330000Y-85655000D01*
X166330000Y-72895000D02*
X166330000Y-85655000D01*
%TO.C,D4*%
X114370000Y-68505000D02*
X114370000Y-71595000D01*
X114370000Y-68505170D02*
G75*
G02*
X119920000Y-70049952I2560000J-1544830D01*
G01*
X119920000Y-70050048D02*
G75*
G02*
X114370000Y-71594830I-2990000J48D01*
G01*
X119430000Y-70050000D02*
G75*
G02*
X114430000Y-70050000I-2500000J0D01*
G01*
X114430000Y-70050000D02*
G75*
G02*
X119430000Y-70050000I2500000J0D01*
G01*
%TO.C,D2*%
X114410000Y-82705000D02*
X114410000Y-85795000D01*
X114410000Y-82705170D02*
G75*
G02*
X119960000Y-84249952I2560000J-1544830D01*
G01*
X119960000Y-84250048D02*
G75*
G02*
X114410000Y-85794830I-2990000J48D01*
G01*
X119470000Y-84250000D02*
G75*
G02*
X114470000Y-84250000I-2500000J0D01*
G01*
X114470000Y-84250000D02*
G75*
G02*
X119470000Y-84250000I2500000J0D01*
G01*
%TO.C,R6*%
X126210000Y-56050000D02*
X126980000Y-56050000D01*
X126980000Y-54680000D02*
X126980000Y-57420000D01*
X126980000Y-57420000D02*
X133520000Y-57420000D01*
X133520000Y-54680000D02*
X126980000Y-54680000D01*
X133520000Y-57420000D02*
X133520000Y-54680000D01*
X134290000Y-56050000D02*
X133520000Y-56050000D01*
%TD*%
M02*
