M48
; DRILL file {KiCad 8.0.8} date 2025-03-13T21:37:03-0600
; FORMAT={-:-/ absolute / inch / decimal}
; #@! TF.CreationDate,2025-03-13T21:37:03-06:00
; #@! TF.GenerationSoftware,Kicad,Pcbnew,8.0.8
; #@! TF.FileFunction,Plated,1,2,PTH
FMAT,2
INCH
; #@! TA.AperFunction,Plated,PTH,ComponentDrill
T1C0.0315
; #@! TA.AperFunction,Plated,PTH,ComponentDrill
T2C0.0320
; #@! TA.AperFunction,Plated,PTH,ComponentDrill
T3C0.0354
; #@! TA.AperFunction,Plated,PTH,ComponentDrill
T4C0.0394
; #@! TA.AperFunction,Plated,PTH,ComponentDrill
T5C0.0400
%
G90
G05
T1
X4.928Y-2.2067
X4.928Y-2.3346
X4.928Y-2.4626
X4.928Y-2.7205
X4.928Y-2.8465
X4.9283Y-2.5925
X5.328Y-2.2067
X5.328Y-2.3346
X5.328Y-2.4626
X5.328Y-2.7205
X5.328Y-2.8465
X5.3283Y-2.5925
T2
X5.0894Y-3.062
X5.0894Y-3.162
X5.0894Y-3.262
X5.0894Y-3.362
X5.6043Y-3.062
X5.6043Y-3.162
X5.6043Y-3.262
X5.6043Y-3.362
T3
X4.5516Y-2.4882
X4.553Y-2.2067
X4.5535Y-2.7579
X4.5551Y-3.3169
X4.5555Y-3.0394
X4.5555Y-3.5866
X4.6516Y-2.4882
X4.653Y-2.2067
X4.6535Y-2.7579
X4.6551Y-3.3169
X4.6555Y-3.0394
X4.6555Y-3.5866
X6.1667Y-3.624
X6.2167Y-3.624
X6.2667Y-3.624
T4
X4.677Y-1.937
X4.777Y-1.937
X4.877Y-1.937
X4.977Y-1.937
X5.037Y-3.837
X5.077Y-1.937
X5.137Y-3.837
X5.177Y-1.937
X5.237Y-3.837
X5.277Y-1.937
X5.337Y-3.837
X5.377Y-1.937
X5.437Y-3.837
X5.477Y-1.937
X5.537Y-3.837
X5.577Y-1.937
X5.637Y-3.837
X5.737Y-1.937
X5.737Y-3.837
X5.7898Y-3.6299
X5.837Y-1.937
X5.8898Y-3.6299
X5.937Y-1.937
X5.937Y-3.837
X5.9898Y-3.6299
X6.037Y-1.937
X6.037Y-3.837
X6.137Y-1.937
X6.137Y-3.837
X6.237Y-1.937
X6.237Y-3.837
X6.337Y-1.937
X6.337Y-3.837
X6.437Y-1.937
X6.437Y-3.837
X6.4961Y-2.8199
X6.4961Y-2.9199
X6.4961Y-3.0199
X6.4961Y-3.1199
X6.4961Y-3.2199
X6.4961Y-3.3199
T5
X6.4016Y-2.1437
X6.4016Y-2.2437
X6.4016Y-2.3437
X6.4016Y-2.4437
X6.4016Y-2.5437
X6.4016Y-2.6437
M30
