%TF.GenerationSoftware,KiCad,Pcbnew,8.0.8*%
%TF.CreationDate,2025-03-13T21:39:24-06:00*%
%TF.ProjectId,Final_Project_PCB,46696e61-6c5f-4507-926f-6a6563745f50,rev?*%
%TF.SameCoordinates,Original*%
%TF.FileFunction,Copper,L2,Bot*%
%TF.FilePolarity,Positive*%
%FSLAX46Y46*%
G04 Gerber Fmt 4.6, Leading zero omitted, Abs format (unit mm)*
G04 Created by KiCad (PCBNEW 8.0.8) date 2025-03-13 21:39:24*
%MOMM*%
%LPD*%
G01*
G04 APERTURE LIST*
%TA.AperFunction,ComponentPad*%
%ADD10R,1.700000X1.700000*%
%TD*%
%TA.AperFunction,ComponentPad*%
%ADD11O,1.700000X1.700000*%
%TD*%
%TA.AperFunction,ComponentPad*%
%ADD12R,1.800000X1.800000*%
%TD*%
%TA.AperFunction,ComponentPad*%
%ADD13C,1.800000*%
%TD*%
%TA.AperFunction,ComponentPad*%
%ADD14O,1.100000X2.200000*%
%TD*%
%TA.AperFunction,ComponentPad*%
%ADD15C,1.600000*%
%TD*%
%TA.AperFunction,ComponentPad*%
%ADD16O,1.600000X1.600000*%
%TD*%
%TA.AperFunction,ComponentPad*%
%ADD17R,1.879600X1.879600*%
%TD*%
%TA.AperFunction,ComponentPad*%
%ADD18C,1.879600*%
%TD*%
%TA.AperFunction,ComponentPad*%
%ADD19C,1.321000*%
%TD*%
G04 APERTURE END LIST*
D10*
%TO.P,J1,1,Pin_1*%
%TO.N,unconnected-(J1-Pin_1-Pad1)*%
X127940000Y-97460000D03*
D11*
%TO.P,J1,2,Pin_2*%
%TO.N,/IOREF*%
X130480000Y-97460000D03*
%TO.P,J1,3,Pin_3*%
%TO.N,/~{RESET}*%
X133020000Y-97460000D03*
%TO.P,J1,4,Pin_4*%
%TO.N,+3V3*%
X135560000Y-97460000D03*
%TO.P,J1,5,Pin_5*%
%TO.N,+5V*%
X138100000Y-97460000D03*
%TO.P,J1,6,Pin_6*%
%TO.N,GND*%
X140640000Y-97460000D03*
%TO.P,J1,7,Pin_7*%
X143180000Y-97460000D03*
%TO.P,J1,8,Pin_8*%
%TO.N,VCC*%
X145720000Y-97460000D03*
%TD*%
D10*
%TO.P,J3,1,Pin_1*%
%TO.N,/DHT_Sensor*%
X150800000Y-97460000D03*
D11*
%TO.P,J3,2,Pin_2*%
%TO.N,/Ext_Temp_Sensor*%
X153340000Y-97460000D03*
%TO.P,J3,3,Pin_3*%
%TO.N,unconnected-(J3-Pin_3-Pad3)*%
X155880000Y-97460000D03*
%TO.P,J3,4,Pin_4*%
%TO.N,/Pressure_Sensor*%
X158420000Y-97460000D03*
%TO.P,J3,5,Pin_5*%
%TO.N,/Accel_X*%
X160960000Y-97460000D03*
%TO.P,J3,6,Pin_6*%
%TO.N,/Accel_Z*%
X163500000Y-97460000D03*
%TD*%
D10*
%TO.P,J2,1,Pin_1*%
%TO.N,/SCL{slash}A5*%
X118796000Y-49200000D03*
D11*
%TO.P,J2,2,Pin_2*%
%TO.N,/SDA{slash}A4*%
X121336000Y-49200000D03*
%TO.P,J2,3,Pin_3*%
%TO.N,/AREF*%
X123876000Y-49200000D03*
%TO.P,J2,4,Pin_4*%
%TO.N,GND*%
X126416000Y-49200000D03*
%TO.P,J2,5,Pin_5*%
%TO.N,/13*%
X128956000Y-49200000D03*
%TO.P,J2,6,Pin_6*%
%TO.N,/12*%
X131496000Y-49200000D03*
%TO.P,J2,7,Pin_7*%
%TO.N,/\u002A11*%
X134036000Y-49200000D03*
%TO.P,J2,8,Pin_8*%
%TO.N,/\u002A10*%
X136576000Y-49200000D03*
%TO.P,J2,9,Pin_9*%
%TO.N,/LED_Accelerometer*%
X139116000Y-49200000D03*
%TO.P,J2,10,Pin_10*%
%TO.N,/8*%
X141656000Y-49200000D03*
%TD*%
D10*
%TO.P,J4,1,Pin_1*%
%TO.N,/LED_Pressure*%
X145720000Y-49200000D03*
D11*
%TO.P,J4,2,Pin_2*%
%TO.N,/LED_Humidity*%
X148260000Y-49200000D03*
%TO.P,J4,3,Pin_3*%
%TO.N,/LED_ExternalTemp*%
X150800000Y-49200000D03*
%TO.P,J4,4,Pin_4*%
%TO.N,/LED_InternalTemp*%
X153340000Y-49200000D03*
%TO.P,J4,5,Pin_5*%
%TO.N,/LED_Power*%
X155880000Y-49200000D03*
%TO.P,J4,6,Pin_6*%
%TO.N,/6*%
X158420000Y-49200000D03*
%TO.P,J4,7,Pin_7*%
%TO.N,/TX{slash}1*%
X160960000Y-49200000D03*
%TO.P,J4,8,Pin_8*%
%TO.N,/Open_Logger*%
X163500000Y-49200000D03*
%TD*%
D12*
%TO.P,D5,1,K*%
%TO.N,GND*%
X115610000Y-63200000D03*
D13*
%TO.P,D5,2,A*%
%TO.N,Net-(D5-A)*%
X118150000Y-63200000D03*
%TD*%
D14*
%TO.P,U1,1,+VS*%
%TO.N,+5V*%
X156635000Y-92050000D03*
%TO.P,U1,2,VOUT*%
%TO.N,/Ext_Temp_Sensor*%
X157905000Y-92050000D03*
%TO.P,U1,3,GND*%
%TO.N,GND*%
X159175000Y-92050000D03*
%TD*%
D10*
%TO.P,J5,1,Pin_1*%
%TO.N,+5V*%
X147060000Y-92200000D03*
D11*
%TO.P,J5,2,Pin_2*%
%TO.N,/DHT_Sensor*%
X149600000Y-92200000D03*
%TO.P,J5,3,Pin_3*%
%TO.N,GND*%
X152140000Y-92200000D03*
%TD*%
D15*
%TO.P,R5,1*%
%TO.N,/LED_Pressure*%
X135330000Y-59300000D03*
D16*
%TO.P,R5,2*%
%TO.N,Net-(D5-A)*%
X125170000Y-59300000D03*
%TD*%
D17*
%TO.P,U2,1,BLK*%
%TO.N,unconnected-(U2-BLK-Pad1)*%
X162600000Y-54450000D03*
D18*
%TO.P,U2,2,GND*%
%TO.N,GND*%
X162600000Y-56990000D03*
%TO.P,U2,3,VCC*%
%TO.N,+5V*%
X162600000Y-59530000D03*
%TO.P,U2,4,TXO*%
%TO.N,unconnected-(U2-TXO-Pad4)*%
X162600000Y-62070000D03*
%TO.P,U2,5,RXI*%
%TO.N,/Open_Logger*%
X162600000Y-64610000D03*
%TO.P,U2,6,GRN*%
%TO.N,unconnected-(U2-GRN-Pad6)*%
X162600000Y-67150000D03*
%TD*%
D19*
%TO.P,IC1,1,NC_1*%
%TO.N,unconnected-(IC1-NC_1-Pad1)*%
X142350000Y-85395000D03*
%TO.P,IC1,2,VSUPPLY*%
%TO.N,+5V*%
X142350000Y-82855000D03*
%TO.P,IC1,3,VOUT*%
%TO.N,/Pressure_Sensor*%
X142350000Y-80315000D03*
%TO.P,IC1,4,GND*%
%TO.N,GND*%
X142350000Y-77775000D03*
%TO.P,IC1,5,NC_2*%
%TO.N,unconnected-(IC1-NC_2-Pad5)*%
X129270000Y-77775000D03*
%TO.P,IC1,6,NC_3*%
%TO.N,unconnected-(IC1-NC_3-Pad6)*%
X129270000Y-80315000D03*
%TO.P,IC1,7,NC_4*%
%TO.N,unconnected-(IC1-NC_4-Pad7)*%
X129270000Y-82855000D03*
%TO.P,IC1,8,NC_5*%
%TO.N,unconnected-(IC1-NC_5-Pad8)*%
X129270000Y-85395000D03*
%TD*%
D12*
%TO.P,D1,1,K*%
%TO.N,GND*%
X115710000Y-91100000D03*
D13*
%TO.P,D1,2,A*%
%TO.N,Net-(D1-A)*%
X118250000Y-91100000D03*
%TD*%
D15*
%TO.P,R1,1*%
%TO.N,/LED_Power*%
X135330000Y-72300000D03*
D16*
%TO.P,R1,2*%
%TO.N,Net-(D1-A)*%
X125170000Y-72300000D03*
%TD*%
D15*
%TO.P,R3,1*%
%TO.N,/LED_ExternalTemp*%
X135340000Y-65850000D03*
D16*
%TO.P,R3,2*%
%TO.N,Net-(D3-A)*%
X125180000Y-65850000D03*
%TD*%
D12*
%TO.P,D6,1,K*%
%TO.N,GND*%
X115645000Y-56050000D03*
D13*
%TO.P,D6,2,A*%
%TO.N,Net-(D6-A)*%
X118185000Y-56050000D03*
%TD*%
D12*
%TO.P,D3,1,K*%
%TO.N,GND*%
X115710000Y-77200000D03*
D13*
%TO.P,D3,2,A*%
%TO.N,Net-(D3-A)*%
X118250000Y-77200000D03*
%TD*%
D15*
%TO.P,R2,1*%
%TO.N,/LED_InternalTemp*%
X135330000Y-69100000D03*
D16*
%TO.P,R2,2*%
%TO.N,Net-(D2-A)*%
X125170000Y-69100000D03*
%TD*%
D15*
%TO.P,R4,1*%
%TO.N,/LED_Humidity*%
X135330000Y-62550000D03*
D16*
%TO.P,R4,2*%
%TO.N,Net-(D4-A)*%
X125170000Y-62550000D03*
%TD*%
D10*
%TO.P,J6,1,Pin_1*%
%TO.N,unconnected-(J6-Pin_1-Pad1)*%
X165000000Y-71625000D03*
D11*
%TO.P,J6,2,Pin_2*%
%TO.N,/Accel_Z*%
X165000000Y-74165000D03*
%TO.P,J6,3,Pin_3*%
%TO.N,unconnected-(J6-Pin_3-Pad3)*%
X165000000Y-76705000D03*
%TO.P,J6,4,Pin_4*%
%TO.N,/Accel_X*%
X165000000Y-79245000D03*
%TO.P,J6,5,Pin_5*%
%TO.N,GND*%
X165000000Y-81785000D03*
%TO.P,J6,6,Pin_6*%
%TO.N,+3V3*%
X165000000Y-84325000D03*
%TD*%
D12*
%TO.P,D4,1,K*%
%TO.N,GND*%
X115660000Y-70050000D03*
D13*
%TO.P,D4,2,A*%
%TO.N,Net-(D4-A)*%
X118200000Y-70050000D03*
%TD*%
D12*
%TO.P,D2,1,K*%
%TO.N,GND*%
X115700000Y-84250000D03*
D13*
%TO.P,D2,2,A*%
%TO.N,Net-(D2-A)*%
X118240000Y-84250000D03*
%TD*%
D15*
%TO.P,R6,1*%
%TO.N,/LED_Accelerometer*%
X135330000Y-56050000D03*
D16*
%TO.P,R6,2*%
%TO.N,Net-(D6-A)*%
X125170000Y-56050000D03*
%TD*%
%TA.AperFunction,Conductor*%
%TO.N,GND*%
G36*
X142714075Y-97267007D02*
G01*
X142680000Y-97394174D01*
X142680000Y-97525826D01*
X142714075Y-97652993D01*
X142746988Y-97710000D01*
X141073012Y-97710000D01*
X141105925Y-97652993D01*
X141140000Y-97525826D01*
X141140000Y-97394174D01*
X141105925Y-97267007D01*
X141073012Y-97210000D01*
X142746988Y-97210000D01*
X142714075Y-97267007D01*
G37*
%TD.AperFunction*%
%TA.AperFunction,Conductor*%
G36*
X163484404Y-46755185D02*
G01*
X163505046Y-46771819D01*
X165928181Y-49194954D01*
X165961666Y-49256277D01*
X165964500Y-49282635D01*
X165964500Y-59344982D01*
X165964500Y-59375018D01*
X165975994Y-59402767D01*
X165975995Y-59402768D01*
X168468181Y-61894954D01*
X168501666Y-61956277D01*
X168504500Y-61982635D01*
X168504500Y-96107364D01*
X168484815Y-96174403D01*
X168468181Y-96195045D01*
X165997233Y-98665994D01*
X165975995Y-98687231D01*
X165964500Y-98714982D01*
X165964500Y-99231907D01*
X165963903Y-99244062D01*
X165952505Y-99359778D01*
X165947763Y-99383618D01*
X165917832Y-99482290D01*
X165915789Y-99489024D01*
X165906486Y-99511482D01*
X165854561Y-99608627D01*
X165841056Y-99628839D01*
X165771176Y-99713988D01*
X165753988Y-99731176D01*
X165668839Y-99801056D01*
X165648627Y-99814561D01*
X165551482Y-99866486D01*
X165529028Y-99875787D01*
X165487028Y-99888528D01*
X165423618Y-99907763D01*
X165399778Y-99912505D01*
X165291162Y-99923203D01*
X165284060Y-99923903D01*
X165271907Y-99924500D01*
X100768093Y-99924500D01*
X100755939Y-99923903D01*
X100747995Y-99923120D01*
X100640221Y-99912505D01*
X100616381Y-99907763D01*
X100599445Y-99902625D01*
X100510968Y-99875786D01*
X100488517Y-99866486D01*
X100391372Y-99814561D01*
X100371160Y-99801056D01*
X100286011Y-99731176D01*
X100268823Y-99713988D01*
X100198943Y-99628839D01*
X100185438Y-99608627D01*
X100133510Y-99511476D01*
X100124215Y-99489037D01*
X100092234Y-99383612D01*
X100087494Y-99359777D01*
X100076097Y-99244061D01*
X100075500Y-99231907D01*
X100075500Y-96561345D01*
X126581500Y-96561345D01*
X126581500Y-98358654D01*
X126588011Y-98419202D01*
X126588011Y-98419204D01*
X126639111Y-98556204D01*
X126726739Y-98673261D01*
X126843796Y-98760889D01*
X126980799Y-98811989D01*
X127008050Y-98814918D01*
X127041345Y-98818499D01*
X127041362Y-98818500D01*
X128838638Y-98818500D01*
X128838654Y-98818499D01*
X128865692Y-98815591D01*
X128899201Y-98811989D01*
X129036204Y-98760889D01*
X129153261Y-98673261D01*
X129240889Y-98556204D01*
X129286138Y-98434887D01*
X129328009Y-98378956D01*
X129393474Y-98354539D01*
X129461746Y-98369391D01*
X129493545Y-98394236D01*
X129556760Y-98462906D01*
X129734424Y-98601189D01*
X129734425Y-98601189D01*
X129734427Y-98601191D01*
X129861135Y-98669761D01*
X129932426Y-98708342D01*
X130145365Y-98781444D01*
X130367431Y-98818500D01*
X130592569Y-98818500D01*
X130814635Y-98781444D01*
X131027574Y-98708342D01*
X131225576Y-98601189D01*
X131403240Y-98462906D01*
X131524594Y-98331082D01*
X131555715Y-98297276D01*
X131555715Y-98297275D01*
X131555722Y-98297268D01*
X131646193Y-98158790D01*
X131699338Y-98113437D01*
X131768569Y-98104013D01*
X131831905Y-98133515D01*
X131853804Y-98158787D01*
X131944278Y-98297268D01*
X131944283Y-98297273D01*
X131944284Y-98297276D01*
X132070968Y-98434889D01*
X132096760Y-98462906D01*
X132274424Y-98601189D01*
X132274425Y-98601189D01*
X132274427Y-98601191D01*
X132401135Y-98669761D01*
X132472426Y-98708342D01*
X132685365Y-98781444D01*
X132907431Y-98818500D01*
X133132569Y-98818500D01*
X133354635Y-98781444D01*
X133567574Y-98708342D01*
X133765576Y-98601189D01*
X133943240Y-98462906D01*
X134064594Y-98331082D01*
X134095715Y-98297276D01*
X134095715Y-98297275D01*
X134095722Y-98297268D01*
X134186193Y-98158790D01*
X134239338Y-98113437D01*
X134308569Y-98104013D01*
X134371905Y-98133515D01*
X134393804Y-98158787D01*
X134484278Y-98297268D01*
X134484283Y-98297273D01*
X134484284Y-98297276D01*
X134610968Y-98434889D01*
X134636760Y-98462906D01*
X134814424Y-98601189D01*
X134814425Y-98601189D01*
X134814427Y-98601191D01*
X134941135Y-98669761D01*
X135012426Y-98708342D01*
X135225365Y-98781444D01*
X135447431Y-98818500D01*
X135672569Y-98818500D01*
X135894635Y-98781444D01*
X136107574Y-98708342D01*
X136305576Y-98601189D01*
X136483240Y-98462906D01*
X136604594Y-98331082D01*
X136635715Y-98297276D01*
X136635715Y-98297275D01*
X136635722Y-98297268D01*
X136726193Y-98158790D01*
X136779338Y-98113437D01*
X136848569Y-98104013D01*
X136911905Y-98133515D01*
X136933804Y-98158787D01*
X137024278Y-98297268D01*
X137024283Y-98297273D01*
X137024284Y-98297276D01*
X137150968Y-98434889D01*
X137176760Y-98462906D01*
X137354424Y-98601189D01*
X137354425Y-98601189D01*
X137354427Y-98601191D01*
X137481135Y-98669761D01*
X137552426Y-98708342D01*
X137765365Y-98781444D01*
X137987431Y-98818500D01*
X138212569Y-98818500D01*
X138434635Y-98781444D01*
X138647574Y-98708342D01*
X138845576Y-98601189D01*
X139023240Y-98462906D01*
X139144594Y-98331082D01*
X139175715Y-98297276D01*
X139175715Y-98297275D01*
X139175722Y-98297268D01*
X139269749Y-98153347D01*
X139322894Y-98107994D01*
X139392125Y-98098570D01*
X139455461Y-98128072D01*
X139475130Y-98150048D01*
X139601890Y-98331078D01*
X139768917Y-98498105D01*
X139962421Y-98633600D01*
X140176507Y-98733429D01*
X140176516Y-98733433D01*
X140390000Y-98790634D01*
X140390000Y-97893012D01*
X140447007Y-97925925D01*
X140574174Y-97960000D01*
X140705826Y-97960000D01*
X140832993Y-97925925D01*
X140890000Y-97893012D01*
X140890000Y-98790633D01*
X141103483Y-98733433D01*
X141103492Y-98733429D01*
X141317578Y-98633600D01*
X141511082Y-98498105D01*
X141678105Y-98331082D01*
X141808425Y-98144968D01*
X141863002Y-98101344D01*
X141932501Y-98094151D01*
X141994855Y-98125673D01*
X142011575Y-98144968D01*
X142141894Y-98331082D01*
X142308917Y-98498105D01*
X142502421Y-98633600D01*
X142716507Y-98733429D01*
X142716516Y-98733433D01*
X142930000Y-98790634D01*
X142930000Y-97893012D01*
X142987007Y-97925925D01*
X143114174Y-97960000D01*
X143245826Y-97960000D01*
X143372993Y-97925925D01*
X143430000Y-97893012D01*
X143430000Y-98790633D01*
X143643483Y-98733433D01*
X143643492Y-98733429D01*
X143857578Y-98633600D01*
X144051082Y-98498105D01*
X144218105Y-98331082D01*
X144344868Y-98150048D01*
X144399445Y-98106423D01*
X144468944Y-98099231D01*
X144531298Y-98130753D01*
X144550251Y-98153350D01*
X144644276Y-98297265D01*
X144644284Y-98297276D01*
X144770968Y-98434889D01*
X144796760Y-98462906D01*
X144974424Y-98601189D01*
X144974425Y-98601189D01*
X144974427Y-98601191D01*
X145101135Y-98669761D01*
X145172426Y-98708342D01*
X145385365Y-98781444D01*
X145607431Y-98818500D01*
X145832569Y-98818500D01*
X146054635Y-98781444D01*
X146267574Y-98708342D01*
X146465576Y-98601189D01*
X146643240Y-98462906D01*
X146764594Y-98331082D01*
X146795715Y-98297276D01*
X146795717Y-98297273D01*
X146795722Y-98297268D01*
X146918860Y-98108791D01*
X147009296Y-97902616D01*
X147064564Y-97684368D01*
X147067164Y-97652993D01*
X147083156Y-97460005D01*
X147083156Y-97459994D01*
X147064565Y-97235640D01*
X147064563Y-97235628D01*
X147009296Y-97017385D01*
X146999071Y-96994075D01*
X146918860Y-96811209D01*
X146902706Y-96786484D01*
X146795723Y-96622734D01*
X146795715Y-96622723D01*
X146739212Y-96561345D01*
X149441500Y-96561345D01*
X149441500Y-98358654D01*
X149448011Y-98419202D01*
X149448011Y-98419204D01*
X149499111Y-98556204D01*
X149586739Y-98673261D01*
X149703796Y-98760889D01*
X149840799Y-98811989D01*
X149868050Y-98814918D01*
X149901345Y-98818499D01*
X149901362Y-98818500D01*
X151698638Y-98818500D01*
X151698654Y-98818499D01*
X151725692Y-98815591D01*
X151759201Y-98811989D01*
X151896204Y-98760889D01*
X152013261Y-98673261D01*
X152100889Y-98556204D01*
X152146138Y-98434887D01*
X152188009Y-98378956D01*
X152253474Y-98354539D01*
X152321746Y-98369391D01*
X152353545Y-98394236D01*
X152416760Y-98462906D01*
X152594424Y-98601189D01*
X152594425Y-98601189D01*
X152594427Y-98601191D01*
X152721135Y-98669761D01*
X152792426Y-98708342D01*
X153005365Y-98781444D01*
X153227431Y-98818500D01*
X153452569Y-98818500D01*
X153674635Y-98781444D01*
X153887574Y-98708342D01*
X154085576Y-98601189D01*
X154263240Y-98462906D01*
X154384594Y-98331082D01*
X154415715Y-98297276D01*
X154415715Y-98297275D01*
X154415722Y-98297268D01*
X154506193Y-98158790D01*
X154559338Y-98113437D01*
X154628569Y-98104013D01*
X154691905Y-98133515D01*
X154713804Y-98158787D01*
X154804278Y-98297268D01*
X154804283Y-98297273D01*
X154804284Y-98297276D01*
X154930968Y-98434889D01*
X154956760Y-98462906D01*
X155134424Y-98601189D01*
X155134425Y-98601189D01*
X155134427Y-98601191D01*
X155261135Y-98669761D01*
X155332426Y-98708342D01*
X155545365Y-98781444D01*
X155767431Y-98818500D01*
X155992569Y-98818500D01*
X156214635Y-98781444D01*
X156427574Y-98708342D01*
X156625576Y-98601189D01*
X156803240Y-98462906D01*
X156924594Y-98331082D01*
X156955715Y-98297276D01*
X156955715Y-98297275D01*
X156955722Y-98297268D01*
X157046193Y-98158790D01*
X157099338Y-98113437D01*
X157168569Y-98104013D01*
X157231905Y-98133515D01*
X157253804Y-98158787D01*
X157344278Y-98297268D01*
X157344283Y-98297273D01*
X157344284Y-98297276D01*
X157470968Y-98434889D01*
X157496760Y-98462906D01*
X157674424Y-98601189D01*
X157674425Y-98601189D01*
X157674427Y-98601191D01*
X157801135Y-98669761D01*
X157872426Y-98708342D01*
X158085365Y-98781444D01*
X158307431Y-98818500D01*
X158532569Y-98818500D01*
X158754635Y-98781444D01*
X158967574Y-98708342D01*
X159165576Y-98601189D01*
X159343240Y-98462906D01*
X159464594Y-98331082D01*
X159495715Y-98297276D01*
X159495715Y-98297275D01*
X159495722Y-98297268D01*
X159586193Y-98158790D01*
X159639338Y-98113437D01*
X159708569Y-98104013D01*
X159771905Y-98133515D01*
X159793804Y-98158787D01*
X159884278Y-98297268D01*
X159884283Y-98297273D01*
X159884284Y-98297276D01*
X160010968Y-98434889D01*
X160036760Y-98462906D01*
X160214424Y-98601189D01*
X160214425Y-98601189D01*
X160214427Y-98601191D01*
X160341135Y-98669761D01*
X160412426Y-98708342D01*
X160625365Y-98781444D01*
X160847431Y-98818500D01*
X161072569Y-98818500D01*
X161294635Y-98781444D01*
X161507574Y-98708342D01*
X161705576Y-98601189D01*
X161883240Y-98462906D01*
X162004594Y-98331082D01*
X162035715Y-98297276D01*
X162035715Y-98297275D01*
X162035722Y-98297268D01*
X162126193Y-98158790D01*
X162179338Y-98113437D01*
X162248569Y-98104013D01*
X162311905Y-98133515D01*
X162333804Y-98158787D01*
X162424278Y-98297268D01*
X162424283Y-98297273D01*
X162424284Y-98297276D01*
X162550968Y-98434889D01*
X162576760Y-98462906D01*
X162754424Y-98601189D01*
X162754425Y-98601189D01*
X162754427Y-98601191D01*
X162881135Y-98669761D01*
X162952426Y-98708342D01*
X163165365Y-98781444D01*
X163387431Y-98818500D01*
X163612569Y-98818500D01*
X163834635Y-98781444D01*
X164047574Y-98708342D01*
X164245576Y-98601189D01*
X164423240Y-98462906D01*
X164544594Y-98331082D01*
X164575715Y-98297276D01*
X164575717Y-98297273D01*
X164575722Y-98297268D01*
X164698860Y-98108791D01*
X164789296Y-97902616D01*
X164844564Y-97684368D01*
X164847164Y-97652993D01*
X164863156Y-97460005D01*
X164863156Y-97459994D01*
X164844565Y-97235640D01*
X164844563Y-97235628D01*
X164789296Y-97017385D01*
X164779071Y-96994075D01*
X164698860Y-96811209D01*
X164682706Y-96786484D01*
X164575723Y-96622734D01*
X164575715Y-96622723D01*
X164423243Y-96457097D01*
X164423238Y-96457092D01*
X164245577Y-96318812D01*
X164245572Y-96318808D01*
X164047580Y-96211661D01*
X164047577Y-96211659D01*
X164047574Y-96211658D01*
X164047571Y-96211657D01*
X164047569Y-96211656D01*
X163834637Y-96138556D01*
X163612569Y-96101500D01*
X163387431Y-96101500D01*
X163165362Y-96138556D01*
X162952430Y-96211656D01*
X162952419Y-96211661D01*
X162754427Y-96318808D01*
X162754422Y-96318812D01*
X162576761Y-96457092D01*
X162576756Y-96457097D01*
X162424284Y-96622723D01*
X162424276Y-96622734D01*
X162333808Y-96761206D01*
X162280662Y-96806562D01*
X162211431Y-96815986D01*
X162148095Y-96786484D01*
X162126192Y-96761206D01*
X162035723Y-96622734D01*
X162035715Y-96622723D01*
X161883243Y-96457097D01*
X161883238Y-96457092D01*
X161705577Y-96318812D01*
X161705572Y-96318808D01*
X161507580Y-96211661D01*
X161507577Y-96211659D01*
X161507574Y-96211658D01*
X161507571Y-96211657D01*
X161507569Y-96211656D01*
X161294637Y-96138556D01*
X161072569Y-96101500D01*
X160847431Y-96101500D01*
X160625362Y-96138556D01*
X160412430Y-96211656D01*
X160412419Y-96211661D01*
X160214427Y-96318808D01*
X160214422Y-96318812D01*
X160036761Y-96457092D01*
X160036756Y-96457097D01*
X159884284Y-96622723D01*
X159884276Y-96622734D01*
X159793808Y-96761206D01*
X159740662Y-96806562D01*
X159671431Y-96815986D01*
X159608095Y-96786484D01*
X159586192Y-96761206D01*
X159495723Y-96622734D01*
X159495715Y-96622723D01*
X159343243Y-96457097D01*
X159343238Y-96457092D01*
X159165577Y-96318812D01*
X159165572Y-96318808D01*
X158967580Y-96211661D01*
X158967577Y-96211659D01*
X158967574Y-96211658D01*
X158967571Y-96211657D01*
X158967569Y-96211656D01*
X158754637Y-96138556D01*
X158532569Y-96101500D01*
X158307431Y-96101500D01*
X158085362Y-96138556D01*
X157872430Y-96211656D01*
X157872419Y-96211661D01*
X157674427Y-96318808D01*
X157674422Y-96318812D01*
X157496761Y-96457092D01*
X157496756Y-96457097D01*
X157344284Y-96622723D01*
X157344276Y-96622734D01*
X157253808Y-96761206D01*
X157200662Y-96806562D01*
X157131431Y-96815986D01*
X157068095Y-96786484D01*
X157046192Y-96761206D01*
X156955723Y-96622734D01*
X156955715Y-96622723D01*
X156803243Y-96457097D01*
X156803238Y-96457092D01*
X156625577Y-96318812D01*
X156625572Y-96318808D01*
X156427580Y-96211661D01*
X156427577Y-96211659D01*
X156427574Y-96211658D01*
X156427571Y-96211657D01*
X156427569Y-96211656D01*
X156214637Y-96138556D01*
X155992569Y-96101500D01*
X155767431Y-96101500D01*
X155545362Y-96138556D01*
X155332430Y-96211656D01*
X155332419Y-96211661D01*
X155134427Y-96318808D01*
X155134422Y-96318812D01*
X154956761Y-96457092D01*
X154956756Y-96457097D01*
X154804284Y-96622723D01*
X154804276Y-96622734D01*
X154713808Y-96761206D01*
X154660662Y-96806562D01*
X154591431Y-96815986D01*
X154528095Y-96786484D01*
X154506192Y-96761206D01*
X154415723Y-96622734D01*
X154415715Y-96622723D01*
X154263243Y-96457097D01*
X154263238Y-96457092D01*
X154085577Y-96318812D01*
X154085572Y-96318808D01*
X153887580Y-96211661D01*
X153887577Y-96211659D01*
X153887574Y-96211658D01*
X153887571Y-96211657D01*
X153887569Y-96211656D01*
X153674637Y-96138556D01*
X153452569Y-96101500D01*
X153227431Y-96101500D01*
X153005362Y-96138556D01*
X152792430Y-96211656D01*
X152792419Y-96211661D01*
X152594427Y-96318808D01*
X152594422Y-96318812D01*
X152416761Y-96457092D01*
X152353548Y-96525760D01*
X152293661Y-96561750D01*
X152223823Y-96559649D01*
X152166207Y-96520124D01*
X152146138Y-96485110D01*
X152100889Y-96363796D01*
X152067214Y-96318812D01*
X152013261Y-96246739D01*
X151896204Y-96159111D01*
X151895172Y-96158726D01*
X151759203Y-96108011D01*
X151698654Y-96101500D01*
X151698638Y-96101500D01*
X149901362Y-96101500D01*
X149901345Y-96101500D01*
X149840797Y-96108011D01*
X149840795Y-96108011D01*
X149703795Y-96159111D01*
X149586739Y-96246739D01*
X149499111Y-96363795D01*
X149448011Y-96500795D01*
X149448011Y-96500797D01*
X149441500Y-96561345D01*
X146739212Y-96561345D01*
X146643243Y-96457097D01*
X146643238Y-96457092D01*
X146465577Y-96318812D01*
X146465572Y-96318808D01*
X146267580Y-96211661D01*
X146267577Y-96211659D01*
X146267574Y-96211658D01*
X146267571Y-96211657D01*
X146267569Y-96211656D01*
X146054637Y-96138556D01*
X145832569Y-96101500D01*
X145607431Y-96101500D01*
X145385362Y-96138556D01*
X145172430Y-96211656D01*
X145172419Y-96211661D01*
X144974427Y-96318808D01*
X144974422Y-96318812D01*
X144796761Y-96457092D01*
X144796756Y-96457097D01*
X144644284Y-96622723D01*
X144644276Y-96622734D01*
X144550251Y-96766650D01*
X144497105Y-96812007D01*
X144427873Y-96821430D01*
X144364538Y-96791928D01*
X144344868Y-96769951D01*
X144218113Y-96588926D01*
X144218108Y-96588920D01*
X144051082Y-96421894D01*
X143857578Y-96286399D01*
X143643492Y-96186570D01*
X143643486Y-96186567D01*
X143430000Y-96129364D01*
X143430000Y-97026988D01*
X143372993Y-96994075D01*
X143245826Y-96960000D01*
X143114174Y-96960000D01*
X142987007Y-96994075D01*
X142930000Y-97026988D01*
X142930000Y-96129364D01*
X142929999Y-96129364D01*
X142716513Y-96186567D01*
X142716507Y-96186570D01*
X142502422Y-96286399D01*
X142502420Y-96286400D01*
X142308926Y-96421886D01*
X142308920Y-96421891D01*
X142141891Y-96588920D01*
X142141890Y-96588922D01*
X142011575Y-96775031D01*
X141956998Y-96818655D01*
X141887499Y-96825848D01*
X141825145Y-96794326D01*
X141808425Y-96775031D01*
X141678109Y-96588922D01*
X141678108Y-96588920D01*
X141511082Y-96421894D01*
X141317578Y-96286399D01*
X141103492Y-96186570D01*
X141103486Y-96186567D01*
X140890000Y-96129364D01*
X140890000Y-97026988D01*
X140832993Y-96994075D01*
X140705826Y-96960000D01*
X140574174Y-96960000D01*
X140447007Y-96994075D01*
X140390000Y-97026988D01*
X140390000Y-96129364D01*
X140389999Y-96129364D01*
X140176513Y-96186567D01*
X140176507Y-96186570D01*
X139962422Y-96286399D01*
X139962420Y-96286400D01*
X139768926Y-96421886D01*
X139768920Y-96421891D01*
X139601891Y-96588920D01*
X139601890Y-96588922D01*
X139475131Y-96769952D01*
X139420554Y-96813577D01*
X139351055Y-96820769D01*
X139288701Y-96789247D01*
X139269752Y-96766656D01*
X139175722Y-96622732D01*
X139175715Y-96622725D01*
X139175715Y-96622723D01*
X139023243Y-96457097D01*
X139023238Y-96457092D01*
X138845577Y-96318812D01*
X138845572Y-96318808D01*
X138647580Y-96211661D01*
X138647577Y-96211659D01*
X138647574Y-96211658D01*
X138647571Y-96211657D01*
X138647569Y-96211656D01*
X138434637Y-96138556D01*
X138212569Y-96101500D01*
X137987431Y-96101500D01*
X137765362Y-96138556D01*
X137552430Y-96211656D01*
X137552419Y-96211661D01*
X137354427Y-96318808D01*
X137354422Y-96318812D01*
X137176761Y-96457092D01*
X137176756Y-96457097D01*
X137024284Y-96622723D01*
X137024276Y-96622734D01*
X136933808Y-96761206D01*
X136880662Y-96806562D01*
X136811431Y-96815986D01*
X136748095Y-96786484D01*
X136726192Y-96761206D01*
X136635723Y-96622734D01*
X136635715Y-96622723D01*
X136483243Y-96457097D01*
X136483238Y-96457092D01*
X136305577Y-96318812D01*
X136305572Y-96318808D01*
X136107580Y-96211661D01*
X136107577Y-96211659D01*
X136107574Y-96211658D01*
X136107571Y-96211657D01*
X136107569Y-96211656D01*
X135894637Y-96138556D01*
X135672569Y-96101500D01*
X135447431Y-96101500D01*
X135225362Y-96138556D01*
X135012430Y-96211656D01*
X135012419Y-96211661D01*
X134814427Y-96318808D01*
X134814422Y-96318812D01*
X134636761Y-96457092D01*
X134636756Y-96457097D01*
X134484284Y-96622723D01*
X134484276Y-96622734D01*
X134393808Y-96761206D01*
X134340662Y-96806562D01*
X134271431Y-96815986D01*
X134208095Y-96786484D01*
X134186192Y-96761206D01*
X134095723Y-96622734D01*
X134095715Y-96622723D01*
X133943243Y-96457097D01*
X133943238Y-96457092D01*
X133765577Y-96318812D01*
X133765572Y-96318808D01*
X133567580Y-96211661D01*
X133567577Y-96211659D01*
X133567574Y-96211658D01*
X133567571Y-96211657D01*
X133567569Y-96211656D01*
X133354637Y-96138556D01*
X133132569Y-96101500D01*
X132907431Y-96101500D01*
X132685362Y-96138556D01*
X132472430Y-96211656D01*
X132472419Y-96211661D01*
X132274427Y-96318808D01*
X132274422Y-96318812D01*
X132096761Y-96457092D01*
X132096756Y-96457097D01*
X131944284Y-96622723D01*
X131944276Y-96622734D01*
X131853808Y-96761206D01*
X131800662Y-96806562D01*
X131731431Y-96815986D01*
X131668095Y-96786484D01*
X131646192Y-96761206D01*
X131555723Y-96622734D01*
X131555715Y-96622723D01*
X131403243Y-96457097D01*
X131403238Y-96457092D01*
X131225577Y-96318812D01*
X131225572Y-96318808D01*
X131027580Y-96211661D01*
X131027577Y-96211659D01*
X131027574Y-96211658D01*
X131027571Y-96211657D01*
X131027569Y-96211656D01*
X130814637Y-96138556D01*
X130592569Y-96101500D01*
X130367431Y-96101500D01*
X130145362Y-96138556D01*
X129932430Y-96211656D01*
X129932419Y-96211661D01*
X129734427Y-96318808D01*
X129734422Y-96318812D01*
X129556761Y-96457092D01*
X129493548Y-96525760D01*
X129433661Y-96561750D01*
X129363823Y-96559649D01*
X129306207Y-96520124D01*
X129286138Y-96485110D01*
X129240889Y-96363796D01*
X129207214Y-96318812D01*
X129153261Y-96246739D01*
X129036204Y-96159111D01*
X129035172Y-96158726D01*
X128899203Y-96108011D01*
X128838654Y-96101500D01*
X128838638Y-96101500D01*
X127041362Y-96101500D01*
X127041345Y-96101500D01*
X126980797Y-96108011D01*
X126980795Y-96108011D01*
X126843795Y-96159111D01*
X126726739Y-96246739D01*
X126639111Y-96363795D01*
X126588011Y-96500795D01*
X126588011Y-96500797D01*
X126581500Y-96561345D01*
X100075500Y-96561345D01*
X100075500Y-90152155D01*
X114310000Y-90152155D01*
X114310000Y-90850000D01*
X115334722Y-90850000D01*
X115290667Y-90926306D01*
X115260000Y-91040756D01*
X115260000Y-91159244D01*
X115290667Y-91273694D01*
X115334722Y-91350000D01*
X114310000Y-91350000D01*
X114310000Y-92047844D01*
X114316401Y-92107372D01*
X114316403Y-92107379D01*
X114366645Y-92242086D01*
X114366649Y-92242093D01*
X114452809Y-92357187D01*
X114452812Y-92357190D01*
X114567906Y-92443350D01*
X114567913Y-92443354D01*
X114702620Y-92493596D01*
X114702627Y-92493598D01*
X114762155Y-92499999D01*
X114762172Y-92500000D01*
X115460000Y-92500000D01*
X115460000Y-91475277D01*
X115536306Y-91519333D01*
X115650756Y-91550000D01*
X115769244Y-91550000D01*
X115883694Y-91519333D01*
X115960000Y-91475277D01*
X115960000Y-92500000D01*
X116657828Y-92500000D01*
X116657844Y-92499999D01*
X116717372Y-92493598D01*
X116717379Y-92493596D01*
X116852086Y-92443354D01*
X116852093Y-92443350D01*
X116967187Y-92357190D01*
X116967190Y-92357187D01*
X117053350Y-92242093D01*
X117053355Y-92242084D01*
X117078940Y-92173486D01*
X117120810Y-92117552D01*
X117186274Y-92093134D01*
X117254547Y-92107985D01*
X117286349Y-92132832D01*
X117292780Y-92139818D01*
X117476983Y-92283190D01*
X117476985Y-92283191D01*
X117476988Y-92283193D01*
X117596331Y-92347777D01*
X117682273Y-92394287D01*
X117796914Y-92433643D01*
X117903045Y-92470079D01*
X117903047Y-92470079D01*
X117903049Y-92470080D01*
X118133288Y-92508500D01*
X118133289Y-92508500D01*
X118366711Y-92508500D01*
X118366712Y-92508500D01*
X118596951Y-92470080D01*
X118817727Y-92394287D01*
X119023017Y-92283190D01*
X119207220Y-92139818D01*
X119365314Y-91968083D01*
X119492984Y-91772669D01*
X119586749Y-91558907D01*
X119644051Y-91332626D01*
X119646643Y-91301345D01*
X145701500Y-91301345D01*
X145701500Y-93098654D01*
X145708011Y-93159202D01*
X145708011Y-93159204D01*
X145749089Y-93269335D01*
X145759111Y-93296204D01*
X145846739Y-93413261D01*
X145963796Y-93500889D01*
X146100799Y-93551989D01*
X146128050Y-93554918D01*
X146161345Y-93558499D01*
X146161362Y-93558500D01*
X147958638Y-93558500D01*
X147958654Y-93558499D01*
X147985692Y-93555591D01*
X148019201Y-93551989D01*
X148156204Y-93500889D01*
X148273261Y-93413261D01*
X148360889Y-93296204D01*
X148406138Y-93174887D01*
X148448009Y-93118956D01*
X148513474Y-93094539D01*
X148581746Y-93109391D01*
X148613545Y-93134236D01*
X148676760Y-93202906D01*
X148854424Y-93341189D01*
X148854425Y-93341189D01*
X148854427Y-93341191D01*
X148914314Y-93373600D01*
X149052426Y-93448342D01*
X149265365Y-93521444D01*
X149487431Y-93558500D01*
X149712569Y-93558500D01*
X149934635Y-93521444D01*
X150147574Y-93448342D01*
X150345576Y-93341189D01*
X150523240Y-93202906D01*
X150644594Y-93071082D01*
X150675715Y-93037276D01*
X150675715Y-93037275D01*
X150675722Y-93037268D01*
X150769749Y-92893347D01*
X150822894Y-92847994D01*
X150892125Y-92838570D01*
X150955461Y-92868072D01*
X150975130Y-92890048D01*
X151101890Y-93071078D01*
X151268917Y-93238105D01*
X151462421Y-93373600D01*
X151676507Y-93473429D01*
X151676516Y-93473433D01*
X151890000Y-93530634D01*
X151890000Y-92633012D01*
X151947007Y-92665925D01*
X152074174Y-92700000D01*
X152205826Y-92700000D01*
X152332993Y-92665925D01*
X152390000Y-92633012D01*
X152390000Y-93530633D01*
X152603483Y-93473433D01*
X152603492Y-93473429D01*
X152817578Y-93373600D01*
X153011082Y-93238105D01*
X153178105Y-93071082D01*
X153313600Y-92877578D01*
X153413429Y-92663492D01*
X153413432Y-92663486D01*
X153470636Y-92450000D01*
X152573012Y-92450000D01*
X152605925Y-92392993D01*
X152640000Y-92265826D01*
X152640000Y-92134174D01*
X152605925Y-92007007D01*
X152573012Y-91950000D01*
X153470636Y-91950000D01*
X153470635Y-91949999D01*
X153413432Y-91736513D01*
X153413429Y-91736507D01*
X153313600Y-91522422D01*
X153313599Y-91522420D01*
X153224898Y-91395742D01*
X155576500Y-91395742D01*
X155576500Y-92704257D01*
X155617175Y-92908745D01*
X155617177Y-92908753D01*
X155696967Y-93101385D01*
X155696972Y-93101394D01*
X155812808Y-93274754D01*
X155812811Y-93274758D01*
X155960241Y-93422188D01*
X155960245Y-93422191D01*
X156133605Y-93538027D01*
X156133611Y-93538030D01*
X156133612Y-93538031D01*
X156326247Y-93617823D01*
X156530742Y-93658499D01*
X156530746Y-93658500D01*
X156530747Y-93658500D01*
X156739254Y-93658500D01*
X156739255Y-93658499D01*
X156943753Y-93617823D01*
X157136388Y-93538031D01*
X157201108Y-93494785D01*
X157267785Y-93473907D01*
X157335165Y-93492391D01*
X157338879Y-93494777D01*
X157370289Y-93515765D01*
X157403604Y-93538026D01*
X157403606Y-93538027D01*
X157403612Y-93538031D01*
X157596247Y-93617823D01*
X157800742Y-93658499D01*
X157800746Y-93658500D01*
X157800747Y-93658500D01*
X158009254Y-93658500D01*
X158009255Y-93658499D01*
X158213753Y-93617823D01*
X158406388Y-93538031D01*
X158478761Y-93489672D01*
X158545434Y-93468795D01*
X158612814Y-93487279D01*
X158616541Y-93489674D01*
X158677629Y-93530493D01*
X158677641Y-93530499D01*
X158868723Y-93609648D01*
X158868725Y-93609649D01*
X158925000Y-93620842D01*
X158925000Y-92910018D01*
X158927383Y-92885827D01*
X158934750Y-92848791D01*
X158963500Y-92704253D01*
X158963500Y-92447505D01*
X159001306Y-92469333D01*
X159115756Y-92500000D01*
X159234244Y-92500000D01*
X159348694Y-92469333D01*
X159425000Y-92425277D01*
X159425000Y-93620842D01*
X159481274Y-93609649D01*
X159481276Y-93609648D01*
X159672358Y-93530499D01*
X159672368Y-93530494D01*
X159844335Y-93415589D01*
X159844339Y-93415586D01*
X159990586Y-93269339D01*
X159990589Y-93269335D01*
X160105494Y-93097368D01*
X160105499Y-93097358D01*
X160184649Y-92906274D01*
X160184651Y-92906266D01*
X160224999Y-92703420D01*
X160225000Y-92703417D01*
X160225000Y-92300000D01*
X159550278Y-92300000D01*
X159594333Y-92223694D01*
X159625000Y-92109244D01*
X159625000Y-91990756D01*
X159594333Y-91876306D01*
X159550278Y-91800000D01*
X160225000Y-91800000D01*
X160225000Y-91396583D01*
X160224999Y-91396579D01*
X160184651Y-91193733D01*
X160184649Y-91193725D01*
X160105499Y-91002641D01*
X160105494Y-91002631D01*
X159990589Y-90830664D01*
X159990586Y-90830660D01*
X159844339Y-90684413D01*
X159844335Y-90684410D01*
X159672368Y-90569505D01*
X159672358Y-90569500D01*
X159481272Y-90490349D01*
X159481267Y-90490347D01*
X159425000Y-90479155D01*
X159425000Y-91674722D01*
X159348694Y-91630667D01*
X159234244Y-91600000D01*
X159115756Y-91600000D01*
X159001306Y-91630667D01*
X158963500Y-91652494D01*
X158963500Y-91395747D01*
X158956931Y-91362723D01*
X158927383Y-91214171D01*
X158925000Y-91189980D01*
X158925000Y-90479156D01*
X158924999Y-90479155D01*
X158868732Y-90490347D01*
X158868727Y-90490349D01*
X158677637Y-90569502D01*
X158616538Y-90610326D01*
X158549861Y-90631203D01*
X158482481Y-90612717D01*
X158478758Y-90610325D01*
X158406393Y-90561972D01*
X158406385Y-90561967D01*
X158213753Y-90482177D01*
X158213745Y-90482175D01*
X158009257Y-90441500D01*
X158009253Y-90441500D01*
X157800747Y-90441500D01*
X157800742Y-90441500D01*
X157596254Y-90482175D01*
X157596246Y-90482177D01*
X157403612Y-90561968D01*
X157338891Y-90605214D01*
X157272213Y-90626092D01*
X157204833Y-90607607D01*
X157201109Y-90605214D01*
X157136387Y-90561968D01*
X156943753Y-90482177D01*
X156943745Y-90482175D01*
X156739257Y-90441500D01*
X156739253Y-90441500D01*
X156530747Y-90441500D01*
X156530742Y-90441500D01*
X156326254Y-90482175D01*
X156326246Y-90482177D01*
X156133614Y-90561967D01*
X156133605Y-90561972D01*
X155960245Y-90677808D01*
X155960241Y-90677811D01*
X155812811Y-90825241D01*
X155812808Y-90825245D01*
X155696972Y-90998605D01*
X155696967Y-90998614D01*
X155617177Y-91191246D01*
X155617175Y-91191254D01*
X155576500Y-91395742D01*
X153224898Y-91395742D01*
X153178113Y-91328926D01*
X153178108Y-91328920D01*
X153011082Y-91161894D01*
X152817578Y-91026399D01*
X152603492Y-90926570D01*
X152603486Y-90926567D01*
X152390000Y-90869364D01*
X152390000Y-91766988D01*
X152332993Y-91734075D01*
X152205826Y-91700000D01*
X152074174Y-91700000D01*
X151947007Y-91734075D01*
X151890000Y-91766988D01*
X151890000Y-90869364D01*
X151889999Y-90869364D01*
X151676513Y-90926567D01*
X151676507Y-90926570D01*
X151462422Y-91026399D01*
X151462420Y-91026400D01*
X151268926Y-91161886D01*
X151268920Y-91161891D01*
X151101891Y-91328920D01*
X151101890Y-91328922D01*
X150975131Y-91509952D01*
X150920554Y-91553577D01*
X150851055Y-91560769D01*
X150788701Y-91529247D01*
X150769752Y-91506656D01*
X150675722Y-91362732D01*
X150675715Y-91362725D01*
X150675715Y-91362723D01*
X150523243Y-91197097D01*
X150523238Y-91197092D01*
X150345577Y-91058812D01*
X150345572Y-91058808D01*
X150147580Y-90951661D01*
X150147577Y-90951659D01*
X150147574Y-90951658D01*
X150147571Y-90951657D01*
X150147569Y-90951656D01*
X149934637Y-90878556D01*
X149712569Y-90841500D01*
X149487431Y-90841500D01*
X149265362Y-90878556D01*
X149052430Y-90951656D01*
X149052419Y-90951661D01*
X148854427Y-91058808D01*
X148854422Y-91058812D01*
X148676761Y-91197092D01*
X148613548Y-91265760D01*
X148553661Y-91301750D01*
X148483823Y-91299649D01*
X148426207Y-91260124D01*
X148406138Y-91225110D01*
X148360889Y-91103796D01*
X148327214Y-91058812D01*
X148273261Y-90986739D01*
X148156204Y-90899111D01*
X148019203Y-90848011D01*
X147958654Y-90841500D01*
X147958638Y-90841500D01*
X146161362Y-90841500D01*
X146161345Y-90841500D01*
X146100797Y-90848011D01*
X146100795Y-90848011D01*
X145963795Y-90899111D01*
X145846739Y-90986739D01*
X145759111Y-91103795D01*
X145708011Y-91240795D01*
X145708011Y-91240797D01*
X145701500Y-91301345D01*
X119646643Y-91301345D01*
X119652960Y-91225110D01*
X119663327Y-91100005D01*
X119663327Y-91099994D01*
X119646681Y-90899111D01*
X119644051Y-90867374D01*
X119586749Y-90641093D01*
X119492984Y-90427331D01*
X119365314Y-90231917D01*
X119365313Y-90231915D01*
X119207223Y-90060185D01*
X119207222Y-90060184D01*
X119207220Y-90060182D01*
X119023017Y-89916810D01*
X119023015Y-89916809D01*
X119023014Y-89916808D01*
X119023011Y-89916806D01*
X118817733Y-89805716D01*
X118817730Y-89805715D01*
X118817727Y-89805713D01*
X118817721Y-89805711D01*
X118817719Y-89805710D01*
X118596954Y-89729920D01*
X118417650Y-89700000D01*
X118366712Y-89691500D01*
X118133288Y-89691500D01*
X118087240Y-89699184D01*
X117903045Y-89729920D01*
X117682280Y-89805710D01*
X117682266Y-89805716D01*
X117476988Y-89916806D01*
X117476985Y-89916808D01*
X117292781Y-90060181D01*
X117292776Y-90060185D01*
X117286346Y-90067170D01*
X117226457Y-90103157D01*
X117156619Y-90101052D01*
X117099005Y-90061524D01*
X117078940Y-90026513D01*
X117053355Y-89957915D01*
X117053350Y-89957906D01*
X116967190Y-89842812D01*
X116967187Y-89842809D01*
X116852093Y-89756649D01*
X116852086Y-89756645D01*
X116717379Y-89706403D01*
X116717372Y-89706401D01*
X116657844Y-89700000D01*
X115960000Y-89700000D01*
X115960000Y-90724722D01*
X115883694Y-90680667D01*
X115769244Y-90650000D01*
X115650756Y-90650000D01*
X115536306Y-90680667D01*
X115460000Y-90724722D01*
X115460000Y-89700000D01*
X114762155Y-89700000D01*
X114702627Y-89706401D01*
X114702620Y-89706403D01*
X114567913Y-89756645D01*
X114567906Y-89756649D01*
X114452812Y-89842809D01*
X114452809Y-89842812D01*
X114366649Y-89957906D01*
X114366645Y-89957913D01*
X114316403Y-90092620D01*
X114316401Y-90092627D01*
X114310000Y-90152155D01*
X100075500Y-90152155D01*
X100075500Y-83302155D01*
X114300000Y-83302155D01*
X114300000Y-84000000D01*
X115324722Y-84000000D01*
X115280667Y-84076306D01*
X115250000Y-84190756D01*
X115250000Y-84309244D01*
X115280667Y-84423694D01*
X115324722Y-84500000D01*
X114300000Y-84500000D01*
X114300000Y-85197844D01*
X114306401Y-85257372D01*
X114306403Y-85257379D01*
X114356645Y-85392086D01*
X114356649Y-85392093D01*
X114442809Y-85507187D01*
X114442812Y-85507190D01*
X114557906Y-85593350D01*
X114557913Y-85593354D01*
X114692620Y-85643596D01*
X114692627Y-85643598D01*
X114752155Y-85649999D01*
X114752172Y-85650000D01*
X115450000Y-85650000D01*
X115450000Y-84625277D01*
X115526306Y-84669333D01*
X115640756Y-84700000D01*
X115759244Y-84700000D01*
X115873694Y-84669333D01*
X115950000Y-84625277D01*
X115950000Y-85650000D01*
X116647828Y-85650000D01*
X116647844Y-85649999D01*
X116707372Y-85643598D01*
X116707379Y-85643596D01*
X116842086Y-85593354D01*
X116842093Y-85593350D01*
X116957187Y-85507190D01*
X116957190Y-85507187D01*
X117043350Y-85392093D01*
X117043355Y-85392084D01*
X117068940Y-85323486D01*
X117110810Y-85267552D01*
X117176274Y-85243134D01*
X117244547Y-85257985D01*
X117276349Y-85282832D01*
X117282780Y-85289818D01*
X117466983Y-85433190D01*
X117466985Y-85433191D01*
X117466988Y-85433193D01*
X117586331Y-85497777D01*
X117672273Y-85544287D01*
X117756895Y-85573338D01*
X117893045Y-85620079D01*
X117893047Y-85620079D01*
X117893049Y-85620080D01*
X118123288Y-85658500D01*
X118123289Y-85658500D01*
X118356711Y-85658500D01*
X118356712Y-85658500D01*
X118586951Y-85620080D01*
X118807727Y-85544287D01*
X119013017Y-85433190D01*
X119197220Y-85289818D01*
X119355314Y-85118083D01*
X119482984Y-84922669D01*
X119576749Y-84708907D01*
X119634051Y-84482626D01*
X119653327Y-84250000D01*
X119653069Y-84246889D01*
X119634051Y-84017377D01*
X119634051Y-84017374D01*
X119576749Y-83791093D01*
X119482984Y-83577331D01*
X119355314Y-83381917D01*
X119355313Y-83381915D01*
X119197223Y-83210185D01*
X119197222Y-83210184D01*
X119197220Y-83210182D01*
X119013017Y-83066810D01*
X119013015Y-83066809D01*
X119013014Y-83066808D01*
X119013011Y-83066806D01*
X118807733Y-82955716D01*
X118807730Y-82955715D01*
X118807727Y-82955713D01*
X118807721Y-82955711D01*
X118807719Y-82955710D01*
X118586954Y-82879920D01*
X118407650Y-82850000D01*
X118356712Y-82841500D01*
X118123288Y-82841500D01*
X118077240Y-82849184D01*
X117893045Y-82879920D01*
X117672280Y-82955710D01*
X117672266Y-82955716D01*
X117466988Y-83066806D01*
X117466985Y-83066808D01*
X117282781Y-83210181D01*
X117282776Y-83210185D01*
X117276346Y-83217170D01*
X117216457Y-83253157D01*
X117146619Y-83251052D01*
X117089005Y-83211524D01*
X117068940Y-83176513D01*
X117043355Y-83107915D01*
X117043350Y-83107906D01*
X116957190Y-82992812D01*
X116957187Y-82992809D01*
X116842093Y-82906649D01*
X116842086Y-82906645D01*
X116707379Y-82856403D01*
X116707372Y-82856401D01*
X116647844Y-82850000D01*
X115950000Y-82850000D01*
X115950000Y-83874722D01*
X115873694Y-83830667D01*
X115759244Y-83800000D01*
X115640756Y-83800000D01*
X115526306Y-83830667D01*
X115450000Y-83874722D01*
X115450000Y-82850000D01*
X114752155Y-82850000D01*
X114692627Y-82856401D01*
X114692620Y-82856403D01*
X114557913Y-82906645D01*
X114557906Y-82906649D01*
X114442812Y-82992809D01*
X114442809Y-82992812D01*
X114356649Y-83107906D01*
X114356645Y-83107913D01*
X114306403Y-83242620D01*
X114306401Y-83242627D01*
X114300000Y-83302155D01*
X100075500Y-83302155D01*
X100075500Y-76252155D01*
X114310000Y-76252155D01*
X114310000Y-76950000D01*
X115334722Y-76950000D01*
X115290667Y-77026306D01*
X115260000Y-77140756D01*
X115260000Y-77259244D01*
X115290667Y-77373694D01*
X115334722Y-77450000D01*
X114310000Y-77450000D01*
X114310000Y-78147844D01*
X114316401Y-78207372D01*
X114316403Y-78207379D01*
X114366645Y-78342086D01*
X114366649Y-78342093D01*
X114452809Y-78457187D01*
X114452812Y-78457190D01*
X114567906Y-78543350D01*
X114567913Y-78543354D01*
X114702620Y-78593596D01*
X114702627Y-78593598D01*
X114762155Y-78599999D01*
X114762172Y-78600000D01*
X115460000Y-78600000D01*
X115460000Y-77575277D01*
X115536306Y-77619333D01*
X115650756Y-77650000D01*
X115769244Y-77650000D01*
X115883694Y-77619333D01*
X115960000Y-77575277D01*
X115960000Y-78600000D01*
X116657828Y-78600000D01*
X116657844Y-78599999D01*
X116717372Y-78593598D01*
X116717379Y-78593596D01*
X116852086Y-78543354D01*
X116852093Y-78543350D01*
X116967187Y-78457190D01*
X116967190Y-78457187D01*
X117053350Y-78342093D01*
X117053355Y-78342084D01*
X117078940Y-78273486D01*
X117120810Y-78217552D01*
X117186274Y-78193134D01*
X117254547Y-78207985D01*
X117286349Y-78232832D01*
X117292780Y-78239818D01*
X117476983Y-78383190D01*
X117476985Y-78383191D01*
X117476988Y-78383193D01*
X117522336Y-78407734D01*
X117682273Y-78494287D01*
X117796914Y-78533643D01*
X117903045Y-78570079D01*
X117903047Y-78570079D01*
X117903049Y-78570080D01*
X118133288Y-78608500D01*
X118133289Y-78608500D01*
X118366711Y-78608500D01*
X118366712Y-78608500D01*
X118596951Y-78570080D01*
X118817727Y-78494287D01*
X119023017Y-78383190D01*
X119207220Y-78239818D01*
X119365314Y-78068083D01*
X119492984Y-77872669D01*
X119535826Y-77774999D01*
X128095992Y-77774999D01*
X128095992Y-77775000D01*
X128115981Y-77990718D01*
X128115981Y-77990720D01*
X128115982Y-77990723D01*
X128175270Y-78199101D01*
X128175271Y-78199104D01*
X128271838Y-78393036D01*
X128402399Y-78565926D01*
X128562501Y-78711878D01*
X128562503Y-78711880D01*
X128746696Y-78825927D01*
X128746697Y-78825927D01*
X128746700Y-78825929D01*
X128948717Y-78904191D01*
X129049933Y-78923111D01*
X129112213Y-78954779D01*
X129147486Y-79015092D01*
X129144552Y-79084900D01*
X129104343Y-79142040D01*
X129049933Y-79166888D01*
X128948717Y-79185809D01*
X128820964Y-79235300D01*
X128746702Y-79264070D01*
X128746696Y-79264072D01*
X128562503Y-79378119D01*
X128562501Y-79378121D01*
X128402399Y-79524073D01*
X128271838Y-79696963D01*
X128175271Y-79890895D01*
X128175270Y-79890899D01*
X128120822Y-80082268D01*
X128115981Y-80099281D01*
X128095992Y-80314999D01*
X128095992Y-80315000D01*
X128115981Y-80530718D01*
X128115981Y-80530720D01*
X128115982Y-80530723D01*
X128175270Y-80739101D01*
X128175271Y-80739104D01*
X128271838Y-80933036D01*
X128402399Y-81105926D01*
X128562501Y-81251878D01*
X128562503Y-81251880D01*
X128746696Y-81365927D01*
X128746697Y-81365927D01*
X128746700Y-81365929D01*
X128948717Y-81444191D01*
X129049933Y-81463111D01*
X129112213Y-81494779D01*
X129147486Y-81555092D01*
X129144552Y-81624900D01*
X129104343Y-81682040D01*
X129049933Y-81706888D01*
X128948717Y-81725809D01*
X128820964Y-81775300D01*
X128746702Y-81804070D01*
X128746696Y-81804072D01*
X128562503Y-81918119D01*
X128562501Y-81918121D01*
X128402399Y-82064073D01*
X128271838Y-82236963D01*
X128175271Y-82430895D01*
X128115981Y-82639281D01*
X128095992Y-82854999D01*
X128095992Y-82855000D01*
X128115981Y-83070718D01*
X128115981Y-83070720D01*
X128115982Y-83070723D01*
X128175270Y-83279101D01*
X128175271Y-83279104D01*
X128271838Y-83473036D01*
X128402399Y-83645926D01*
X128562501Y-83791878D01*
X128562503Y-83791880D01*
X128746696Y-83905927D01*
X128746697Y-83905927D01*
X128746700Y-83905929D01*
X128948717Y-83984191D01*
X129049933Y-84003111D01*
X129112213Y-84034779D01*
X129147486Y-84095092D01*
X129144552Y-84164900D01*
X129104343Y-84222040D01*
X129049933Y-84246888D01*
X128948717Y-84265809D01*
X128836599Y-84309244D01*
X128746702Y-84344070D01*
X128746696Y-84344072D01*
X128562503Y-84458119D01*
X128562501Y-84458121D01*
X128402399Y-84604073D01*
X128271838Y-84776963D01*
X128175271Y-84970895D01*
X128175270Y-84970899D01*
X128120822Y-85162268D01*
X128115981Y-85179281D01*
X128095992Y-85394999D01*
X128095992Y-85395000D01*
X128115981Y-85610718D01*
X128115981Y-85610720D01*
X128115982Y-85610723D01*
X128129576Y-85658500D01*
X128175271Y-85819104D01*
X128271838Y-86013036D01*
X128402399Y-86185926D01*
X128562501Y-86331878D01*
X128562503Y-86331880D01*
X128746696Y-86445927D01*
X128746697Y-86445927D01*
X128746700Y-86445929D01*
X128948717Y-86524191D01*
X129161676Y-86564000D01*
X129161678Y-86564000D01*
X129378322Y-86564000D01*
X129378324Y-86564000D01*
X129591283Y-86524191D01*
X129793300Y-86445929D01*
X129977498Y-86331879D01*
X130137602Y-86185924D01*
X130268162Y-86013036D01*
X130364730Y-85819101D01*
X130424018Y-85610723D01*
X130444008Y-85395000D01*
X130424018Y-85179277D01*
X130364730Y-84970899D01*
X130268162Y-84776964D01*
X130137602Y-84604076D01*
X130137600Y-84604073D01*
X129977498Y-84458121D01*
X129977496Y-84458119D01*
X129793303Y-84344072D01*
X129793297Y-84344070D01*
X129591283Y-84265809D01*
X129490065Y-84246888D01*
X129427786Y-84215221D01*
X129392513Y-84154908D01*
X129395447Y-84085100D01*
X129435656Y-84027960D01*
X129490064Y-84003111D01*
X129591283Y-83984191D01*
X129793300Y-83905929D01*
X129977498Y-83791879D01*
X130137602Y-83645924D01*
X130268162Y-83473036D01*
X130364730Y-83279101D01*
X130424018Y-83070723D01*
X130444008Y-82855000D01*
X130424018Y-82639277D01*
X130364730Y-82430899D01*
X130268162Y-82236964D01*
X130137602Y-82064076D01*
X130137600Y-82064073D01*
X129977498Y-81918121D01*
X129977496Y-81918119D01*
X129793303Y-81804072D01*
X129793297Y-81804070D01*
X129591283Y-81725809D01*
X129490065Y-81706888D01*
X129427786Y-81675221D01*
X129392513Y-81614908D01*
X129395447Y-81545100D01*
X129435656Y-81487960D01*
X129490064Y-81463111D01*
X129591283Y-81444191D01*
X129793300Y-81365929D01*
X129977498Y-81251879D01*
X130137602Y-81105924D01*
X130268162Y-80933036D01*
X130364730Y-80739101D01*
X130424018Y-80530723D01*
X130444008Y-80315000D01*
X130444008Y-80314999D01*
X141175992Y-80314999D01*
X141175992Y-80315000D01*
X141195981Y-80530718D01*
X141195981Y-80530720D01*
X141195982Y-80530723D01*
X141255270Y-80739101D01*
X141255271Y-80739104D01*
X141351838Y-80933036D01*
X141482399Y-81105926D01*
X141642501Y-81251878D01*
X141642503Y-81251880D01*
X141826696Y-81365927D01*
X141826697Y-81365927D01*
X141826700Y-81365929D01*
X142028717Y-81444191D01*
X142129933Y-81463111D01*
X142192213Y-81494779D01*
X142227486Y-81555092D01*
X142224552Y-81624900D01*
X142184343Y-81682040D01*
X142129933Y-81706888D01*
X142028717Y-81725809D01*
X141900964Y-81775300D01*
X141826702Y-81804070D01*
X141826696Y-81804072D01*
X141642503Y-81918119D01*
X141642501Y-81918121D01*
X141482399Y-82064073D01*
X141351838Y-82236963D01*
X141255271Y-82430895D01*
X141195981Y-82639281D01*
X141175992Y-82854999D01*
X141175992Y-82855000D01*
X141195981Y-83070718D01*
X141195981Y-83070720D01*
X141195982Y-83070723D01*
X141255270Y-83279101D01*
X141255271Y-83279104D01*
X141351838Y-83473036D01*
X141482399Y-83645926D01*
X141642501Y-83791878D01*
X141642503Y-83791880D01*
X141826696Y-83905927D01*
X141826697Y-83905927D01*
X141826700Y-83905929D01*
X142028717Y-83984191D01*
X142129933Y-84003111D01*
X142192213Y-84034779D01*
X142227486Y-84095092D01*
X142224552Y-84164900D01*
X142184343Y-84222040D01*
X142129933Y-84246888D01*
X142028717Y-84265809D01*
X141916599Y-84309244D01*
X141826702Y-84344070D01*
X141826696Y-84344072D01*
X141642503Y-84458119D01*
X141642501Y-84458121D01*
X141482399Y-84604073D01*
X141351838Y-84776963D01*
X141255271Y-84970895D01*
X141255270Y-84970899D01*
X141200822Y-85162268D01*
X141195981Y-85179281D01*
X141175992Y-85394999D01*
X141175992Y-85395000D01*
X141195981Y-85610718D01*
X141195981Y-85610720D01*
X141195982Y-85610723D01*
X141209576Y-85658500D01*
X141255271Y-85819104D01*
X141351838Y-86013036D01*
X141482399Y-86185926D01*
X141642501Y-86331878D01*
X141642503Y-86331880D01*
X141826696Y-86445927D01*
X141826697Y-86445927D01*
X141826700Y-86445929D01*
X142028717Y-86524191D01*
X142241676Y-86564000D01*
X142241678Y-86564000D01*
X142458322Y-86564000D01*
X142458324Y-86564000D01*
X142671283Y-86524191D01*
X142873300Y-86445929D01*
X143057498Y-86331879D01*
X143217602Y-86185924D01*
X143348162Y-86013036D01*
X143444730Y-85819101D01*
X143504018Y-85610723D01*
X143524008Y-85395000D01*
X143504018Y-85179277D01*
X143444730Y-84970899D01*
X143348162Y-84776964D01*
X143217602Y-84604076D01*
X143217600Y-84604073D01*
X143057498Y-84458121D01*
X143057496Y-84458119D01*
X142873303Y-84344072D01*
X142873297Y-84344070D01*
X142671283Y-84265809D01*
X142570065Y-84246888D01*
X142507786Y-84215221D01*
X142472513Y-84154908D01*
X142475447Y-84085100D01*
X142515656Y-84027960D01*
X142570064Y-84003111D01*
X142671283Y-83984191D01*
X142873300Y-83905929D01*
X143057498Y-83791879D01*
X143217602Y-83645924D01*
X143348162Y-83473036D01*
X143444730Y-83279101D01*
X143504018Y-83070723D01*
X143524008Y-82855000D01*
X143504018Y-82639277D01*
X143444730Y-82430899D01*
X143348162Y-82236964D01*
X143217602Y-82064076D01*
X143217600Y-82064073D01*
X143057498Y-81918121D01*
X143057496Y-81918119D01*
X142873303Y-81804072D01*
X142873297Y-81804070D01*
X142671283Y-81725809D01*
X142570065Y-81706888D01*
X142507786Y-81675221D01*
X142472513Y-81614908D01*
X142475447Y-81545100D01*
X142515656Y-81487960D01*
X142570064Y-81463111D01*
X142671283Y-81444191D01*
X142873300Y-81365929D01*
X143057498Y-81251879D01*
X143217602Y-81105924D01*
X143348162Y-80933036D01*
X143444730Y-80739101D01*
X143504018Y-80530723D01*
X143524008Y-80315000D01*
X143504018Y-80099277D01*
X143444730Y-79890899D01*
X143348162Y-79696964D01*
X143217602Y-79524076D01*
X143217600Y-79524073D01*
X143057498Y-79378121D01*
X143057496Y-79378119D01*
X142873303Y-79264072D01*
X142873297Y-79264070D01*
X142671283Y-79185809D01*
X142546937Y-79162564D01*
X142484657Y-79130896D01*
X142449384Y-79070584D01*
X142452318Y-79000776D01*
X142492527Y-78943636D01*
X142546939Y-78918787D01*
X142668949Y-78895980D01*
X142869495Y-78818288D01*
X142869496Y-78818287D01*
X142974635Y-78753187D01*
X142402948Y-78181500D01*
X142403517Y-78181500D01*
X142506903Y-78153798D01*
X142599597Y-78100281D01*
X142675281Y-78024597D01*
X142728798Y-77931903D01*
X142756500Y-77828517D01*
X142756500Y-77827947D01*
X143330660Y-78402107D01*
X143330660Y-78402106D01*
X143340902Y-78388544D01*
X143340907Y-78388536D01*
X143436765Y-78196027D01*
X143436770Y-78196014D01*
X143495628Y-77989154D01*
X143515472Y-77775000D01*
X143515472Y-77774999D01*
X143495628Y-77560845D01*
X143436770Y-77353985D01*
X143436765Y-77353972D01*
X143340903Y-77161457D01*
X143330660Y-77147892D01*
X142756500Y-77722052D01*
X142756500Y-77721483D01*
X142728798Y-77618097D01*
X142675281Y-77525403D01*
X142599597Y-77449719D01*
X142506903Y-77396202D01*
X142403517Y-77368500D01*
X142402947Y-77368500D01*
X142974635Y-76796811D01*
X142974634Y-76796810D01*
X142869499Y-76731713D01*
X142869493Y-76731710D01*
X142668950Y-76654020D01*
X142457533Y-76614500D01*
X142242467Y-76614500D01*
X142031050Y-76654020D01*
X141830505Y-76731711D01*
X141725363Y-76796811D01*
X142297054Y-77368500D01*
X142296483Y-77368500D01*
X142193097Y-77396202D01*
X142100403Y-77449719D01*
X142024719Y-77525403D01*
X141971202Y-77618097D01*
X141943500Y-77721483D01*
X141943500Y-77722053D01*
X141369339Y-77147892D01*
X141369338Y-77147892D01*
X141359096Y-77161457D01*
X141263234Y-77353972D01*
X141263229Y-77353985D01*
X141204371Y-77560845D01*
X141184528Y-77774999D01*
X141184528Y-77775000D01*
X141204371Y-77989154D01*
X141263229Y-78196014D01*
X141263234Y-78196027D01*
X141359097Y-78388544D01*
X141369339Y-78402107D01*
X141943500Y-77827946D01*
X141943500Y-77828517D01*
X141971202Y-77931903D01*
X142024719Y-78024597D01*
X142100403Y-78100281D01*
X142193097Y-78153798D01*
X142296483Y-78181500D01*
X142297053Y-78181500D01*
X141725363Y-78753187D01*
X141830505Y-78818288D01*
X141830506Y-78818289D01*
X142031050Y-78895980D01*
X142153060Y-78918787D01*
X142215341Y-78950455D01*
X142250615Y-79010767D01*
X142247682Y-79080575D01*
X142207473Y-79137715D01*
X142153062Y-79162564D01*
X142028717Y-79185809D01*
X141900964Y-79235300D01*
X141826702Y-79264070D01*
X141826696Y-79264072D01*
X141642503Y-79378119D01*
X141642501Y-79378121D01*
X141482399Y-79524073D01*
X141351838Y-79696963D01*
X141255271Y-79890895D01*
X141255270Y-79890899D01*
X141200822Y-80082268D01*
X141195981Y-80099281D01*
X141175992Y-80314999D01*
X130444008Y-80314999D01*
X130424018Y-80099277D01*
X130364730Y-79890899D01*
X130268162Y-79696964D01*
X130137602Y-79524076D01*
X130137600Y-79524073D01*
X129977498Y-79378121D01*
X129977496Y-79378119D01*
X129793303Y-79264072D01*
X129793297Y-79264070D01*
X129591283Y-79185809D01*
X129490065Y-79166888D01*
X129427786Y-79135221D01*
X129392513Y-79074908D01*
X129395447Y-79005100D01*
X129435656Y-78947960D01*
X129490064Y-78923111D01*
X129591283Y-78904191D01*
X129793300Y-78825929D01*
X129977498Y-78711879D01*
X130137602Y-78565924D01*
X130268162Y-78393036D01*
X130364730Y-78199101D01*
X130424018Y-77990723D01*
X130444008Y-77775000D01*
X130424018Y-77559277D01*
X130364730Y-77350899D01*
X130268162Y-77156964D01*
X130137602Y-76984076D01*
X130137600Y-76984073D01*
X129977498Y-76838121D01*
X129977496Y-76838119D01*
X129793303Y-76724072D01*
X129793297Y-76724070D01*
X129591283Y-76645809D01*
X129378324Y-76606000D01*
X129161676Y-76606000D01*
X128948717Y-76645809D01*
X128820964Y-76695300D01*
X128746702Y-76724070D01*
X128746696Y-76724072D01*
X128562503Y-76838119D01*
X128562501Y-76838121D01*
X128402399Y-76984073D01*
X128271838Y-77156963D01*
X128175271Y-77350895D01*
X128175270Y-77350899D01*
X128120822Y-77542268D01*
X128115981Y-77559281D01*
X128095992Y-77774999D01*
X119535826Y-77774999D01*
X119586749Y-77658907D01*
X119644051Y-77432626D01*
X119663327Y-77200000D01*
X119660133Y-77161457D01*
X119644051Y-76967377D01*
X119644051Y-76967374D01*
X119586749Y-76741093D01*
X119492984Y-76527331D01*
X119462474Y-76480632D01*
X119365313Y-76331915D01*
X119207223Y-76160185D01*
X119207222Y-76160184D01*
X119207220Y-76160182D01*
X119023017Y-76016810D01*
X119023015Y-76016809D01*
X119023014Y-76016808D01*
X119023011Y-76016806D01*
X118817733Y-75905716D01*
X118817730Y-75905715D01*
X118817727Y-75905713D01*
X118817721Y-75905711D01*
X118817719Y-75905710D01*
X118596954Y-75829920D01*
X118417650Y-75800000D01*
X118366712Y-75791500D01*
X118133288Y-75791500D01*
X118087240Y-75799184D01*
X117903045Y-75829920D01*
X117682280Y-75905710D01*
X117682266Y-75905716D01*
X117476988Y-76016806D01*
X117476985Y-76016808D01*
X117292781Y-76160181D01*
X117292776Y-76160185D01*
X117286346Y-76167170D01*
X117226457Y-76203157D01*
X117156619Y-76201052D01*
X117099005Y-76161524D01*
X117078940Y-76126513D01*
X117053355Y-76057915D01*
X117053350Y-76057906D01*
X116967190Y-75942812D01*
X116967187Y-75942809D01*
X116852093Y-75856649D01*
X116852086Y-75856645D01*
X116717379Y-75806403D01*
X116717372Y-75806401D01*
X116657844Y-75800000D01*
X115960000Y-75800000D01*
X115960000Y-76824722D01*
X115883694Y-76780667D01*
X115769244Y-76750000D01*
X115650756Y-76750000D01*
X115536306Y-76780667D01*
X115460000Y-76824722D01*
X115460000Y-75800000D01*
X114762155Y-75800000D01*
X114702627Y-75806401D01*
X114702620Y-75806403D01*
X114567913Y-75856645D01*
X114567906Y-75856649D01*
X114452812Y-75942809D01*
X114452809Y-75942812D01*
X114366649Y-76057906D01*
X114366645Y-76057913D01*
X114316403Y-76192620D01*
X114316401Y-76192627D01*
X114310000Y-76252155D01*
X100075500Y-76252155D01*
X100075500Y-74164994D01*
X163636844Y-74164994D01*
X163636844Y-74165005D01*
X163655434Y-74389359D01*
X163655436Y-74389371D01*
X163710703Y-74607614D01*
X163801140Y-74813792D01*
X163924276Y-75002265D01*
X163924284Y-75002276D01*
X164076756Y-75167902D01*
X164076760Y-75167906D01*
X164254424Y-75306189D01*
X164254429Y-75306191D01*
X164254431Y-75306193D01*
X164290930Y-75325946D01*
X164340520Y-75375165D01*
X164355628Y-75443382D01*
X164331457Y-75508937D01*
X164290930Y-75544054D01*
X164254431Y-75563806D01*
X164254422Y-75563812D01*
X164076761Y-75702092D01*
X164076756Y-75702097D01*
X163924284Y-75867723D01*
X163924276Y-75867734D01*
X163801140Y-76056207D01*
X163710703Y-76262385D01*
X163655436Y-76480628D01*
X163655434Y-76480640D01*
X163636844Y-76704994D01*
X163636844Y-76705005D01*
X163655434Y-76929359D01*
X163655436Y-76929371D01*
X163710703Y-77147614D01*
X163801140Y-77353792D01*
X163924276Y-77542265D01*
X163924284Y-77542276D01*
X164076756Y-77707902D01*
X164076761Y-77707907D01*
X164135981Y-77754000D01*
X164254424Y-77846189D01*
X164254429Y-77846191D01*
X164254431Y-77846193D01*
X164290930Y-77865946D01*
X164340520Y-77915165D01*
X164355628Y-77983382D01*
X164331457Y-78048937D01*
X164290930Y-78084054D01*
X164254431Y-78103806D01*
X164254422Y-78103812D01*
X164076761Y-78242092D01*
X164076756Y-78242097D01*
X163924284Y-78407723D01*
X163924276Y-78407734D01*
X163801140Y-78596207D01*
X163710703Y-78802385D01*
X163655436Y-79020628D01*
X163655434Y-79020640D01*
X163636844Y-79244994D01*
X163636844Y-79245005D01*
X163655434Y-79469359D01*
X163655436Y-79469371D01*
X163710703Y-79687614D01*
X163801140Y-79893792D01*
X163924276Y-80082265D01*
X163924284Y-80082276D01*
X164076756Y-80247902D01*
X164076760Y-80247906D01*
X164254424Y-80386189D01*
X164297693Y-80409605D01*
X164297695Y-80409606D01*
X164347286Y-80458825D01*
X164362394Y-80527042D01*
X164338224Y-80592597D01*
X164309802Y-80620236D01*
X164128922Y-80746890D01*
X164128920Y-80746891D01*
X163961891Y-80913920D01*
X163961886Y-80913926D01*
X163826400Y-81107420D01*
X163826399Y-81107422D01*
X163726570Y-81321507D01*
X163726567Y-81321513D01*
X163669364Y-81534999D01*
X163669364Y-81535000D01*
X164566988Y-81535000D01*
X164534075Y-81592007D01*
X164500000Y-81719174D01*
X164500000Y-81850826D01*
X164534075Y-81977993D01*
X164566988Y-82035000D01*
X163669364Y-82035000D01*
X163726567Y-82248486D01*
X163726570Y-82248492D01*
X163826399Y-82462578D01*
X163961894Y-82656082D01*
X164128917Y-82823105D01*
X164309802Y-82949763D01*
X164353427Y-83004340D01*
X164360619Y-83073839D01*
X164329097Y-83136193D01*
X164297697Y-83160392D01*
X164254427Y-83183809D01*
X164254422Y-83183812D01*
X164076761Y-83322092D01*
X164076756Y-83322097D01*
X163924284Y-83487723D01*
X163924276Y-83487734D01*
X163801140Y-83676207D01*
X163710703Y-83882385D01*
X163655436Y-84100628D01*
X163655434Y-84100640D01*
X163636844Y-84324994D01*
X163636844Y-84325005D01*
X163655434Y-84549359D01*
X163655436Y-84549371D01*
X163710703Y-84767614D01*
X163801140Y-84973792D01*
X163924276Y-85162265D01*
X163924284Y-85162276D01*
X164041697Y-85289818D01*
X164076760Y-85327906D01*
X164254424Y-85466189D01*
X164254425Y-85466189D01*
X164254427Y-85466191D01*
X164330182Y-85507187D01*
X164452426Y-85573342D01*
X164665365Y-85646444D01*
X164887431Y-85683500D01*
X165112569Y-85683500D01*
X165334635Y-85646444D01*
X165547574Y-85573342D01*
X165745576Y-85466189D01*
X165923240Y-85327906D01*
X166042972Y-85197844D01*
X166075715Y-85162276D01*
X166075716Y-85162274D01*
X166075722Y-85162268D01*
X166198860Y-84973791D01*
X166289296Y-84767616D01*
X166344564Y-84549368D01*
X166352125Y-84458121D01*
X166363156Y-84325005D01*
X166363156Y-84324994D01*
X166344565Y-84100640D01*
X166344563Y-84100628D01*
X166289296Y-83882385D01*
X166249597Y-83791880D01*
X166198860Y-83676209D01*
X166075722Y-83487732D01*
X166075719Y-83487729D01*
X166075715Y-83487723D01*
X165923243Y-83322097D01*
X165923238Y-83322092D01*
X165745577Y-83183812D01*
X165745577Y-83183811D01*
X165702303Y-83160393D01*
X165652713Y-83111173D01*
X165637605Y-83042957D01*
X165661775Y-82977401D01*
X165690198Y-82949763D01*
X165871079Y-82823108D01*
X166038105Y-82656082D01*
X166173600Y-82462578D01*
X166273429Y-82248492D01*
X166273432Y-82248486D01*
X166330636Y-82035000D01*
X165433012Y-82035000D01*
X165465925Y-81977993D01*
X165500000Y-81850826D01*
X165500000Y-81719174D01*
X165465925Y-81592007D01*
X165433012Y-81535000D01*
X166330636Y-81535000D01*
X166330635Y-81534999D01*
X166273432Y-81321513D01*
X166273429Y-81321507D01*
X166173600Y-81107422D01*
X166173599Y-81107420D01*
X166038113Y-80913926D01*
X166038108Y-80913920D01*
X165871082Y-80746894D01*
X165690197Y-80620236D01*
X165646572Y-80565659D01*
X165639380Y-80496160D01*
X165670902Y-80433806D01*
X165702300Y-80409608D01*
X165745576Y-80386189D01*
X165923240Y-80247906D01*
X166022614Y-80139957D01*
X166075715Y-80082276D01*
X166075716Y-80082274D01*
X166075722Y-80082268D01*
X166198860Y-79893791D01*
X166289296Y-79687616D01*
X166344564Y-79469368D01*
X166352125Y-79378121D01*
X166363156Y-79245005D01*
X166363156Y-79244994D01*
X166344565Y-79020640D01*
X166344563Y-79020628D01*
X166295258Y-78825927D01*
X166289296Y-78802384D01*
X166198860Y-78596209D01*
X166181788Y-78570079D01*
X166132271Y-78494287D01*
X166075722Y-78407732D01*
X166075719Y-78407729D01*
X166075715Y-78407723D01*
X165923243Y-78242097D01*
X165923238Y-78242092D01*
X165745577Y-78103812D01*
X165745578Y-78103812D01*
X165745576Y-78103811D01*
X165709070Y-78084055D01*
X165659479Y-78034836D01*
X165644371Y-77966619D01*
X165668541Y-77901064D01*
X165709070Y-77865945D01*
X165709084Y-77865936D01*
X165745576Y-77846189D01*
X165923240Y-77707906D01*
X166059316Y-77560090D01*
X166075715Y-77542276D01*
X166075716Y-77542274D01*
X166075722Y-77542268D01*
X166198860Y-77353791D01*
X166289296Y-77147616D01*
X166344564Y-76929368D01*
X166352125Y-76838121D01*
X166363156Y-76705005D01*
X166363156Y-76704994D01*
X166344565Y-76480640D01*
X166344563Y-76480628D01*
X166289296Y-76262385D01*
X166263316Y-76203157D01*
X166198860Y-76056209D01*
X166173119Y-76016810D01*
X166075723Y-75867734D01*
X166075715Y-75867723D01*
X165923243Y-75702097D01*
X165923238Y-75702092D01*
X165745577Y-75563812D01*
X165745578Y-75563812D01*
X165745576Y-75563811D01*
X165709070Y-75544055D01*
X165659479Y-75494836D01*
X165644371Y-75426619D01*
X165668541Y-75361064D01*
X165709070Y-75325945D01*
X165709084Y-75325936D01*
X165745576Y-75306189D01*
X165923240Y-75167906D01*
X166075722Y-75002268D01*
X166198860Y-74813791D01*
X166289296Y-74607616D01*
X166344564Y-74389368D01*
X166363156Y-74165000D01*
X166344564Y-73940632D01*
X166289296Y-73722384D01*
X166198860Y-73516209D01*
X166075722Y-73327732D01*
X166075719Y-73327729D01*
X166075715Y-73327723D01*
X165930510Y-73169991D01*
X165899587Y-73107337D01*
X165907447Y-73037911D01*
X165951594Y-72983755D01*
X165978405Y-72969827D01*
X166058584Y-72939920D01*
X166096204Y-72925889D01*
X166213261Y-72838261D01*
X166300889Y-72721204D01*
X166351989Y-72584201D01*
X166355591Y-72550692D01*
X166358499Y-72523654D01*
X166358500Y-72523637D01*
X166358500Y-70726362D01*
X166358499Y-70726345D01*
X166355157Y-70695270D01*
X166351989Y-70665799D01*
X166300889Y-70528796D01*
X166213261Y-70411739D01*
X166096204Y-70324111D01*
X165959203Y-70273011D01*
X165898654Y-70266500D01*
X165898638Y-70266500D01*
X164101362Y-70266500D01*
X164101345Y-70266500D01*
X164040797Y-70273011D01*
X164040795Y-70273011D01*
X163903795Y-70324111D01*
X163786739Y-70411739D01*
X163699111Y-70528795D01*
X163648011Y-70665795D01*
X163648011Y-70665797D01*
X163641500Y-70726345D01*
X163641500Y-72523654D01*
X163648011Y-72584202D01*
X163648011Y-72584204D01*
X163699111Y-72721204D01*
X163786739Y-72838261D01*
X163903796Y-72925889D01*
X163955737Y-72945262D01*
X164021595Y-72969827D01*
X164077528Y-73011699D01*
X164101944Y-73077163D01*
X164087092Y-73145436D01*
X164069490Y-73169991D01*
X163924279Y-73327730D01*
X163924276Y-73327734D01*
X163801140Y-73516207D01*
X163710703Y-73722385D01*
X163655436Y-73940628D01*
X163655434Y-73940640D01*
X163636844Y-74164994D01*
X100075500Y-74164994D01*
X100075500Y-72299998D01*
X123856502Y-72299998D01*
X123856502Y-72300001D01*
X123876456Y-72528081D01*
X123876457Y-72528089D01*
X123935714Y-72749238D01*
X123935718Y-72749249D01*
X124018086Y-72925888D01*
X124032477Y-72956749D01*
X124163802Y-73144300D01*
X124325700Y-73306198D01*
X124513251Y-73437523D01*
X124638091Y-73495736D01*
X124720750Y-73534281D01*
X124720752Y-73534281D01*
X124720757Y-73534284D01*
X124941913Y-73593543D01*
X125104832Y-73607796D01*
X125169998Y-73613498D01*
X125170000Y-73613498D01*
X125170002Y-73613498D01*
X125227021Y-73608509D01*
X125398087Y-73593543D01*
X125619243Y-73534284D01*
X125826749Y-73437523D01*
X126014300Y-73306198D01*
X126176198Y-73144300D01*
X126307523Y-72956749D01*
X126404284Y-72749243D01*
X126463543Y-72528087D01*
X126483498Y-72300000D01*
X126483498Y-72299998D01*
X134016502Y-72299998D01*
X134016502Y-72300001D01*
X134036456Y-72528081D01*
X134036457Y-72528089D01*
X134095714Y-72749238D01*
X134095718Y-72749249D01*
X134178086Y-72925888D01*
X134192477Y-72956749D01*
X134323802Y-73144300D01*
X134485700Y-73306198D01*
X134673251Y-73437523D01*
X134798091Y-73495736D01*
X134880750Y-73534281D01*
X134880752Y-73534281D01*
X134880757Y-73534284D01*
X135101913Y-73593543D01*
X135264832Y-73607796D01*
X135329998Y-73613498D01*
X135330000Y-73613498D01*
X135330002Y-73613498D01*
X135387021Y-73608509D01*
X135558087Y-73593543D01*
X135779243Y-73534284D01*
X135986749Y-73437523D01*
X136174300Y-73306198D01*
X136336198Y-73144300D01*
X136467523Y-72956749D01*
X136564284Y-72749243D01*
X136623543Y-72528087D01*
X136643498Y-72300000D01*
X136623543Y-72071913D01*
X136564284Y-71850757D01*
X136467523Y-71643251D01*
X136336198Y-71455700D01*
X136174300Y-71293802D01*
X135986749Y-71162477D01*
X135986745Y-71162475D01*
X135779249Y-71065718D01*
X135779238Y-71065714D01*
X135558089Y-71006457D01*
X135558081Y-71006456D01*
X135330002Y-70986502D01*
X135329998Y-70986502D01*
X135101918Y-71006456D01*
X135101910Y-71006457D01*
X134880761Y-71065714D01*
X134880750Y-71065718D01*
X134673254Y-71162475D01*
X134673252Y-71162476D01*
X134673251Y-71162477D01*
X134485700Y-71293802D01*
X134485698Y-71293803D01*
X134485695Y-71293806D01*
X134323806Y-71455695D01*
X134323803Y-71455698D01*
X134323802Y-71455700D01*
X134241767Y-71572856D01*
X134192476Y-71643252D01*
X134192475Y-71643254D01*
X134095718Y-71850750D01*
X134095714Y-71850761D01*
X134036457Y-72071910D01*
X134036456Y-72071918D01*
X134016502Y-72299998D01*
X126483498Y-72299998D01*
X126463543Y-72071913D01*
X126404284Y-71850757D01*
X126307523Y-71643251D01*
X126176198Y-71455700D01*
X126014300Y-71293802D01*
X125826749Y-71162477D01*
X125826745Y-71162475D01*
X125619249Y-71065718D01*
X125619238Y-71065714D01*
X125398089Y-71006457D01*
X125398081Y-71006456D01*
X125170002Y-70986502D01*
X125169998Y-70986502D01*
X124941918Y-71006456D01*
X124941910Y-71006457D01*
X124720761Y-71065714D01*
X124720750Y-71065718D01*
X124513254Y-71162475D01*
X124513252Y-71162476D01*
X124513251Y-71162477D01*
X124325700Y-71293802D01*
X124325698Y-71293803D01*
X124325695Y-71293806D01*
X124163806Y-71455695D01*
X124163803Y-71455698D01*
X124163802Y-71455700D01*
X124081767Y-71572856D01*
X124032476Y-71643252D01*
X124032475Y-71643254D01*
X123935718Y-71850750D01*
X123935714Y-71850761D01*
X123876457Y-72071910D01*
X123876456Y-72071918D01*
X123856502Y-72299998D01*
X100075500Y-72299998D01*
X100075500Y-69102155D01*
X114260000Y-69102155D01*
X114260000Y-69800000D01*
X115284722Y-69800000D01*
X115240667Y-69876306D01*
X115210000Y-69990756D01*
X115210000Y-70109244D01*
X115240667Y-70223694D01*
X115284722Y-70300000D01*
X114260000Y-70300000D01*
X114260000Y-70997844D01*
X114266401Y-71057372D01*
X114266403Y-71057379D01*
X114316645Y-71192086D01*
X114316649Y-71192093D01*
X114402809Y-71307187D01*
X114402812Y-71307190D01*
X114517906Y-71393350D01*
X114517913Y-71393354D01*
X114652620Y-71443596D01*
X114652627Y-71443598D01*
X114712155Y-71449999D01*
X114712172Y-71450000D01*
X115410000Y-71450000D01*
X115410000Y-70425277D01*
X115486306Y-70469333D01*
X115600756Y-70500000D01*
X115719244Y-70500000D01*
X115833694Y-70469333D01*
X115910000Y-70425277D01*
X115910000Y-71450000D01*
X116607828Y-71450000D01*
X116607844Y-71449999D01*
X116667372Y-71443598D01*
X116667379Y-71443596D01*
X116802086Y-71393354D01*
X116802093Y-71393350D01*
X116917187Y-71307190D01*
X116917190Y-71307187D01*
X117003350Y-71192093D01*
X117003355Y-71192084D01*
X117028940Y-71123486D01*
X117070810Y-71067552D01*
X117136274Y-71043134D01*
X117204547Y-71057985D01*
X117236349Y-71082832D01*
X117242780Y-71089818D01*
X117426983Y-71233190D01*
X117426985Y-71233191D01*
X117426988Y-71233193D01*
X117538985Y-71293802D01*
X117632273Y-71344287D01*
X117746914Y-71383643D01*
X117853045Y-71420079D01*
X117853047Y-71420079D01*
X117853049Y-71420080D01*
X118083288Y-71458500D01*
X118083289Y-71458500D01*
X118316711Y-71458500D01*
X118316712Y-71458500D01*
X118546951Y-71420080D01*
X118767727Y-71344287D01*
X118973017Y-71233190D01*
X119157220Y-71089818D01*
X119315314Y-70918083D01*
X119442984Y-70722669D01*
X119536749Y-70508907D01*
X119594051Y-70282626D01*
X119608418Y-70109244D01*
X119613327Y-70050005D01*
X119613327Y-70049994D01*
X119594051Y-69817377D01*
X119594051Y-69817374D01*
X119536749Y-69591093D01*
X119442984Y-69377331D01*
X119410811Y-69328087D01*
X119315313Y-69181915D01*
X119239902Y-69099998D01*
X123856502Y-69099998D01*
X123856502Y-69100001D01*
X123876456Y-69328081D01*
X123876457Y-69328089D01*
X123935714Y-69549238D01*
X123935718Y-69549249D01*
X124032475Y-69756745D01*
X124032477Y-69756749D01*
X124163802Y-69944300D01*
X124325700Y-70106198D01*
X124513251Y-70237523D01*
X124638091Y-70295736D01*
X124720750Y-70334281D01*
X124720752Y-70334281D01*
X124720757Y-70334284D01*
X124941913Y-70393543D01*
X125104832Y-70407796D01*
X125169998Y-70413498D01*
X125170000Y-70413498D01*
X125170002Y-70413498D01*
X125227021Y-70408509D01*
X125398087Y-70393543D01*
X125619243Y-70334284D01*
X125826749Y-70237523D01*
X126014300Y-70106198D01*
X126176198Y-69944300D01*
X126307523Y-69756749D01*
X126404284Y-69549243D01*
X126463543Y-69328087D01*
X126480647Y-69132583D01*
X126483498Y-69100001D01*
X126483498Y-69099998D01*
X134016502Y-69099998D01*
X134016502Y-69100001D01*
X134036456Y-69328081D01*
X134036457Y-69328089D01*
X134095714Y-69549238D01*
X134095718Y-69549249D01*
X134192475Y-69756745D01*
X134192477Y-69756749D01*
X134323802Y-69944300D01*
X134485700Y-70106198D01*
X134673251Y-70237523D01*
X134798091Y-70295736D01*
X134880750Y-70334281D01*
X134880752Y-70334281D01*
X134880757Y-70334284D01*
X135101913Y-70393543D01*
X135264832Y-70407796D01*
X135329998Y-70413498D01*
X135330000Y-70413498D01*
X135330002Y-70413498D01*
X135387021Y-70408509D01*
X135558087Y-70393543D01*
X135779243Y-70334284D01*
X135986749Y-70237523D01*
X136174300Y-70106198D01*
X136336198Y-69944300D01*
X136467523Y-69756749D01*
X136564284Y-69549243D01*
X136623543Y-69328087D01*
X136640647Y-69132583D01*
X136643498Y-69100001D01*
X136643498Y-69099998D01*
X136632694Y-68976513D01*
X136623543Y-68871913D01*
X136564284Y-68650757D01*
X136559967Y-68641500D01*
X136467524Y-68443254D01*
X136467523Y-68443252D01*
X136467523Y-68443251D01*
X136336198Y-68255700D01*
X136174300Y-68093802D01*
X135986749Y-67962477D01*
X135986745Y-67962475D01*
X135779249Y-67865718D01*
X135779238Y-67865714D01*
X135558089Y-67806457D01*
X135558081Y-67806456D01*
X135330002Y-67786502D01*
X135329998Y-67786502D01*
X135101918Y-67806456D01*
X135101910Y-67806457D01*
X134880761Y-67865714D01*
X134880750Y-67865718D01*
X134673254Y-67962475D01*
X134673252Y-67962476D01*
X134673251Y-67962477D01*
X134485700Y-68093802D01*
X134485698Y-68093803D01*
X134485695Y-68093806D01*
X134323806Y-68255695D01*
X134192476Y-68443252D01*
X134192475Y-68443254D01*
X134095718Y-68650750D01*
X134095714Y-68650761D01*
X134036457Y-68871910D01*
X134036456Y-68871918D01*
X134016502Y-69099998D01*
X126483498Y-69099998D01*
X126472694Y-68976513D01*
X126463543Y-68871913D01*
X126404284Y-68650757D01*
X126399967Y-68641500D01*
X126307524Y-68443254D01*
X126307523Y-68443252D01*
X126307523Y-68443251D01*
X126176198Y-68255700D01*
X126014300Y-68093802D01*
X125826749Y-67962477D01*
X125826745Y-67962475D01*
X125619249Y-67865718D01*
X125619238Y-67865714D01*
X125398089Y-67806457D01*
X125398081Y-67806456D01*
X125170002Y-67786502D01*
X125169998Y-67786502D01*
X124941918Y-67806456D01*
X124941910Y-67806457D01*
X124720761Y-67865714D01*
X124720750Y-67865718D01*
X124513254Y-67962475D01*
X124513252Y-67962476D01*
X124513251Y-67962477D01*
X124325700Y-68093802D01*
X124325698Y-68093803D01*
X124325695Y-68093806D01*
X124163806Y-68255695D01*
X124032476Y-68443252D01*
X124032475Y-68443254D01*
X123935718Y-68650750D01*
X123935714Y-68650761D01*
X123876457Y-68871910D01*
X123876456Y-68871918D01*
X123856502Y-69099998D01*
X119239902Y-69099998D01*
X119157223Y-69010185D01*
X119157222Y-69010184D01*
X119157220Y-69010182D01*
X118973017Y-68866810D01*
X118973015Y-68866809D01*
X118973014Y-68866808D01*
X118973011Y-68866806D01*
X118767733Y-68755716D01*
X118767730Y-68755715D01*
X118767727Y-68755713D01*
X118767721Y-68755711D01*
X118767719Y-68755710D01*
X118546954Y-68679920D01*
X118367650Y-68650000D01*
X118316712Y-68641500D01*
X118083288Y-68641500D01*
X118037240Y-68649184D01*
X117853045Y-68679920D01*
X117632280Y-68755710D01*
X117632266Y-68755716D01*
X117426988Y-68866806D01*
X117426985Y-68866808D01*
X117242781Y-69010181D01*
X117242776Y-69010185D01*
X117236346Y-69017170D01*
X117176457Y-69053157D01*
X117106619Y-69051052D01*
X117049005Y-69011524D01*
X117028940Y-68976513D01*
X117003355Y-68907915D01*
X117003350Y-68907906D01*
X116917190Y-68792812D01*
X116917187Y-68792809D01*
X116802093Y-68706649D01*
X116802086Y-68706645D01*
X116667379Y-68656403D01*
X116667372Y-68656401D01*
X116607844Y-68650000D01*
X115910000Y-68650000D01*
X115910000Y-69674722D01*
X115833694Y-69630667D01*
X115719244Y-69600000D01*
X115600756Y-69600000D01*
X115486306Y-69630667D01*
X115410000Y-69674722D01*
X115410000Y-68650000D01*
X114712155Y-68650000D01*
X114652627Y-68656401D01*
X114652620Y-68656403D01*
X114517913Y-68706645D01*
X114517906Y-68706649D01*
X114402812Y-68792809D01*
X114402809Y-68792812D01*
X114316649Y-68907906D01*
X114316645Y-68907913D01*
X114266403Y-69042620D01*
X114266401Y-69042627D01*
X114260000Y-69102155D01*
X100075500Y-69102155D01*
X100075500Y-65849998D01*
X123866502Y-65849998D01*
X123866502Y-65850001D01*
X123886456Y-66078081D01*
X123886457Y-66078089D01*
X123945714Y-66299238D01*
X123945718Y-66299249D01*
X124042475Y-66506745D01*
X124042477Y-66506749D01*
X124173802Y-66694300D01*
X124335700Y-66856198D01*
X124523251Y-66987523D01*
X124648091Y-67045736D01*
X124730750Y-67084281D01*
X124730752Y-67084281D01*
X124730757Y-67084284D01*
X124951913Y-67143543D01*
X125114832Y-67157796D01*
X125179998Y-67163498D01*
X125180000Y-67163498D01*
X125180002Y-67163498D01*
X125237021Y-67158509D01*
X125408087Y-67143543D01*
X125629243Y-67084284D01*
X125836749Y-66987523D01*
X126024300Y-66856198D01*
X126186198Y-66694300D01*
X126317523Y-66506749D01*
X126414284Y-66299243D01*
X126473543Y-66078087D01*
X126493498Y-65850000D01*
X126493498Y-65849998D01*
X134026502Y-65849998D01*
X134026502Y-65850001D01*
X134046456Y-66078081D01*
X134046457Y-66078089D01*
X134105714Y-66299238D01*
X134105718Y-66299249D01*
X134202475Y-66506745D01*
X134202477Y-66506749D01*
X134333802Y-66694300D01*
X134495700Y-66856198D01*
X134683251Y-66987523D01*
X134808091Y-67045736D01*
X134890750Y-67084281D01*
X134890752Y-67084281D01*
X134890757Y-67084284D01*
X135111913Y-67143543D01*
X135274832Y-67157796D01*
X135339998Y-67163498D01*
X135340000Y-67163498D01*
X135340002Y-67163498D01*
X135397021Y-67158509D01*
X135568087Y-67143543D01*
X135789243Y-67084284D01*
X135996749Y-66987523D01*
X136184300Y-66856198D01*
X136346198Y-66694300D01*
X136477523Y-66506749D01*
X136574284Y-66299243D01*
X136633543Y-66078087D01*
X136653498Y-65850000D01*
X136633543Y-65621913D01*
X136574284Y-65400757D01*
X136477523Y-65193251D01*
X136346198Y-65005700D01*
X136184300Y-64843802D01*
X135996749Y-64712477D01*
X135996745Y-64712475D01*
X135789249Y-64615718D01*
X135789238Y-64615714D01*
X135568089Y-64556457D01*
X135568081Y-64556456D01*
X135340002Y-64536502D01*
X135339998Y-64536502D01*
X135111918Y-64556456D01*
X135111910Y-64556457D01*
X134890761Y-64615714D01*
X134890750Y-64615718D01*
X134683254Y-64712475D01*
X134683252Y-64712476D01*
X134683251Y-64712477D01*
X134495700Y-64843802D01*
X134495698Y-64843803D01*
X134495695Y-64843806D01*
X134333806Y-65005695D01*
X134202476Y-65193252D01*
X134202475Y-65193254D01*
X134105718Y-65400750D01*
X134105714Y-65400761D01*
X134046457Y-65621910D01*
X134046456Y-65621918D01*
X134026502Y-65849998D01*
X126493498Y-65849998D01*
X126473543Y-65621913D01*
X126414284Y-65400757D01*
X126317523Y-65193251D01*
X126186198Y-65005700D01*
X126024300Y-64843802D01*
X125836749Y-64712477D01*
X125836745Y-64712475D01*
X125629249Y-64615718D01*
X125629238Y-64615714D01*
X125408089Y-64556457D01*
X125408081Y-64556456D01*
X125180002Y-64536502D01*
X125179998Y-64536502D01*
X124951918Y-64556456D01*
X124951910Y-64556457D01*
X124730761Y-64615714D01*
X124730750Y-64615718D01*
X124523254Y-64712475D01*
X124523252Y-64712476D01*
X124523251Y-64712477D01*
X124335700Y-64843802D01*
X124335698Y-64843803D01*
X124335695Y-64843806D01*
X124173806Y-65005695D01*
X124042476Y-65193252D01*
X124042475Y-65193254D01*
X123945718Y-65400750D01*
X123945714Y-65400761D01*
X123886457Y-65621910D01*
X123886456Y-65621918D01*
X123866502Y-65849998D01*
X100075500Y-65849998D01*
X100075500Y-62252155D01*
X114210000Y-62252155D01*
X114210000Y-62950000D01*
X115234722Y-62950000D01*
X115190667Y-63026306D01*
X115160000Y-63140756D01*
X115160000Y-63259244D01*
X115190667Y-63373694D01*
X115234722Y-63450000D01*
X114210000Y-63450000D01*
X114210000Y-64147844D01*
X114216401Y-64207372D01*
X114216403Y-64207379D01*
X114266645Y-64342086D01*
X114266649Y-64342093D01*
X114352809Y-64457187D01*
X114352812Y-64457190D01*
X114467906Y-64543350D01*
X114467913Y-64543354D01*
X114602620Y-64593596D01*
X114602627Y-64593598D01*
X114662155Y-64599999D01*
X114662172Y-64600000D01*
X115360000Y-64600000D01*
X115360000Y-63575277D01*
X115436306Y-63619333D01*
X115550756Y-63650000D01*
X115669244Y-63650000D01*
X115783694Y-63619333D01*
X115860000Y-63575277D01*
X115860000Y-64600000D01*
X116557828Y-64600000D01*
X116557844Y-64599999D01*
X116617372Y-64593598D01*
X116617379Y-64593596D01*
X116752086Y-64543354D01*
X116752093Y-64543350D01*
X116867187Y-64457190D01*
X116867190Y-64457187D01*
X116953350Y-64342093D01*
X116953355Y-64342084D01*
X116978940Y-64273486D01*
X117020810Y-64217552D01*
X117086274Y-64193134D01*
X117154547Y-64207985D01*
X117186349Y-64232832D01*
X117192780Y-64239818D01*
X117376983Y-64383190D01*
X117376985Y-64383191D01*
X117376988Y-64383193D01*
X117496331Y-64447777D01*
X117582273Y-64494287D01*
X117696914Y-64533643D01*
X117803045Y-64570079D01*
X117803047Y-64570079D01*
X117803049Y-64570080D01*
X118033288Y-64608500D01*
X118033289Y-64608500D01*
X118266711Y-64608500D01*
X118266712Y-64608500D01*
X118496951Y-64570080D01*
X118717727Y-64494287D01*
X118923017Y-64383190D01*
X119107220Y-64239818D01*
X119265314Y-64068083D01*
X119392984Y-63872669D01*
X119486749Y-63658907D01*
X119544051Y-63432626D01*
X119554099Y-63311370D01*
X119563327Y-63200005D01*
X119563327Y-63199994D01*
X119544051Y-62967377D01*
X119544051Y-62967374D01*
X119486749Y-62741093D01*
X119402927Y-62549998D01*
X123856502Y-62549998D01*
X123856502Y-62550001D01*
X123876456Y-62778081D01*
X123876457Y-62778089D01*
X123935714Y-62999238D01*
X123935718Y-62999249D01*
X124000979Y-63139201D01*
X124032477Y-63206749D01*
X124163802Y-63394300D01*
X124325700Y-63556198D01*
X124513251Y-63687523D01*
X124638091Y-63745736D01*
X124720750Y-63784281D01*
X124720752Y-63784281D01*
X124720757Y-63784284D01*
X124941913Y-63843543D01*
X125104832Y-63857796D01*
X125169998Y-63863498D01*
X125170000Y-63863498D01*
X125170002Y-63863498D01*
X125227021Y-63858509D01*
X125398087Y-63843543D01*
X125619243Y-63784284D01*
X125826749Y-63687523D01*
X126014300Y-63556198D01*
X126176198Y-63394300D01*
X126307523Y-63206749D01*
X126404284Y-62999243D01*
X126463543Y-62778087D01*
X126483498Y-62550000D01*
X126483498Y-62549998D01*
X134016502Y-62549998D01*
X134016502Y-62550001D01*
X134036456Y-62778081D01*
X134036457Y-62778089D01*
X134095714Y-62999238D01*
X134095718Y-62999249D01*
X134160979Y-63139201D01*
X134192477Y-63206749D01*
X134323802Y-63394300D01*
X134485700Y-63556198D01*
X134673251Y-63687523D01*
X134798091Y-63745736D01*
X134880750Y-63784281D01*
X134880752Y-63784281D01*
X134880757Y-63784284D01*
X135101913Y-63843543D01*
X135264832Y-63857796D01*
X135329998Y-63863498D01*
X135330000Y-63863498D01*
X135330002Y-63863498D01*
X135387021Y-63858509D01*
X135558087Y-63843543D01*
X135779243Y-63784284D01*
X135986749Y-63687523D01*
X136174300Y-63556198D01*
X136336198Y-63394300D01*
X136467523Y-63206749D01*
X136564284Y-62999243D01*
X136623543Y-62778087D01*
X136643498Y-62550000D01*
X136623543Y-62321913D01*
X136564284Y-62100757D01*
X136544302Y-62057906D01*
X136496912Y-61956277D01*
X136467523Y-61893251D01*
X136336198Y-61705700D01*
X136174300Y-61543802D01*
X135986749Y-61412477D01*
X135986745Y-61412475D01*
X135779249Y-61315718D01*
X135779238Y-61315714D01*
X135558089Y-61256457D01*
X135558081Y-61256456D01*
X135330002Y-61236502D01*
X135329998Y-61236502D01*
X135101918Y-61256456D01*
X135101910Y-61256457D01*
X134880761Y-61315714D01*
X134880750Y-61315718D01*
X134673254Y-61412475D01*
X134673252Y-61412476D01*
X134673251Y-61412477D01*
X134485700Y-61543802D01*
X134485698Y-61543803D01*
X134485695Y-61543806D01*
X134323806Y-61705695D01*
X134192476Y-61893252D01*
X134192475Y-61893254D01*
X134095718Y-62100750D01*
X134095714Y-62100761D01*
X134036457Y-62321910D01*
X134036456Y-62321918D01*
X134016502Y-62549998D01*
X126483498Y-62549998D01*
X126463543Y-62321913D01*
X126404284Y-62100757D01*
X126384302Y-62057906D01*
X126336912Y-61956277D01*
X126307523Y-61893251D01*
X126176198Y-61705700D01*
X126014300Y-61543802D01*
X125826749Y-61412477D01*
X125826745Y-61412475D01*
X125619249Y-61315718D01*
X125619238Y-61315714D01*
X125398089Y-61256457D01*
X125398081Y-61256456D01*
X125170002Y-61236502D01*
X125169998Y-61236502D01*
X124941918Y-61256456D01*
X124941910Y-61256457D01*
X124720761Y-61315714D01*
X124720750Y-61315718D01*
X124513254Y-61412475D01*
X124513252Y-61412476D01*
X124513251Y-61412477D01*
X124325700Y-61543802D01*
X124325698Y-61543803D01*
X124325695Y-61543806D01*
X124163806Y-61705695D01*
X124032476Y-61893252D01*
X124032475Y-61893254D01*
X123935718Y-62100750D01*
X123935714Y-62100761D01*
X123876457Y-62321910D01*
X123876456Y-62321918D01*
X123856502Y-62549998D01*
X119402927Y-62549998D01*
X119392984Y-62527331D01*
X119265314Y-62331917D01*
X119265313Y-62331915D01*
X119107223Y-62160185D01*
X119107222Y-62160184D01*
X119107220Y-62160182D01*
X118923017Y-62016810D01*
X118923015Y-62016809D01*
X118923014Y-62016808D01*
X118923011Y-62016806D01*
X118717733Y-61905716D01*
X118717730Y-61905715D01*
X118717727Y-61905713D01*
X118717721Y-61905711D01*
X118717719Y-61905710D01*
X118496954Y-61829920D01*
X118317650Y-61800000D01*
X118266712Y-61791500D01*
X118033288Y-61791500D01*
X117987240Y-61799184D01*
X117803045Y-61829920D01*
X117582280Y-61905710D01*
X117582266Y-61905716D01*
X117376988Y-62016806D01*
X117376985Y-62016808D01*
X117192781Y-62160181D01*
X117192776Y-62160185D01*
X117186346Y-62167170D01*
X117126457Y-62203157D01*
X117056619Y-62201052D01*
X116999005Y-62161524D01*
X116978940Y-62126513D01*
X116953355Y-62057915D01*
X116953350Y-62057906D01*
X116867190Y-61942812D01*
X116867187Y-61942809D01*
X116752093Y-61856649D01*
X116752086Y-61856645D01*
X116617379Y-61806403D01*
X116617372Y-61806401D01*
X116557844Y-61800000D01*
X115860000Y-61800000D01*
X115860000Y-62824722D01*
X115783694Y-62780667D01*
X115669244Y-62750000D01*
X115550756Y-62750000D01*
X115436306Y-62780667D01*
X115360000Y-62824722D01*
X115360000Y-61800000D01*
X114662155Y-61800000D01*
X114602627Y-61806401D01*
X114602620Y-61806403D01*
X114467913Y-61856645D01*
X114467906Y-61856649D01*
X114352812Y-61942809D01*
X114352809Y-61942812D01*
X114266649Y-62057906D01*
X114266645Y-62057913D01*
X114216403Y-62192620D01*
X114216401Y-62192627D01*
X114210000Y-62252155D01*
X100075500Y-62252155D01*
X100075500Y-59299998D01*
X123856502Y-59299998D01*
X123856502Y-59300001D01*
X123876456Y-59528081D01*
X123876457Y-59528089D01*
X123935714Y-59749238D01*
X123935718Y-59749249D01*
X124032475Y-59956745D01*
X124032477Y-59956749D01*
X124163802Y-60144300D01*
X124325700Y-60306198D01*
X124513251Y-60437523D01*
X124638091Y-60495736D01*
X124720750Y-60534281D01*
X124720752Y-60534281D01*
X124720757Y-60534284D01*
X124941913Y-60593543D01*
X125104832Y-60607796D01*
X125169998Y-60613498D01*
X125170000Y-60613498D01*
X125170002Y-60613498D01*
X125227021Y-60608509D01*
X125398087Y-60593543D01*
X125619243Y-60534284D01*
X125826749Y-60437523D01*
X126014300Y-60306198D01*
X126176198Y-60144300D01*
X126307523Y-59956749D01*
X126404284Y-59749243D01*
X126463543Y-59528087D01*
X126483498Y-59300000D01*
X126483498Y-59299998D01*
X134016502Y-59299998D01*
X134016502Y-59300001D01*
X134036456Y-59528081D01*
X134036457Y-59528089D01*
X134095714Y-59749238D01*
X134095718Y-59749249D01*
X134192475Y-59956745D01*
X134192477Y-59956749D01*
X134323802Y-60144300D01*
X134485700Y-60306198D01*
X134673251Y-60437523D01*
X134798091Y-60495736D01*
X134880750Y-60534281D01*
X134880752Y-60534281D01*
X134880757Y-60534284D01*
X135101913Y-60593543D01*
X135264832Y-60607796D01*
X135329998Y-60613498D01*
X135330000Y-60613498D01*
X135330002Y-60613498D01*
X135387021Y-60608509D01*
X135558087Y-60593543D01*
X135779243Y-60534284D01*
X135986749Y-60437523D01*
X136174300Y-60306198D01*
X136336198Y-60144300D01*
X136467523Y-59956749D01*
X136564284Y-59749243D01*
X136623032Y-59529994D01*
X161146736Y-59529994D01*
X161146736Y-59530005D01*
X161166556Y-59769195D01*
X161225477Y-60001872D01*
X161321892Y-60221678D01*
X161453169Y-60422610D01*
X161453171Y-60422613D01*
X161615731Y-60599201D01*
X161615734Y-60599203D01*
X161615737Y-60599206D01*
X161747995Y-60702147D01*
X161788808Y-60758857D01*
X161792483Y-60828630D01*
X161757851Y-60889313D01*
X161747995Y-60897853D01*
X161615737Y-61000793D01*
X161615734Y-61000796D01*
X161453172Y-61177385D01*
X161453169Y-61177389D01*
X161321892Y-61378321D01*
X161225477Y-61598127D01*
X161166556Y-61830804D01*
X161146736Y-62069994D01*
X161146736Y-62070005D01*
X161166556Y-62309195D01*
X161225477Y-62541872D01*
X161321892Y-62761678D01*
X161427744Y-62923694D01*
X161453171Y-62962613D01*
X161615731Y-63139201D01*
X161615734Y-63139203D01*
X161615737Y-63139206D01*
X161747995Y-63242147D01*
X161788808Y-63298857D01*
X161792483Y-63368630D01*
X161757851Y-63429313D01*
X161747995Y-63437853D01*
X161615737Y-63540793D01*
X161615734Y-63540796D01*
X161615731Y-63540798D01*
X161615731Y-63540799D01*
X161579843Y-63579783D01*
X161453172Y-63717385D01*
X161453169Y-63717389D01*
X161321892Y-63918321D01*
X161225477Y-64138127D01*
X161166556Y-64370804D01*
X161146736Y-64609994D01*
X161146736Y-64610005D01*
X161166556Y-64849195D01*
X161225477Y-65081872D01*
X161321892Y-65301678D01*
X161386627Y-65400761D01*
X161453171Y-65502613D01*
X161615731Y-65679201D01*
X161615734Y-65679203D01*
X161615737Y-65679206D01*
X161747995Y-65782147D01*
X161788808Y-65838857D01*
X161792483Y-65908630D01*
X161757851Y-65969313D01*
X161747995Y-65977853D01*
X161615737Y-66080793D01*
X161615734Y-66080796D01*
X161453172Y-66257385D01*
X161453169Y-66257389D01*
X161321892Y-66458321D01*
X161225477Y-66678127D01*
X161166556Y-66910804D01*
X161146736Y-67149994D01*
X161146736Y-67150005D01*
X161166556Y-67389195D01*
X161225477Y-67621872D01*
X161321892Y-67841678D01*
X161400815Y-67962477D01*
X161453171Y-68042613D01*
X161615731Y-68219201D01*
X161805140Y-68366624D01*
X162016231Y-68480860D01*
X162243245Y-68558795D01*
X162479990Y-68598300D01*
X162720010Y-68598300D01*
X162956755Y-68558795D01*
X163183769Y-68480860D01*
X163394860Y-68366624D01*
X163584269Y-68219201D01*
X163746829Y-68042613D01*
X163878108Y-67841677D01*
X163974522Y-67621874D01*
X164033443Y-67389199D01*
X164053264Y-67150000D01*
X164047818Y-67084281D01*
X164033443Y-66910804D01*
X164033443Y-66910801D01*
X163974522Y-66678126D01*
X163878108Y-66458323D01*
X163746829Y-66257387D01*
X163584269Y-66080799D01*
X163584264Y-66080795D01*
X163584262Y-66080793D01*
X163452005Y-65977853D01*
X163411192Y-65921143D01*
X163407517Y-65851370D01*
X163442149Y-65790687D01*
X163452005Y-65782147D01*
X163535038Y-65717518D01*
X163584269Y-65679201D01*
X163746829Y-65502613D01*
X163878108Y-65301677D01*
X163974522Y-65081874D01*
X164033443Y-64849199D01*
X164044772Y-64712477D01*
X164053264Y-64610005D01*
X164053264Y-64609994D01*
X164034470Y-64383193D01*
X164033443Y-64370801D01*
X163974522Y-64138126D01*
X163878108Y-63918323D01*
X163829251Y-63843543D01*
X163746830Y-63717389D01*
X163746829Y-63717387D01*
X163584269Y-63540799D01*
X163584264Y-63540795D01*
X163584262Y-63540793D01*
X163452005Y-63437853D01*
X163411192Y-63381143D01*
X163407517Y-63311370D01*
X163442149Y-63250687D01*
X163452005Y-63242147D01*
X163582271Y-63140756D01*
X163584269Y-63139201D01*
X163746829Y-62962613D01*
X163878108Y-62761677D01*
X163974522Y-62541874D01*
X164033443Y-62309199D01*
X164042252Y-62202888D01*
X164053264Y-62070005D01*
X164053264Y-62069994D01*
X164039651Y-61905716D01*
X164033443Y-61830801D01*
X163974522Y-61598126D01*
X163878108Y-61378323D01*
X163746829Y-61177387D01*
X163584269Y-61000799D01*
X163584264Y-61000795D01*
X163584262Y-61000793D01*
X163452005Y-60897853D01*
X163411192Y-60841143D01*
X163407517Y-60771370D01*
X163442149Y-60710687D01*
X163452005Y-60702147D01*
X163565900Y-60613498D01*
X163584269Y-60599201D01*
X163746829Y-60422613D01*
X163878108Y-60221677D01*
X163974522Y-60001874D01*
X164033443Y-59769199D01*
X164053264Y-59530000D01*
X164053105Y-59528087D01*
X164037933Y-59344982D01*
X164033443Y-59290801D01*
X163974522Y-59058126D01*
X163878108Y-58838323D01*
X163746829Y-58637387D01*
X163584269Y-58460799D01*
X163445081Y-58352465D01*
X163404270Y-58295756D01*
X163400595Y-58225983D01*
X163426550Y-58180501D01*
X163427158Y-58170711D01*
X162735942Y-57479495D01*
X162796081Y-57463381D01*
X162911920Y-57396502D01*
X163006502Y-57301920D01*
X163073381Y-57186081D01*
X163089494Y-57125942D01*
X163779941Y-57816389D01*
X163870604Y-57677621D01*
X163870609Y-57677613D01*
X163966454Y-57459104D01*
X164025030Y-57227796D01*
X164025032Y-57227788D01*
X164044735Y-56990006D01*
X164044735Y-56989993D01*
X164025032Y-56752211D01*
X164025030Y-56752203D01*
X163966454Y-56520895D01*
X163870606Y-56302380D01*
X163779941Y-56163609D01*
X163089494Y-56854056D01*
X163073381Y-56793919D01*
X163006502Y-56678080D01*
X162911920Y-56583498D01*
X162796081Y-56516619D01*
X162735941Y-56500504D01*
X163301828Y-55934619D01*
X163363151Y-55901134D01*
X163389509Y-55898300D01*
X163588438Y-55898300D01*
X163588454Y-55898299D01*
X163615492Y-55895391D01*
X163649001Y-55891789D01*
X163786004Y-55840689D01*
X163903061Y-55753061D01*
X163990689Y-55636004D01*
X164041789Y-55499001D01*
X164045391Y-55465492D01*
X164048299Y-55438454D01*
X164048300Y-55438437D01*
X164048300Y-53461562D01*
X164048299Y-53461545D01*
X164044957Y-53430470D01*
X164041789Y-53400999D01*
X163990689Y-53263996D01*
X163903061Y-53146939D01*
X163786004Y-53059311D01*
X163649003Y-53008211D01*
X163588454Y-53001700D01*
X163588438Y-53001700D01*
X161611562Y-53001700D01*
X161611545Y-53001700D01*
X161550997Y-53008211D01*
X161550995Y-53008211D01*
X161413995Y-53059311D01*
X161296939Y-53146939D01*
X161209311Y-53263995D01*
X161158211Y-53400995D01*
X161158211Y-53400997D01*
X161151700Y-53461545D01*
X161151700Y-55438454D01*
X161158211Y-55499002D01*
X161158211Y-55499004D01*
X161192560Y-55591093D01*
X161209311Y-55636004D01*
X161296939Y-55753061D01*
X161413996Y-55840689D01*
X161550999Y-55891789D01*
X161578250Y-55894718D01*
X161611545Y-55898299D01*
X161611562Y-55898300D01*
X161810491Y-55898300D01*
X161877530Y-55917985D01*
X161898172Y-55934619D01*
X162464058Y-56500504D01*
X162403919Y-56516619D01*
X162288080Y-56583498D01*
X162193498Y-56678080D01*
X162126619Y-56793919D01*
X162110504Y-56854057D01*
X161420057Y-56163609D01*
X161329392Y-56302382D01*
X161233545Y-56520895D01*
X161174969Y-56752203D01*
X161174967Y-56752211D01*
X161155265Y-56989993D01*
X161155265Y-56990006D01*
X161174967Y-57227788D01*
X161174969Y-57227796D01*
X161233545Y-57459104D01*
X161329391Y-57677614D01*
X161420057Y-57816389D01*
X162110504Y-57125941D01*
X162126619Y-57186081D01*
X162193498Y-57301920D01*
X162288080Y-57396502D01*
X162403919Y-57463381D01*
X162464057Y-57479494D01*
X161772839Y-58170711D01*
X161773584Y-58182701D01*
X161795729Y-58213474D01*
X161799402Y-58283247D01*
X161764769Y-58343929D01*
X161754915Y-58352467D01*
X161615737Y-58460793D01*
X161615734Y-58460796D01*
X161453172Y-58637385D01*
X161453169Y-58637389D01*
X161321892Y-58838321D01*
X161225477Y-59058127D01*
X161166556Y-59290804D01*
X161146736Y-59529994D01*
X136623032Y-59529994D01*
X136623543Y-59528087D01*
X136643498Y-59300000D01*
X136642693Y-59290804D01*
X136623543Y-59071918D01*
X136623543Y-59071913D01*
X136564284Y-58850757D01*
X136467523Y-58643251D01*
X136336198Y-58455700D01*
X136174300Y-58293802D01*
X135986749Y-58162477D01*
X135986745Y-58162475D01*
X135779249Y-58065718D01*
X135779238Y-58065714D01*
X135558089Y-58006457D01*
X135558081Y-58006456D01*
X135330002Y-57986502D01*
X135329998Y-57986502D01*
X135101918Y-58006456D01*
X135101910Y-58006457D01*
X134880761Y-58065714D01*
X134880750Y-58065718D01*
X134673254Y-58162475D01*
X134673252Y-58162476D01*
X134647510Y-58180501D01*
X134485700Y-58293802D01*
X134485698Y-58293803D01*
X134485695Y-58293806D01*
X134323806Y-58455695D01*
X134323803Y-58455698D01*
X134323802Y-58455700D01*
X134320232Y-58460799D01*
X134192476Y-58643252D01*
X134192475Y-58643254D01*
X134095718Y-58850750D01*
X134095714Y-58850761D01*
X134036457Y-59071910D01*
X134036456Y-59071918D01*
X134016502Y-59299998D01*
X126483498Y-59299998D01*
X126482693Y-59290804D01*
X126463543Y-59071918D01*
X126463543Y-59071913D01*
X126404284Y-58850757D01*
X126307523Y-58643251D01*
X126176198Y-58455700D01*
X126014300Y-58293802D01*
X125826749Y-58162477D01*
X125826745Y-58162475D01*
X125619249Y-58065718D01*
X125619238Y-58065714D01*
X125398089Y-58006457D01*
X125398081Y-58006456D01*
X125170002Y-57986502D01*
X125169998Y-57986502D01*
X124941918Y-58006456D01*
X124941910Y-58006457D01*
X124720761Y-58065714D01*
X124720750Y-58065718D01*
X124513254Y-58162475D01*
X124513252Y-58162476D01*
X124487510Y-58180501D01*
X124325700Y-58293802D01*
X124325698Y-58293803D01*
X124325695Y-58293806D01*
X124163806Y-58455695D01*
X124163803Y-58455698D01*
X124163802Y-58455700D01*
X124160232Y-58460799D01*
X124032476Y-58643252D01*
X124032475Y-58643254D01*
X123935718Y-58850750D01*
X123935714Y-58850761D01*
X123876457Y-59071910D01*
X123876456Y-59071918D01*
X123856502Y-59299998D01*
X100075500Y-59299998D01*
X100075500Y-55102155D01*
X114245000Y-55102155D01*
X114245000Y-55800000D01*
X115269722Y-55800000D01*
X115225667Y-55876306D01*
X115195000Y-55990756D01*
X115195000Y-56109244D01*
X115225667Y-56223694D01*
X115269722Y-56300000D01*
X114245000Y-56300000D01*
X114245000Y-56997844D01*
X114251401Y-57057372D01*
X114251403Y-57057379D01*
X114301645Y-57192086D01*
X114301649Y-57192093D01*
X114387809Y-57307187D01*
X114387812Y-57307190D01*
X114502906Y-57393350D01*
X114502913Y-57393354D01*
X114637620Y-57443596D01*
X114637627Y-57443598D01*
X114697155Y-57449999D01*
X114697172Y-57450000D01*
X115395000Y-57450000D01*
X115395000Y-56425277D01*
X115471306Y-56469333D01*
X115585756Y-56500000D01*
X115704244Y-56500000D01*
X115818694Y-56469333D01*
X115895000Y-56425277D01*
X115895000Y-57450000D01*
X116592828Y-57450000D01*
X116592844Y-57449999D01*
X116652372Y-57443598D01*
X116652379Y-57443596D01*
X116787086Y-57393354D01*
X116787093Y-57393350D01*
X116902187Y-57307190D01*
X116902190Y-57307187D01*
X116988350Y-57192093D01*
X116988355Y-57192084D01*
X117013940Y-57123486D01*
X117055810Y-57067552D01*
X117121274Y-57043134D01*
X117189547Y-57057985D01*
X117221349Y-57082832D01*
X117227780Y-57089818D01*
X117411983Y-57233190D01*
X117411985Y-57233191D01*
X117411988Y-57233193D01*
X117506391Y-57284281D01*
X117617273Y-57344287D01*
X117731914Y-57383643D01*
X117838045Y-57420079D01*
X117838047Y-57420079D01*
X117838049Y-57420080D01*
X118068288Y-57458500D01*
X118068289Y-57458500D01*
X118301711Y-57458500D01*
X118301712Y-57458500D01*
X118531951Y-57420080D01*
X118752727Y-57344287D01*
X118958017Y-57233190D01*
X119142220Y-57089818D01*
X119300314Y-56918083D01*
X119427984Y-56722669D01*
X119521749Y-56508907D01*
X119579051Y-56282626D01*
X119598327Y-56050000D01*
X119598327Y-56049998D01*
X123856502Y-56049998D01*
X123856502Y-56050001D01*
X123876456Y-56278081D01*
X123876457Y-56278089D01*
X123935714Y-56499238D01*
X123935718Y-56499249D01*
X124032475Y-56706745D01*
X124032477Y-56706749D01*
X124163802Y-56894300D01*
X124325700Y-57056198D01*
X124513251Y-57187523D01*
X124611185Y-57233190D01*
X124720750Y-57284281D01*
X124720752Y-57284281D01*
X124720757Y-57284284D01*
X124941913Y-57343543D01*
X125104832Y-57357796D01*
X125169998Y-57363498D01*
X125170000Y-57363498D01*
X125170002Y-57363498D01*
X125227021Y-57358509D01*
X125398087Y-57343543D01*
X125619243Y-57284284D01*
X125826749Y-57187523D01*
X126014300Y-57056198D01*
X126176198Y-56894300D01*
X126307523Y-56706749D01*
X126404284Y-56499243D01*
X126463543Y-56278087D01*
X126483498Y-56050000D01*
X126483498Y-56049998D01*
X134016502Y-56049998D01*
X134016502Y-56050001D01*
X134036456Y-56278081D01*
X134036457Y-56278089D01*
X134095714Y-56499238D01*
X134095718Y-56499249D01*
X134192475Y-56706745D01*
X134192477Y-56706749D01*
X134323802Y-56894300D01*
X134485700Y-57056198D01*
X134673251Y-57187523D01*
X134771185Y-57233190D01*
X134880750Y-57284281D01*
X134880752Y-57284281D01*
X134880757Y-57284284D01*
X135101913Y-57343543D01*
X135264832Y-57357796D01*
X135329998Y-57363498D01*
X135330000Y-57363498D01*
X135330002Y-57363498D01*
X135387021Y-57358509D01*
X135558087Y-57343543D01*
X135779243Y-57284284D01*
X135986749Y-57187523D01*
X136174300Y-57056198D01*
X136336198Y-56894300D01*
X136467523Y-56706749D01*
X136564284Y-56499243D01*
X136623543Y-56278087D01*
X136643498Y-56050000D01*
X136643497Y-56049994D01*
X136629656Y-55891788D01*
X136623543Y-55821913D01*
X136564284Y-55600757D01*
X136467523Y-55393251D01*
X136336198Y-55205700D01*
X136174300Y-55043802D01*
X135986749Y-54912477D01*
X135976966Y-54907915D01*
X135779249Y-54815718D01*
X135779238Y-54815714D01*
X135558089Y-54756457D01*
X135558081Y-54756456D01*
X135330002Y-54736502D01*
X135329998Y-54736502D01*
X135101918Y-54756456D01*
X135101910Y-54756457D01*
X134880761Y-54815714D01*
X134880750Y-54815718D01*
X134673254Y-54912475D01*
X134673252Y-54912476D01*
X134673251Y-54912477D01*
X134485700Y-55043802D01*
X134485698Y-55043803D01*
X134485695Y-55043806D01*
X134323806Y-55205695D01*
X134192476Y-55393252D01*
X134192475Y-55393254D01*
X134095718Y-55600750D01*
X134095714Y-55600761D01*
X134036457Y-55821910D01*
X134036456Y-55821918D01*
X134016502Y-56049998D01*
X126483498Y-56049998D01*
X126483497Y-56049994D01*
X126469656Y-55891788D01*
X126463543Y-55821913D01*
X126404284Y-55600757D01*
X126307523Y-55393251D01*
X126176198Y-55205700D01*
X126014300Y-55043802D01*
X125826749Y-54912477D01*
X125816966Y-54907915D01*
X125619249Y-54815718D01*
X125619238Y-54815714D01*
X125398089Y-54756457D01*
X125398081Y-54756456D01*
X125170002Y-54736502D01*
X125169998Y-54736502D01*
X124941918Y-54756456D01*
X124941910Y-54756457D01*
X124720761Y-54815714D01*
X124720750Y-54815718D01*
X124513254Y-54912475D01*
X124513252Y-54912476D01*
X124513251Y-54912477D01*
X124325700Y-55043802D01*
X124325698Y-55043803D01*
X124325695Y-55043806D01*
X124163806Y-55205695D01*
X124032476Y-55393252D01*
X124032475Y-55393254D01*
X123935718Y-55600750D01*
X123935714Y-55600761D01*
X123876457Y-55821910D01*
X123876456Y-55821918D01*
X123856502Y-56049998D01*
X119598327Y-56049998D01*
X119579051Y-55817374D01*
X119521749Y-55591093D01*
X119427984Y-55377331D01*
X119300314Y-55181917D01*
X119300313Y-55181915D01*
X119142223Y-55010185D01*
X119142222Y-55010184D01*
X119142220Y-55010182D01*
X118958017Y-54866810D01*
X118958015Y-54866809D01*
X118958014Y-54866808D01*
X118958011Y-54866806D01*
X118752733Y-54755716D01*
X118752730Y-54755715D01*
X118752727Y-54755713D01*
X118752721Y-54755711D01*
X118752719Y-54755710D01*
X118531954Y-54679920D01*
X118352650Y-54650000D01*
X118301712Y-54641500D01*
X118068288Y-54641500D01*
X118022240Y-54649184D01*
X117838045Y-54679920D01*
X117617280Y-54755710D01*
X117617266Y-54755716D01*
X117411988Y-54866806D01*
X117411985Y-54866808D01*
X117227781Y-55010181D01*
X117227776Y-55010185D01*
X117221346Y-55017170D01*
X117161457Y-55053157D01*
X117091619Y-55051052D01*
X117034005Y-55011524D01*
X117013940Y-54976513D01*
X116988355Y-54907915D01*
X116988350Y-54907906D01*
X116902190Y-54792812D01*
X116902187Y-54792809D01*
X116787093Y-54706649D01*
X116787086Y-54706645D01*
X116652379Y-54656403D01*
X116652372Y-54656401D01*
X116592844Y-54650000D01*
X115895000Y-54650000D01*
X115895000Y-55674722D01*
X115818694Y-55630667D01*
X115704244Y-55600000D01*
X115585756Y-55600000D01*
X115471306Y-55630667D01*
X115395000Y-55674722D01*
X115395000Y-54650000D01*
X114697155Y-54650000D01*
X114637627Y-54656401D01*
X114637620Y-54656403D01*
X114502913Y-54706645D01*
X114502906Y-54706649D01*
X114387812Y-54792809D01*
X114387809Y-54792812D01*
X114301649Y-54907906D01*
X114301645Y-54907913D01*
X114251403Y-55042620D01*
X114251401Y-55042627D01*
X114245000Y-55102155D01*
X100075500Y-55102155D01*
X100075500Y-48301345D01*
X117437500Y-48301345D01*
X117437500Y-50098654D01*
X117444011Y-50159202D01*
X117444011Y-50159204D01*
X117495111Y-50296204D01*
X117582739Y-50413261D01*
X117699796Y-50500889D01*
X117836799Y-50551989D01*
X117864050Y-50554918D01*
X117897345Y-50558499D01*
X117897362Y-50558500D01*
X119694638Y-50558500D01*
X119694654Y-50558499D01*
X119721692Y-50555591D01*
X119755201Y-50551989D01*
X119892204Y-50500889D01*
X120009261Y-50413261D01*
X120096889Y-50296204D01*
X120142138Y-50174887D01*
X120184009Y-50118956D01*
X120249474Y-50094539D01*
X120317746Y-50109391D01*
X120349545Y-50134236D01*
X120412760Y-50202906D01*
X120590424Y-50341189D01*
X120590425Y-50341189D01*
X120590427Y-50341191D01*
X120650314Y-50373600D01*
X120788426Y-50448342D01*
X121001365Y-50521444D01*
X121223431Y-50558500D01*
X121448569Y-50558500D01*
X121670635Y-50521444D01*
X121883574Y-50448342D01*
X122081576Y-50341189D01*
X122259240Y-50202906D01*
X122380594Y-50071082D01*
X122411715Y-50037276D01*
X122411715Y-50037275D01*
X122411722Y-50037268D01*
X122502193Y-49898790D01*
X122555338Y-49853437D01*
X122624569Y-49844013D01*
X122687905Y-49873515D01*
X122709804Y-49898787D01*
X122800278Y-50037268D01*
X122800283Y-50037273D01*
X122800284Y-50037276D01*
X122926968Y-50174889D01*
X122952760Y-50202906D01*
X123130424Y-50341189D01*
X123130425Y-50341189D01*
X123130427Y-50341191D01*
X123190314Y-50373600D01*
X123328426Y-50448342D01*
X123541365Y-50521444D01*
X123763431Y-50558500D01*
X123988569Y-50558500D01*
X124210635Y-50521444D01*
X124423574Y-50448342D01*
X124621576Y-50341189D01*
X124799240Y-50202906D01*
X124920594Y-50071082D01*
X124951715Y-50037276D01*
X124951715Y-50037275D01*
X124951722Y-50037268D01*
X125045749Y-49893347D01*
X125098894Y-49847994D01*
X125168125Y-49838570D01*
X125231461Y-49868072D01*
X125251130Y-49890048D01*
X125377890Y-50071078D01*
X125544917Y-50238105D01*
X125738421Y-50373600D01*
X125952507Y-50473429D01*
X125952516Y-50473433D01*
X126166000Y-50530634D01*
X126166000Y-49633012D01*
X126223007Y-49665925D01*
X126350174Y-49700000D01*
X126481826Y-49700000D01*
X126608993Y-49665925D01*
X126666000Y-49633012D01*
X126666000Y-50530633D01*
X126879483Y-50473433D01*
X126879492Y-50473429D01*
X127093578Y-50373600D01*
X127287082Y-50238105D01*
X127454105Y-50071082D01*
X127580868Y-49890048D01*
X127635445Y-49846423D01*
X127704944Y-49839231D01*
X127767298Y-49870753D01*
X127786251Y-49893350D01*
X127880276Y-50037265D01*
X127880284Y-50037276D01*
X128006968Y-50174889D01*
X128032760Y-50202906D01*
X128210424Y-50341189D01*
X128210425Y-50341189D01*
X128210427Y-50341191D01*
X128270314Y-50373600D01*
X128408426Y-50448342D01*
X128621365Y-50521444D01*
X128843431Y-50558500D01*
X129068569Y-50558500D01*
X129290635Y-50521444D01*
X129503574Y-50448342D01*
X129701576Y-50341189D01*
X129879240Y-50202906D01*
X130000594Y-50071082D01*
X130031715Y-50037276D01*
X130031715Y-50037275D01*
X130031722Y-50037268D01*
X130122193Y-49898790D01*
X130175338Y-49853437D01*
X130244569Y-49844013D01*
X130307905Y-49873515D01*
X130329804Y-49898787D01*
X130420278Y-50037268D01*
X130420283Y-50037273D01*
X130420284Y-50037276D01*
X130546968Y-50174889D01*
X130572760Y-50202906D01*
X130750424Y-50341189D01*
X130750425Y-50341189D01*
X130750427Y-50341191D01*
X130810314Y-50373600D01*
X130948426Y-50448342D01*
X131161365Y-50521444D01*
X131383431Y-50558500D01*
X131608569Y-50558500D01*
X131830635Y-50521444D01*
X132043574Y-50448342D01*
X132241576Y-50341189D01*
X132419240Y-50202906D01*
X132540594Y-50071082D01*
X132571715Y-50037276D01*
X132571715Y-50037275D01*
X132571722Y-50037268D01*
X132662193Y-49898790D01*
X132715338Y-49853437D01*
X132784569Y-49844013D01*
X132847905Y-49873515D01*
X132869804Y-49898787D01*
X132960278Y-50037268D01*
X132960283Y-50037273D01*
X132960284Y-50037276D01*
X133086968Y-50174889D01*
X133112760Y-50202906D01*
X133290424Y-50341189D01*
X133290425Y-50341189D01*
X133290427Y-50341191D01*
X133350314Y-50373600D01*
X133488426Y-50448342D01*
X133701365Y-50521444D01*
X133923431Y-50558500D01*
X134148569Y-50558500D01*
X134370635Y-50521444D01*
X134583574Y-50448342D01*
X134781576Y-50341189D01*
X134959240Y-50202906D01*
X135080594Y-50071082D01*
X135111715Y-50037276D01*
X135111715Y-50037275D01*
X135111722Y-50037268D01*
X135202193Y-49898790D01*
X135255338Y-49853437D01*
X135324569Y-49844013D01*
X135387905Y-49873515D01*
X135409804Y-49898787D01*
X135500278Y-50037268D01*
X135500283Y-50037273D01*
X135500284Y-50037276D01*
X135626968Y-50174889D01*
X135652760Y-50202906D01*
X135830424Y-50341189D01*
X135830425Y-50341189D01*
X135830427Y-50341191D01*
X135890314Y-50373600D01*
X136028426Y-50448342D01*
X136241365Y-50521444D01*
X136463431Y-50558500D01*
X136688569Y-50558500D01*
X136910635Y-50521444D01*
X137123574Y-50448342D01*
X137321576Y-50341189D01*
X137499240Y-50202906D01*
X137620594Y-50071082D01*
X137651715Y-50037276D01*
X137651715Y-50037275D01*
X137651722Y-50037268D01*
X137742193Y-49898790D01*
X137795338Y-49853437D01*
X137864569Y-49844013D01*
X137927905Y-49873515D01*
X137949804Y-49898787D01*
X138040278Y-50037268D01*
X138040283Y-50037273D01*
X138040284Y-50037276D01*
X138166968Y-50174889D01*
X138192760Y-50202906D01*
X138370424Y-50341189D01*
X138370425Y-50341189D01*
X138370427Y-50341191D01*
X138430314Y-50373600D01*
X138568426Y-50448342D01*
X138781365Y-50521444D01*
X139003431Y-50558500D01*
X139228569Y-50558500D01*
X139450635Y-50521444D01*
X139663574Y-50448342D01*
X139861576Y-50341189D01*
X140039240Y-50202906D01*
X140160594Y-50071082D01*
X140191715Y-50037276D01*
X140191715Y-50037275D01*
X140191722Y-50037268D01*
X140282193Y-49898790D01*
X140335338Y-49853437D01*
X140404569Y-49844013D01*
X140467905Y-49873515D01*
X140489804Y-49898787D01*
X140580278Y-50037268D01*
X140580283Y-50037273D01*
X140580284Y-50037276D01*
X140706968Y-50174889D01*
X140732760Y-50202906D01*
X140910424Y-50341189D01*
X140910425Y-50341189D01*
X140910427Y-50341191D01*
X140970314Y-50373600D01*
X141108426Y-50448342D01*
X141321365Y-50521444D01*
X141543431Y-50558500D01*
X141768569Y-50558500D01*
X141990635Y-50521444D01*
X142203574Y-50448342D01*
X142401576Y-50341189D01*
X142579240Y-50202906D01*
X142700594Y-50071082D01*
X142731715Y-50037276D01*
X142731717Y-50037273D01*
X142731722Y-50037268D01*
X142854860Y-49848791D01*
X142945296Y-49642616D01*
X143000564Y-49424368D01*
X143012309Y-49282635D01*
X143019156Y-49200005D01*
X143019156Y-49199994D01*
X143000565Y-48975640D01*
X143000563Y-48975628D01*
X142945296Y-48757385D01*
X142935071Y-48734075D01*
X142854860Y-48551209D01*
X142838706Y-48526484D01*
X142731723Y-48362734D01*
X142731715Y-48362723D01*
X142675212Y-48301345D01*
X144361500Y-48301345D01*
X144361500Y-50098654D01*
X144368011Y-50159202D01*
X144368011Y-50159204D01*
X144419111Y-50296204D01*
X144506739Y-50413261D01*
X144623796Y-50500889D01*
X144760799Y-50551989D01*
X144788050Y-50554918D01*
X144821345Y-50558499D01*
X144821362Y-50558500D01*
X146618638Y-50558500D01*
X146618654Y-50558499D01*
X146645692Y-50555591D01*
X146679201Y-50551989D01*
X146816204Y-50500889D01*
X146933261Y-50413261D01*
X147020889Y-50296204D01*
X147066138Y-50174887D01*
X147108009Y-50118956D01*
X147173474Y-50094539D01*
X147241746Y-50109391D01*
X147273545Y-50134236D01*
X147336760Y-50202906D01*
X147514424Y-50341189D01*
X147514425Y-50341189D01*
X147514427Y-50341191D01*
X147574314Y-50373600D01*
X147712426Y-50448342D01*
X147925365Y-50521444D01*
X148147431Y-50558500D01*
X148372569Y-50558500D01*
X148594635Y-50521444D01*
X148807574Y-50448342D01*
X149005576Y-50341189D01*
X149183240Y-50202906D01*
X149304594Y-50071082D01*
X149335715Y-50037276D01*
X149335715Y-50037275D01*
X149335722Y-50037268D01*
X149426193Y-49898790D01*
X149479338Y-49853437D01*
X149548569Y-49844013D01*
X149611905Y-49873515D01*
X149633804Y-49898787D01*
X149724278Y-50037268D01*
X149724283Y-50037273D01*
X149724284Y-50037276D01*
X149850968Y-50174889D01*
X149876760Y-50202906D01*
X150054424Y-50341189D01*
X150054425Y-50341189D01*
X150054427Y-50341191D01*
X150114314Y-50373600D01*
X150252426Y-50448342D01*
X150465365Y-50521444D01*
X150687431Y-50558500D01*
X150912569Y-50558500D01*
X151134635Y-50521444D01*
X151347574Y-50448342D01*
X151545576Y-50341189D01*
X151723240Y-50202906D01*
X151844594Y-50071082D01*
X151875715Y-50037276D01*
X151875715Y-50037275D01*
X151875722Y-50037268D01*
X151966193Y-49898790D01*
X152019338Y-49853437D01*
X152088569Y-49844013D01*
X152151905Y-49873515D01*
X152173804Y-49898787D01*
X152264278Y-50037268D01*
X152264283Y-50037273D01*
X152264284Y-50037276D01*
X152390968Y-50174889D01*
X152416760Y-50202906D01*
X152594424Y-50341189D01*
X152594425Y-50341189D01*
X152594427Y-50341191D01*
X152654314Y-50373600D01*
X152792426Y-50448342D01*
X153005365Y-50521444D01*
X153227431Y-50558500D01*
X153452569Y-50558500D01*
X153674635Y-50521444D01*
X153887574Y-50448342D01*
X154085576Y-50341189D01*
X154263240Y-50202906D01*
X154384594Y-50071082D01*
X154415715Y-50037276D01*
X154415715Y-50037275D01*
X154415722Y-50037268D01*
X154506193Y-49898790D01*
X154559338Y-49853437D01*
X154628569Y-49844013D01*
X154691905Y-49873515D01*
X154713804Y-49898787D01*
X154804278Y-50037268D01*
X154804283Y-50037273D01*
X154804284Y-50037276D01*
X154930968Y-50174889D01*
X154956760Y-50202906D01*
X155134424Y-50341189D01*
X155134425Y-50341189D01*
X155134427Y-50341191D01*
X155194314Y-50373600D01*
X155332426Y-50448342D01*
X155545365Y-50521444D01*
X155767431Y-50558500D01*
X155992569Y-50558500D01*
X156214635Y-50521444D01*
X156427574Y-50448342D01*
X156625576Y-50341189D01*
X156803240Y-50202906D01*
X156924594Y-50071082D01*
X156955715Y-50037276D01*
X156955715Y-50037275D01*
X156955722Y-50037268D01*
X157046193Y-49898790D01*
X157099338Y-49853437D01*
X157168569Y-49844013D01*
X157231905Y-49873515D01*
X157253804Y-49898787D01*
X157344278Y-50037268D01*
X157344283Y-50037273D01*
X157344284Y-50037276D01*
X157470968Y-50174889D01*
X157496760Y-50202906D01*
X157674424Y-50341189D01*
X157674425Y-50341189D01*
X157674427Y-50341191D01*
X157734314Y-50373600D01*
X157872426Y-50448342D01*
X158085365Y-50521444D01*
X158307431Y-50558500D01*
X158532569Y-50558500D01*
X158754635Y-50521444D01*
X158967574Y-50448342D01*
X159165576Y-50341189D01*
X159343240Y-50202906D01*
X159464594Y-50071082D01*
X159495715Y-50037276D01*
X159495715Y-50037275D01*
X159495722Y-50037268D01*
X159586193Y-49898790D01*
X159639338Y-49853437D01*
X159708569Y-49844013D01*
X159771905Y-49873515D01*
X159793804Y-49898787D01*
X159884278Y-50037268D01*
X159884283Y-50037273D01*
X159884284Y-50037276D01*
X160010968Y-50174889D01*
X160036760Y-50202906D01*
X160214424Y-50341189D01*
X160214425Y-50341189D01*
X160214427Y-50341191D01*
X160274314Y-50373600D01*
X160412426Y-50448342D01*
X160625365Y-50521444D01*
X160847431Y-50558500D01*
X161072569Y-50558500D01*
X161294635Y-50521444D01*
X161507574Y-50448342D01*
X161705576Y-50341189D01*
X161883240Y-50202906D01*
X162004594Y-50071082D01*
X162035715Y-50037276D01*
X162035715Y-50037275D01*
X162035722Y-50037268D01*
X162126193Y-49898790D01*
X162179338Y-49853437D01*
X162248569Y-49844013D01*
X162311905Y-49873515D01*
X162333804Y-49898787D01*
X162424278Y-50037268D01*
X162424283Y-50037273D01*
X162424284Y-50037276D01*
X162550968Y-50174889D01*
X162576760Y-50202906D01*
X162754424Y-50341189D01*
X162754425Y-50341189D01*
X162754427Y-50341191D01*
X162814314Y-50373600D01*
X162952426Y-50448342D01*
X163165365Y-50521444D01*
X163387431Y-50558500D01*
X163612569Y-50558500D01*
X163834635Y-50521444D01*
X164047574Y-50448342D01*
X164245576Y-50341189D01*
X164423240Y-50202906D01*
X164544594Y-50071082D01*
X164575715Y-50037276D01*
X164575717Y-50037273D01*
X164575722Y-50037268D01*
X164698860Y-49848791D01*
X164789296Y-49642616D01*
X164844564Y-49424368D01*
X164856309Y-49282635D01*
X164863156Y-49200005D01*
X164863156Y-49199994D01*
X164844565Y-48975640D01*
X164844563Y-48975628D01*
X164789296Y-48757385D01*
X164779071Y-48734075D01*
X164698860Y-48551209D01*
X164682706Y-48526484D01*
X164575723Y-48362734D01*
X164575715Y-48362723D01*
X164423243Y-48197097D01*
X164423238Y-48197092D01*
X164245577Y-48058812D01*
X164245572Y-48058808D01*
X164047580Y-47951661D01*
X164047577Y-47951659D01*
X164047574Y-47951658D01*
X164047571Y-47951657D01*
X164047569Y-47951656D01*
X163834637Y-47878556D01*
X163612569Y-47841500D01*
X163387431Y-47841500D01*
X163165362Y-47878556D01*
X162952430Y-47951656D01*
X162952419Y-47951661D01*
X162754427Y-48058808D01*
X162754422Y-48058812D01*
X162576761Y-48197092D01*
X162576756Y-48197097D01*
X162424284Y-48362723D01*
X162424276Y-48362734D01*
X162333808Y-48501206D01*
X162280662Y-48546562D01*
X162211431Y-48555986D01*
X162148095Y-48526484D01*
X162126192Y-48501206D01*
X162035723Y-48362734D01*
X162035715Y-48362723D01*
X161883243Y-48197097D01*
X161883238Y-48197092D01*
X161705577Y-48058812D01*
X161705572Y-48058808D01*
X161507580Y-47951661D01*
X161507577Y-47951659D01*
X161507574Y-47951658D01*
X161507571Y-47951657D01*
X161507569Y-47951656D01*
X161294637Y-47878556D01*
X161072569Y-47841500D01*
X160847431Y-47841500D01*
X160625362Y-47878556D01*
X160412430Y-47951656D01*
X160412419Y-47951661D01*
X160214427Y-48058808D01*
X160214422Y-48058812D01*
X160036761Y-48197092D01*
X160036756Y-48197097D01*
X159884284Y-48362723D01*
X159884276Y-48362734D01*
X159793808Y-48501206D01*
X159740662Y-48546562D01*
X159671431Y-48555986D01*
X159608095Y-48526484D01*
X159586192Y-48501206D01*
X159495723Y-48362734D01*
X159495715Y-48362723D01*
X159343243Y-48197097D01*
X159343238Y-48197092D01*
X159165577Y-48058812D01*
X159165572Y-48058808D01*
X158967580Y-47951661D01*
X158967577Y-47951659D01*
X158967574Y-47951658D01*
X158967571Y-47951657D01*
X158967569Y-47951656D01*
X158754637Y-47878556D01*
X158532569Y-47841500D01*
X158307431Y-47841500D01*
X158085362Y-47878556D01*
X157872430Y-47951656D01*
X157872419Y-47951661D01*
X157674427Y-48058808D01*
X157674422Y-48058812D01*
X157496761Y-48197092D01*
X157496756Y-48197097D01*
X157344284Y-48362723D01*
X157344276Y-48362734D01*
X157253808Y-48501206D01*
X157200662Y-48546562D01*
X157131431Y-48555986D01*
X157068095Y-48526484D01*
X157046192Y-48501206D01*
X156955723Y-48362734D01*
X156955715Y-48362723D01*
X156803243Y-48197097D01*
X156803238Y-48197092D01*
X156625577Y-48058812D01*
X156625572Y-48058808D01*
X156427580Y-47951661D01*
X156427577Y-47951659D01*
X156427574Y-47951658D01*
X156427571Y-47951657D01*
X156427569Y-47951656D01*
X156214637Y-47878556D01*
X155992569Y-47841500D01*
X155767431Y-47841500D01*
X155545362Y-47878556D01*
X155332430Y-47951656D01*
X155332419Y-47951661D01*
X155134427Y-48058808D01*
X155134422Y-48058812D01*
X154956761Y-48197092D01*
X154956756Y-48197097D01*
X154804284Y-48362723D01*
X154804276Y-48362734D01*
X154713808Y-48501206D01*
X154660662Y-48546562D01*
X154591431Y-48555986D01*
X154528095Y-48526484D01*
X154506192Y-48501206D01*
X154415723Y-48362734D01*
X154415715Y-48362723D01*
X154263243Y-48197097D01*
X154263238Y-48197092D01*
X154085577Y-48058812D01*
X154085572Y-48058808D01*
X153887580Y-47951661D01*
X153887577Y-47951659D01*
X153887574Y-47951658D01*
X153887571Y-47951657D01*
X153887569Y-47951656D01*
X153674637Y-47878556D01*
X153452569Y-47841500D01*
X153227431Y-47841500D01*
X153005362Y-47878556D01*
X152792430Y-47951656D01*
X152792419Y-47951661D01*
X152594427Y-48058808D01*
X152594422Y-48058812D01*
X152416761Y-48197092D01*
X152416756Y-48197097D01*
X152264284Y-48362723D01*
X152264276Y-48362734D01*
X152173808Y-48501206D01*
X152120662Y-48546562D01*
X152051431Y-48555986D01*
X151988095Y-48526484D01*
X151966192Y-48501206D01*
X151875723Y-48362734D01*
X151875715Y-48362723D01*
X151723243Y-48197097D01*
X151723238Y-48197092D01*
X151545577Y-48058812D01*
X151545572Y-48058808D01*
X151347580Y-47951661D01*
X151347577Y-47951659D01*
X151347574Y-47951658D01*
X151347571Y-47951657D01*
X151347569Y-47951656D01*
X151134637Y-47878556D01*
X150912569Y-47841500D01*
X150687431Y-47841500D01*
X150465362Y-47878556D01*
X150252430Y-47951656D01*
X150252419Y-47951661D01*
X150054427Y-48058808D01*
X150054422Y-48058812D01*
X149876761Y-48197092D01*
X149876756Y-48197097D01*
X149724284Y-48362723D01*
X149724276Y-48362734D01*
X149633808Y-48501206D01*
X149580662Y-48546562D01*
X149511431Y-48555986D01*
X149448095Y-48526484D01*
X149426192Y-48501206D01*
X149335723Y-48362734D01*
X149335715Y-48362723D01*
X149183243Y-48197097D01*
X149183238Y-48197092D01*
X149005577Y-48058812D01*
X149005572Y-48058808D01*
X148807580Y-47951661D01*
X148807577Y-47951659D01*
X148807574Y-47951658D01*
X148807571Y-47951657D01*
X148807569Y-47951656D01*
X148594637Y-47878556D01*
X148372569Y-47841500D01*
X148147431Y-47841500D01*
X147925362Y-47878556D01*
X147712430Y-47951656D01*
X147712419Y-47951661D01*
X147514427Y-48058808D01*
X147514422Y-48058812D01*
X147336761Y-48197092D01*
X147273548Y-48265760D01*
X147213661Y-48301750D01*
X147143823Y-48299649D01*
X147086207Y-48260124D01*
X147066138Y-48225110D01*
X147020889Y-48103796D01*
X146987214Y-48058812D01*
X146933261Y-47986739D01*
X146816204Y-47899111D01*
X146679203Y-47848011D01*
X146618654Y-47841500D01*
X146618638Y-47841500D01*
X144821362Y-47841500D01*
X144821345Y-47841500D01*
X144760797Y-47848011D01*
X144760795Y-47848011D01*
X144623795Y-47899111D01*
X144506739Y-47986739D01*
X144419111Y-48103795D01*
X144368011Y-48240795D01*
X144368011Y-48240797D01*
X144361500Y-48301345D01*
X142675212Y-48301345D01*
X142579243Y-48197097D01*
X142579238Y-48197092D01*
X142401577Y-48058812D01*
X142401572Y-48058808D01*
X142203580Y-47951661D01*
X142203577Y-47951659D01*
X142203574Y-47951658D01*
X142203571Y-47951657D01*
X142203569Y-47951656D01*
X141990637Y-47878556D01*
X141768569Y-47841500D01*
X141543431Y-47841500D01*
X141321362Y-47878556D01*
X141108430Y-47951656D01*
X141108419Y-47951661D01*
X140910427Y-48058808D01*
X140910422Y-48058812D01*
X140732761Y-48197092D01*
X140732756Y-48197097D01*
X140580284Y-48362723D01*
X140580276Y-48362734D01*
X140489808Y-48501206D01*
X140436662Y-48546562D01*
X140367431Y-48555986D01*
X140304095Y-48526484D01*
X140282192Y-48501206D01*
X140191723Y-48362734D01*
X140191715Y-48362723D01*
X140039243Y-48197097D01*
X140039238Y-48197092D01*
X139861577Y-48058812D01*
X139861572Y-48058808D01*
X139663580Y-47951661D01*
X139663577Y-47951659D01*
X139663574Y-47951658D01*
X139663571Y-47951657D01*
X139663569Y-47951656D01*
X139450637Y-47878556D01*
X139228569Y-47841500D01*
X139003431Y-47841500D01*
X138781362Y-47878556D01*
X138568430Y-47951656D01*
X138568419Y-47951661D01*
X138370427Y-48058808D01*
X138370422Y-48058812D01*
X138192761Y-48197092D01*
X138192756Y-48197097D01*
X138040284Y-48362723D01*
X138040276Y-48362734D01*
X137949808Y-48501206D01*
X137896662Y-48546562D01*
X137827431Y-48555986D01*
X137764095Y-48526484D01*
X137742192Y-48501206D01*
X137651723Y-48362734D01*
X137651715Y-48362723D01*
X137499243Y-48197097D01*
X137499238Y-48197092D01*
X137321577Y-48058812D01*
X137321572Y-48058808D01*
X137123580Y-47951661D01*
X137123577Y-47951659D01*
X137123574Y-47951658D01*
X137123571Y-47951657D01*
X137123569Y-47951656D01*
X136910637Y-47878556D01*
X136688569Y-47841500D01*
X136463431Y-47841500D01*
X136241362Y-47878556D01*
X136028430Y-47951656D01*
X136028419Y-47951661D01*
X135830427Y-48058808D01*
X135830422Y-48058812D01*
X135652761Y-48197092D01*
X135652756Y-48197097D01*
X135500284Y-48362723D01*
X135500276Y-48362734D01*
X135409808Y-48501206D01*
X135356662Y-48546562D01*
X135287431Y-48555986D01*
X135224095Y-48526484D01*
X135202192Y-48501206D01*
X135111723Y-48362734D01*
X135111715Y-48362723D01*
X134959243Y-48197097D01*
X134959238Y-48197092D01*
X134781577Y-48058812D01*
X134781572Y-48058808D01*
X134583580Y-47951661D01*
X134583577Y-47951659D01*
X134583574Y-47951658D01*
X134583571Y-47951657D01*
X134583569Y-47951656D01*
X134370637Y-47878556D01*
X134148569Y-47841500D01*
X133923431Y-47841500D01*
X133701362Y-47878556D01*
X133488430Y-47951656D01*
X133488419Y-47951661D01*
X133290427Y-48058808D01*
X133290422Y-48058812D01*
X133112761Y-48197092D01*
X133112756Y-48197097D01*
X132960284Y-48362723D01*
X132960276Y-48362734D01*
X132869808Y-48501206D01*
X132816662Y-48546562D01*
X132747431Y-48555986D01*
X132684095Y-48526484D01*
X132662192Y-48501206D01*
X132571723Y-48362734D01*
X132571715Y-48362723D01*
X132419243Y-48197097D01*
X132419238Y-48197092D01*
X132241577Y-48058812D01*
X132241572Y-48058808D01*
X132043580Y-47951661D01*
X132043577Y-47951659D01*
X132043574Y-47951658D01*
X132043571Y-47951657D01*
X132043569Y-47951656D01*
X131830637Y-47878556D01*
X131608569Y-47841500D01*
X131383431Y-47841500D01*
X131161362Y-47878556D01*
X130948430Y-47951656D01*
X130948419Y-47951661D01*
X130750427Y-48058808D01*
X130750422Y-48058812D01*
X130572761Y-48197092D01*
X130572756Y-48197097D01*
X130420284Y-48362723D01*
X130420276Y-48362734D01*
X130329808Y-48501206D01*
X130276662Y-48546562D01*
X130207431Y-48555986D01*
X130144095Y-48526484D01*
X130122192Y-48501206D01*
X130031723Y-48362734D01*
X130031715Y-48362723D01*
X129879243Y-48197097D01*
X129879238Y-48197092D01*
X129701577Y-48058812D01*
X129701572Y-48058808D01*
X129503580Y-47951661D01*
X129503577Y-47951659D01*
X129503574Y-47951658D01*
X129503571Y-47951657D01*
X129503569Y-47951656D01*
X129290637Y-47878556D01*
X129068569Y-47841500D01*
X128843431Y-47841500D01*
X128621362Y-47878556D01*
X128408430Y-47951656D01*
X128408419Y-47951661D01*
X128210427Y-48058808D01*
X128210422Y-48058812D01*
X128032761Y-48197092D01*
X128032756Y-48197097D01*
X127880284Y-48362723D01*
X127880276Y-48362734D01*
X127786251Y-48506650D01*
X127733105Y-48552007D01*
X127663873Y-48561430D01*
X127600538Y-48531928D01*
X127580868Y-48509951D01*
X127454113Y-48328926D01*
X127454108Y-48328920D01*
X127287082Y-48161894D01*
X127093578Y-48026399D01*
X126879492Y-47926570D01*
X126879486Y-47926567D01*
X126666000Y-47869364D01*
X126666000Y-48766988D01*
X126608993Y-48734075D01*
X126481826Y-48700000D01*
X126350174Y-48700000D01*
X126223007Y-48734075D01*
X126166000Y-48766988D01*
X126166000Y-47869364D01*
X126165999Y-47869364D01*
X125952513Y-47926567D01*
X125952507Y-47926570D01*
X125738422Y-48026399D01*
X125738420Y-48026400D01*
X125544926Y-48161886D01*
X125544920Y-48161891D01*
X125377891Y-48328920D01*
X125377890Y-48328922D01*
X125251131Y-48509952D01*
X125196554Y-48553577D01*
X125127055Y-48560769D01*
X125064701Y-48529247D01*
X125045752Y-48506656D01*
X124951722Y-48362732D01*
X124951715Y-48362725D01*
X124951715Y-48362723D01*
X124799243Y-48197097D01*
X124799238Y-48197092D01*
X124621577Y-48058812D01*
X124621572Y-48058808D01*
X124423580Y-47951661D01*
X124423577Y-47951659D01*
X124423574Y-47951658D01*
X124423571Y-47951657D01*
X124423569Y-47951656D01*
X124210637Y-47878556D01*
X123988569Y-47841500D01*
X123763431Y-47841500D01*
X123541362Y-47878556D01*
X123328430Y-47951656D01*
X123328419Y-47951661D01*
X123130427Y-48058808D01*
X123130422Y-48058812D01*
X122952761Y-48197092D01*
X122952756Y-48197097D01*
X122800284Y-48362723D01*
X122800276Y-48362734D01*
X122709808Y-48501206D01*
X122656662Y-48546562D01*
X122587431Y-48555986D01*
X122524095Y-48526484D01*
X122502192Y-48501206D01*
X122411723Y-48362734D01*
X122411715Y-48362723D01*
X122259243Y-48197097D01*
X122259238Y-48197092D01*
X122081577Y-48058812D01*
X122081572Y-48058808D01*
X121883580Y-47951661D01*
X121883577Y-47951659D01*
X121883574Y-47951658D01*
X121883571Y-47951657D01*
X121883569Y-47951656D01*
X121670637Y-47878556D01*
X121448569Y-47841500D01*
X121223431Y-47841500D01*
X121001362Y-47878556D01*
X120788430Y-47951656D01*
X120788419Y-47951661D01*
X120590427Y-48058808D01*
X120590422Y-48058812D01*
X120412761Y-48197092D01*
X120349548Y-48265760D01*
X120289661Y-48301750D01*
X120219823Y-48299649D01*
X120162207Y-48260124D01*
X120142138Y-48225110D01*
X120096889Y-48103796D01*
X120063214Y-48058812D01*
X120009261Y-47986739D01*
X119892204Y-47899111D01*
X119755203Y-47848011D01*
X119694654Y-47841500D01*
X119694638Y-47841500D01*
X117897362Y-47841500D01*
X117897345Y-47841500D01*
X117836797Y-47848011D01*
X117836795Y-47848011D01*
X117699795Y-47899111D01*
X117582739Y-47986739D01*
X117495111Y-48103795D01*
X117444011Y-48240795D01*
X117444011Y-48240797D01*
X117437500Y-48301345D01*
X100075500Y-48301345D01*
X100075500Y-47428092D01*
X100076097Y-47415938D01*
X100087494Y-47300222D01*
X100092234Y-47276389D01*
X100124216Y-47170959D01*
X100133508Y-47148526D01*
X100185442Y-47051365D01*
X100198938Y-47031166D01*
X100268827Y-46946006D01*
X100286006Y-46928827D01*
X100371166Y-46858938D01*
X100391365Y-46845442D01*
X100488526Y-46793508D01*
X100510959Y-46784216D01*
X100616389Y-46752234D01*
X100640220Y-46747494D01*
X100755939Y-46736097D01*
X100768093Y-46735500D01*
X100786531Y-46735500D01*
X163417365Y-46735500D01*
X163484404Y-46755185D01*
G37*
%TD.AperFunction*%
%TD*%
M02*
