%TF.GenerationSoftware,KiCad,Pcbnew,8.0.8*%
%TF.CreationDate,2025-02-03T13:38:40-07:00*%
%TF.ProjectId,Uno_Shield_ThermoProbe,556e6f5f-5368-4696-956c-645f54686572,rev?*%
%TF.SameCoordinates,Original*%
%TF.FileFunction,Soldermask,Top*%
%TF.FilePolarity,Negative*%
%FSLAX46Y46*%
G04 Gerber Fmt 4.6, Leading zero omitted, Abs format (unit mm)*
G04 Created by KiCad (PCBNEW 8.0.8) date 2025-02-03 13:38:40*
%MOMM*%
%LPD*%
G01*
G04 APERTURE LIST*
G04 Aperture macros list*
%AMRoundRect*
0 Rectangle with rounded corners*
0 $1 Rounding radius*
0 $2 $3 $4 $5 $6 $7 $8 $9 X,Y pos of 4 corners*
0 Add a 4 corners polygon primitive as box body*
4,1,4,$2,$3,$4,$5,$6,$7,$8,$9,$2,$3,0*
0 Add four circle primitives for the rounded corners*
1,1,$1+$1,$2,$3*
1,1,$1+$1,$4,$5*
1,1,$1+$1,$6,$7*
1,1,$1+$1,$8,$9*
0 Add four rect primitives between the rounded corners*
20,1,$1+$1,$2,$3,$4,$5,0*
20,1,$1+$1,$4,$5,$6,$7,0*
20,1,$1+$1,$6,$7,$8,$9,0*
20,1,$1+$1,$8,$9,$2,$3,0*%
G04 Aperture macros list end*
%ADD10C,2.000000*%
%ADD11C,1.440000*%
%ADD12O,1.600000X1.600000*%
%ADD13C,1.600000*%
%ADD14R,1.700000X1.700000*%
%ADD15O,1.700000X1.700000*%
%ADD16RoundRect,0.250000X-0.725000X0.600000X-0.725000X-0.600000X0.725000X-0.600000X0.725000X0.600000X0*%
%ADD17O,1.950000X1.700000*%
%ADD18R,1.800000X1.800000*%
%ADD19C,1.800000*%
G04 APERTURE END LIST*
D10*
%TO.C,SW5*%
X133000000Y-78750000D03*
X133000000Y-72250000D03*
X137500000Y-78750000D03*
X137500000Y-72250000D03*
%TD*%
%TO.C,SW4*%
X138500000Y-87500000D03*
X145000000Y-87500000D03*
X138500000Y-92000000D03*
X145000000Y-92000000D03*
%TD*%
%TO.C,SW3*%
X145750000Y-77750000D03*
X145750000Y-71250000D03*
X150250000Y-77750000D03*
X150250000Y-71250000D03*
%TD*%
%TO.C,SW2*%
X164000000Y-55500000D03*
X164000000Y-62000000D03*
X159500000Y-55500000D03*
X159500000Y-62000000D03*
%TD*%
%TO.C,SW1*%
X165000000Y-70750000D03*
X165000000Y-77250000D03*
X160500000Y-70750000D03*
X160500000Y-77250000D03*
%TD*%
D11*
%TO.C,RV1*%
X158080000Y-88460000D03*
X160620000Y-91000000D03*
X163160000Y-88460000D03*
%TD*%
D12*
%TO.C,R6*%
X130000000Y-70340000D03*
D13*
X130000000Y-80500000D03*
%TD*%
%TO.C,R5*%
X136530000Y-84360000D03*
D12*
X146690000Y-84360000D03*
%TD*%
D13*
%TO.C,R4*%
X142660000Y-79640000D03*
D12*
X142660000Y-69480000D03*
%TD*%
%TO.C,R3*%
X156500000Y-54000000D03*
D13*
X156500000Y-64160000D03*
%TD*%
D12*
%TO.C,R2*%
X157500000Y-69170000D03*
D13*
X157500000Y-79330000D03*
%TD*%
%TO.C,R1*%
X141500000Y-54670000D03*
D12*
X141500000Y-64830000D03*
%TD*%
D14*
%TO.C,J7*%
X110880000Y-70900000D03*
D15*
X113420000Y-70900000D03*
X115960000Y-70900000D03*
X118500000Y-70900000D03*
%TD*%
D16*
%TO.C,J5*%
X149000000Y-57250000D03*
D17*
X149000000Y-59750000D03*
X149000000Y-62250000D03*
%TD*%
D18*
%TO.C,D1*%
X135225000Y-58170000D03*
D19*
X137765000Y-58170000D03*
%TD*%
D14*
%TO.C,J1*%
X127940000Y-97460000D03*
D15*
X130480000Y-97460000D03*
X133020000Y-97460000D03*
X135560000Y-97460000D03*
X138100000Y-97460000D03*
X140640000Y-97460000D03*
X143180000Y-97460000D03*
X145720000Y-97460000D03*
%TD*%
D14*
%TO.C,J3*%
X150800000Y-97460000D03*
D15*
X153340000Y-97460000D03*
X155880000Y-97460000D03*
X158420000Y-97460000D03*
X160960000Y-97460000D03*
X163500000Y-97460000D03*
%TD*%
%TO.C,J2*%
X141656000Y-49200000D03*
X139116000Y-49200000D03*
X136576000Y-49200000D03*
X134036000Y-49200000D03*
X131496000Y-49200000D03*
X128956000Y-49200000D03*
X126416000Y-49200000D03*
X123876000Y-49200000D03*
X121336000Y-49200000D03*
D14*
X118796000Y-49200000D03*
%TD*%
D15*
%TO.C,J4*%
X163500000Y-49200000D03*
X160960000Y-49200000D03*
X158420000Y-49200000D03*
X155880000Y-49200000D03*
X153340000Y-49200000D03*
X150800000Y-49200000D03*
X148260000Y-49200000D03*
D14*
X145720000Y-49200000D03*
%TD*%
%TO.C,J6*%
X130290000Y-54025000D03*
D15*
X127750000Y-54025000D03*
X125210000Y-54025000D03*
X122670000Y-54025000D03*
X120130000Y-54025000D03*
X117590000Y-54025000D03*
X115050000Y-54025000D03*
X112510000Y-54025000D03*
%TD*%
M02*
