M48
; DRILL file {KiCad 8.0.8} date 2025-02-03T21:16:40-0700
; FORMAT={-:-/ absolute / inch / decimal}
; #@! TF.CreationDate,2025-02-03T21:16:40-07:00
; #@! TF.GenerationSoftware,Kicad,Pcbnew,8.0.8
; #@! TF.FileFunction,Plated,1,2,PTH
FMAT,2
INCH
; #@! TA.AperFunction,Plated,PTH,ComponentDrill
T1C0.0315
; #@! TA.AperFunction,Plated,PTH,ComponentDrill
T2C0.0354
; #@! TA.AperFunction,Plated,PTH,ComponentDrill
T3C0.0374
; #@! TA.AperFunction,Plated,PTH,ComponentDrill
T4C0.0394
; #@! TA.AperFunction,Plated,PTH,ComponentDrill
T5C0.0433
%
G90
G05
T1
X5.1181Y-2.7693
X5.1181Y-3.1693
X5.3752Y-3.3213
X5.5709Y-2.1524
X5.5709Y-2.5524
X5.6165Y-2.7354
X5.6165Y-3.1354
X5.7752Y-3.3213
X6.1614Y-2.126
X6.1614Y-2.526
X6.2008Y-2.7232
X6.2008Y-3.1232
X6.2236Y-3.4827
X6.3236Y-3.5827
X6.4236Y-3.4827
T2
X5.3238Y-2.2902
X5.4238Y-2.2902
T3
X5.8661Y-2.2539
X5.8661Y-2.3524
X5.8661Y-2.4508
T4
X4.374Y-2.814
X4.4315Y-2.5945
X4.474Y-2.814
X4.5315Y-2.5945
X4.574Y-2.814
X4.6315Y-2.5945
X4.674Y-2.814
X4.677Y-1.937
X4.7315Y-2.5945
X4.777Y-1.937
X4.8315Y-2.5945
X4.877Y-1.937
X4.9315Y-2.5945
X4.977Y-1.937
X5.0315Y-2.5945
X5.037Y-3.837
X5.077Y-1.937
X5.1315Y-2.5945
X5.137Y-3.837
X5.177Y-1.937
X5.237Y-3.837
X5.277Y-1.937
X5.337Y-3.837
X5.377Y-1.937
X5.437Y-3.837
X5.477Y-1.937
X5.537Y-3.837
X5.577Y-1.937
X5.637Y-3.837
X5.737Y-1.937
X5.737Y-3.837
X5.837Y-1.937
X5.937Y-1.937
X5.937Y-3.837
X6.037Y-1.937
X6.037Y-3.837
X6.137Y-1.937
X6.137Y-3.837
X6.237Y-1.937
X6.237Y-3.837
X6.337Y-1.937
X6.337Y-3.837
X6.437Y-1.937
X6.437Y-3.837
T5
X5.2362Y-2.8445
X5.2362Y-3.1004
X5.4134Y-2.8445
X5.4134Y-3.1004
X5.4528Y-3.4449
X5.4528Y-3.622
X5.7087Y-3.4449
X5.7087Y-3.622
X5.7382Y-2.8051
X5.7382Y-3.061
X5.9154Y-2.8051
X5.9154Y-3.061
X6.2795Y-2.185
X6.2795Y-2.4409
X6.3189Y-2.7854
X6.3189Y-3.0413
X6.4567Y-2.185
X6.4567Y-2.4409
X6.4961Y-2.7854
X6.4961Y-3.0413
M30
