%TF.GenerationSoftware,KiCad,Pcbnew,8.0.8*%
%TF.CreationDate,2025-02-03T17:05:11-07:00*%
%TF.ProjectId,Uno_Shield_ThermoProbe,556e6f5f-5368-4696-956c-645f54686572,rev?*%
%TF.SameCoordinates,Original*%
%TF.FileFunction,Copper,L2,Bot*%
%TF.FilePolarity,Positive*%
%FSLAX46Y46*%
G04 Gerber Fmt 4.6, Leading zero omitted, Abs format (unit mm)*
G04 Created by KiCad (PCBNEW 8.0.8) date 2025-02-03 17:05:11*
%MOMM*%
%LPD*%
G01*
G04 APERTURE LIST*
G04 Aperture macros list*
%AMRoundRect*
0 Rectangle with rounded corners*
0 $1 Rounding radius*
0 $2 $3 $4 $5 $6 $7 $8 $9 X,Y pos of 4 corners*
0 Add a 4 corners polygon primitive as box body*
4,1,4,$2,$3,$4,$5,$6,$7,$8,$9,$2,$3,0*
0 Add four circle primitives for the rounded corners*
1,1,$1+$1,$2,$3*
1,1,$1+$1,$4,$5*
1,1,$1+$1,$6,$7*
1,1,$1+$1,$8,$9*
0 Add four rect primitives between the rounded corners*
20,1,$1+$1,$2,$3,$4,$5,0*
20,1,$1+$1,$4,$5,$6,$7,0*
20,1,$1+$1,$6,$7,$8,$9,0*
20,1,$1+$1,$8,$9,$2,$3,0*%
G04 Aperture macros list end*
%TA.AperFunction,ComponentPad*%
%ADD10R,1.700000X1.700000*%
%TD*%
%TA.AperFunction,ComponentPad*%
%ADD11O,1.700000X1.700000*%
%TD*%
%TA.AperFunction,ComponentPad*%
%ADD12C,1.600000*%
%TD*%
%TA.AperFunction,ComponentPad*%
%ADD13O,1.600000X1.600000*%
%TD*%
%TA.AperFunction,ComponentPad*%
%ADD14C,2.000000*%
%TD*%
%TA.AperFunction,ComponentPad*%
%ADD15RoundRect,0.250000X-0.725000X0.600000X-0.725000X-0.600000X0.725000X-0.600000X0.725000X0.600000X0*%
%TD*%
%TA.AperFunction,ComponentPad*%
%ADD16O,1.950000X1.700000*%
%TD*%
%TA.AperFunction,ComponentPad*%
%ADD17R,1.800000X1.800000*%
%TD*%
%TA.AperFunction,ComponentPad*%
%ADD18C,1.800000*%
%TD*%
%TA.AperFunction,ComponentPad*%
%ADD19C,1.440000*%
%TD*%
G04 APERTURE END LIST*
D10*
%TO.P,J1,1,Pin_1*%
%TO.N,unconnected-(J1-Pin_1-Pad1)*%
X127940000Y-97460000D03*
D11*
%TO.P,J1,2,Pin_2*%
%TO.N,/IOREF*%
X130480000Y-97460000D03*
%TO.P,J1,3,Pin_3*%
%TO.N,/~{RESET}*%
X133020000Y-97460000D03*
%TO.P,J1,4,Pin_4*%
%TO.N,+3V3*%
X135560000Y-97460000D03*
%TO.P,J1,5,Pin_5*%
%TO.N,+5V*%
X138100000Y-97460000D03*
%TO.P,J1,6,Pin_6*%
%TO.N,GND*%
X140640000Y-97460000D03*
%TO.P,J1,7,Pin_7*%
X143180000Y-97460000D03*
%TO.P,J1,8,Pin_8*%
%TO.N,VCC*%
X145720000Y-97460000D03*
%TD*%
D10*
%TO.P,J3,1,Pin_1*%
%TO.N,/Temp_POT*%
X150800000Y-97460000D03*
D11*
%TO.P,J3,2,Pin_2*%
%TO.N,/A1*%
X153340000Y-97460000D03*
%TO.P,J3,3,Pin_3*%
%TO.N,/A2*%
X155880000Y-97460000D03*
%TO.P,J3,4,Pin_4*%
%TO.N,/A3*%
X158420000Y-97460000D03*
%TO.P,J3,5,Pin_5*%
%TO.N,/SDA{slash}A4*%
X160960000Y-97460000D03*
%TO.P,J3,6,Pin_6*%
%TO.N,/SCL{slash}A5*%
X163500000Y-97460000D03*
%TD*%
D10*
%TO.P,J2,1,Pin_1*%
%TO.N,/I2C_SDA*%
X118796000Y-49200000D03*
D11*
%TO.P,J2,2,Pin_2*%
%TO.N,/I2C_SCL*%
X121336000Y-49200000D03*
%TO.P,J2,3,Pin_3*%
%TO.N,/AREF*%
X123876000Y-49200000D03*
%TO.P,J2,4,Pin_4*%
%TO.N,GND*%
X126416000Y-49200000D03*
%TO.P,J2,5,Pin_5*%
%TO.N,/Button_Light*%
X128956000Y-49200000D03*
%TO.P,J2,6,Pin_6*%
%TO.N,/12*%
X131496000Y-49200000D03*
%TO.P,J2,7,Pin_7*%
%TO.N,/\u002A11*%
X134036000Y-49200000D03*
%TO.P,J2,8,Pin_8*%
%TO.N,/\u002A10*%
X136576000Y-49200000D03*
%TO.P,J2,9,Pin_9*%
%TO.N,/LED_Backlight*%
X139116000Y-49200000D03*
%TO.P,J2,10,Pin_10*%
%TO.N,/Temp_Sensor*%
X141656000Y-49200000D03*
%TD*%
D10*
%TO.P,J4,1,Pin_1*%
%TO.N,/7*%
X145720000Y-49200000D03*
D11*
%TO.P,J4,2,Pin_2*%
%TO.N,unconnected-(J4-Pin_2-Pad2)*%
X148260000Y-49200000D03*
%TO.P,J4,3,Pin_3*%
%TO.N,/Button_Units*%
X150800000Y-49200000D03*
%TO.P,J4,4,Pin_4*%
%TO.N,/Button_OnOff*%
X153340000Y-49200000D03*
%TO.P,J4,5,Pin_5*%
%TO.N,/Button_Lock*%
X155880000Y-49200000D03*
%TO.P,J4,6,Pin_6*%
%TO.N,/Button_Cal*%
X158420000Y-49200000D03*
%TO.P,J4,7,Pin_7*%
%TO.N,/TX{slash}1*%
X160960000Y-49200000D03*
%TO.P,J4,8,Pin_8*%
%TO.N,/RX{slash}0*%
X163500000Y-49200000D03*
%TD*%
D12*
%TO.P,R6,1*%
%TO.N,/Button_Light*%
X130000000Y-80500000D03*
D13*
%TO.P,R6,2*%
%TO.N,GND*%
X130000000Y-70340000D03*
%TD*%
D14*
%TO.P,SW4,1,A*%
%TO.N,/Button_OnOff*%
X138500000Y-87500000D03*
X145000000Y-87500000D03*
%TO.P,SW4,2,B*%
%TO.N,+5V*%
X138500000Y-92000000D03*
X145000000Y-92000000D03*
%TD*%
D12*
%TO.P,R5,1*%
%TO.N,/Button_OnOff*%
X136530000Y-84360000D03*
D13*
%TO.P,R5,2*%
%TO.N,GND*%
X146690000Y-84360000D03*
%TD*%
D15*
%TO.P,J5,1,Pin_1*%
%TO.N,GND*%
X149000000Y-57250000D03*
D16*
%TO.P,J5,2,Pin_2*%
%TO.N,/Temp_Sensor*%
X149000000Y-59750000D03*
%TO.P,J5,3,Pin_3*%
%TO.N,+5V*%
X149000000Y-62250000D03*
%TD*%
D12*
%TO.P,R2,1*%
%TO.N,/Button_Lock*%
X157500000Y-79330000D03*
D13*
%TO.P,R2,2*%
%TO.N,GND*%
X157500000Y-69170000D03*
%TD*%
D12*
%TO.P,R4,1*%
%TO.N,/Button_Units*%
X142660000Y-79640000D03*
D13*
%TO.P,R4,2*%
%TO.N,GND*%
X142660000Y-69480000D03*
%TD*%
D12*
%TO.P,R1,1*%
%TO.N,/LED_Backlight*%
X141500000Y-54670000D03*
D13*
%TO.P,R1,2*%
%TO.N,Net-(D1-A)*%
X141500000Y-64830000D03*
%TD*%
D17*
%TO.P,D1,1,K*%
%TO.N,GND*%
X135225000Y-58170000D03*
D18*
%TO.P,D1,2,A*%
%TO.N,Net-(D1-A)*%
X137765000Y-58170000D03*
%TD*%
D10*
%TO.P,J6,1,Pin_1*%
%TO.N,+5V*%
X130290000Y-54025000D03*
D11*
%TO.P,J6,2,Pin_2*%
%TO.N,GND*%
X127750000Y-54025000D03*
%TO.P,J6,3,Pin_3*%
%TO.N,/I2C_SCL*%
X125210000Y-54025000D03*
%TO.P,J6,4,Pin_4*%
%TO.N,/I2C_SDA*%
X122670000Y-54025000D03*
%TO.P,J6,5,Pin_5*%
%TO.N,unconnected-(J6-Pin_5-Pad5)*%
X120130000Y-54025000D03*
%TO.P,J6,6,Pin_6*%
%TO.N,unconnected-(J6-Pin_6-Pad6)*%
X117590000Y-54025000D03*
%TO.P,J6,7,Pin_7*%
%TO.N,unconnected-(J6-Pin_7-Pad7)*%
X115050000Y-54025000D03*
%TO.P,J6,8,Pin_8*%
%TO.N,unconnected-(J6-Pin_8-Pad8)*%
X112510000Y-54025000D03*
%TD*%
D12*
%TO.P,R3,1*%
%TO.N,/Button_Cal*%
X156500000Y-64160000D03*
D13*
%TO.P,R3,2*%
%TO.N,GND*%
X156500000Y-54000000D03*
%TD*%
D14*
%TO.P,SW2,1,A*%
%TO.N,/Button_Cal*%
X159500000Y-62000000D03*
X159500000Y-55500000D03*
%TO.P,SW2,2,B*%
%TO.N,+5V*%
X164000000Y-62000000D03*
X164000000Y-55500000D03*
%TD*%
%TO.P,SW5,1,A*%
%TO.N,/Button_Light*%
X133000000Y-78750000D03*
X133000000Y-72250000D03*
%TO.P,SW5,2,B*%
%TO.N,+5V*%
X137500000Y-78750000D03*
X137500000Y-72250000D03*
%TD*%
%TO.P,SW3,1,A*%
%TO.N,/Button_Units*%
X145750000Y-77750000D03*
X145750000Y-71250000D03*
%TO.P,SW3,2,B*%
%TO.N,+5V*%
X150250000Y-77750000D03*
X150250000Y-71250000D03*
%TD*%
%TO.P,SW1,1,A*%
%TO.N,/Button_Lock*%
X160500000Y-77250000D03*
X160500000Y-70750000D03*
%TO.P,SW1,2,B*%
%TO.N,+5V*%
X165000000Y-77250000D03*
X165000000Y-70750000D03*
%TD*%
D10*
%TO.P,J7,1,Pin_1*%
%TO.N,GND*%
X110880000Y-70900000D03*
D11*
%TO.P,J7,2,Pin_2*%
%TO.N,+5V*%
X113420000Y-70900000D03*
%TO.P,J7,3,Pin_3*%
%TO.N,/I2C_SCL*%
X115960000Y-70900000D03*
%TO.P,J7,4,Pin_4*%
%TO.N,/I2C_SDA*%
X118500000Y-70900000D03*
%TD*%
D19*
%TO.P,RV1,1,1*%
%TO.N,+5V*%
X158080000Y-88460000D03*
%TO.P,RV1,2,2*%
%TO.N,/Temp_POT*%
X160620000Y-91000000D03*
%TO.P,RV1,3,3*%
%TO.N,GND*%
X163160000Y-88460000D03*
%TD*%
%TA.AperFunction,Conductor*%
%TO.N,GND*%
G36*
X142714075Y-97267007D02*
G01*
X142680000Y-97394174D01*
X142680000Y-97525826D01*
X142714075Y-97652993D01*
X142746988Y-97710000D01*
X141073012Y-97710000D01*
X141105925Y-97652993D01*
X141140000Y-97525826D01*
X141140000Y-97394174D01*
X141105925Y-97267007D01*
X141073012Y-97210000D01*
X142746988Y-97210000D01*
X142714075Y-97267007D01*
G37*
%TD.AperFunction*%
%TA.AperFunction,Conductor*%
G36*
X163484404Y-46755185D02*
G01*
X163505046Y-46771819D01*
X165928181Y-49194954D01*
X165961666Y-49256277D01*
X165964500Y-49282635D01*
X165964500Y-59344982D01*
X165964500Y-59375018D01*
X165975994Y-59402767D01*
X165975995Y-59402768D01*
X168468181Y-61894954D01*
X168501666Y-61956277D01*
X168504500Y-61982635D01*
X168504500Y-96107364D01*
X168484815Y-96174403D01*
X168468181Y-96195045D01*
X165997233Y-98665994D01*
X165975995Y-98687231D01*
X165964500Y-98714982D01*
X165964500Y-99231907D01*
X165963903Y-99244062D01*
X165952505Y-99359778D01*
X165947763Y-99383618D01*
X165917832Y-99482290D01*
X165915789Y-99489024D01*
X165906486Y-99511482D01*
X165854561Y-99608627D01*
X165841056Y-99628839D01*
X165771176Y-99713988D01*
X165753988Y-99731176D01*
X165668839Y-99801056D01*
X165648627Y-99814561D01*
X165551482Y-99866486D01*
X165529028Y-99875787D01*
X165487028Y-99888528D01*
X165423618Y-99907763D01*
X165399778Y-99912505D01*
X165291162Y-99923203D01*
X165284060Y-99923903D01*
X165271907Y-99924500D01*
X100768093Y-99924500D01*
X100755939Y-99923903D01*
X100747995Y-99923120D01*
X100640221Y-99912505D01*
X100616381Y-99907763D01*
X100599445Y-99902625D01*
X100510968Y-99875786D01*
X100488517Y-99866486D01*
X100391372Y-99814561D01*
X100371160Y-99801056D01*
X100286011Y-99731176D01*
X100268823Y-99713988D01*
X100198943Y-99628839D01*
X100185438Y-99608627D01*
X100133510Y-99511476D01*
X100124215Y-99489037D01*
X100092234Y-99383612D01*
X100087494Y-99359777D01*
X100076097Y-99244061D01*
X100075500Y-99231907D01*
X100075500Y-96561345D01*
X126581500Y-96561345D01*
X126581500Y-98358654D01*
X126588011Y-98419202D01*
X126588011Y-98419204D01*
X126639111Y-98556204D01*
X126726739Y-98673261D01*
X126843796Y-98760889D01*
X126980799Y-98811989D01*
X127008050Y-98814918D01*
X127041345Y-98818499D01*
X127041362Y-98818500D01*
X128838638Y-98818500D01*
X128838654Y-98818499D01*
X128865692Y-98815591D01*
X128899201Y-98811989D01*
X129036204Y-98760889D01*
X129153261Y-98673261D01*
X129240889Y-98556204D01*
X129286138Y-98434887D01*
X129328009Y-98378956D01*
X129393474Y-98354539D01*
X129461746Y-98369391D01*
X129493545Y-98394236D01*
X129556760Y-98462906D01*
X129734424Y-98601189D01*
X129734425Y-98601189D01*
X129734427Y-98601191D01*
X129861135Y-98669761D01*
X129932426Y-98708342D01*
X130145365Y-98781444D01*
X130367431Y-98818500D01*
X130592569Y-98818500D01*
X130814635Y-98781444D01*
X131027574Y-98708342D01*
X131225576Y-98601189D01*
X131403240Y-98462906D01*
X131524594Y-98331082D01*
X131555715Y-98297276D01*
X131555715Y-98297275D01*
X131555722Y-98297268D01*
X131646193Y-98158790D01*
X131699338Y-98113437D01*
X131768569Y-98104013D01*
X131831905Y-98133515D01*
X131853804Y-98158787D01*
X131944278Y-98297268D01*
X131944283Y-98297273D01*
X131944284Y-98297276D01*
X132070968Y-98434889D01*
X132096760Y-98462906D01*
X132274424Y-98601189D01*
X132274425Y-98601189D01*
X132274427Y-98601191D01*
X132401135Y-98669761D01*
X132472426Y-98708342D01*
X132685365Y-98781444D01*
X132907431Y-98818500D01*
X133132569Y-98818500D01*
X133354635Y-98781444D01*
X133567574Y-98708342D01*
X133765576Y-98601189D01*
X133943240Y-98462906D01*
X134064594Y-98331082D01*
X134095715Y-98297276D01*
X134095715Y-98297275D01*
X134095722Y-98297268D01*
X134186193Y-98158790D01*
X134239338Y-98113437D01*
X134308569Y-98104013D01*
X134371905Y-98133515D01*
X134393804Y-98158787D01*
X134484278Y-98297268D01*
X134484283Y-98297273D01*
X134484284Y-98297276D01*
X134610968Y-98434889D01*
X134636760Y-98462906D01*
X134814424Y-98601189D01*
X134814425Y-98601189D01*
X134814427Y-98601191D01*
X134941135Y-98669761D01*
X135012426Y-98708342D01*
X135225365Y-98781444D01*
X135447431Y-98818500D01*
X135672569Y-98818500D01*
X135894635Y-98781444D01*
X136107574Y-98708342D01*
X136305576Y-98601189D01*
X136483240Y-98462906D01*
X136604594Y-98331082D01*
X136635715Y-98297276D01*
X136635715Y-98297275D01*
X136635722Y-98297268D01*
X136726193Y-98158790D01*
X136779338Y-98113437D01*
X136848569Y-98104013D01*
X136911905Y-98133515D01*
X136933804Y-98158787D01*
X137024278Y-98297268D01*
X137024283Y-98297273D01*
X137024284Y-98297276D01*
X137150968Y-98434889D01*
X137176760Y-98462906D01*
X137354424Y-98601189D01*
X137354425Y-98601189D01*
X137354427Y-98601191D01*
X137481135Y-98669761D01*
X137552426Y-98708342D01*
X137765365Y-98781444D01*
X137987431Y-98818500D01*
X138212569Y-98818500D01*
X138434635Y-98781444D01*
X138647574Y-98708342D01*
X138845576Y-98601189D01*
X139023240Y-98462906D01*
X139144594Y-98331082D01*
X139175715Y-98297276D01*
X139175715Y-98297275D01*
X139175722Y-98297268D01*
X139269749Y-98153347D01*
X139322894Y-98107994D01*
X139392125Y-98098570D01*
X139455461Y-98128072D01*
X139475130Y-98150048D01*
X139601890Y-98331078D01*
X139768917Y-98498105D01*
X139962421Y-98633600D01*
X140176507Y-98733429D01*
X140176516Y-98733433D01*
X140390000Y-98790634D01*
X140390000Y-97893012D01*
X140447007Y-97925925D01*
X140574174Y-97960000D01*
X140705826Y-97960000D01*
X140832993Y-97925925D01*
X140890000Y-97893012D01*
X140890000Y-98790633D01*
X141103483Y-98733433D01*
X141103492Y-98733429D01*
X141317578Y-98633600D01*
X141511082Y-98498105D01*
X141678105Y-98331082D01*
X141808425Y-98144968D01*
X141863002Y-98101344D01*
X141932501Y-98094151D01*
X141994855Y-98125673D01*
X142011575Y-98144968D01*
X142141894Y-98331082D01*
X142308917Y-98498105D01*
X142502421Y-98633600D01*
X142716507Y-98733429D01*
X142716516Y-98733433D01*
X142930000Y-98790634D01*
X142930000Y-97893012D01*
X142987007Y-97925925D01*
X143114174Y-97960000D01*
X143245826Y-97960000D01*
X143372993Y-97925925D01*
X143430000Y-97893012D01*
X143430000Y-98790633D01*
X143643483Y-98733433D01*
X143643492Y-98733429D01*
X143857578Y-98633600D01*
X144051082Y-98498105D01*
X144218105Y-98331082D01*
X144344868Y-98150048D01*
X144399445Y-98106423D01*
X144468944Y-98099231D01*
X144531298Y-98130753D01*
X144550251Y-98153350D01*
X144644276Y-98297265D01*
X144644284Y-98297276D01*
X144770968Y-98434889D01*
X144796760Y-98462906D01*
X144974424Y-98601189D01*
X144974425Y-98601189D01*
X144974427Y-98601191D01*
X145101135Y-98669761D01*
X145172426Y-98708342D01*
X145385365Y-98781444D01*
X145607431Y-98818500D01*
X145832569Y-98818500D01*
X146054635Y-98781444D01*
X146267574Y-98708342D01*
X146465576Y-98601189D01*
X146643240Y-98462906D01*
X146764594Y-98331082D01*
X146795715Y-98297276D01*
X146795717Y-98297273D01*
X146795722Y-98297268D01*
X146918860Y-98108791D01*
X147009296Y-97902616D01*
X147064564Y-97684368D01*
X147067164Y-97652993D01*
X147083156Y-97460005D01*
X147083156Y-97459994D01*
X147064565Y-97235640D01*
X147064563Y-97235628D01*
X147009296Y-97017385D01*
X146999071Y-96994075D01*
X146918860Y-96811209D01*
X146902706Y-96786484D01*
X146795723Y-96622734D01*
X146795715Y-96622723D01*
X146739212Y-96561345D01*
X149441500Y-96561345D01*
X149441500Y-98358654D01*
X149448011Y-98419202D01*
X149448011Y-98419204D01*
X149499111Y-98556204D01*
X149586739Y-98673261D01*
X149703796Y-98760889D01*
X149840799Y-98811989D01*
X149868050Y-98814918D01*
X149901345Y-98818499D01*
X149901362Y-98818500D01*
X151698638Y-98818500D01*
X151698654Y-98818499D01*
X151725692Y-98815591D01*
X151759201Y-98811989D01*
X151896204Y-98760889D01*
X152013261Y-98673261D01*
X152100889Y-98556204D01*
X152146138Y-98434887D01*
X152188009Y-98378956D01*
X152253474Y-98354539D01*
X152321746Y-98369391D01*
X152353545Y-98394236D01*
X152416760Y-98462906D01*
X152594424Y-98601189D01*
X152594425Y-98601189D01*
X152594427Y-98601191D01*
X152721135Y-98669761D01*
X152792426Y-98708342D01*
X153005365Y-98781444D01*
X153227431Y-98818500D01*
X153452569Y-98818500D01*
X153674635Y-98781444D01*
X153887574Y-98708342D01*
X154085576Y-98601189D01*
X154263240Y-98462906D01*
X154384594Y-98331082D01*
X154415715Y-98297276D01*
X154415715Y-98297275D01*
X154415722Y-98297268D01*
X154506193Y-98158790D01*
X154559338Y-98113437D01*
X154628569Y-98104013D01*
X154691905Y-98133515D01*
X154713804Y-98158787D01*
X154804278Y-98297268D01*
X154804283Y-98297273D01*
X154804284Y-98297276D01*
X154930968Y-98434889D01*
X154956760Y-98462906D01*
X155134424Y-98601189D01*
X155134425Y-98601189D01*
X155134427Y-98601191D01*
X155261135Y-98669761D01*
X155332426Y-98708342D01*
X155545365Y-98781444D01*
X155767431Y-98818500D01*
X155992569Y-98818500D01*
X156214635Y-98781444D01*
X156427574Y-98708342D01*
X156625576Y-98601189D01*
X156803240Y-98462906D01*
X156924594Y-98331082D01*
X156955715Y-98297276D01*
X156955715Y-98297275D01*
X156955722Y-98297268D01*
X157046193Y-98158790D01*
X157099338Y-98113437D01*
X157168569Y-98104013D01*
X157231905Y-98133515D01*
X157253804Y-98158787D01*
X157344278Y-98297268D01*
X157344283Y-98297273D01*
X157344284Y-98297276D01*
X157470968Y-98434889D01*
X157496760Y-98462906D01*
X157674424Y-98601189D01*
X157674425Y-98601189D01*
X157674427Y-98601191D01*
X157801135Y-98669761D01*
X157872426Y-98708342D01*
X158085365Y-98781444D01*
X158307431Y-98818500D01*
X158532569Y-98818500D01*
X158754635Y-98781444D01*
X158967574Y-98708342D01*
X159165576Y-98601189D01*
X159343240Y-98462906D01*
X159464594Y-98331082D01*
X159495715Y-98297276D01*
X159495715Y-98297275D01*
X159495722Y-98297268D01*
X159586193Y-98158790D01*
X159639338Y-98113437D01*
X159708569Y-98104013D01*
X159771905Y-98133515D01*
X159793804Y-98158787D01*
X159884278Y-98297268D01*
X159884283Y-98297273D01*
X159884284Y-98297276D01*
X160010968Y-98434889D01*
X160036760Y-98462906D01*
X160214424Y-98601189D01*
X160214425Y-98601189D01*
X160214427Y-98601191D01*
X160341135Y-98669761D01*
X160412426Y-98708342D01*
X160625365Y-98781444D01*
X160847431Y-98818500D01*
X161072569Y-98818500D01*
X161294635Y-98781444D01*
X161507574Y-98708342D01*
X161705576Y-98601189D01*
X161883240Y-98462906D01*
X162004594Y-98331082D01*
X162035715Y-98297276D01*
X162035715Y-98297275D01*
X162035722Y-98297268D01*
X162126193Y-98158790D01*
X162179338Y-98113437D01*
X162248569Y-98104013D01*
X162311905Y-98133515D01*
X162333804Y-98158787D01*
X162424278Y-98297268D01*
X162424283Y-98297273D01*
X162424284Y-98297276D01*
X162550968Y-98434889D01*
X162576760Y-98462906D01*
X162754424Y-98601189D01*
X162754425Y-98601189D01*
X162754427Y-98601191D01*
X162881135Y-98669761D01*
X162952426Y-98708342D01*
X163165365Y-98781444D01*
X163387431Y-98818500D01*
X163612569Y-98818500D01*
X163834635Y-98781444D01*
X164047574Y-98708342D01*
X164245576Y-98601189D01*
X164423240Y-98462906D01*
X164544594Y-98331082D01*
X164575715Y-98297276D01*
X164575717Y-98297273D01*
X164575722Y-98297268D01*
X164698860Y-98108791D01*
X164789296Y-97902616D01*
X164844564Y-97684368D01*
X164847164Y-97652993D01*
X164863156Y-97460005D01*
X164863156Y-97459994D01*
X164844565Y-97235640D01*
X164844563Y-97235628D01*
X164789296Y-97017385D01*
X164779071Y-96994075D01*
X164698860Y-96811209D01*
X164682706Y-96786484D01*
X164575723Y-96622734D01*
X164575715Y-96622723D01*
X164423243Y-96457097D01*
X164423238Y-96457092D01*
X164245577Y-96318812D01*
X164245572Y-96318808D01*
X164047580Y-96211661D01*
X164047577Y-96211659D01*
X164047574Y-96211658D01*
X164047571Y-96211657D01*
X164047569Y-96211656D01*
X163834637Y-96138556D01*
X163612569Y-96101500D01*
X163387431Y-96101500D01*
X163165362Y-96138556D01*
X162952430Y-96211656D01*
X162952419Y-96211661D01*
X162754427Y-96318808D01*
X162754422Y-96318812D01*
X162576761Y-96457092D01*
X162576756Y-96457097D01*
X162424284Y-96622723D01*
X162424276Y-96622734D01*
X162333808Y-96761206D01*
X162280662Y-96806562D01*
X162211431Y-96815986D01*
X162148095Y-96786484D01*
X162126192Y-96761206D01*
X162035723Y-96622734D01*
X162035715Y-96622723D01*
X161883243Y-96457097D01*
X161883238Y-96457092D01*
X161705577Y-96318812D01*
X161705572Y-96318808D01*
X161507580Y-96211661D01*
X161507577Y-96211659D01*
X161507574Y-96211658D01*
X161507571Y-96211657D01*
X161507569Y-96211656D01*
X161294637Y-96138556D01*
X161072569Y-96101500D01*
X160847431Y-96101500D01*
X160625362Y-96138556D01*
X160412430Y-96211656D01*
X160412419Y-96211661D01*
X160214427Y-96318808D01*
X160214422Y-96318812D01*
X160036761Y-96457092D01*
X160036756Y-96457097D01*
X159884284Y-96622723D01*
X159884276Y-96622734D01*
X159793808Y-96761206D01*
X159740662Y-96806562D01*
X159671431Y-96815986D01*
X159608095Y-96786484D01*
X159586192Y-96761206D01*
X159495723Y-96622734D01*
X159495715Y-96622723D01*
X159343243Y-96457097D01*
X159343238Y-96457092D01*
X159165577Y-96318812D01*
X159165572Y-96318808D01*
X158967580Y-96211661D01*
X158967577Y-96211659D01*
X158967574Y-96211658D01*
X158967571Y-96211657D01*
X158967569Y-96211656D01*
X158754637Y-96138556D01*
X158532569Y-96101500D01*
X158307431Y-96101500D01*
X158085362Y-96138556D01*
X157872430Y-96211656D01*
X157872419Y-96211661D01*
X157674427Y-96318808D01*
X157674422Y-96318812D01*
X157496761Y-96457092D01*
X157496756Y-96457097D01*
X157344284Y-96622723D01*
X157344276Y-96622734D01*
X157253808Y-96761206D01*
X157200662Y-96806562D01*
X157131431Y-96815986D01*
X157068095Y-96786484D01*
X157046192Y-96761206D01*
X156955723Y-96622734D01*
X156955715Y-96622723D01*
X156803243Y-96457097D01*
X156803238Y-96457092D01*
X156625577Y-96318812D01*
X156625572Y-96318808D01*
X156427580Y-96211661D01*
X156427577Y-96211659D01*
X156427574Y-96211658D01*
X156427571Y-96211657D01*
X156427569Y-96211656D01*
X156214637Y-96138556D01*
X155992569Y-96101500D01*
X155767431Y-96101500D01*
X155545362Y-96138556D01*
X155332430Y-96211656D01*
X155332419Y-96211661D01*
X155134427Y-96318808D01*
X155134422Y-96318812D01*
X154956761Y-96457092D01*
X154956756Y-96457097D01*
X154804284Y-96622723D01*
X154804276Y-96622734D01*
X154713808Y-96761206D01*
X154660662Y-96806562D01*
X154591431Y-96815986D01*
X154528095Y-96786484D01*
X154506192Y-96761206D01*
X154415723Y-96622734D01*
X154415715Y-96622723D01*
X154263243Y-96457097D01*
X154263238Y-96457092D01*
X154085577Y-96318812D01*
X154085572Y-96318808D01*
X153887580Y-96211661D01*
X153887577Y-96211659D01*
X153887574Y-96211658D01*
X153887571Y-96211657D01*
X153887569Y-96211656D01*
X153674637Y-96138556D01*
X153452569Y-96101500D01*
X153227431Y-96101500D01*
X153005362Y-96138556D01*
X152792430Y-96211656D01*
X152792419Y-96211661D01*
X152594427Y-96318808D01*
X152594422Y-96318812D01*
X152416761Y-96457092D01*
X152353548Y-96525760D01*
X152293661Y-96561750D01*
X152223823Y-96559649D01*
X152166207Y-96520124D01*
X152146138Y-96485110D01*
X152100889Y-96363796D01*
X152067214Y-96318812D01*
X152013261Y-96246739D01*
X151896204Y-96159111D01*
X151895172Y-96158726D01*
X151759203Y-96108011D01*
X151698654Y-96101500D01*
X151698638Y-96101500D01*
X149901362Y-96101500D01*
X149901345Y-96101500D01*
X149840797Y-96108011D01*
X149840795Y-96108011D01*
X149703795Y-96159111D01*
X149586739Y-96246739D01*
X149499111Y-96363795D01*
X149448011Y-96500795D01*
X149448011Y-96500797D01*
X149441500Y-96561345D01*
X146739212Y-96561345D01*
X146643243Y-96457097D01*
X146643238Y-96457092D01*
X146465577Y-96318812D01*
X146465572Y-96318808D01*
X146267580Y-96211661D01*
X146267577Y-96211659D01*
X146267574Y-96211658D01*
X146267571Y-96211657D01*
X146267569Y-96211656D01*
X146054637Y-96138556D01*
X145832569Y-96101500D01*
X145607431Y-96101500D01*
X145385362Y-96138556D01*
X145172430Y-96211656D01*
X145172419Y-96211661D01*
X144974427Y-96318808D01*
X144974422Y-96318812D01*
X144796761Y-96457092D01*
X144796756Y-96457097D01*
X144644284Y-96622723D01*
X144644276Y-96622734D01*
X144550251Y-96766650D01*
X144497105Y-96812007D01*
X144427873Y-96821430D01*
X144364538Y-96791928D01*
X144344868Y-96769951D01*
X144218113Y-96588926D01*
X144218108Y-96588920D01*
X144051082Y-96421894D01*
X143857578Y-96286399D01*
X143643492Y-96186570D01*
X143643486Y-96186567D01*
X143430000Y-96129364D01*
X143430000Y-97026988D01*
X143372993Y-96994075D01*
X143245826Y-96960000D01*
X143114174Y-96960000D01*
X142987007Y-96994075D01*
X142930000Y-97026988D01*
X142930000Y-96129364D01*
X142929999Y-96129364D01*
X142716513Y-96186567D01*
X142716507Y-96186570D01*
X142502422Y-96286399D01*
X142502420Y-96286400D01*
X142308926Y-96421886D01*
X142308920Y-96421891D01*
X142141891Y-96588920D01*
X142141890Y-96588922D01*
X142011575Y-96775031D01*
X141956998Y-96818655D01*
X141887499Y-96825848D01*
X141825145Y-96794326D01*
X141808425Y-96775031D01*
X141678109Y-96588922D01*
X141678108Y-96588920D01*
X141511082Y-96421894D01*
X141317578Y-96286399D01*
X141103492Y-96186570D01*
X141103486Y-96186567D01*
X140890000Y-96129364D01*
X140890000Y-97026988D01*
X140832993Y-96994075D01*
X140705826Y-96960000D01*
X140574174Y-96960000D01*
X140447007Y-96994075D01*
X140390000Y-97026988D01*
X140390000Y-96129364D01*
X140389999Y-96129364D01*
X140176513Y-96186567D01*
X140176507Y-96186570D01*
X139962422Y-96286399D01*
X139962420Y-96286400D01*
X139768926Y-96421886D01*
X139768920Y-96421891D01*
X139601891Y-96588920D01*
X139601890Y-96588922D01*
X139475131Y-96769952D01*
X139420554Y-96813577D01*
X139351055Y-96820769D01*
X139288701Y-96789247D01*
X139269752Y-96766656D01*
X139175722Y-96622732D01*
X139175715Y-96622725D01*
X139175715Y-96622723D01*
X139023243Y-96457097D01*
X139023238Y-96457092D01*
X138845577Y-96318812D01*
X138845572Y-96318808D01*
X138647580Y-96211661D01*
X138647577Y-96211659D01*
X138647574Y-96211658D01*
X138647571Y-96211657D01*
X138647569Y-96211656D01*
X138434637Y-96138556D01*
X138212569Y-96101500D01*
X137987431Y-96101500D01*
X137765362Y-96138556D01*
X137552430Y-96211656D01*
X137552419Y-96211661D01*
X137354427Y-96318808D01*
X137354422Y-96318812D01*
X137176761Y-96457092D01*
X137176756Y-96457097D01*
X137024284Y-96622723D01*
X137024276Y-96622734D01*
X136933808Y-96761206D01*
X136880662Y-96806562D01*
X136811431Y-96815986D01*
X136748095Y-96786484D01*
X136726192Y-96761206D01*
X136635723Y-96622734D01*
X136635715Y-96622723D01*
X136483243Y-96457097D01*
X136483238Y-96457092D01*
X136305577Y-96318812D01*
X136305572Y-96318808D01*
X136107580Y-96211661D01*
X136107577Y-96211659D01*
X136107574Y-96211658D01*
X136107571Y-96211657D01*
X136107569Y-96211656D01*
X135894637Y-96138556D01*
X135672569Y-96101500D01*
X135447431Y-96101500D01*
X135225362Y-96138556D01*
X135012430Y-96211656D01*
X135012419Y-96211661D01*
X134814427Y-96318808D01*
X134814422Y-96318812D01*
X134636761Y-96457092D01*
X134636756Y-96457097D01*
X134484284Y-96622723D01*
X134484276Y-96622734D01*
X134393808Y-96761206D01*
X134340662Y-96806562D01*
X134271431Y-96815986D01*
X134208095Y-96786484D01*
X134186192Y-96761206D01*
X134095723Y-96622734D01*
X134095715Y-96622723D01*
X133943243Y-96457097D01*
X133943238Y-96457092D01*
X133765577Y-96318812D01*
X133765572Y-96318808D01*
X133567580Y-96211661D01*
X133567577Y-96211659D01*
X133567574Y-96211658D01*
X133567571Y-96211657D01*
X133567569Y-96211656D01*
X133354637Y-96138556D01*
X133132569Y-96101500D01*
X132907431Y-96101500D01*
X132685362Y-96138556D01*
X132472430Y-96211656D01*
X132472419Y-96211661D01*
X132274427Y-96318808D01*
X132274422Y-96318812D01*
X132096761Y-96457092D01*
X132096756Y-96457097D01*
X131944284Y-96622723D01*
X131944276Y-96622734D01*
X131853808Y-96761206D01*
X131800662Y-96806562D01*
X131731431Y-96815986D01*
X131668095Y-96786484D01*
X131646192Y-96761206D01*
X131555723Y-96622734D01*
X131555715Y-96622723D01*
X131403243Y-96457097D01*
X131403238Y-96457092D01*
X131225577Y-96318812D01*
X131225572Y-96318808D01*
X131027580Y-96211661D01*
X131027577Y-96211659D01*
X131027574Y-96211658D01*
X131027571Y-96211657D01*
X131027569Y-96211656D01*
X130814637Y-96138556D01*
X130592569Y-96101500D01*
X130367431Y-96101500D01*
X130145362Y-96138556D01*
X129932430Y-96211656D01*
X129932419Y-96211661D01*
X129734427Y-96318808D01*
X129734422Y-96318812D01*
X129556761Y-96457092D01*
X129493548Y-96525760D01*
X129433661Y-96561750D01*
X129363823Y-96559649D01*
X129306207Y-96520124D01*
X129286138Y-96485110D01*
X129240889Y-96363796D01*
X129207214Y-96318812D01*
X129153261Y-96246739D01*
X129036204Y-96159111D01*
X129035172Y-96158726D01*
X128899203Y-96108011D01*
X128838654Y-96101500D01*
X128838638Y-96101500D01*
X127041362Y-96101500D01*
X127041345Y-96101500D01*
X126980797Y-96108011D01*
X126980795Y-96108011D01*
X126843795Y-96159111D01*
X126726739Y-96246739D01*
X126639111Y-96363795D01*
X126588011Y-96500795D01*
X126588011Y-96500797D01*
X126581500Y-96561345D01*
X100075500Y-96561345D01*
X100075500Y-92000000D01*
X136986835Y-92000000D01*
X137005465Y-92236714D01*
X137060895Y-92467595D01*
X137060895Y-92467597D01*
X137151757Y-92686959D01*
X137151759Y-92686962D01*
X137275820Y-92889410D01*
X137275821Y-92889413D01*
X137275824Y-92889416D01*
X137430031Y-93069969D01*
X137569797Y-93189340D01*
X137610586Y-93224178D01*
X137610589Y-93224179D01*
X137813037Y-93348240D01*
X137813040Y-93348242D01*
X138032403Y-93439104D01*
X138032404Y-93439104D01*
X138032406Y-93439105D01*
X138263289Y-93494535D01*
X138500000Y-93513165D01*
X138736711Y-93494535D01*
X138967594Y-93439105D01*
X138967596Y-93439104D01*
X138967597Y-93439104D01*
X139186959Y-93348242D01*
X139186960Y-93348241D01*
X139186963Y-93348240D01*
X139389416Y-93224176D01*
X139569969Y-93069969D01*
X139724176Y-92889416D01*
X139848240Y-92686963D01*
X139939105Y-92467594D01*
X139994535Y-92236711D01*
X140013165Y-92000000D01*
X143486835Y-92000000D01*
X143505465Y-92236714D01*
X143560895Y-92467595D01*
X143560895Y-92467597D01*
X143651757Y-92686959D01*
X143651759Y-92686962D01*
X143775820Y-92889410D01*
X143775821Y-92889413D01*
X143775824Y-92889416D01*
X143930031Y-93069969D01*
X144069797Y-93189340D01*
X144110586Y-93224178D01*
X144110589Y-93224179D01*
X144313037Y-93348240D01*
X144313040Y-93348242D01*
X144532403Y-93439104D01*
X144532404Y-93439104D01*
X144532406Y-93439105D01*
X144763289Y-93494535D01*
X145000000Y-93513165D01*
X145236711Y-93494535D01*
X145467594Y-93439105D01*
X145467596Y-93439104D01*
X145467597Y-93439104D01*
X145686959Y-93348242D01*
X145686960Y-93348241D01*
X145686963Y-93348240D01*
X145889416Y-93224176D01*
X146069969Y-93069969D01*
X146224176Y-92889416D01*
X146348240Y-92686963D01*
X146439105Y-92467594D01*
X146494535Y-92236711D01*
X146513165Y-92000000D01*
X146494535Y-91763289D01*
X146439105Y-91532406D01*
X146439104Y-91532403D01*
X146439104Y-91532402D01*
X146348242Y-91313040D01*
X146348240Y-91313037D01*
X146224179Y-91110589D01*
X146224178Y-91110586D01*
X146129728Y-91000000D01*
X146129726Y-90999998D01*
X159386807Y-90999998D01*
X159386807Y-91000001D01*
X159405541Y-91214136D01*
X159405542Y-91214144D01*
X159461176Y-91421772D01*
X159461177Y-91421774D01*
X159461178Y-91421777D01*
X159512763Y-91532402D01*
X159552024Y-91616597D01*
X159552026Y-91616601D01*
X159675319Y-91792682D01*
X159827317Y-91944680D01*
X160003398Y-92067973D01*
X160003400Y-92067974D01*
X160003403Y-92067976D01*
X160198223Y-92158822D01*
X160405858Y-92214458D01*
X160558816Y-92227840D01*
X160619998Y-92233193D01*
X160620000Y-92233193D01*
X160620002Y-92233193D01*
X160673535Y-92228509D01*
X160834142Y-92214458D01*
X161041777Y-92158822D01*
X161236597Y-92067976D01*
X161412681Y-91944681D01*
X161564681Y-91792681D01*
X161687976Y-91616597D01*
X161778822Y-91421777D01*
X161834458Y-91214142D01*
X161853193Y-91000000D01*
X161834458Y-90785858D01*
X161778822Y-90578223D01*
X161687976Y-90383404D01*
X161564681Y-90207319D01*
X161564679Y-90207316D01*
X161412682Y-90055319D01*
X161236601Y-89932026D01*
X161236597Y-89932024D01*
X161236595Y-89932023D01*
X161041777Y-89841178D01*
X161041774Y-89841177D01*
X161041772Y-89841176D01*
X160834144Y-89785542D01*
X160834136Y-89785541D01*
X160620002Y-89766807D01*
X160619998Y-89766807D01*
X160405863Y-89785541D01*
X160405855Y-89785542D01*
X160198227Y-89841176D01*
X160198221Y-89841179D01*
X160003405Y-89932023D01*
X160003403Y-89932024D01*
X159827316Y-90055320D01*
X159675320Y-90207316D01*
X159552024Y-90383403D01*
X159552023Y-90383405D01*
X159461179Y-90578221D01*
X159461176Y-90578227D01*
X159405542Y-90785855D01*
X159405541Y-90785863D01*
X159386807Y-90999998D01*
X146129726Y-90999998D01*
X146069969Y-90930031D01*
X145950596Y-90828076D01*
X145889413Y-90775821D01*
X145889410Y-90775820D01*
X145686962Y-90651759D01*
X145686959Y-90651757D01*
X145467596Y-90560895D01*
X145236714Y-90505465D01*
X145000000Y-90486835D01*
X144763285Y-90505465D01*
X144532404Y-90560895D01*
X144532402Y-90560895D01*
X144313040Y-90651757D01*
X144313037Y-90651759D01*
X144110589Y-90775820D01*
X144110586Y-90775821D01*
X143930031Y-90930031D01*
X143775821Y-91110586D01*
X143775820Y-91110589D01*
X143651759Y-91313037D01*
X143651757Y-91313040D01*
X143560895Y-91532402D01*
X143560895Y-91532404D01*
X143505465Y-91763285D01*
X143486835Y-92000000D01*
X140013165Y-92000000D01*
X139994535Y-91763289D01*
X139939105Y-91532406D01*
X139939104Y-91532403D01*
X139939104Y-91532402D01*
X139848242Y-91313040D01*
X139848240Y-91313037D01*
X139724179Y-91110589D01*
X139724178Y-91110586D01*
X139629728Y-91000000D01*
X139569969Y-90930031D01*
X139450596Y-90828076D01*
X139389413Y-90775821D01*
X139389410Y-90775820D01*
X139186962Y-90651759D01*
X139186959Y-90651757D01*
X138967596Y-90560895D01*
X138736714Y-90505465D01*
X138500000Y-90486835D01*
X138263285Y-90505465D01*
X138032404Y-90560895D01*
X138032402Y-90560895D01*
X137813040Y-90651757D01*
X137813037Y-90651759D01*
X137610589Y-90775820D01*
X137610586Y-90775821D01*
X137430031Y-90930031D01*
X137275821Y-91110586D01*
X137275820Y-91110589D01*
X137151759Y-91313037D01*
X137151757Y-91313040D01*
X137060895Y-91532402D01*
X137060895Y-91532404D01*
X137005465Y-91763285D01*
X136986835Y-92000000D01*
X100075500Y-92000000D01*
X100075500Y-87500000D01*
X136986835Y-87500000D01*
X137005465Y-87736714D01*
X137060895Y-87967595D01*
X137060895Y-87967597D01*
X137151757Y-88186959D01*
X137151759Y-88186962D01*
X137275820Y-88389410D01*
X137275821Y-88389413D01*
X137328076Y-88450596D01*
X137430031Y-88569969D01*
X137550260Y-88672654D01*
X137610586Y-88724178D01*
X137610589Y-88724179D01*
X137813037Y-88848240D01*
X137813040Y-88848242D01*
X138032403Y-88939104D01*
X138032404Y-88939104D01*
X138032406Y-88939105D01*
X138263289Y-88994535D01*
X138500000Y-89013165D01*
X138736711Y-88994535D01*
X138967594Y-88939105D01*
X138967596Y-88939104D01*
X138967597Y-88939104D01*
X139186959Y-88848242D01*
X139186960Y-88848241D01*
X139186963Y-88848240D01*
X139389416Y-88724176D01*
X139569969Y-88569969D01*
X139724176Y-88389416D01*
X139848240Y-88186963D01*
X139889539Y-88087259D01*
X139939104Y-87967597D01*
X139939104Y-87967596D01*
X139939105Y-87967594D01*
X139994535Y-87736711D01*
X140013165Y-87500000D01*
X143486835Y-87500000D01*
X143505465Y-87736714D01*
X143560895Y-87967595D01*
X143560895Y-87967597D01*
X143651757Y-88186959D01*
X143651759Y-88186962D01*
X143775820Y-88389410D01*
X143775821Y-88389413D01*
X143828076Y-88450596D01*
X143930031Y-88569969D01*
X144050260Y-88672654D01*
X144110586Y-88724178D01*
X144110589Y-88724179D01*
X144313037Y-88848240D01*
X144313040Y-88848242D01*
X144532403Y-88939104D01*
X144532404Y-88939104D01*
X144532406Y-88939105D01*
X144763289Y-88994535D01*
X145000000Y-89013165D01*
X145236711Y-88994535D01*
X145467594Y-88939105D01*
X145467596Y-88939104D01*
X145467597Y-88939104D01*
X145686959Y-88848242D01*
X145686960Y-88848241D01*
X145686963Y-88848240D01*
X145889416Y-88724176D01*
X146069969Y-88569969D01*
X146163893Y-88459998D01*
X156846807Y-88459998D01*
X156846807Y-88460001D01*
X156865541Y-88674136D01*
X156865542Y-88674144D01*
X156921176Y-88881772D01*
X156921177Y-88881774D01*
X156921178Y-88881777D01*
X156973758Y-88994535D01*
X157012024Y-89076597D01*
X157012026Y-89076601D01*
X157135319Y-89252682D01*
X157287317Y-89404680D01*
X157463398Y-89527973D01*
X157463400Y-89527974D01*
X157463403Y-89527976D01*
X157658223Y-89618822D01*
X157865858Y-89674458D01*
X158018816Y-89687840D01*
X158079998Y-89693193D01*
X158080000Y-89693193D01*
X158080002Y-89693193D01*
X158133535Y-89688509D01*
X158294142Y-89674458D01*
X158501777Y-89618822D01*
X158696597Y-89527976D01*
X158872681Y-89404681D01*
X159024681Y-89252681D01*
X159147976Y-89076597D01*
X159238822Y-88881777D01*
X159294458Y-88674142D01*
X159313193Y-88460000D01*
X159313193Y-88459997D01*
X161935340Y-88459997D01*
X161935340Y-88460002D01*
X161953944Y-88672654D01*
X161953945Y-88672662D01*
X162009194Y-88878853D01*
X162009197Y-88878859D01*
X162099413Y-89072329D01*
X162138415Y-89128030D01*
X162760000Y-88506445D01*
X162760000Y-88512661D01*
X162787259Y-88614394D01*
X162839920Y-88705606D01*
X162914394Y-88780080D01*
X163005606Y-88832741D01*
X163107339Y-88860000D01*
X163113554Y-88860000D01*
X162491968Y-89481584D01*
X162547663Y-89520582D01*
X162547669Y-89520586D01*
X162741140Y-89610802D01*
X162741146Y-89610805D01*
X162947337Y-89666054D01*
X162947345Y-89666055D01*
X163159998Y-89684660D01*
X163160002Y-89684660D01*
X163372654Y-89666055D01*
X163372662Y-89666054D01*
X163578853Y-89610805D01*
X163578864Y-89610801D01*
X163772325Y-89520589D01*
X163828030Y-89481583D01*
X163206447Y-88860000D01*
X163212661Y-88860000D01*
X163314394Y-88832741D01*
X163405606Y-88780080D01*
X163480080Y-88705606D01*
X163532741Y-88614394D01*
X163560000Y-88512661D01*
X163560000Y-88506446D01*
X164181583Y-89128029D01*
X164220589Y-89072325D01*
X164310801Y-88878864D01*
X164310805Y-88878853D01*
X164366054Y-88672662D01*
X164366055Y-88672654D01*
X164384660Y-88460002D01*
X164384660Y-88459997D01*
X164366055Y-88247345D01*
X164366054Y-88247337D01*
X164310805Y-88041146D01*
X164310802Y-88041140D01*
X164220586Y-87847669D01*
X164220582Y-87847663D01*
X164181584Y-87791968D01*
X163560000Y-88413552D01*
X163560000Y-88407339D01*
X163532741Y-88305606D01*
X163480080Y-88214394D01*
X163405606Y-88139920D01*
X163314394Y-88087259D01*
X163212661Y-88060000D01*
X163206447Y-88060000D01*
X163828030Y-87438415D01*
X163772329Y-87399413D01*
X163578859Y-87309197D01*
X163578853Y-87309194D01*
X163372662Y-87253945D01*
X163372654Y-87253944D01*
X163160002Y-87235340D01*
X163159998Y-87235340D01*
X162947345Y-87253944D01*
X162947337Y-87253945D01*
X162741146Y-87309194D01*
X162741140Y-87309197D01*
X162547671Y-87399412D01*
X162547669Y-87399413D01*
X162491969Y-87438415D01*
X162491968Y-87438415D01*
X163113554Y-88060000D01*
X163107339Y-88060000D01*
X163005606Y-88087259D01*
X162914394Y-88139920D01*
X162839920Y-88214394D01*
X162787259Y-88305606D01*
X162760000Y-88407339D01*
X162760000Y-88413553D01*
X162138415Y-87791968D01*
X162138415Y-87791969D01*
X162099413Y-87847669D01*
X162099412Y-87847671D01*
X162009197Y-88041140D01*
X162009194Y-88041146D01*
X161953945Y-88247337D01*
X161953944Y-88247345D01*
X161935340Y-88459997D01*
X159313193Y-88459997D01*
X159294458Y-88245858D01*
X159238822Y-88038223D01*
X159147976Y-87843404D01*
X159024681Y-87667319D01*
X159024679Y-87667316D01*
X158872682Y-87515319D01*
X158696601Y-87392026D01*
X158696597Y-87392024D01*
X158696595Y-87392023D01*
X158501777Y-87301178D01*
X158501774Y-87301177D01*
X158501772Y-87301176D01*
X158294144Y-87245542D01*
X158294136Y-87245541D01*
X158080002Y-87226807D01*
X158079998Y-87226807D01*
X157865863Y-87245541D01*
X157865855Y-87245542D01*
X157658227Y-87301176D01*
X157658221Y-87301179D01*
X157463405Y-87392023D01*
X157463403Y-87392024D01*
X157287316Y-87515320D01*
X157135320Y-87667316D01*
X157012024Y-87843403D01*
X157012023Y-87843405D01*
X156921179Y-88038221D01*
X156921176Y-88038227D01*
X156865542Y-88245855D01*
X156865541Y-88245863D01*
X156846807Y-88459998D01*
X146163893Y-88459998D01*
X146224176Y-88389416D01*
X146348240Y-88186963D01*
X146389539Y-88087259D01*
X146439104Y-87967597D01*
X146439104Y-87967596D01*
X146439105Y-87967594D01*
X146494535Y-87736711D01*
X146513165Y-87500000D01*
X146494535Y-87263289D01*
X146439105Y-87032406D01*
X146439104Y-87032403D01*
X146439104Y-87032402D01*
X146348242Y-86813040D01*
X146348240Y-86813037D01*
X146224179Y-86610589D01*
X146224178Y-86610586D01*
X146189340Y-86569797D01*
X146069969Y-86430031D01*
X145950596Y-86328076D01*
X145889413Y-86275821D01*
X145889410Y-86275820D01*
X145686962Y-86151759D01*
X145686959Y-86151757D01*
X145467596Y-86060895D01*
X145236714Y-86005465D01*
X145000000Y-85986835D01*
X144763285Y-86005465D01*
X144532404Y-86060895D01*
X144532402Y-86060895D01*
X144313040Y-86151757D01*
X144313037Y-86151759D01*
X144110589Y-86275820D01*
X144110586Y-86275821D01*
X143930031Y-86430031D01*
X143775821Y-86610586D01*
X143775820Y-86610589D01*
X143651759Y-86813037D01*
X143651757Y-86813040D01*
X143560895Y-87032402D01*
X143560895Y-87032404D01*
X143505465Y-87263285D01*
X143486835Y-87500000D01*
X140013165Y-87500000D01*
X139994535Y-87263289D01*
X139939105Y-87032406D01*
X139939104Y-87032403D01*
X139939104Y-87032402D01*
X139848242Y-86813040D01*
X139848240Y-86813037D01*
X139724179Y-86610589D01*
X139724178Y-86610586D01*
X139689340Y-86569797D01*
X139569969Y-86430031D01*
X139450596Y-86328076D01*
X139389413Y-86275821D01*
X139389410Y-86275820D01*
X139186962Y-86151759D01*
X139186959Y-86151757D01*
X138967596Y-86060895D01*
X138736714Y-86005465D01*
X138500000Y-85986835D01*
X138263285Y-86005465D01*
X138032404Y-86060895D01*
X138032402Y-86060895D01*
X137813040Y-86151757D01*
X137813037Y-86151759D01*
X137610589Y-86275820D01*
X137610586Y-86275821D01*
X137430031Y-86430031D01*
X137275821Y-86610586D01*
X137275820Y-86610589D01*
X137151759Y-86813037D01*
X137151757Y-86813040D01*
X137060895Y-87032402D01*
X137060895Y-87032404D01*
X137005465Y-87263285D01*
X136986835Y-87500000D01*
X100075500Y-87500000D01*
X100075500Y-84359998D01*
X135216502Y-84359998D01*
X135216502Y-84360001D01*
X135236456Y-84588081D01*
X135236457Y-84588089D01*
X135295714Y-84809238D01*
X135295718Y-84809249D01*
X135390487Y-85012482D01*
X135392477Y-85016749D01*
X135523802Y-85204300D01*
X135685700Y-85366198D01*
X135873251Y-85497523D01*
X135998091Y-85555736D01*
X136080750Y-85594281D01*
X136080752Y-85594281D01*
X136080757Y-85594284D01*
X136301913Y-85653543D01*
X136464832Y-85667796D01*
X136529998Y-85673498D01*
X136530000Y-85673498D01*
X136530002Y-85673498D01*
X136587021Y-85668509D01*
X136758087Y-85653543D01*
X136979243Y-85594284D01*
X137186749Y-85497523D01*
X137374300Y-85366198D01*
X137536198Y-85204300D01*
X137667523Y-85016749D01*
X137764284Y-84809243D01*
X137823543Y-84588087D01*
X137843498Y-84360000D01*
X137823543Y-84131913D01*
X137817671Y-84109999D01*
X145411127Y-84109999D01*
X145411128Y-84110000D01*
X146374314Y-84110000D01*
X146369920Y-84114394D01*
X146317259Y-84205606D01*
X146290000Y-84307339D01*
X146290000Y-84412661D01*
X146317259Y-84514394D01*
X146369920Y-84605606D01*
X146374314Y-84610000D01*
X145411128Y-84610000D01*
X145463730Y-84806317D01*
X145463734Y-84806326D01*
X145559865Y-85012482D01*
X145690342Y-85198820D01*
X145851179Y-85359657D01*
X146037517Y-85490134D01*
X146243673Y-85586265D01*
X146243682Y-85586269D01*
X146439999Y-85638872D01*
X146440000Y-85638871D01*
X146440000Y-84675686D01*
X146444394Y-84680080D01*
X146535606Y-84732741D01*
X146637339Y-84760000D01*
X146742661Y-84760000D01*
X146844394Y-84732741D01*
X146935606Y-84680080D01*
X146940000Y-84675686D01*
X146940000Y-85638872D01*
X147136317Y-85586269D01*
X147136326Y-85586265D01*
X147342482Y-85490134D01*
X147528820Y-85359657D01*
X147689657Y-85198820D01*
X147820134Y-85012482D01*
X147916265Y-84806326D01*
X147916269Y-84806317D01*
X147968872Y-84610000D01*
X147005686Y-84610000D01*
X147010080Y-84605606D01*
X147062741Y-84514394D01*
X147090000Y-84412661D01*
X147090000Y-84307339D01*
X147062741Y-84205606D01*
X147010080Y-84114394D01*
X147005686Y-84110000D01*
X147968872Y-84110000D01*
X147968872Y-84109999D01*
X147916269Y-83913682D01*
X147916265Y-83913673D01*
X147820134Y-83707517D01*
X147689657Y-83521179D01*
X147528820Y-83360342D01*
X147342482Y-83229865D01*
X147136328Y-83133734D01*
X146940000Y-83081127D01*
X146940000Y-84044314D01*
X146935606Y-84039920D01*
X146844394Y-83987259D01*
X146742661Y-83960000D01*
X146637339Y-83960000D01*
X146535606Y-83987259D01*
X146444394Y-84039920D01*
X146440000Y-84044314D01*
X146440000Y-83081127D01*
X146243671Y-83133734D01*
X146037517Y-83229865D01*
X145851179Y-83360342D01*
X145690342Y-83521179D01*
X145559865Y-83707517D01*
X145463734Y-83913673D01*
X145463730Y-83913682D01*
X145411127Y-84109999D01*
X137817671Y-84109999D01*
X137764284Y-83910757D01*
X137667523Y-83703251D01*
X137536198Y-83515700D01*
X137374300Y-83353802D01*
X137186749Y-83222477D01*
X137186745Y-83222475D01*
X136979249Y-83125718D01*
X136979238Y-83125714D01*
X136758089Y-83066457D01*
X136758081Y-83066456D01*
X136530002Y-83046502D01*
X136529998Y-83046502D01*
X136301918Y-83066456D01*
X136301910Y-83066457D01*
X136080761Y-83125714D01*
X136080750Y-83125718D01*
X135873254Y-83222475D01*
X135873252Y-83222476D01*
X135873251Y-83222477D01*
X135685700Y-83353802D01*
X135685698Y-83353803D01*
X135685695Y-83353806D01*
X135523806Y-83515695D01*
X135392476Y-83703252D01*
X135392475Y-83703254D01*
X135295718Y-83910750D01*
X135295714Y-83910761D01*
X135236457Y-84131910D01*
X135236456Y-84131918D01*
X135216502Y-84359998D01*
X100075500Y-84359998D01*
X100075500Y-80499998D01*
X128686502Y-80499998D01*
X128686502Y-80500001D01*
X128706456Y-80728081D01*
X128706457Y-80728089D01*
X128765714Y-80949238D01*
X128765718Y-80949249D01*
X128862475Y-81156745D01*
X128862477Y-81156749D01*
X128993802Y-81344300D01*
X129155700Y-81506198D01*
X129343251Y-81637523D01*
X129468091Y-81695736D01*
X129550750Y-81734281D01*
X129550752Y-81734281D01*
X129550757Y-81734284D01*
X129771913Y-81793543D01*
X129934832Y-81807796D01*
X129999998Y-81813498D01*
X130000000Y-81813498D01*
X130000002Y-81813498D01*
X130057021Y-81808509D01*
X130228087Y-81793543D01*
X130449243Y-81734284D01*
X130656749Y-81637523D01*
X130844300Y-81506198D01*
X131006198Y-81344300D01*
X131137523Y-81156749D01*
X131234284Y-80949243D01*
X131293543Y-80728087D01*
X131313498Y-80500000D01*
X131312124Y-80484300D01*
X131299167Y-80336198D01*
X131293543Y-80271913D01*
X131234284Y-80050757D01*
X131137523Y-79843251D01*
X131006198Y-79655700D01*
X130844300Y-79493802D01*
X130656749Y-79362477D01*
X130587104Y-79330001D01*
X130449249Y-79265718D01*
X130449238Y-79265714D01*
X130228089Y-79206457D01*
X130228081Y-79206456D01*
X130000002Y-79186502D01*
X129999998Y-79186502D01*
X129771918Y-79206456D01*
X129771910Y-79206457D01*
X129550761Y-79265714D01*
X129550750Y-79265718D01*
X129343254Y-79362475D01*
X129343252Y-79362476D01*
X129343251Y-79362477D01*
X129155700Y-79493802D01*
X129155698Y-79493803D01*
X129155695Y-79493806D01*
X128993806Y-79655695D01*
X128862476Y-79843252D01*
X128862475Y-79843254D01*
X128765718Y-80050750D01*
X128765714Y-80050761D01*
X128706457Y-80271910D01*
X128706456Y-80271918D01*
X128686502Y-80499998D01*
X100075500Y-80499998D01*
X100075500Y-78750000D01*
X131486835Y-78750000D01*
X131505465Y-78986714D01*
X131560895Y-79217595D01*
X131560895Y-79217597D01*
X131651757Y-79436959D01*
X131651759Y-79436962D01*
X131775820Y-79639410D01*
X131775821Y-79639413D01*
X131789732Y-79655700D01*
X131930031Y-79819969D01*
X132069797Y-79939340D01*
X132110586Y-79974178D01*
X132110589Y-79974179D01*
X132313037Y-80098240D01*
X132313040Y-80098242D01*
X132532403Y-80189104D01*
X132532404Y-80189104D01*
X132532406Y-80189105D01*
X132763289Y-80244535D01*
X133000000Y-80263165D01*
X133236711Y-80244535D01*
X133467594Y-80189105D01*
X133467596Y-80189104D01*
X133467597Y-80189104D01*
X133686959Y-80098242D01*
X133686960Y-80098241D01*
X133686963Y-80098240D01*
X133889416Y-79974176D01*
X134069969Y-79819969D01*
X134224176Y-79639416D01*
X134348240Y-79436963D01*
X134358618Y-79411910D01*
X134439104Y-79217597D01*
X134439104Y-79217596D01*
X134439105Y-79217594D01*
X134494535Y-78986711D01*
X134513165Y-78750000D01*
X135986835Y-78750000D01*
X136005465Y-78986714D01*
X136060895Y-79217595D01*
X136060895Y-79217597D01*
X136151757Y-79436959D01*
X136151759Y-79436962D01*
X136275820Y-79639410D01*
X136275821Y-79639413D01*
X136289732Y-79655700D01*
X136430031Y-79819969D01*
X136569797Y-79939340D01*
X136610586Y-79974178D01*
X136610589Y-79974179D01*
X136813037Y-80098240D01*
X136813040Y-80098242D01*
X137032403Y-80189104D01*
X137032404Y-80189104D01*
X137032406Y-80189105D01*
X137263289Y-80244535D01*
X137500000Y-80263165D01*
X137736711Y-80244535D01*
X137967594Y-80189105D01*
X137967596Y-80189104D01*
X137967597Y-80189104D01*
X138186959Y-80098242D01*
X138186960Y-80098241D01*
X138186963Y-80098240D01*
X138389416Y-79974176D01*
X138569969Y-79819969D01*
X138723679Y-79639998D01*
X141346502Y-79639998D01*
X141346502Y-79640001D01*
X141366456Y-79868081D01*
X141366457Y-79868089D01*
X141425714Y-80089238D01*
X141425718Y-80089249D01*
X141510894Y-80271910D01*
X141522477Y-80296749D01*
X141653802Y-80484300D01*
X141815700Y-80646198D01*
X142003251Y-80777523D01*
X142128091Y-80835736D01*
X142210750Y-80874281D01*
X142210752Y-80874281D01*
X142210757Y-80874284D01*
X142431913Y-80933543D01*
X142594832Y-80947796D01*
X142659998Y-80953498D01*
X142660000Y-80953498D01*
X142660002Y-80953498D01*
X142717021Y-80948509D01*
X142888087Y-80933543D01*
X143109243Y-80874284D01*
X143316749Y-80777523D01*
X143504300Y-80646198D01*
X143666198Y-80484300D01*
X143797523Y-80296749D01*
X143894284Y-80089243D01*
X143953543Y-79868087D01*
X143973498Y-79640000D01*
X143973446Y-79639410D01*
X143966331Y-79558081D01*
X143953543Y-79411913D01*
X143931594Y-79329998D01*
X156186502Y-79329998D01*
X156186502Y-79330001D01*
X156206456Y-79558081D01*
X156206457Y-79558089D01*
X156265714Y-79779238D01*
X156265718Y-79779249D01*
X156362475Y-79986745D01*
X156362477Y-79986749D01*
X156493802Y-80174300D01*
X156655700Y-80336198D01*
X156843251Y-80467523D01*
X156912899Y-80500000D01*
X157050750Y-80564281D01*
X157050752Y-80564281D01*
X157050757Y-80564284D01*
X157271913Y-80623543D01*
X157434832Y-80637796D01*
X157499998Y-80643498D01*
X157500000Y-80643498D01*
X157500002Y-80643498D01*
X157557021Y-80638509D01*
X157728087Y-80623543D01*
X157949243Y-80564284D01*
X158156749Y-80467523D01*
X158344300Y-80336198D01*
X158506198Y-80174300D01*
X158637523Y-79986749D01*
X158734284Y-79779243D01*
X158793543Y-79558087D01*
X158813498Y-79330000D01*
X158793543Y-79101913D01*
X158734284Y-78880757D01*
X158637523Y-78673251D01*
X158506198Y-78485700D01*
X158344300Y-78323802D01*
X158156749Y-78192477D01*
X158156745Y-78192475D01*
X157949249Y-78095718D01*
X157949238Y-78095714D01*
X157728089Y-78036457D01*
X157728081Y-78036456D01*
X157500002Y-78016502D01*
X157499998Y-78016502D01*
X157271918Y-78036456D01*
X157271910Y-78036457D01*
X157050761Y-78095714D01*
X157050750Y-78095718D01*
X156843254Y-78192475D01*
X156843252Y-78192476D01*
X156843251Y-78192477D01*
X156655700Y-78323802D01*
X156655698Y-78323803D01*
X156655695Y-78323806D01*
X156493806Y-78485695D01*
X156493803Y-78485698D01*
X156493802Y-78485700D01*
X156482055Y-78502477D01*
X156362476Y-78673252D01*
X156362475Y-78673254D01*
X156265718Y-78880750D01*
X156265714Y-78880761D01*
X156206457Y-79101910D01*
X156206456Y-79101918D01*
X156186502Y-79329998D01*
X143931594Y-79329998D01*
X143894284Y-79190757D01*
X143797523Y-78983251D01*
X143666198Y-78795700D01*
X143504300Y-78633802D01*
X143316749Y-78502477D01*
X143316745Y-78502475D01*
X143109249Y-78405718D01*
X143109238Y-78405714D01*
X142888089Y-78346457D01*
X142888081Y-78346456D01*
X142660002Y-78326502D01*
X142659998Y-78326502D01*
X142431918Y-78346456D01*
X142431910Y-78346457D01*
X142210761Y-78405714D01*
X142210750Y-78405718D01*
X142003254Y-78502475D01*
X142003252Y-78502476D01*
X141987810Y-78513289D01*
X141815700Y-78633802D01*
X141815698Y-78633803D01*
X141815695Y-78633806D01*
X141653806Y-78795695D01*
X141653803Y-78795698D01*
X141653802Y-78795700D01*
X141571767Y-78912856D01*
X141522476Y-78983252D01*
X141522475Y-78983254D01*
X141425718Y-79190750D01*
X141425714Y-79190761D01*
X141366457Y-79411910D01*
X141366456Y-79411918D01*
X141346502Y-79639998D01*
X138723679Y-79639998D01*
X138724176Y-79639416D01*
X138848240Y-79436963D01*
X138858618Y-79411910D01*
X138939104Y-79217597D01*
X138939104Y-79217596D01*
X138939105Y-79217594D01*
X138994535Y-78986711D01*
X139013165Y-78750000D01*
X138994535Y-78513289D01*
X138939105Y-78282406D01*
X138939104Y-78282403D01*
X138939104Y-78282402D01*
X138848242Y-78063040D01*
X138848240Y-78063037D01*
X138724179Y-77860589D01*
X138724178Y-77860586D01*
X138629728Y-77750000D01*
X144236835Y-77750000D01*
X144255465Y-77986714D01*
X144310895Y-78217595D01*
X144310895Y-78217597D01*
X144401757Y-78436959D01*
X144401759Y-78436962D01*
X144525820Y-78639410D01*
X144525821Y-78639413D01*
X144525824Y-78639416D01*
X144680031Y-78819969D01*
X144819797Y-78939340D01*
X144860586Y-78974178D01*
X144860589Y-78974179D01*
X145063037Y-79098240D01*
X145063040Y-79098242D01*
X145282403Y-79189104D01*
X145282404Y-79189104D01*
X145282406Y-79189105D01*
X145513289Y-79244535D01*
X145750000Y-79263165D01*
X145986711Y-79244535D01*
X146217594Y-79189105D01*
X146217596Y-79189104D01*
X146217597Y-79189104D01*
X146436959Y-79098242D01*
X146436960Y-79098241D01*
X146436963Y-79098240D01*
X146639416Y-78974176D01*
X146819969Y-78819969D01*
X146974176Y-78639416D01*
X147098240Y-78436963D01*
X147189105Y-78217594D01*
X147244535Y-77986711D01*
X147263165Y-77750000D01*
X148736835Y-77750000D01*
X148755465Y-77986714D01*
X148810895Y-78217595D01*
X148810895Y-78217597D01*
X148901757Y-78436959D01*
X148901759Y-78436962D01*
X149025820Y-78639410D01*
X149025821Y-78639413D01*
X149025824Y-78639416D01*
X149180031Y-78819969D01*
X149319797Y-78939340D01*
X149360586Y-78974178D01*
X149360589Y-78974179D01*
X149563037Y-79098240D01*
X149563040Y-79098242D01*
X149782403Y-79189104D01*
X149782404Y-79189104D01*
X149782406Y-79189105D01*
X150013289Y-79244535D01*
X150250000Y-79263165D01*
X150486711Y-79244535D01*
X150717594Y-79189105D01*
X150717596Y-79189104D01*
X150717597Y-79189104D01*
X150936959Y-79098242D01*
X150936960Y-79098241D01*
X150936963Y-79098240D01*
X151139416Y-78974176D01*
X151319969Y-78819969D01*
X151474176Y-78639416D01*
X151598240Y-78436963D01*
X151689105Y-78217594D01*
X151744535Y-77986711D01*
X151763165Y-77750000D01*
X151744535Y-77513289D01*
X151689105Y-77282406D01*
X151689104Y-77282403D01*
X151689104Y-77282402D01*
X151675683Y-77250000D01*
X158986835Y-77250000D01*
X159005465Y-77486714D01*
X159060895Y-77717595D01*
X159060895Y-77717597D01*
X159151757Y-77936959D01*
X159151759Y-77936962D01*
X159275820Y-78139410D01*
X159275821Y-78139413D01*
X159275824Y-78139416D01*
X159430031Y-78319969D01*
X159530428Y-78405716D01*
X159610586Y-78474178D01*
X159610589Y-78474179D01*
X159813037Y-78598240D01*
X159813040Y-78598242D01*
X160032403Y-78689104D01*
X160032404Y-78689104D01*
X160032406Y-78689105D01*
X160263289Y-78744535D01*
X160500000Y-78763165D01*
X160736711Y-78744535D01*
X160967594Y-78689105D01*
X160967596Y-78689104D01*
X160967597Y-78689104D01*
X161186959Y-78598242D01*
X161186960Y-78598241D01*
X161186963Y-78598240D01*
X161389416Y-78474176D01*
X161569969Y-78319969D01*
X161724176Y-78139416D01*
X161848240Y-77936963D01*
X161939105Y-77717594D01*
X161994535Y-77486711D01*
X162013165Y-77250000D01*
X163486835Y-77250000D01*
X163505465Y-77486714D01*
X163560895Y-77717595D01*
X163560895Y-77717597D01*
X163651757Y-77936959D01*
X163651759Y-77936962D01*
X163775820Y-78139410D01*
X163775821Y-78139413D01*
X163775824Y-78139416D01*
X163930031Y-78319969D01*
X164030428Y-78405716D01*
X164110586Y-78474178D01*
X164110589Y-78474179D01*
X164313037Y-78598240D01*
X164313040Y-78598242D01*
X164532403Y-78689104D01*
X164532404Y-78689104D01*
X164532406Y-78689105D01*
X164763289Y-78744535D01*
X165000000Y-78763165D01*
X165236711Y-78744535D01*
X165467594Y-78689105D01*
X165467596Y-78689104D01*
X165467597Y-78689104D01*
X165686959Y-78598242D01*
X165686960Y-78598241D01*
X165686963Y-78598240D01*
X165889416Y-78474176D01*
X166069969Y-78319969D01*
X166224176Y-78139416D01*
X166348240Y-77936963D01*
X166439105Y-77717594D01*
X166494535Y-77486711D01*
X166513165Y-77250000D01*
X166494535Y-77013289D01*
X166439105Y-76782406D01*
X166439104Y-76782403D01*
X166439104Y-76782402D01*
X166348242Y-76563040D01*
X166348240Y-76563037D01*
X166224179Y-76360589D01*
X166224178Y-76360586D01*
X166189340Y-76319797D01*
X166069969Y-76180031D01*
X165950596Y-76078076D01*
X165889413Y-76025821D01*
X165889410Y-76025820D01*
X165686962Y-75901759D01*
X165686959Y-75901757D01*
X165467596Y-75810895D01*
X165236714Y-75755465D01*
X165000000Y-75736835D01*
X164763285Y-75755465D01*
X164532404Y-75810895D01*
X164532402Y-75810895D01*
X164313040Y-75901757D01*
X164313037Y-75901759D01*
X164110589Y-76025820D01*
X164110586Y-76025821D01*
X163930031Y-76180031D01*
X163775821Y-76360586D01*
X163775820Y-76360589D01*
X163651759Y-76563037D01*
X163651757Y-76563040D01*
X163560895Y-76782402D01*
X163560895Y-76782404D01*
X163505465Y-77013285D01*
X163486835Y-77250000D01*
X162013165Y-77250000D01*
X161994535Y-77013289D01*
X161939105Y-76782406D01*
X161939104Y-76782403D01*
X161939104Y-76782402D01*
X161848242Y-76563040D01*
X161848240Y-76563037D01*
X161724179Y-76360589D01*
X161724178Y-76360586D01*
X161689340Y-76319797D01*
X161569969Y-76180031D01*
X161450596Y-76078076D01*
X161389413Y-76025821D01*
X161389410Y-76025820D01*
X161186962Y-75901759D01*
X161186959Y-75901757D01*
X160967596Y-75810895D01*
X160736714Y-75755465D01*
X160500000Y-75736835D01*
X160263285Y-75755465D01*
X160032404Y-75810895D01*
X160032402Y-75810895D01*
X159813040Y-75901757D01*
X159813037Y-75901759D01*
X159610589Y-76025820D01*
X159610586Y-76025821D01*
X159430031Y-76180031D01*
X159275821Y-76360586D01*
X159275820Y-76360589D01*
X159151759Y-76563037D01*
X159151757Y-76563040D01*
X159060895Y-76782402D01*
X159060895Y-76782404D01*
X159005465Y-77013285D01*
X158986835Y-77250000D01*
X151675683Y-77250000D01*
X151598242Y-77063040D01*
X151598240Y-77063037D01*
X151474179Y-76860589D01*
X151474178Y-76860586D01*
X151439340Y-76819797D01*
X151319969Y-76680031D01*
X151182987Y-76563037D01*
X151139413Y-76525821D01*
X151139410Y-76525820D01*
X150936962Y-76401759D01*
X150936959Y-76401757D01*
X150717596Y-76310895D01*
X150486714Y-76255465D01*
X150250000Y-76236835D01*
X150013285Y-76255465D01*
X149782404Y-76310895D01*
X149782402Y-76310895D01*
X149563040Y-76401757D01*
X149563037Y-76401759D01*
X149360589Y-76525820D01*
X149360586Y-76525821D01*
X149180031Y-76680031D01*
X149025821Y-76860586D01*
X149025820Y-76860589D01*
X148901759Y-77063037D01*
X148901757Y-77063040D01*
X148810895Y-77282402D01*
X148810895Y-77282404D01*
X148755465Y-77513285D01*
X148736835Y-77750000D01*
X147263165Y-77750000D01*
X147244535Y-77513289D01*
X147189105Y-77282406D01*
X147189104Y-77282403D01*
X147189104Y-77282402D01*
X147098242Y-77063040D01*
X147098240Y-77063037D01*
X146974179Y-76860589D01*
X146974178Y-76860586D01*
X146939340Y-76819797D01*
X146819969Y-76680031D01*
X146682987Y-76563037D01*
X146639413Y-76525821D01*
X146639410Y-76525820D01*
X146436962Y-76401759D01*
X146436959Y-76401757D01*
X146217596Y-76310895D01*
X145986714Y-76255465D01*
X145750000Y-76236835D01*
X145513285Y-76255465D01*
X145282404Y-76310895D01*
X145282402Y-76310895D01*
X145063040Y-76401757D01*
X145063037Y-76401759D01*
X144860589Y-76525820D01*
X144860586Y-76525821D01*
X144680031Y-76680031D01*
X144525821Y-76860586D01*
X144525820Y-76860589D01*
X144401759Y-77063037D01*
X144401757Y-77063040D01*
X144310895Y-77282402D01*
X144310895Y-77282404D01*
X144255465Y-77513285D01*
X144236835Y-77750000D01*
X138629728Y-77750000D01*
X138602053Y-77717597D01*
X138569969Y-77680031D01*
X138450596Y-77578076D01*
X138389413Y-77525821D01*
X138389410Y-77525820D01*
X138186962Y-77401759D01*
X138186959Y-77401757D01*
X137967596Y-77310895D01*
X137736714Y-77255465D01*
X137500000Y-77236835D01*
X137263285Y-77255465D01*
X137032404Y-77310895D01*
X137032402Y-77310895D01*
X136813040Y-77401757D01*
X136813037Y-77401759D01*
X136610589Y-77525820D01*
X136610586Y-77525821D01*
X136430031Y-77680031D01*
X136275821Y-77860586D01*
X136275820Y-77860589D01*
X136151759Y-78063037D01*
X136151757Y-78063040D01*
X136060895Y-78282402D01*
X136060895Y-78282404D01*
X136005465Y-78513285D01*
X135986835Y-78750000D01*
X134513165Y-78750000D01*
X134494535Y-78513289D01*
X134439105Y-78282406D01*
X134439104Y-78282403D01*
X134439104Y-78282402D01*
X134348242Y-78063040D01*
X134348240Y-78063037D01*
X134224179Y-77860589D01*
X134224178Y-77860586D01*
X134102053Y-77717597D01*
X134069969Y-77680031D01*
X133950596Y-77578076D01*
X133889413Y-77525821D01*
X133889410Y-77525820D01*
X133686962Y-77401759D01*
X133686959Y-77401757D01*
X133467596Y-77310895D01*
X133236714Y-77255465D01*
X133000000Y-77236835D01*
X132763285Y-77255465D01*
X132532404Y-77310895D01*
X132532402Y-77310895D01*
X132313040Y-77401757D01*
X132313037Y-77401759D01*
X132110589Y-77525820D01*
X132110586Y-77525821D01*
X131930031Y-77680031D01*
X131775821Y-77860586D01*
X131775820Y-77860589D01*
X131651759Y-78063037D01*
X131651757Y-78063040D01*
X131560895Y-78282402D01*
X131560895Y-78282404D01*
X131505465Y-78513285D01*
X131486835Y-78750000D01*
X100075500Y-78750000D01*
X100075500Y-70002155D01*
X109530000Y-70002155D01*
X109530000Y-70650000D01*
X110446988Y-70650000D01*
X110414075Y-70707007D01*
X110380000Y-70834174D01*
X110380000Y-70965826D01*
X110414075Y-71092993D01*
X110446988Y-71150000D01*
X109530000Y-71150000D01*
X109530000Y-71797844D01*
X109536401Y-71857372D01*
X109536403Y-71857379D01*
X109586645Y-71992086D01*
X109586649Y-71992093D01*
X109672809Y-72107187D01*
X109672812Y-72107190D01*
X109787906Y-72193350D01*
X109787913Y-72193354D01*
X109922620Y-72243596D01*
X109922627Y-72243598D01*
X109982155Y-72249999D01*
X109982172Y-72250000D01*
X110630000Y-72250000D01*
X110630000Y-71333012D01*
X110687007Y-71365925D01*
X110814174Y-71400000D01*
X110945826Y-71400000D01*
X111072993Y-71365925D01*
X111130000Y-71333012D01*
X111130000Y-72250000D01*
X111777828Y-72250000D01*
X111777844Y-72249999D01*
X111837372Y-72243598D01*
X111837379Y-72243596D01*
X111972086Y-72193354D01*
X111972093Y-72193350D01*
X112087187Y-72107190D01*
X112087190Y-72107187D01*
X112173350Y-71992093D01*
X112173354Y-71992086D01*
X112219681Y-71867877D01*
X112261552Y-71811943D01*
X112327016Y-71787526D01*
X112395289Y-71802377D01*
X112427089Y-71827223D01*
X112496760Y-71902906D01*
X112674424Y-72041189D01*
X112674425Y-72041189D01*
X112674427Y-72041191D01*
X112779845Y-72098240D01*
X112872426Y-72148342D01*
X113085365Y-72221444D01*
X113307431Y-72258500D01*
X113532569Y-72258500D01*
X113754635Y-72221444D01*
X113967574Y-72148342D01*
X114165576Y-72041189D01*
X114343240Y-71902906D01*
X114495722Y-71737268D01*
X114586193Y-71598790D01*
X114639338Y-71553437D01*
X114708569Y-71544013D01*
X114771905Y-71573515D01*
X114793804Y-71598787D01*
X114884278Y-71737268D01*
X114884283Y-71737273D01*
X114884284Y-71737276D01*
X115004513Y-71867877D01*
X115036760Y-71902906D01*
X115214424Y-72041189D01*
X115214425Y-72041189D01*
X115214427Y-72041191D01*
X115319845Y-72098240D01*
X115412426Y-72148342D01*
X115625365Y-72221444D01*
X115847431Y-72258500D01*
X116072569Y-72258500D01*
X116294635Y-72221444D01*
X116507574Y-72148342D01*
X116705576Y-72041189D01*
X116883240Y-71902906D01*
X117035722Y-71737268D01*
X117126193Y-71598790D01*
X117179338Y-71553437D01*
X117248569Y-71544013D01*
X117311905Y-71573515D01*
X117333804Y-71598787D01*
X117424278Y-71737268D01*
X117424283Y-71737273D01*
X117424284Y-71737276D01*
X117544513Y-71867877D01*
X117576760Y-71902906D01*
X117754424Y-72041189D01*
X117754425Y-72041189D01*
X117754427Y-72041191D01*
X117859845Y-72098240D01*
X117952426Y-72148342D01*
X118165365Y-72221444D01*
X118387431Y-72258500D01*
X118612569Y-72258500D01*
X118663507Y-72250000D01*
X131486835Y-72250000D01*
X131505465Y-72486714D01*
X131560895Y-72717595D01*
X131560895Y-72717597D01*
X131651757Y-72936959D01*
X131651759Y-72936962D01*
X131775820Y-73139410D01*
X131775821Y-73139413D01*
X131775824Y-73139416D01*
X131930031Y-73319969D01*
X132069797Y-73439340D01*
X132110586Y-73474178D01*
X132110589Y-73474179D01*
X132313037Y-73598240D01*
X132313040Y-73598242D01*
X132532403Y-73689104D01*
X132532404Y-73689104D01*
X132532406Y-73689105D01*
X132763289Y-73744535D01*
X133000000Y-73763165D01*
X133236711Y-73744535D01*
X133467594Y-73689105D01*
X133467596Y-73689104D01*
X133467597Y-73689104D01*
X133686959Y-73598242D01*
X133686960Y-73598241D01*
X133686963Y-73598240D01*
X133889416Y-73474176D01*
X134069969Y-73319969D01*
X134224176Y-73139416D01*
X134348240Y-72936963D01*
X134420230Y-72763164D01*
X134439104Y-72717597D01*
X134439104Y-72717596D01*
X134439105Y-72717594D01*
X134494535Y-72486711D01*
X134513165Y-72250000D01*
X135986835Y-72250000D01*
X136005465Y-72486714D01*
X136060895Y-72717595D01*
X136060895Y-72717597D01*
X136151757Y-72936959D01*
X136151759Y-72936962D01*
X136275820Y-73139410D01*
X136275821Y-73139413D01*
X136275824Y-73139416D01*
X136430031Y-73319969D01*
X136569797Y-73439340D01*
X136610586Y-73474178D01*
X136610589Y-73474179D01*
X136813037Y-73598240D01*
X136813040Y-73598242D01*
X137032403Y-73689104D01*
X137032404Y-73689104D01*
X137032406Y-73689105D01*
X137263289Y-73744535D01*
X137500000Y-73763165D01*
X137736711Y-73744535D01*
X137967594Y-73689105D01*
X137967596Y-73689104D01*
X137967597Y-73689104D01*
X138186959Y-73598242D01*
X138186960Y-73598241D01*
X138186963Y-73598240D01*
X138389416Y-73474176D01*
X138569969Y-73319969D01*
X138724176Y-73139416D01*
X138848240Y-72936963D01*
X138920230Y-72763164D01*
X138939104Y-72717597D01*
X138939104Y-72717596D01*
X138939105Y-72717594D01*
X138994535Y-72486711D01*
X139013165Y-72250000D01*
X138994535Y-72013289D01*
X138939105Y-71782406D01*
X138939104Y-71782403D01*
X138939104Y-71782402D01*
X138848242Y-71563040D01*
X138848240Y-71563037D01*
X138724179Y-71360589D01*
X138724178Y-71360586D01*
X138629728Y-71250000D01*
X144236835Y-71250000D01*
X144255465Y-71486714D01*
X144310895Y-71717595D01*
X144310895Y-71717597D01*
X144401757Y-71936959D01*
X144401759Y-71936962D01*
X144525820Y-72139410D01*
X144525821Y-72139413D01*
X144533448Y-72148343D01*
X144680031Y-72319969D01*
X144819797Y-72439340D01*
X144860586Y-72474178D01*
X144860589Y-72474179D01*
X145063037Y-72598240D01*
X145063040Y-72598242D01*
X145282403Y-72689104D01*
X145282404Y-72689104D01*
X145282406Y-72689105D01*
X145513289Y-72744535D01*
X145750000Y-72763165D01*
X145986711Y-72744535D01*
X146217594Y-72689105D01*
X146217596Y-72689104D01*
X146217597Y-72689104D01*
X146436959Y-72598242D01*
X146436960Y-72598241D01*
X146436963Y-72598240D01*
X146639416Y-72474176D01*
X146819969Y-72319969D01*
X146974176Y-72139416D01*
X147098240Y-71936963D01*
X147112347Y-71902907D01*
X147189104Y-71717597D01*
X147189104Y-71717596D01*
X147189105Y-71717594D01*
X147244535Y-71486711D01*
X147263165Y-71250000D01*
X148736835Y-71250000D01*
X148755465Y-71486714D01*
X148810895Y-71717595D01*
X148810895Y-71717597D01*
X148901757Y-71936959D01*
X148901759Y-71936962D01*
X149025820Y-72139410D01*
X149025821Y-72139413D01*
X149033448Y-72148343D01*
X149180031Y-72319969D01*
X149319797Y-72439340D01*
X149360586Y-72474178D01*
X149360589Y-72474179D01*
X149563037Y-72598240D01*
X149563040Y-72598242D01*
X149782403Y-72689104D01*
X149782404Y-72689104D01*
X149782406Y-72689105D01*
X150013289Y-72744535D01*
X150250000Y-72763165D01*
X150486711Y-72744535D01*
X150717594Y-72689105D01*
X150717596Y-72689104D01*
X150717597Y-72689104D01*
X150936959Y-72598242D01*
X150936960Y-72598241D01*
X150936963Y-72598240D01*
X151139416Y-72474176D01*
X151319969Y-72319969D01*
X151474176Y-72139416D01*
X151598240Y-71936963D01*
X151612347Y-71902907D01*
X151689104Y-71717597D01*
X151689104Y-71717596D01*
X151689105Y-71717594D01*
X151744535Y-71486711D01*
X151763165Y-71250000D01*
X151744535Y-71013289D01*
X151689105Y-70782406D01*
X151689104Y-70782403D01*
X151689104Y-70782402D01*
X151675683Y-70750000D01*
X158986835Y-70750000D01*
X159005465Y-70986714D01*
X159060895Y-71217595D01*
X159060895Y-71217597D01*
X159151757Y-71436959D01*
X159151759Y-71436962D01*
X159275820Y-71639410D01*
X159275821Y-71639413D01*
X159275824Y-71639416D01*
X159430031Y-71819969D01*
X159527133Y-71902902D01*
X159610586Y-71974178D01*
X159610589Y-71974179D01*
X159813037Y-72098240D01*
X159813040Y-72098242D01*
X160032403Y-72189104D01*
X160032404Y-72189104D01*
X160032406Y-72189105D01*
X160263289Y-72244535D01*
X160500000Y-72263165D01*
X160736711Y-72244535D01*
X160967594Y-72189105D01*
X160967596Y-72189104D01*
X160967597Y-72189104D01*
X161186959Y-72098242D01*
X161186960Y-72098241D01*
X161186963Y-72098240D01*
X161389416Y-71974176D01*
X161569969Y-71819969D01*
X161724176Y-71639416D01*
X161848240Y-71436963D01*
X161863551Y-71400000D01*
X161939104Y-71217597D01*
X161939104Y-71217596D01*
X161939105Y-71217594D01*
X161994535Y-70986711D01*
X162013165Y-70750000D01*
X163486835Y-70750000D01*
X163505465Y-70986714D01*
X163560895Y-71217595D01*
X163560895Y-71217597D01*
X163651757Y-71436959D01*
X163651759Y-71436962D01*
X163775820Y-71639410D01*
X163775821Y-71639413D01*
X163775824Y-71639416D01*
X163930031Y-71819969D01*
X164027133Y-71902902D01*
X164110586Y-71974178D01*
X164110589Y-71974179D01*
X164313037Y-72098240D01*
X164313040Y-72098242D01*
X164532403Y-72189104D01*
X164532404Y-72189104D01*
X164532406Y-72189105D01*
X164763289Y-72244535D01*
X165000000Y-72263165D01*
X165236711Y-72244535D01*
X165467594Y-72189105D01*
X165467596Y-72189104D01*
X165467597Y-72189104D01*
X165686959Y-72098242D01*
X165686960Y-72098241D01*
X165686963Y-72098240D01*
X165889416Y-71974176D01*
X166069969Y-71819969D01*
X166224176Y-71639416D01*
X166348240Y-71436963D01*
X166363551Y-71400000D01*
X166439104Y-71217597D01*
X166439104Y-71217596D01*
X166439105Y-71217594D01*
X166494535Y-70986711D01*
X166513165Y-70750000D01*
X166494535Y-70513289D01*
X166439105Y-70282406D01*
X166439104Y-70282403D01*
X166439104Y-70282402D01*
X166348242Y-70063040D01*
X166348240Y-70063037D01*
X166224179Y-69860589D01*
X166224178Y-69860586D01*
X166189340Y-69819797D01*
X166069969Y-69680031D01*
X165941139Y-69570000D01*
X165889413Y-69525821D01*
X165889410Y-69525820D01*
X165686962Y-69401759D01*
X165686959Y-69401757D01*
X165467596Y-69310895D01*
X165236714Y-69255465D01*
X165000000Y-69236835D01*
X164763285Y-69255465D01*
X164532404Y-69310895D01*
X164532402Y-69310895D01*
X164313040Y-69401757D01*
X164313037Y-69401759D01*
X164110589Y-69525820D01*
X164110586Y-69525821D01*
X163930031Y-69680031D01*
X163775821Y-69860586D01*
X163775820Y-69860589D01*
X163651759Y-70063037D01*
X163651757Y-70063040D01*
X163560895Y-70282402D01*
X163560895Y-70282404D01*
X163505465Y-70513285D01*
X163486835Y-70750000D01*
X162013165Y-70750000D01*
X161994535Y-70513289D01*
X161939105Y-70282406D01*
X161939104Y-70282403D01*
X161939104Y-70282402D01*
X161848242Y-70063040D01*
X161848240Y-70063037D01*
X161724179Y-69860589D01*
X161724178Y-69860586D01*
X161689340Y-69819797D01*
X161569969Y-69680031D01*
X161441139Y-69570000D01*
X161389413Y-69525821D01*
X161389410Y-69525820D01*
X161186962Y-69401759D01*
X161186959Y-69401757D01*
X160967596Y-69310895D01*
X160736714Y-69255465D01*
X160500000Y-69236835D01*
X160263285Y-69255465D01*
X160032404Y-69310895D01*
X160032402Y-69310895D01*
X159813040Y-69401757D01*
X159813037Y-69401759D01*
X159610589Y-69525820D01*
X159610586Y-69525821D01*
X159430031Y-69680031D01*
X159275821Y-69860586D01*
X159275820Y-69860589D01*
X159151759Y-70063037D01*
X159151757Y-70063040D01*
X159060895Y-70282402D01*
X159060895Y-70282404D01*
X159005465Y-70513285D01*
X158986835Y-70750000D01*
X151675683Y-70750000D01*
X151598242Y-70563040D01*
X151598240Y-70563037D01*
X151474179Y-70360589D01*
X151474178Y-70360586D01*
X151411619Y-70287339D01*
X151319969Y-70180031D01*
X151182619Y-70062723D01*
X151139413Y-70025821D01*
X151139410Y-70025820D01*
X150936962Y-69901759D01*
X150936959Y-69901757D01*
X150717596Y-69810895D01*
X150486714Y-69755465D01*
X150250000Y-69736835D01*
X150013285Y-69755465D01*
X149782404Y-69810895D01*
X149782402Y-69810895D01*
X149563040Y-69901757D01*
X149563037Y-69901759D01*
X149360589Y-70025820D01*
X149360586Y-70025821D01*
X149180031Y-70180031D01*
X149025821Y-70360586D01*
X149025820Y-70360589D01*
X148901759Y-70563037D01*
X148901757Y-70563040D01*
X148810895Y-70782402D01*
X148810895Y-70782404D01*
X148755465Y-71013285D01*
X148736835Y-71250000D01*
X147263165Y-71250000D01*
X147244535Y-71013289D01*
X147189105Y-70782406D01*
X147189104Y-70782403D01*
X147189104Y-70782402D01*
X147098242Y-70563040D01*
X147098240Y-70563037D01*
X146974179Y-70360589D01*
X146974178Y-70360586D01*
X146911619Y-70287339D01*
X146819969Y-70180031D01*
X146682619Y-70062723D01*
X146639413Y-70025821D01*
X146639410Y-70025820D01*
X146436962Y-69901759D01*
X146436959Y-69901757D01*
X146217596Y-69810895D01*
X145986714Y-69755465D01*
X145750000Y-69736835D01*
X145513285Y-69755465D01*
X145282404Y-69810895D01*
X145282402Y-69810895D01*
X145063040Y-69901757D01*
X145063037Y-69901759D01*
X144860589Y-70025820D01*
X144860586Y-70025821D01*
X144680031Y-70180031D01*
X144525821Y-70360586D01*
X144525820Y-70360589D01*
X144401759Y-70563037D01*
X144401757Y-70563040D01*
X144310895Y-70782402D01*
X144310895Y-70782404D01*
X144255465Y-71013285D01*
X144236835Y-71250000D01*
X138629728Y-71250000D01*
X138602053Y-71217597D01*
X138569969Y-71180031D01*
X138450596Y-71078076D01*
X138389413Y-71025821D01*
X138389410Y-71025820D01*
X138186962Y-70901759D01*
X138186959Y-70901757D01*
X137967596Y-70810895D01*
X137736714Y-70755465D01*
X137500000Y-70736835D01*
X137263285Y-70755465D01*
X137032404Y-70810895D01*
X137032402Y-70810895D01*
X136813040Y-70901757D01*
X136813037Y-70901759D01*
X136610589Y-71025820D01*
X136610586Y-71025821D01*
X136430031Y-71180031D01*
X136275821Y-71360586D01*
X136275820Y-71360589D01*
X136151759Y-71563037D01*
X136151757Y-71563040D01*
X136060895Y-71782402D01*
X136060895Y-71782404D01*
X136005465Y-72013285D01*
X135986835Y-72250000D01*
X134513165Y-72250000D01*
X134494535Y-72013289D01*
X134439105Y-71782406D01*
X134439104Y-71782403D01*
X134439104Y-71782402D01*
X134348242Y-71563040D01*
X134348240Y-71563037D01*
X134224179Y-71360589D01*
X134224178Y-71360586D01*
X134102053Y-71217597D01*
X134069969Y-71180031D01*
X133950596Y-71078076D01*
X133889413Y-71025821D01*
X133889410Y-71025820D01*
X133686962Y-70901759D01*
X133686959Y-70901757D01*
X133467596Y-70810895D01*
X133236714Y-70755465D01*
X133000000Y-70736835D01*
X132763285Y-70755465D01*
X132532404Y-70810895D01*
X132532402Y-70810895D01*
X132313040Y-70901757D01*
X132313037Y-70901759D01*
X132110589Y-71025820D01*
X132110586Y-71025821D01*
X131930031Y-71180031D01*
X131775821Y-71360586D01*
X131775820Y-71360589D01*
X131651759Y-71563037D01*
X131651757Y-71563040D01*
X131560895Y-71782402D01*
X131560895Y-71782404D01*
X131505465Y-72013285D01*
X131486835Y-72250000D01*
X118663507Y-72250000D01*
X118834635Y-72221444D01*
X119047574Y-72148342D01*
X119245576Y-72041189D01*
X119423240Y-71902906D01*
X119575722Y-71737268D01*
X119698860Y-71548791D01*
X119789296Y-71342616D01*
X119844564Y-71124368D01*
X119852730Y-71025820D01*
X119863156Y-70900005D01*
X119863156Y-70899994D01*
X119844565Y-70675640D01*
X119844563Y-70675628D01*
X119789296Y-70457385D01*
X119785561Y-70448871D01*
X119698860Y-70251209D01*
X119682706Y-70226484D01*
X119593536Y-70089999D01*
X128721127Y-70089999D01*
X128721128Y-70090000D01*
X129684314Y-70090000D01*
X129679920Y-70094394D01*
X129627259Y-70185606D01*
X129600000Y-70287339D01*
X129600000Y-70392661D01*
X129627259Y-70494394D01*
X129679920Y-70585606D01*
X129684314Y-70590000D01*
X128721128Y-70590000D01*
X128773730Y-70786317D01*
X128773734Y-70786326D01*
X128869865Y-70992482D01*
X129000342Y-71178820D01*
X129161179Y-71339657D01*
X129347517Y-71470134D01*
X129553673Y-71566265D01*
X129553682Y-71566269D01*
X129749999Y-71618872D01*
X129750000Y-71618871D01*
X129750000Y-70655686D01*
X129754394Y-70660080D01*
X129845606Y-70712741D01*
X129947339Y-70740000D01*
X130052661Y-70740000D01*
X130154394Y-70712741D01*
X130245606Y-70660080D01*
X130250000Y-70655686D01*
X130250000Y-71618872D01*
X130446317Y-71566269D01*
X130446326Y-71566265D01*
X130652482Y-71470134D01*
X130838820Y-71339657D01*
X130999657Y-71178820D01*
X131130134Y-70992482D01*
X131226265Y-70786326D01*
X131226269Y-70786317D01*
X131278872Y-70590000D01*
X130315686Y-70590000D01*
X130320080Y-70585606D01*
X130372741Y-70494394D01*
X130400000Y-70392661D01*
X130400000Y-70287339D01*
X130372741Y-70185606D01*
X130320080Y-70094394D01*
X130315686Y-70090000D01*
X131278872Y-70090000D01*
X131278872Y-70089999D01*
X131226269Y-69893682D01*
X131226265Y-69893673D01*
X131130134Y-69687517D01*
X130999657Y-69501179D01*
X130838820Y-69340342D01*
X130681236Y-69229999D01*
X141381127Y-69229999D01*
X141381128Y-69230000D01*
X142344314Y-69230000D01*
X142339920Y-69234394D01*
X142287259Y-69325606D01*
X142260000Y-69427339D01*
X142260000Y-69532661D01*
X142287259Y-69634394D01*
X142339920Y-69725606D01*
X142344314Y-69730000D01*
X141381128Y-69730000D01*
X141433730Y-69926317D01*
X141433734Y-69926326D01*
X141529865Y-70132482D01*
X141660342Y-70318820D01*
X141821179Y-70479657D01*
X142007517Y-70610134D01*
X142213673Y-70706265D01*
X142213682Y-70706269D01*
X142409999Y-70758872D01*
X142410000Y-70758871D01*
X142410000Y-69795686D01*
X142414394Y-69800080D01*
X142505606Y-69852741D01*
X142607339Y-69880000D01*
X142712661Y-69880000D01*
X142814394Y-69852741D01*
X142905606Y-69800080D01*
X142910000Y-69795686D01*
X142910000Y-70758872D01*
X143106317Y-70706269D01*
X143106326Y-70706265D01*
X143312482Y-70610134D01*
X143498820Y-70479657D01*
X143659657Y-70318820D01*
X143790134Y-70132482D01*
X143886265Y-69926326D01*
X143886269Y-69926317D01*
X143938872Y-69730000D01*
X142975686Y-69730000D01*
X142980080Y-69725606D01*
X143032741Y-69634394D01*
X143060000Y-69532661D01*
X143060000Y-69427339D01*
X143032741Y-69325606D01*
X142980080Y-69234394D01*
X142975686Y-69230000D01*
X143938872Y-69230000D01*
X143938872Y-69229999D01*
X143886269Y-69033682D01*
X143886265Y-69033673D01*
X143833259Y-68919999D01*
X156221127Y-68919999D01*
X156221128Y-68920000D01*
X157184314Y-68920000D01*
X157179920Y-68924394D01*
X157127259Y-69015606D01*
X157100000Y-69117339D01*
X157100000Y-69222661D01*
X157127259Y-69324394D01*
X157179920Y-69415606D01*
X157184314Y-69420000D01*
X156221128Y-69420000D01*
X156273730Y-69616317D01*
X156273734Y-69616326D01*
X156369865Y-69822482D01*
X156500342Y-70008820D01*
X156661179Y-70169657D01*
X156847517Y-70300134D01*
X157053673Y-70396265D01*
X157053682Y-70396269D01*
X157249999Y-70448872D01*
X157250000Y-70448871D01*
X157250000Y-69485686D01*
X157254394Y-69490080D01*
X157345606Y-69542741D01*
X157447339Y-69570000D01*
X157552661Y-69570000D01*
X157654394Y-69542741D01*
X157745606Y-69490080D01*
X157750000Y-69485686D01*
X157750000Y-70448872D01*
X157946317Y-70396269D01*
X157946326Y-70396265D01*
X158152482Y-70300134D01*
X158338820Y-70169657D01*
X158499657Y-70008820D01*
X158630134Y-69822482D01*
X158726265Y-69616326D01*
X158726269Y-69616317D01*
X158778872Y-69420000D01*
X157815686Y-69420000D01*
X157820080Y-69415606D01*
X157872741Y-69324394D01*
X157900000Y-69222661D01*
X157900000Y-69117339D01*
X157872741Y-69015606D01*
X157820080Y-68924394D01*
X157815686Y-68920000D01*
X158778872Y-68920000D01*
X158778872Y-68919999D01*
X158726269Y-68723682D01*
X158726265Y-68723673D01*
X158630134Y-68517517D01*
X158499657Y-68331179D01*
X158338820Y-68170342D01*
X158152482Y-68039865D01*
X157946328Y-67943734D01*
X157750000Y-67891127D01*
X157750000Y-68854314D01*
X157745606Y-68849920D01*
X157654394Y-68797259D01*
X157552661Y-68770000D01*
X157447339Y-68770000D01*
X157345606Y-68797259D01*
X157254394Y-68849920D01*
X157250000Y-68854314D01*
X157250000Y-67891127D01*
X157053671Y-67943734D01*
X156847517Y-68039865D01*
X156661179Y-68170342D01*
X156500342Y-68331179D01*
X156369865Y-68517517D01*
X156273734Y-68723673D01*
X156273730Y-68723682D01*
X156221127Y-68919999D01*
X143833259Y-68919999D01*
X143790134Y-68827517D01*
X143659657Y-68641179D01*
X143498820Y-68480342D01*
X143312482Y-68349865D01*
X143106328Y-68253734D01*
X142910000Y-68201127D01*
X142910000Y-69164314D01*
X142905606Y-69159920D01*
X142814394Y-69107259D01*
X142712661Y-69080000D01*
X142607339Y-69080000D01*
X142505606Y-69107259D01*
X142414394Y-69159920D01*
X142410000Y-69164314D01*
X142410000Y-68201127D01*
X142213671Y-68253734D01*
X142007517Y-68349865D01*
X141821179Y-68480342D01*
X141660342Y-68641179D01*
X141529865Y-68827517D01*
X141433734Y-69033673D01*
X141433730Y-69033682D01*
X141381127Y-69229999D01*
X130681236Y-69229999D01*
X130652482Y-69209865D01*
X130446328Y-69113734D01*
X130250000Y-69061127D01*
X130250000Y-70024314D01*
X130245606Y-70019920D01*
X130154394Y-69967259D01*
X130052661Y-69940000D01*
X129947339Y-69940000D01*
X129845606Y-69967259D01*
X129754394Y-70019920D01*
X129750000Y-70024314D01*
X129750000Y-69061127D01*
X129553671Y-69113734D01*
X129347517Y-69209865D01*
X129161179Y-69340342D01*
X129000342Y-69501179D01*
X128869865Y-69687517D01*
X128773734Y-69893673D01*
X128773730Y-69893682D01*
X128721127Y-70089999D01*
X119593536Y-70089999D01*
X119575723Y-70062734D01*
X119575715Y-70062723D01*
X119423243Y-69897097D01*
X119423238Y-69897092D01*
X119245577Y-69758812D01*
X119245572Y-69758808D01*
X119047580Y-69651661D01*
X119047577Y-69651659D01*
X119047574Y-69651658D01*
X119047571Y-69651657D01*
X119047569Y-69651656D01*
X118834637Y-69578556D01*
X118612569Y-69541500D01*
X118387431Y-69541500D01*
X118165362Y-69578556D01*
X117952430Y-69651656D01*
X117952419Y-69651661D01*
X117754427Y-69758808D01*
X117754422Y-69758812D01*
X117576761Y-69897092D01*
X117576756Y-69897097D01*
X117424284Y-70062723D01*
X117424276Y-70062734D01*
X117333808Y-70201206D01*
X117280662Y-70246562D01*
X117211431Y-70255986D01*
X117148095Y-70226484D01*
X117126192Y-70201206D01*
X117035723Y-70062734D01*
X117035715Y-70062723D01*
X116883243Y-69897097D01*
X116883238Y-69897092D01*
X116705577Y-69758812D01*
X116705572Y-69758808D01*
X116507580Y-69651661D01*
X116507577Y-69651659D01*
X116507574Y-69651658D01*
X116507571Y-69651657D01*
X116507569Y-69651656D01*
X116294637Y-69578556D01*
X116072569Y-69541500D01*
X115847431Y-69541500D01*
X115625362Y-69578556D01*
X115412430Y-69651656D01*
X115412419Y-69651661D01*
X115214427Y-69758808D01*
X115214422Y-69758812D01*
X115036761Y-69897092D01*
X115036756Y-69897097D01*
X114884284Y-70062723D01*
X114884276Y-70062734D01*
X114793808Y-70201206D01*
X114740662Y-70246562D01*
X114671431Y-70255986D01*
X114608095Y-70226484D01*
X114586192Y-70201206D01*
X114495723Y-70062734D01*
X114495715Y-70062723D01*
X114343243Y-69897097D01*
X114343238Y-69897092D01*
X114165577Y-69758812D01*
X114165572Y-69758808D01*
X113967580Y-69651661D01*
X113967577Y-69651659D01*
X113967574Y-69651658D01*
X113967571Y-69651657D01*
X113967569Y-69651656D01*
X113754637Y-69578556D01*
X113532569Y-69541500D01*
X113307431Y-69541500D01*
X113085362Y-69578556D01*
X112872430Y-69651656D01*
X112872419Y-69651661D01*
X112674427Y-69758808D01*
X112674422Y-69758812D01*
X112496761Y-69897092D01*
X112427092Y-69972773D01*
X112367205Y-70008763D01*
X112297367Y-70006662D01*
X112239751Y-69967137D01*
X112219681Y-69932122D01*
X112173354Y-69807913D01*
X112173350Y-69807906D01*
X112087190Y-69692812D01*
X112087187Y-69692809D01*
X111972093Y-69606649D01*
X111972086Y-69606645D01*
X111837379Y-69556403D01*
X111837372Y-69556401D01*
X111777844Y-69550000D01*
X111130000Y-69550000D01*
X111130000Y-70466988D01*
X111072993Y-70434075D01*
X110945826Y-70400000D01*
X110814174Y-70400000D01*
X110687007Y-70434075D01*
X110630000Y-70466988D01*
X110630000Y-69550000D01*
X109982155Y-69550000D01*
X109922627Y-69556401D01*
X109922620Y-69556403D01*
X109787913Y-69606645D01*
X109787906Y-69606649D01*
X109672812Y-69692809D01*
X109672809Y-69692812D01*
X109586649Y-69807906D01*
X109586645Y-69807913D01*
X109536403Y-69942620D01*
X109536401Y-69942627D01*
X109530000Y-70002155D01*
X100075500Y-70002155D01*
X100075500Y-64829998D01*
X140186502Y-64829998D01*
X140186502Y-64830001D01*
X140206456Y-65058081D01*
X140206457Y-65058089D01*
X140265714Y-65279238D01*
X140265718Y-65279249D01*
X140346992Y-65453542D01*
X140362477Y-65486749D01*
X140493802Y-65674300D01*
X140655700Y-65836198D01*
X140843251Y-65967523D01*
X140968091Y-66025736D01*
X141050750Y-66064281D01*
X141050752Y-66064281D01*
X141050757Y-66064284D01*
X141271913Y-66123543D01*
X141434832Y-66137796D01*
X141499998Y-66143498D01*
X141500000Y-66143498D01*
X141500002Y-66143498D01*
X141557021Y-66138509D01*
X141728087Y-66123543D01*
X141949243Y-66064284D01*
X142156749Y-65967523D01*
X142344300Y-65836198D01*
X142506198Y-65674300D01*
X142637523Y-65486749D01*
X142734284Y-65279243D01*
X142793543Y-65058087D01*
X142813498Y-64830000D01*
X142793543Y-64601913D01*
X142734284Y-64380757D01*
X142637523Y-64173251D01*
X142628243Y-64159998D01*
X155186502Y-64159998D01*
X155186502Y-64160001D01*
X155206456Y-64388081D01*
X155206457Y-64388089D01*
X155265714Y-64609238D01*
X155265718Y-64609249D01*
X155362475Y-64816745D01*
X155362477Y-64816749D01*
X155493802Y-65004300D01*
X155655700Y-65166198D01*
X155843251Y-65297523D01*
X155968091Y-65355736D01*
X156050750Y-65394281D01*
X156050752Y-65394281D01*
X156050757Y-65394284D01*
X156271913Y-65453543D01*
X156434832Y-65467796D01*
X156499998Y-65473498D01*
X156500000Y-65473498D01*
X156500002Y-65473498D01*
X156557021Y-65468509D01*
X156728087Y-65453543D01*
X156949243Y-65394284D01*
X157156749Y-65297523D01*
X157344300Y-65166198D01*
X157506198Y-65004300D01*
X157637523Y-64816749D01*
X157734284Y-64609243D01*
X157793543Y-64388087D01*
X157813498Y-64160000D01*
X157793543Y-63931913D01*
X157734284Y-63710757D01*
X157725759Y-63692476D01*
X157653007Y-63536457D01*
X157637523Y-63503251D01*
X157506198Y-63315700D01*
X157344300Y-63153802D01*
X157156749Y-63022477D01*
X157156745Y-63022475D01*
X156949249Y-62925718D01*
X156949238Y-62925714D01*
X156728089Y-62866457D01*
X156728081Y-62866456D01*
X156500002Y-62846502D01*
X156499998Y-62846502D01*
X156271918Y-62866456D01*
X156271910Y-62866457D01*
X156050761Y-62925714D01*
X156050750Y-62925718D01*
X155843254Y-63022475D01*
X155843252Y-63022476D01*
X155843251Y-63022477D01*
X155655700Y-63153802D01*
X155655698Y-63153803D01*
X155655695Y-63153806D01*
X155493806Y-63315695D01*
X155493803Y-63315698D01*
X155493802Y-63315700D01*
X155471016Y-63348242D01*
X155362476Y-63503252D01*
X155362475Y-63503254D01*
X155265718Y-63710750D01*
X155265714Y-63710761D01*
X155206457Y-63931910D01*
X155206456Y-63931918D01*
X155186502Y-64159998D01*
X142628243Y-64159998D01*
X142506198Y-63985700D01*
X142344300Y-63823802D01*
X142156749Y-63692477D01*
X142156745Y-63692475D01*
X141949249Y-63595718D01*
X141949238Y-63595714D01*
X141728089Y-63536457D01*
X141728081Y-63536456D01*
X141500002Y-63516502D01*
X141499998Y-63516502D01*
X141271918Y-63536456D01*
X141271910Y-63536457D01*
X141050761Y-63595714D01*
X141050750Y-63595718D01*
X140843254Y-63692475D01*
X140843252Y-63692476D01*
X140817139Y-63710761D01*
X140655700Y-63823802D01*
X140655698Y-63823803D01*
X140655695Y-63823806D01*
X140493806Y-63985695D01*
X140362476Y-64173252D01*
X140362475Y-64173254D01*
X140265718Y-64380750D01*
X140265714Y-64380761D01*
X140206457Y-64601910D01*
X140206456Y-64601918D01*
X140186502Y-64829998D01*
X100075500Y-64829998D01*
X100075500Y-59643084D01*
X147516500Y-59643084D01*
X147516500Y-59856915D01*
X147549951Y-60068117D01*
X147616026Y-60271480D01*
X147616027Y-60271483D01*
X147713106Y-60462009D01*
X147838794Y-60635004D01*
X147989996Y-60786206D01*
X148092344Y-60860566D01*
X148146182Y-60899682D01*
X148188847Y-60955012D01*
X148194826Y-61024626D01*
X148162220Y-61086421D01*
X148146182Y-61100318D01*
X148077297Y-61150365D01*
X147989996Y-61213794D01*
X147989994Y-61213796D01*
X147989993Y-61213796D01*
X147838796Y-61364993D01*
X147713106Y-61537990D01*
X147616027Y-61728516D01*
X147616026Y-61728519D01*
X147549951Y-61931882D01*
X147516500Y-62143084D01*
X147516500Y-62356915D01*
X147549951Y-62568117D01*
X147616026Y-62771480D01*
X147616027Y-62771483D01*
X147676115Y-62889410D01*
X147713106Y-62962009D01*
X147838794Y-63135004D01*
X147989996Y-63286206D01*
X148162991Y-63411894D01*
X148216394Y-63439104D01*
X148353516Y-63508972D01*
X148353519Y-63508973D01*
X148438105Y-63536456D01*
X148556884Y-63575049D01*
X148768084Y-63608500D01*
X148768085Y-63608500D01*
X149231915Y-63608500D01*
X149231916Y-63608500D01*
X149443116Y-63575049D01*
X149646483Y-63508972D01*
X149837009Y-63411894D01*
X150010004Y-63286206D01*
X150161206Y-63135004D01*
X150286894Y-62962009D01*
X150383972Y-62771483D01*
X150450049Y-62568116D01*
X150483500Y-62356916D01*
X150483500Y-62143084D01*
X150460838Y-62000000D01*
X157986835Y-62000000D01*
X158005465Y-62236714D01*
X158060895Y-62467595D01*
X158060895Y-62467597D01*
X158151757Y-62686959D01*
X158151759Y-62686962D01*
X158275820Y-62889410D01*
X158275821Y-62889413D01*
X158275824Y-62889416D01*
X158430031Y-63069969D01*
X158569797Y-63189340D01*
X158610586Y-63224178D01*
X158610589Y-63224179D01*
X158813037Y-63348240D01*
X158813040Y-63348242D01*
X159032403Y-63439104D01*
X159032404Y-63439104D01*
X159032406Y-63439105D01*
X159263289Y-63494535D01*
X159500000Y-63513165D01*
X159736711Y-63494535D01*
X159967594Y-63439105D01*
X159967596Y-63439104D01*
X159967597Y-63439104D01*
X160186959Y-63348242D01*
X160186960Y-63348241D01*
X160186963Y-63348240D01*
X160389416Y-63224176D01*
X160569969Y-63069969D01*
X160724176Y-62889416D01*
X160848240Y-62686963D01*
X160897468Y-62568117D01*
X160939104Y-62467597D01*
X160939104Y-62467596D01*
X160939105Y-62467594D01*
X160994535Y-62236711D01*
X161013165Y-62000000D01*
X162486835Y-62000000D01*
X162505465Y-62236714D01*
X162560895Y-62467595D01*
X162560895Y-62467597D01*
X162651757Y-62686959D01*
X162651759Y-62686962D01*
X162775820Y-62889410D01*
X162775821Y-62889413D01*
X162775824Y-62889416D01*
X162930031Y-63069969D01*
X163069797Y-63189340D01*
X163110586Y-63224178D01*
X163110589Y-63224179D01*
X163313037Y-63348240D01*
X163313040Y-63348242D01*
X163532403Y-63439104D01*
X163532404Y-63439104D01*
X163532406Y-63439105D01*
X163763289Y-63494535D01*
X164000000Y-63513165D01*
X164236711Y-63494535D01*
X164467594Y-63439105D01*
X164467596Y-63439104D01*
X164467597Y-63439104D01*
X164686959Y-63348242D01*
X164686960Y-63348241D01*
X164686963Y-63348240D01*
X164889416Y-63224176D01*
X165069969Y-63069969D01*
X165224176Y-62889416D01*
X165348240Y-62686963D01*
X165397468Y-62568117D01*
X165439104Y-62467597D01*
X165439104Y-62467596D01*
X165439105Y-62467594D01*
X165494535Y-62236711D01*
X165513165Y-62000000D01*
X165494535Y-61763289D01*
X165439105Y-61532406D01*
X165439104Y-61532403D01*
X165439104Y-61532402D01*
X165348242Y-61313040D01*
X165348240Y-61313037D01*
X165224179Y-61110589D01*
X165224178Y-61110586D01*
X165189340Y-61069797D01*
X165069969Y-60930031D01*
X164901572Y-60786206D01*
X164889413Y-60775821D01*
X164889410Y-60775820D01*
X164686962Y-60651759D01*
X164686959Y-60651757D01*
X164467596Y-60560895D01*
X164236714Y-60505465D01*
X164000000Y-60486835D01*
X163763285Y-60505465D01*
X163532404Y-60560895D01*
X163532402Y-60560895D01*
X163313040Y-60651757D01*
X163313037Y-60651759D01*
X163110589Y-60775820D01*
X163110586Y-60775821D01*
X162930031Y-60930031D01*
X162775821Y-61110586D01*
X162775820Y-61110589D01*
X162651759Y-61313037D01*
X162651757Y-61313040D01*
X162560895Y-61532402D01*
X162560895Y-61532404D01*
X162505465Y-61763285D01*
X162486835Y-62000000D01*
X161013165Y-62000000D01*
X160994535Y-61763289D01*
X160939105Y-61532406D01*
X160939104Y-61532403D01*
X160939104Y-61532402D01*
X160848242Y-61313040D01*
X160848240Y-61313037D01*
X160724179Y-61110589D01*
X160724178Y-61110586D01*
X160689340Y-61069797D01*
X160569969Y-60930031D01*
X160401572Y-60786206D01*
X160389413Y-60775821D01*
X160389410Y-60775820D01*
X160186962Y-60651759D01*
X160186959Y-60651757D01*
X159967596Y-60560895D01*
X159736714Y-60505465D01*
X159500000Y-60486835D01*
X159263285Y-60505465D01*
X159032404Y-60560895D01*
X159032402Y-60560895D01*
X158813040Y-60651757D01*
X158813037Y-60651759D01*
X158610589Y-60775820D01*
X158610586Y-60775821D01*
X158430031Y-60930031D01*
X158275821Y-61110586D01*
X158275820Y-61110589D01*
X158151759Y-61313037D01*
X158151757Y-61313040D01*
X158060895Y-61532402D01*
X158060895Y-61532404D01*
X158005465Y-61763285D01*
X157986835Y-62000000D01*
X150460838Y-62000000D01*
X150450049Y-61931884D01*
X150383972Y-61728517D01*
X150383972Y-61728516D01*
X150286893Y-61537990D01*
X150282833Y-61532402D01*
X150161206Y-61364996D01*
X150010004Y-61213794D01*
X150010000Y-61213791D01*
X149853818Y-61100318D01*
X149811152Y-61044988D01*
X149805173Y-60975375D01*
X149837779Y-60913580D01*
X149853818Y-60899682D01*
X149904200Y-60863076D01*
X150010004Y-60786206D01*
X150161206Y-60635004D01*
X150286894Y-60462009D01*
X150383972Y-60271483D01*
X150450049Y-60068116D01*
X150483500Y-59856916D01*
X150483500Y-59643084D01*
X150450049Y-59431884D01*
X150383972Y-59228517D01*
X150383972Y-59228516D01*
X150286941Y-59038084D01*
X150286894Y-59037991D01*
X150161206Y-58864996D01*
X150022929Y-58726719D01*
X149989444Y-58665396D01*
X149994428Y-58595704D01*
X150036300Y-58539771D01*
X150045513Y-58533499D01*
X150193345Y-58442315D01*
X150317315Y-58318345D01*
X150409356Y-58169124D01*
X150409358Y-58169119D01*
X150464505Y-58002697D01*
X150464506Y-58002690D01*
X150474999Y-57899986D01*
X150475000Y-57899973D01*
X150475000Y-57500000D01*
X149404146Y-57500000D01*
X149442630Y-57433343D01*
X149475000Y-57312535D01*
X149475000Y-57187465D01*
X149442630Y-57066657D01*
X149404146Y-57000000D01*
X150474999Y-57000000D01*
X150474999Y-56600028D01*
X150474998Y-56600013D01*
X150464505Y-56497302D01*
X150409358Y-56330880D01*
X150409356Y-56330875D01*
X150317315Y-56181654D01*
X150193345Y-56057684D01*
X150044124Y-55965643D01*
X150044119Y-55965641D01*
X149877697Y-55910494D01*
X149877690Y-55910493D01*
X149774986Y-55900000D01*
X149250000Y-55900000D01*
X149250000Y-56845854D01*
X149183343Y-56807370D01*
X149062535Y-56775000D01*
X148937465Y-56775000D01*
X148816657Y-56807370D01*
X148750000Y-56845854D01*
X148750000Y-55900000D01*
X148225028Y-55900000D01*
X148225012Y-55900001D01*
X148122302Y-55910494D01*
X147955880Y-55965641D01*
X147955875Y-55965643D01*
X147806654Y-56057684D01*
X147682684Y-56181654D01*
X147590643Y-56330875D01*
X147590641Y-56330880D01*
X147535494Y-56497302D01*
X147535493Y-56497309D01*
X147525000Y-56600013D01*
X147525000Y-57000000D01*
X148595854Y-57000000D01*
X148557370Y-57066657D01*
X148525000Y-57187465D01*
X148525000Y-57312535D01*
X148557370Y-57433343D01*
X148595854Y-57500000D01*
X147525001Y-57500000D01*
X147525001Y-57899986D01*
X147535494Y-58002697D01*
X147590641Y-58169119D01*
X147590643Y-58169124D01*
X147682684Y-58318345D01*
X147806654Y-58442315D01*
X147954486Y-58533499D01*
X148001210Y-58585447D01*
X148012433Y-58654410D01*
X147984589Y-58718492D01*
X147977071Y-58726719D01*
X147838793Y-58864997D01*
X147713106Y-59037990D01*
X147616027Y-59228516D01*
X147616026Y-59228519D01*
X147549951Y-59431882D01*
X147516500Y-59643084D01*
X100075500Y-59643084D01*
X100075500Y-57222155D01*
X133825000Y-57222155D01*
X133825000Y-57920000D01*
X134849722Y-57920000D01*
X134805667Y-57996306D01*
X134775000Y-58110756D01*
X134775000Y-58229244D01*
X134805667Y-58343694D01*
X134849722Y-58420000D01*
X133825000Y-58420000D01*
X133825000Y-59117844D01*
X133831401Y-59177372D01*
X133831403Y-59177379D01*
X133881645Y-59312086D01*
X133881649Y-59312093D01*
X133967809Y-59427187D01*
X133967812Y-59427190D01*
X134082906Y-59513350D01*
X134082913Y-59513354D01*
X134217620Y-59563596D01*
X134217627Y-59563598D01*
X134277155Y-59569999D01*
X134277172Y-59570000D01*
X134975000Y-59570000D01*
X134975000Y-58545277D01*
X135051306Y-58589333D01*
X135165756Y-58620000D01*
X135284244Y-58620000D01*
X135398694Y-58589333D01*
X135475000Y-58545277D01*
X135475000Y-59570000D01*
X136172828Y-59570000D01*
X136172844Y-59569999D01*
X136232372Y-59563598D01*
X136232379Y-59563596D01*
X136367086Y-59513354D01*
X136367093Y-59513350D01*
X136482187Y-59427190D01*
X136482190Y-59427187D01*
X136568350Y-59312093D01*
X136568355Y-59312084D01*
X136593940Y-59243486D01*
X136635810Y-59187552D01*
X136701274Y-59163134D01*
X136769547Y-59177985D01*
X136801349Y-59202832D01*
X136807780Y-59209818D01*
X136991983Y-59353190D01*
X136991985Y-59353191D01*
X136991988Y-59353193D01*
X137083595Y-59402768D01*
X137197273Y-59464287D01*
X137311914Y-59503643D01*
X137418045Y-59540079D01*
X137418047Y-59540079D01*
X137418049Y-59540080D01*
X137648288Y-59578500D01*
X137648289Y-59578500D01*
X137881711Y-59578500D01*
X137881712Y-59578500D01*
X138111951Y-59540080D01*
X138332727Y-59464287D01*
X138538017Y-59353190D01*
X138722220Y-59209818D01*
X138880314Y-59038083D01*
X139007984Y-58842669D01*
X139101749Y-58628907D01*
X139159051Y-58402626D01*
X139178327Y-58170000D01*
X139178254Y-58169124D01*
X139159051Y-57937377D01*
X139159051Y-57937374D01*
X139101749Y-57711093D01*
X139007984Y-57497331D01*
X138880314Y-57301917D01*
X138880313Y-57301915D01*
X138722223Y-57130185D01*
X138722222Y-57130184D01*
X138722220Y-57130182D01*
X138538017Y-56986810D01*
X138538015Y-56986809D01*
X138538014Y-56986808D01*
X138538011Y-56986806D01*
X138332733Y-56875716D01*
X138332730Y-56875715D01*
X138332727Y-56875713D01*
X138332721Y-56875711D01*
X138332719Y-56875710D01*
X138111954Y-56799920D01*
X137932650Y-56770000D01*
X137881712Y-56761500D01*
X137648288Y-56761500D01*
X137602240Y-56769184D01*
X137418045Y-56799920D01*
X137197280Y-56875710D01*
X137197266Y-56875716D01*
X136991988Y-56986806D01*
X136991985Y-56986808D01*
X136807781Y-57130181D01*
X136807776Y-57130185D01*
X136801346Y-57137170D01*
X136741457Y-57173157D01*
X136671619Y-57171052D01*
X136614005Y-57131524D01*
X136593940Y-57096513D01*
X136568355Y-57027915D01*
X136568350Y-57027906D01*
X136482190Y-56912812D01*
X136482187Y-56912809D01*
X136367093Y-56826649D01*
X136367086Y-56826645D01*
X136232379Y-56776403D01*
X136232372Y-56776401D01*
X136172844Y-56770000D01*
X135475000Y-56770000D01*
X135475000Y-57794722D01*
X135398694Y-57750667D01*
X135284244Y-57720000D01*
X135165756Y-57720000D01*
X135051306Y-57750667D01*
X134975000Y-57794722D01*
X134975000Y-56770000D01*
X134277155Y-56770000D01*
X134217627Y-56776401D01*
X134217620Y-56776403D01*
X134082913Y-56826645D01*
X134082906Y-56826649D01*
X133967812Y-56912809D01*
X133967809Y-56912812D01*
X133881649Y-57027906D01*
X133881645Y-57027913D01*
X133831403Y-57162620D01*
X133831401Y-57162627D01*
X133825000Y-57222155D01*
X100075500Y-57222155D01*
X100075500Y-54024994D01*
X111146844Y-54024994D01*
X111146844Y-54025005D01*
X111165434Y-54249359D01*
X111165436Y-54249371D01*
X111220703Y-54467614D01*
X111311140Y-54673792D01*
X111434276Y-54862265D01*
X111434284Y-54862276D01*
X111586756Y-55027902D01*
X111586761Y-55027907D01*
X111631983Y-55063105D01*
X111764424Y-55166189D01*
X111764425Y-55166189D01*
X111764427Y-55166191D01*
X111824314Y-55198600D01*
X111962426Y-55273342D01*
X112175365Y-55346444D01*
X112397431Y-55383500D01*
X112622569Y-55383500D01*
X112844635Y-55346444D01*
X113057574Y-55273342D01*
X113255576Y-55166189D01*
X113433240Y-55027906D01*
X113552748Y-54898087D01*
X113585715Y-54862276D01*
X113585715Y-54862275D01*
X113585722Y-54862268D01*
X113676193Y-54723790D01*
X113729338Y-54678437D01*
X113798569Y-54669013D01*
X113861905Y-54698515D01*
X113883804Y-54723787D01*
X113974278Y-54862268D01*
X113974283Y-54862273D01*
X113974284Y-54862276D01*
X114126756Y-55027902D01*
X114126761Y-55027907D01*
X114171983Y-55063105D01*
X114304424Y-55166189D01*
X114304425Y-55166189D01*
X114304427Y-55166191D01*
X114364314Y-55198600D01*
X114502426Y-55273342D01*
X114715365Y-55346444D01*
X114937431Y-55383500D01*
X115162569Y-55383500D01*
X115384635Y-55346444D01*
X115597574Y-55273342D01*
X115795576Y-55166189D01*
X115973240Y-55027906D01*
X116092748Y-54898087D01*
X116125715Y-54862276D01*
X116125715Y-54862275D01*
X116125722Y-54862268D01*
X116216193Y-54723790D01*
X116269338Y-54678437D01*
X116338569Y-54669013D01*
X116401905Y-54698515D01*
X116423804Y-54723787D01*
X116514278Y-54862268D01*
X116514283Y-54862273D01*
X116514284Y-54862276D01*
X116666756Y-55027902D01*
X116666761Y-55027907D01*
X116711983Y-55063105D01*
X116844424Y-55166189D01*
X116844425Y-55166189D01*
X116844427Y-55166191D01*
X116904314Y-55198600D01*
X117042426Y-55273342D01*
X117255365Y-55346444D01*
X117477431Y-55383500D01*
X117702569Y-55383500D01*
X117924635Y-55346444D01*
X118137574Y-55273342D01*
X118335576Y-55166189D01*
X118513240Y-55027906D01*
X118632748Y-54898087D01*
X118665715Y-54862276D01*
X118665715Y-54862275D01*
X118665722Y-54862268D01*
X118756193Y-54723790D01*
X118809338Y-54678437D01*
X118878569Y-54669013D01*
X118941905Y-54698515D01*
X118963804Y-54723787D01*
X119054278Y-54862268D01*
X119054283Y-54862273D01*
X119054284Y-54862276D01*
X119206756Y-55027902D01*
X119206761Y-55027907D01*
X119251983Y-55063105D01*
X119384424Y-55166189D01*
X119384425Y-55166189D01*
X119384427Y-55166191D01*
X119444314Y-55198600D01*
X119582426Y-55273342D01*
X119795365Y-55346444D01*
X120017431Y-55383500D01*
X120242569Y-55383500D01*
X120464635Y-55346444D01*
X120677574Y-55273342D01*
X120875576Y-55166189D01*
X121053240Y-55027906D01*
X121172748Y-54898087D01*
X121205715Y-54862276D01*
X121205715Y-54862275D01*
X121205722Y-54862268D01*
X121296193Y-54723790D01*
X121349338Y-54678437D01*
X121418569Y-54669013D01*
X121481905Y-54698515D01*
X121503804Y-54723787D01*
X121594278Y-54862268D01*
X121594283Y-54862273D01*
X121594284Y-54862276D01*
X121746756Y-55027902D01*
X121746761Y-55027907D01*
X121791983Y-55063105D01*
X121924424Y-55166189D01*
X121924425Y-55166189D01*
X121924427Y-55166191D01*
X121984314Y-55198600D01*
X122122426Y-55273342D01*
X122335365Y-55346444D01*
X122557431Y-55383500D01*
X122782569Y-55383500D01*
X123004635Y-55346444D01*
X123217574Y-55273342D01*
X123415576Y-55166189D01*
X123593240Y-55027906D01*
X123712748Y-54898087D01*
X123745715Y-54862276D01*
X123745715Y-54862275D01*
X123745722Y-54862268D01*
X123836193Y-54723790D01*
X123889338Y-54678437D01*
X123958569Y-54669013D01*
X124021905Y-54698515D01*
X124043804Y-54723787D01*
X124134278Y-54862268D01*
X124134283Y-54862273D01*
X124134284Y-54862276D01*
X124286756Y-55027902D01*
X124286761Y-55027907D01*
X124331983Y-55063105D01*
X124464424Y-55166189D01*
X124464425Y-55166189D01*
X124464427Y-55166191D01*
X124524314Y-55198600D01*
X124662426Y-55273342D01*
X124875365Y-55346444D01*
X125097431Y-55383500D01*
X125322569Y-55383500D01*
X125544635Y-55346444D01*
X125757574Y-55273342D01*
X125955576Y-55166189D01*
X126133240Y-55027906D01*
X126252748Y-54898087D01*
X126285715Y-54862276D01*
X126285715Y-54862275D01*
X126285722Y-54862268D01*
X126379749Y-54718347D01*
X126432894Y-54672994D01*
X126502125Y-54663570D01*
X126565461Y-54693072D01*
X126585130Y-54715048D01*
X126711890Y-54896078D01*
X126878917Y-55063105D01*
X127072421Y-55198600D01*
X127286507Y-55298429D01*
X127286516Y-55298433D01*
X127500000Y-55355634D01*
X127500000Y-54458012D01*
X127557007Y-54490925D01*
X127684174Y-54525000D01*
X127815826Y-54525000D01*
X127942993Y-54490925D01*
X128000000Y-54458012D01*
X128000000Y-55355633D01*
X128213483Y-55298433D01*
X128213492Y-55298429D01*
X128427578Y-55198600D01*
X128621078Y-55063108D01*
X128736914Y-54947272D01*
X128798237Y-54913787D01*
X128867929Y-54918771D01*
X128923863Y-54960642D01*
X128940777Y-54991619D01*
X128989110Y-55121203D01*
X128989111Y-55121204D01*
X129076739Y-55238261D01*
X129193796Y-55325889D01*
X129330799Y-55376989D01*
X129358050Y-55379918D01*
X129391345Y-55383499D01*
X129391362Y-55383500D01*
X131188638Y-55383500D01*
X131188654Y-55383499D01*
X131215692Y-55380591D01*
X131249201Y-55376989D01*
X131386204Y-55325889D01*
X131503261Y-55238261D01*
X131590889Y-55121204D01*
X131641989Y-54984201D01*
X131645959Y-54947272D01*
X131648499Y-54923654D01*
X131648500Y-54923637D01*
X131648500Y-54669998D01*
X140186502Y-54669998D01*
X140186502Y-54670001D01*
X140206456Y-54898081D01*
X140206457Y-54898089D01*
X140265714Y-55119238D01*
X140265718Y-55119249D01*
X140362076Y-55325889D01*
X140362477Y-55326749D01*
X140493802Y-55514300D01*
X140655700Y-55676198D01*
X140843251Y-55807523D01*
X140968091Y-55865736D01*
X141050750Y-55904281D01*
X141050752Y-55904281D01*
X141050757Y-55904284D01*
X141271913Y-55963543D01*
X141434832Y-55977796D01*
X141499998Y-55983498D01*
X141500000Y-55983498D01*
X141500002Y-55983498D01*
X141557021Y-55978509D01*
X141728087Y-55963543D01*
X141949243Y-55904284D01*
X142156749Y-55807523D01*
X142344300Y-55676198D01*
X142506198Y-55514300D01*
X142516211Y-55500000D01*
X157986835Y-55500000D01*
X158005465Y-55736714D01*
X158060895Y-55967595D01*
X158060895Y-55967597D01*
X158151757Y-56186959D01*
X158151759Y-56186962D01*
X158275820Y-56389410D01*
X158275821Y-56389413D01*
X158275824Y-56389416D01*
X158430031Y-56569969D01*
X158465226Y-56600028D01*
X158610586Y-56724178D01*
X158610589Y-56724179D01*
X158813037Y-56848240D01*
X158813040Y-56848242D01*
X159032403Y-56939104D01*
X159032404Y-56939104D01*
X159032406Y-56939105D01*
X159263289Y-56994535D01*
X159500000Y-57013165D01*
X159736711Y-56994535D01*
X159967594Y-56939105D01*
X159967596Y-56939104D01*
X159967597Y-56939104D01*
X160186959Y-56848242D01*
X160186960Y-56848241D01*
X160186963Y-56848240D01*
X160389416Y-56724176D01*
X160569969Y-56569969D01*
X160724176Y-56389416D01*
X160848240Y-56186963D01*
X160932518Y-55983498D01*
X160939104Y-55967597D01*
X160939104Y-55967596D01*
X160939105Y-55967594D01*
X160994535Y-55736711D01*
X161013165Y-55500000D01*
X162486835Y-55500000D01*
X162505465Y-55736714D01*
X162560895Y-55967595D01*
X162560895Y-55967597D01*
X162651757Y-56186959D01*
X162651759Y-56186962D01*
X162775820Y-56389410D01*
X162775821Y-56389413D01*
X162775824Y-56389416D01*
X162930031Y-56569969D01*
X162965226Y-56600028D01*
X163110586Y-56724178D01*
X163110589Y-56724179D01*
X163313037Y-56848240D01*
X163313040Y-56848242D01*
X163532403Y-56939104D01*
X163532404Y-56939104D01*
X163532406Y-56939105D01*
X163763289Y-56994535D01*
X164000000Y-57013165D01*
X164236711Y-56994535D01*
X164467594Y-56939105D01*
X164467596Y-56939104D01*
X164467597Y-56939104D01*
X164686959Y-56848242D01*
X164686960Y-56848241D01*
X164686963Y-56848240D01*
X164889416Y-56724176D01*
X165069969Y-56569969D01*
X165224176Y-56389416D01*
X165348240Y-56186963D01*
X165432518Y-55983498D01*
X165439104Y-55967597D01*
X165439104Y-55967596D01*
X165439105Y-55967594D01*
X165494535Y-55736711D01*
X165513165Y-55500000D01*
X165494535Y-55263289D01*
X165439105Y-55032406D01*
X165439104Y-55032403D01*
X165439104Y-55032402D01*
X165348242Y-54813040D01*
X165348240Y-54813037D01*
X165260585Y-54669998D01*
X165224178Y-54610588D01*
X165224178Y-54610586D01*
X165151080Y-54525000D01*
X165069969Y-54430031D01*
X164941233Y-54320080D01*
X164889413Y-54275821D01*
X164889410Y-54275820D01*
X164686962Y-54151759D01*
X164686959Y-54151757D01*
X164467596Y-54060895D01*
X164236714Y-54005465D01*
X164000000Y-53986835D01*
X163763285Y-54005465D01*
X163532404Y-54060895D01*
X163532402Y-54060895D01*
X163313040Y-54151757D01*
X163313037Y-54151759D01*
X163110589Y-54275820D01*
X163110586Y-54275821D01*
X162930031Y-54430031D01*
X162775821Y-54610586D01*
X162775820Y-54610589D01*
X162651759Y-54813037D01*
X162651757Y-54813040D01*
X162560895Y-55032402D01*
X162560895Y-55032404D01*
X162505465Y-55263285D01*
X162486835Y-55500000D01*
X161013165Y-55500000D01*
X160994535Y-55263289D01*
X160939105Y-55032406D01*
X160939104Y-55032403D01*
X160939104Y-55032402D01*
X160848242Y-54813040D01*
X160848240Y-54813037D01*
X160760585Y-54669998D01*
X160724178Y-54610588D01*
X160724178Y-54610586D01*
X160651080Y-54525000D01*
X160569969Y-54430031D01*
X160441233Y-54320080D01*
X160389413Y-54275821D01*
X160389410Y-54275820D01*
X160186962Y-54151759D01*
X160186959Y-54151757D01*
X159967596Y-54060895D01*
X159736714Y-54005465D01*
X159500000Y-53986835D01*
X159263285Y-54005465D01*
X159032404Y-54060895D01*
X159032402Y-54060895D01*
X158813040Y-54151757D01*
X158813037Y-54151759D01*
X158610589Y-54275820D01*
X158610586Y-54275821D01*
X158430031Y-54430031D01*
X158275821Y-54610586D01*
X158275820Y-54610589D01*
X158151759Y-54813037D01*
X158151757Y-54813040D01*
X158060895Y-55032402D01*
X158060895Y-55032404D01*
X158005465Y-55263285D01*
X157986835Y-55500000D01*
X142516211Y-55500000D01*
X142637523Y-55326749D01*
X142734284Y-55119243D01*
X142793543Y-54898087D01*
X142813498Y-54670000D01*
X142812935Y-54663570D01*
X142797831Y-54490925D01*
X142793543Y-54441913D01*
X142734284Y-54220757D01*
X142637523Y-54013251D01*
X142506198Y-53825700D01*
X142430497Y-53749999D01*
X155221127Y-53749999D01*
X155221128Y-53750000D01*
X156184314Y-53750000D01*
X156179920Y-53754394D01*
X156127259Y-53845606D01*
X156100000Y-53947339D01*
X156100000Y-54052661D01*
X156127259Y-54154394D01*
X156179920Y-54245606D01*
X156184314Y-54250000D01*
X155221128Y-54250000D01*
X155273730Y-54446317D01*
X155273734Y-54446326D01*
X155369865Y-54652482D01*
X155500342Y-54838820D01*
X155661179Y-54999657D01*
X155847517Y-55130134D01*
X156053673Y-55226265D01*
X156053682Y-55226269D01*
X156249999Y-55278872D01*
X156250000Y-55278871D01*
X156250000Y-54315686D01*
X156254394Y-54320080D01*
X156345606Y-54372741D01*
X156447339Y-54400000D01*
X156552661Y-54400000D01*
X156654394Y-54372741D01*
X156745606Y-54320080D01*
X156750000Y-54315686D01*
X156750000Y-55278872D01*
X156946317Y-55226269D01*
X156946326Y-55226265D01*
X157152482Y-55130134D01*
X157338820Y-54999657D01*
X157499657Y-54838820D01*
X157630134Y-54652482D01*
X157726265Y-54446326D01*
X157726269Y-54446317D01*
X157778872Y-54250000D01*
X156815686Y-54250000D01*
X156820080Y-54245606D01*
X156872741Y-54154394D01*
X156900000Y-54052661D01*
X156900000Y-53947339D01*
X156872741Y-53845606D01*
X156820080Y-53754394D01*
X156815686Y-53750000D01*
X157778872Y-53750000D01*
X157778872Y-53749999D01*
X157726269Y-53553682D01*
X157726265Y-53553673D01*
X157630134Y-53347517D01*
X157499657Y-53161179D01*
X157338820Y-53000342D01*
X157152482Y-52869865D01*
X156946328Y-52773734D01*
X156750000Y-52721127D01*
X156750000Y-53684314D01*
X156745606Y-53679920D01*
X156654394Y-53627259D01*
X156552661Y-53600000D01*
X156447339Y-53600000D01*
X156345606Y-53627259D01*
X156254394Y-53679920D01*
X156250000Y-53684314D01*
X156250000Y-52721127D01*
X156053671Y-52773734D01*
X155847517Y-52869865D01*
X155661179Y-53000342D01*
X155500342Y-53161179D01*
X155369865Y-53347517D01*
X155273734Y-53553673D01*
X155273730Y-53553682D01*
X155221127Y-53749999D01*
X142430497Y-53749999D01*
X142344300Y-53663802D01*
X142156749Y-53532477D01*
X142156745Y-53532475D01*
X141949249Y-53435718D01*
X141949238Y-53435714D01*
X141728089Y-53376457D01*
X141728081Y-53376456D01*
X141500002Y-53356502D01*
X141499998Y-53356502D01*
X141271918Y-53376456D01*
X141271910Y-53376457D01*
X141050761Y-53435714D01*
X141050750Y-53435718D01*
X140843254Y-53532475D01*
X140843252Y-53532476D01*
X140843251Y-53532477D01*
X140655700Y-53663802D01*
X140655698Y-53663803D01*
X140655695Y-53663806D01*
X140493806Y-53825695D01*
X140362476Y-54013252D01*
X140362475Y-54013254D01*
X140265718Y-54220750D01*
X140265714Y-54220761D01*
X140206457Y-54441910D01*
X140206456Y-54441918D01*
X140186502Y-54669998D01*
X131648500Y-54669998D01*
X131648500Y-53126362D01*
X131648499Y-53126345D01*
X131645157Y-53095270D01*
X131641989Y-53065799D01*
X131639222Y-53058381D01*
X131612559Y-52986894D01*
X131590889Y-52928796D01*
X131503261Y-52811739D01*
X131386204Y-52724111D01*
X131378204Y-52721127D01*
X131249203Y-52673011D01*
X131188654Y-52666500D01*
X131188638Y-52666500D01*
X129391362Y-52666500D01*
X129391345Y-52666500D01*
X129330797Y-52673011D01*
X129330795Y-52673011D01*
X129193795Y-52724111D01*
X129076739Y-52811739D01*
X128989111Y-52928795D01*
X128940777Y-53058381D01*
X128898905Y-53114314D01*
X128833441Y-53138730D01*
X128765168Y-53123878D01*
X128736915Y-53102727D01*
X128621082Y-52986894D01*
X128427578Y-52851399D01*
X128213492Y-52751570D01*
X128213486Y-52751567D01*
X128000000Y-52694364D01*
X128000000Y-53591988D01*
X127942993Y-53559075D01*
X127815826Y-53525000D01*
X127684174Y-53525000D01*
X127557007Y-53559075D01*
X127500000Y-53591988D01*
X127500000Y-52694364D01*
X127499999Y-52694364D01*
X127286513Y-52751567D01*
X127286507Y-52751570D01*
X127072422Y-52851399D01*
X127072420Y-52851400D01*
X126878926Y-52986886D01*
X126878920Y-52986891D01*
X126711891Y-53153920D01*
X126711890Y-53153922D01*
X126585131Y-53334952D01*
X126530554Y-53378577D01*
X126461055Y-53385769D01*
X126398701Y-53354247D01*
X126379752Y-53331656D01*
X126285722Y-53187732D01*
X126285715Y-53187725D01*
X126285715Y-53187723D01*
X126133243Y-53022097D01*
X126133238Y-53022092D01*
X125955577Y-52883812D01*
X125955572Y-52883808D01*
X125757580Y-52776661D01*
X125757577Y-52776659D01*
X125757574Y-52776658D01*
X125757571Y-52776657D01*
X125757569Y-52776656D01*
X125544637Y-52703556D01*
X125322569Y-52666500D01*
X125097431Y-52666500D01*
X124875362Y-52703556D01*
X124662430Y-52776656D01*
X124662419Y-52776661D01*
X124464427Y-52883808D01*
X124464422Y-52883812D01*
X124286761Y-53022092D01*
X124286756Y-53022097D01*
X124134284Y-53187723D01*
X124134276Y-53187734D01*
X124043808Y-53326206D01*
X123990662Y-53371562D01*
X123921431Y-53380986D01*
X123858095Y-53351484D01*
X123836192Y-53326206D01*
X123745723Y-53187734D01*
X123745715Y-53187723D01*
X123593243Y-53022097D01*
X123593238Y-53022092D01*
X123415577Y-52883812D01*
X123415572Y-52883808D01*
X123217580Y-52776661D01*
X123217577Y-52776659D01*
X123217574Y-52776658D01*
X123217571Y-52776657D01*
X123217569Y-52776656D01*
X123004637Y-52703556D01*
X122782569Y-52666500D01*
X122557431Y-52666500D01*
X122335362Y-52703556D01*
X122122430Y-52776656D01*
X122122419Y-52776661D01*
X121924427Y-52883808D01*
X121924422Y-52883812D01*
X121746761Y-53022092D01*
X121746756Y-53022097D01*
X121594284Y-53187723D01*
X121594276Y-53187734D01*
X121503808Y-53326206D01*
X121450662Y-53371562D01*
X121381431Y-53380986D01*
X121318095Y-53351484D01*
X121296192Y-53326206D01*
X121205723Y-53187734D01*
X121205715Y-53187723D01*
X121053243Y-53022097D01*
X121053238Y-53022092D01*
X120875577Y-52883812D01*
X120875572Y-52883808D01*
X120677580Y-52776661D01*
X120677577Y-52776659D01*
X120677574Y-52776658D01*
X120677571Y-52776657D01*
X120677569Y-52776656D01*
X120464637Y-52703556D01*
X120242569Y-52666500D01*
X120017431Y-52666500D01*
X119795362Y-52703556D01*
X119582430Y-52776656D01*
X119582419Y-52776661D01*
X119384427Y-52883808D01*
X119384422Y-52883812D01*
X119206761Y-53022092D01*
X119206756Y-53022097D01*
X119054284Y-53187723D01*
X119054276Y-53187734D01*
X118963808Y-53326206D01*
X118910662Y-53371562D01*
X118841431Y-53380986D01*
X118778095Y-53351484D01*
X118756192Y-53326206D01*
X118665723Y-53187734D01*
X118665715Y-53187723D01*
X118513243Y-53022097D01*
X118513238Y-53022092D01*
X118335577Y-52883812D01*
X118335572Y-52883808D01*
X118137580Y-52776661D01*
X118137577Y-52776659D01*
X118137574Y-52776658D01*
X118137571Y-52776657D01*
X118137569Y-52776656D01*
X117924637Y-52703556D01*
X117702569Y-52666500D01*
X117477431Y-52666500D01*
X117255362Y-52703556D01*
X117042430Y-52776656D01*
X117042419Y-52776661D01*
X116844427Y-52883808D01*
X116844422Y-52883812D01*
X116666761Y-53022092D01*
X116666756Y-53022097D01*
X116514284Y-53187723D01*
X116514276Y-53187734D01*
X116423808Y-53326206D01*
X116370662Y-53371562D01*
X116301431Y-53380986D01*
X116238095Y-53351484D01*
X116216192Y-53326206D01*
X116125723Y-53187734D01*
X116125715Y-53187723D01*
X115973243Y-53022097D01*
X115973238Y-53022092D01*
X115795577Y-52883812D01*
X115795572Y-52883808D01*
X115597580Y-52776661D01*
X115597577Y-52776659D01*
X115597574Y-52776658D01*
X115597571Y-52776657D01*
X115597569Y-52776656D01*
X115384637Y-52703556D01*
X115162569Y-52666500D01*
X114937431Y-52666500D01*
X114715362Y-52703556D01*
X114502430Y-52776656D01*
X114502419Y-52776661D01*
X114304427Y-52883808D01*
X114304422Y-52883812D01*
X114126761Y-53022092D01*
X114126756Y-53022097D01*
X113974284Y-53187723D01*
X113974276Y-53187734D01*
X113883808Y-53326206D01*
X113830662Y-53371562D01*
X113761431Y-53380986D01*
X113698095Y-53351484D01*
X113676192Y-53326206D01*
X113585723Y-53187734D01*
X113585715Y-53187723D01*
X113433243Y-53022097D01*
X113433238Y-53022092D01*
X113255577Y-52883812D01*
X113255572Y-52883808D01*
X113057580Y-52776661D01*
X113057577Y-52776659D01*
X113057574Y-52776658D01*
X113057571Y-52776657D01*
X113057569Y-52776656D01*
X112844637Y-52703556D01*
X112622569Y-52666500D01*
X112397431Y-52666500D01*
X112175362Y-52703556D01*
X111962430Y-52776656D01*
X111962419Y-52776661D01*
X111764427Y-52883808D01*
X111764422Y-52883812D01*
X111586761Y-53022092D01*
X111586756Y-53022097D01*
X111434284Y-53187723D01*
X111434276Y-53187734D01*
X111311140Y-53376207D01*
X111220703Y-53582385D01*
X111165436Y-53800628D01*
X111165434Y-53800640D01*
X111146844Y-54024994D01*
X100075500Y-54024994D01*
X100075500Y-48301345D01*
X117437500Y-48301345D01*
X117437500Y-50098654D01*
X117444011Y-50159202D01*
X117444011Y-50159204D01*
X117495111Y-50296204D01*
X117582739Y-50413261D01*
X117699796Y-50500889D01*
X117836799Y-50551989D01*
X117864050Y-50554918D01*
X117897345Y-50558499D01*
X117897362Y-50558500D01*
X119694638Y-50558500D01*
X119694654Y-50558499D01*
X119721692Y-50555591D01*
X119755201Y-50551989D01*
X119892204Y-50500889D01*
X120009261Y-50413261D01*
X120096889Y-50296204D01*
X120142138Y-50174887D01*
X120184009Y-50118956D01*
X120249474Y-50094539D01*
X120317746Y-50109391D01*
X120349545Y-50134236D01*
X120412760Y-50202906D01*
X120590424Y-50341189D01*
X120590425Y-50341189D01*
X120590427Y-50341191D01*
X120650314Y-50373600D01*
X120788426Y-50448342D01*
X121001365Y-50521444D01*
X121223431Y-50558500D01*
X121448569Y-50558500D01*
X121670635Y-50521444D01*
X121883574Y-50448342D01*
X122081576Y-50341189D01*
X122259240Y-50202906D01*
X122380594Y-50071082D01*
X122411715Y-50037276D01*
X122411715Y-50037275D01*
X122411722Y-50037268D01*
X122502193Y-49898790D01*
X122555338Y-49853437D01*
X122624569Y-49844013D01*
X122687905Y-49873515D01*
X122709804Y-49898787D01*
X122800278Y-50037268D01*
X122800283Y-50037273D01*
X122800284Y-50037276D01*
X122926968Y-50174889D01*
X122952760Y-50202906D01*
X123130424Y-50341189D01*
X123130425Y-50341189D01*
X123130427Y-50341191D01*
X123190314Y-50373600D01*
X123328426Y-50448342D01*
X123541365Y-50521444D01*
X123763431Y-50558500D01*
X123988569Y-50558500D01*
X124210635Y-50521444D01*
X124423574Y-50448342D01*
X124621576Y-50341189D01*
X124799240Y-50202906D01*
X124920594Y-50071082D01*
X124951715Y-50037276D01*
X124951715Y-50037275D01*
X124951722Y-50037268D01*
X125045749Y-49893347D01*
X125098894Y-49847994D01*
X125168125Y-49838570D01*
X125231461Y-49868072D01*
X125251130Y-49890048D01*
X125377890Y-50071078D01*
X125544917Y-50238105D01*
X125738421Y-50373600D01*
X125952507Y-50473429D01*
X125952516Y-50473433D01*
X126166000Y-50530634D01*
X126166000Y-49633012D01*
X126223007Y-49665925D01*
X126350174Y-49700000D01*
X126481826Y-49700000D01*
X126608993Y-49665925D01*
X126666000Y-49633012D01*
X126666000Y-50530633D01*
X126879483Y-50473433D01*
X126879492Y-50473429D01*
X127093578Y-50373600D01*
X127287082Y-50238105D01*
X127454105Y-50071082D01*
X127580868Y-49890048D01*
X127635445Y-49846423D01*
X127704944Y-49839231D01*
X127767298Y-49870753D01*
X127786251Y-49893350D01*
X127880276Y-50037265D01*
X127880284Y-50037276D01*
X128006968Y-50174889D01*
X128032760Y-50202906D01*
X128210424Y-50341189D01*
X128210425Y-50341189D01*
X128210427Y-50341191D01*
X128270314Y-50373600D01*
X128408426Y-50448342D01*
X128621365Y-50521444D01*
X128843431Y-50558500D01*
X129068569Y-50558500D01*
X129290635Y-50521444D01*
X129503574Y-50448342D01*
X129701576Y-50341189D01*
X129879240Y-50202906D01*
X130000594Y-50071082D01*
X130031715Y-50037276D01*
X130031715Y-50037275D01*
X130031722Y-50037268D01*
X130122193Y-49898790D01*
X130175338Y-49853437D01*
X130244569Y-49844013D01*
X130307905Y-49873515D01*
X130329804Y-49898787D01*
X130420278Y-50037268D01*
X130420283Y-50037273D01*
X130420284Y-50037276D01*
X130546968Y-50174889D01*
X130572760Y-50202906D01*
X130750424Y-50341189D01*
X130750425Y-50341189D01*
X130750427Y-50341191D01*
X130810314Y-50373600D01*
X130948426Y-50448342D01*
X131161365Y-50521444D01*
X131383431Y-50558500D01*
X131608569Y-50558500D01*
X131830635Y-50521444D01*
X132043574Y-50448342D01*
X132241576Y-50341189D01*
X132419240Y-50202906D01*
X132540594Y-50071082D01*
X132571715Y-50037276D01*
X132571715Y-50037275D01*
X132571722Y-50037268D01*
X132662193Y-49898790D01*
X132715338Y-49853437D01*
X132784569Y-49844013D01*
X132847905Y-49873515D01*
X132869804Y-49898787D01*
X132960278Y-50037268D01*
X132960283Y-50037273D01*
X132960284Y-50037276D01*
X133086968Y-50174889D01*
X133112760Y-50202906D01*
X133290424Y-50341189D01*
X133290425Y-50341189D01*
X133290427Y-50341191D01*
X133350314Y-50373600D01*
X133488426Y-50448342D01*
X133701365Y-50521444D01*
X133923431Y-50558500D01*
X134148569Y-50558500D01*
X134370635Y-50521444D01*
X134583574Y-50448342D01*
X134781576Y-50341189D01*
X134959240Y-50202906D01*
X135080594Y-50071082D01*
X135111715Y-50037276D01*
X135111715Y-50037275D01*
X135111722Y-50037268D01*
X135202193Y-49898790D01*
X135255338Y-49853437D01*
X135324569Y-49844013D01*
X135387905Y-49873515D01*
X135409804Y-49898787D01*
X135500278Y-50037268D01*
X135500283Y-50037273D01*
X135500284Y-50037276D01*
X135626968Y-50174889D01*
X135652760Y-50202906D01*
X135830424Y-50341189D01*
X135830425Y-50341189D01*
X135830427Y-50341191D01*
X135890314Y-50373600D01*
X136028426Y-50448342D01*
X136241365Y-50521444D01*
X136463431Y-50558500D01*
X136688569Y-50558500D01*
X136910635Y-50521444D01*
X137123574Y-50448342D01*
X137321576Y-50341189D01*
X137499240Y-50202906D01*
X137620594Y-50071082D01*
X137651715Y-50037276D01*
X137651715Y-50037275D01*
X137651722Y-50037268D01*
X137742193Y-49898790D01*
X137795338Y-49853437D01*
X137864569Y-49844013D01*
X137927905Y-49873515D01*
X137949804Y-49898787D01*
X138040278Y-50037268D01*
X138040283Y-50037273D01*
X138040284Y-50037276D01*
X138166968Y-50174889D01*
X138192760Y-50202906D01*
X138370424Y-50341189D01*
X138370425Y-50341189D01*
X138370427Y-50341191D01*
X138430314Y-50373600D01*
X138568426Y-50448342D01*
X138781365Y-50521444D01*
X139003431Y-50558500D01*
X139228569Y-50558500D01*
X139450635Y-50521444D01*
X139663574Y-50448342D01*
X139861576Y-50341189D01*
X140039240Y-50202906D01*
X140160594Y-50071082D01*
X140191715Y-50037276D01*
X140191715Y-50037275D01*
X140191722Y-50037268D01*
X140282193Y-49898790D01*
X140335338Y-49853437D01*
X140404569Y-49844013D01*
X140467905Y-49873515D01*
X140489804Y-49898787D01*
X140580278Y-50037268D01*
X140580283Y-50037273D01*
X140580284Y-50037276D01*
X140706968Y-50174889D01*
X140732760Y-50202906D01*
X140910424Y-50341189D01*
X140910425Y-50341189D01*
X140910427Y-50341191D01*
X140970314Y-50373600D01*
X141108426Y-50448342D01*
X141321365Y-50521444D01*
X141543431Y-50558500D01*
X141768569Y-50558500D01*
X141990635Y-50521444D01*
X142203574Y-50448342D01*
X142401576Y-50341189D01*
X142579240Y-50202906D01*
X142700594Y-50071082D01*
X142731715Y-50037276D01*
X142731717Y-50037273D01*
X142731722Y-50037268D01*
X142854860Y-49848791D01*
X142945296Y-49642616D01*
X143000564Y-49424368D01*
X143012309Y-49282635D01*
X143019156Y-49200005D01*
X143019156Y-49199994D01*
X143000565Y-48975640D01*
X143000563Y-48975628D01*
X142945296Y-48757385D01*
X142935071Y-48734075D01*
X142854860Y-48551209D01*
X142838706Y-48526484D01*
X142731723Y-48362734D01*
X142731715Y-48362723D01*
X142675212Y-48301345D01*
X144361500Y-48301345D01*
X144361500Y-50098654D01*
X144368011Y-50159202D01*
X144368011Y-50159204D01*
X144419111Y-50296204D01*
X144506739Y-50413261D01*
X144623796Y-50500889D01*
X144760799Y-50551989D01*
X144788050Y-50554918D01*
X144821345Y-50558499D01*
X144821362Y-50558500D01*
X146618638Y-50558500D01*
X146618654Y-50558499D01*
X146645692Y-50555591D01*
X146679201Y-50551989D01*
X146816204Y-50500889D01*
X146933261Y-50413261D01*
X147020889Y-50296204D01*
X147066138Y-50174887D01*
X147108009Y-50118956D01*
X147173474Y-50094539D01*
X147241746Y-50109391D01*
X147273545Y-50134236D01*
X147336760Y-50202906D01*
X147514424Y-50341189D01*
X147514425Y-50341189D01*
X147514427Y-50341191D01*
X147574314Y-50373600D01*
X147712426Y-50448342D01*
X147925365Y-50521444D01*
X148147431Y-50558500D01*
X148372569Y-50558500D01*
X148594635Y-50521444D01*
X148807574Y-50448342D01*
X149005576Y-50341189D01*
X149183240Y-50202906D01*
X149304594Y-50071082D01*
X149335715Y-50037276D01*
X149335715Y-50037275D01*
X149335722Y-50037268D01*
X149426193Y-49898790D01*
X149479338Y-49853437D01*
X149548569Y-49844013D01*
X149611905Y-49873515D01*
X149633804Y-49898787D01*
X149724278Y-50037268D01*
X149724283Y-50037273D01*
X149724284Y-50037276D01*
X149850968Y-50174889D01*
X149876760Y-50202906D01*
X150054424Y-50341189D01*
X150054425Y-50341189D01*
X150054427Y-50341191D01*
X150114314Y-50373600D01*
X150252426Y-50448342D01*
X150465365Y-50521444D01*
X150687431Y-50558500D01*
X150912569Y-50558500D01*
X151134635Y-50521444D01*
X151347574Y-50448342D01*
X151545576Y-50341189D01*
X151723240Y-50202906D01*
X151844594Y-50071082D01*
X151875715Y-50037276D01*
X151875715Y-50037275D01*
X151875722Y-50037268D01*
X151966193Y-49898790D01*
X152019338Y-49853437D01*
X152088569Y-49844013D01*
X152151905Y-49873515D01*
X152173804Y-49898787D01*
X152264278Y-50037268D01*
X152264283Y-50037273D01*
X152264284Y-50037276D01*
X152390968Y-50174889D01*
X152416760Y-50202906D01*
X152594424Y-50341189D01*
X152594425Y-50341189D01*
X152594427Y-50341191D01*
X152654314Y-50373600D01*
X152792426Y-50448342D01*
X153005365Y-50521444D01*
X153227431Y-50558500D01*
X153452569Y-50558500D01*
X153674635Y-50521444D01*
X153887574Y-50448342D01*
X154085576Y-50341189D01*
X154263240Y-50202906D01*
X154384594Y-50071082D01*
X154415715Y-50037276D01*
X154415715Y-50037275D01*
X154415722Y-50037268D01*
X154506193Y-49898790D01*
X154559338Y-49853437D01*
X154628569Y-49844013D01*
X154691905Y-49873515D01*
X154713804Y-49898787D01*
X154804278Y-50037268D01*
X154804283Y-50037273D01*
X154804284Y-50037276D01*
X154930968Y-50174889D01*
X154956760Y-50202906D01*
X155134424Y-50341189D01*
X155134425Y-50341189D01*
X155134427Y-50341191D01*
X155194314Y-50373600D01*
X155332426Y-50448342D01*
X155545365Y-50521444D01*
X155767431Y-50558500D01*
X155992569Y-50558500D01*
X156214635Y-50521444D01*
X156427574Y-50448342D01*
X156625576Y-50341189D01*
X156803240Y-50202906D01*
X156924594Y-50071082D01*
X156955715Y-50037276D01*
X156955715Y-50037275D01*
X156955722Y-50037268D01*
X157046193Y-49898790D01*
X157099338Y-49853437D01*
X157168569Y-49844013D01*
X157231905Y-49873515D01*
X157253804Y-49898787D01*
X157344278Y-50037268D01*
X157344283Y-50037273D01*
X157344284Y-50037276D01*
X157470968Y-50174889D01*
X157496760Y-50202906D01*
X157674424Y-50341189D01*
X157674425Y-50341189D01*
X157674427Y-50341191D01*
X157734314Y-50373600D01*
X157872426Y-50448342D01*
X158085365Y-50521444D01*
X158307431Y-50558500D01*
X158532569Y-50558500D01*
X158754635Y-50521444D01*
X158967574Y-50448342D01*
X159165576Y-50341189D01*
X159343240Y-50202906D01*
X159464594Y-50071082D01*
X159495715Y-50037276D01*
X159495715Y-50037275D01*
X159495722Y-50037268D01*
X159586193Y-49898790D01*
X159639338Y-49853437D01*
X159708569Y-49844013D01*
X159771905Y-49873515D01*
X159793804Y-49898787D01*
X159884278Y-50037268D01*
X159884283Y-50037273D01*
X159884284Y-50037276D01*
X160010968Y-50174889D01*
X160036760Y-50202906D01*
X160214424Y-50341189D01*
X160214425Y-50341189D01*
X160214427Y-50341191D01*
X160274314Y-50373600D01*
X160412426Y-50448342D01*
X160625365Y-50521444D01*
X160847431Y-50558500D01*
X161072569Y-50558500D01*
X161294635Y-50521444D01*
X161507574Y-50448342D01*
X161705576Y-50341189D01*
X161883240Y-50202906D01*
X162004594Y-50071082D01*
X162035715Y-50037276D01*
X162035715Y-50037275D01*
X162035722Y-50037268D01*
X162126193Y-49898790D01*
X162179338Y-49853437D01*
X162248569Y-49844013D01*
X162311905Y-49873515D01*
X162333804Y-49898787D01*
X162424278Y-50037268D01*
X162424283Y-50037273D01*
X162424284Y-50037276D01*
X162550968Y-50174889D01*
X162576760Y-50202906D01*
X162754424Y-50341189D01*
X162754425Y-50341189D01*
X162754427Y-50341191D01*
X162814314Y-50373600D01*
X162952426Y-50448342D01*
X163165365Y-50521444D01*
X163387431Y-50558500D01*
X163612569Y-50558500D01*
X163834635Y-50521444D01*
X164047574Y-50448342D01*
X164245576Y-50341189D01*
X164423240Y-50202906D01*
X164544594Y-50071082D01*
X164575715Y-50037276D01*
X164575717Y-50037273D01*
X164575722Y-50037268D01*
X164698860Y-49848791D01*
X164789296Y-49642616D01*
X164844564Y-49424368D01*
X164856309Y-49282635D01*
X164863156Y-49200005D01*
X164863156Y-49199994D01*
X164844565Y-48975640D01*
X164844563Y-48975628D01*
X164789296Y-48757385D01*
X164779071Y-48734075D01*
X164698860Y-48551209D01*
X164682706Y-48526484D01*
X164575723Y-48362734D01*
X164575715Y-48362723D01*
X164423243Y-48197097D01*
X164423238Y-48197092D01*
X164245577Y-48058812D01*
X164245572Y-48058808D01*
X164047580Y-47951661D01*
X164047577Y-47951659D01*
X164047574Y-47951658D01*
X164047571Y-47951657D01*
X164047569Y-47951656D01*
X163834637Y-47878556D01*
X163612569Y-47841500D01*
X163387431Y-47841500D01*
X163165362Y-47878556D01*
X162952430Y-47951656D01*
X162952419Y-47951661D01*
X162754427Y-48058808D01*
X162754422Y-48058812D01*
X162576761Y-48197092D01*
X162576756Y-48197097D01*
X162424284Y-48362723D01*
X162424276Y-48362734D01*
X162333808Y-48501206D01*
X162280662Y-48546562D01*
X162211431Y-48555986D01*
X162148095Y-48526484D01*
X162126192Y-48501206D01*
X162035723Y-48362734D01*
X162035715Y-48362723D01*
X161883243Y-48197097D01*
X161883238Y-48197092D01*
X161705577Y-48058812D01*
X161705572Y-48058808D01*
X161507580Y-47951661D01*
X161507577Y-47951659D01*
X161507574Y-47951658D01*
X161507571Y-47951657D01*
X161507569Y-47951656D01*
X161294637Y-47878556D01*
X161072569Y-47841500D01*
X160847431Y-47841500D01*
X160625362Y-47878556D01*
X160412430Y-47951656D01*
X160412419Y-47951661D01*
X160214427Y-48058808D01*
X160214422Y-48058812D01*
X160036761Y-48197092D01*
X160036756Y-48197097D01*
X159884284Y-48362723D01*
X159884276Y-48362734D01*
X159793808Y-48501206D01*
X159740662Y-48546562D01*
X159671431Y-48555986D01*
X159608095Y-48526484D01*
X159586192Y-48501206D01*
X159495723Y-48362734D01*
X159495715Y-48362723D01*
X159343243Y-48197097D01*
X159343238Y-48197092D01*
X159165577Y-48058812D01*
X159165572Y-48058808D01*
X158967580Y-47951661D01*
X158967577Y-47951659D01*
X158967574Y-47951658D01*
X158967571Y-47951657D01*
X158967569Y-47951656D01*
X158754637Y-47878556D01*
X158532569Y-47841500D01*
X158307431Y-47841500D01*
X158085362Y-47878556D01*
X157872430Y-47951656D01*
X157872419Y-47951661D01*
X157674427Y-48058808D01*
X157674422Y-48058812D01*
X157496761Y-48197092D01*
X157496756Y-48197097D01*
X157344284Y-48362723D01*
X157344276Y-48362734D01*
X157253808Y-48501206D01*
X157200662Y-48546562D01*
X157131431Y-48555986D01*
X157068095Y-48526484D01*
X157046192Y-48501206D01*
X156955723Y-48362734D01*
X156955715Y-48362723D01*
X156803243Y-48197097D01*
X156803238Y-48197092D01*
X156625577Y-48058812D01*
X156625572Y-48058808D01*
X156427580Y-47951661D01*
X156427577Y-47951659D01*
X156427574Y-47951658D01*
X156427571Y-47951657D01*
X156427569Y-47951656D01*
X156214637Y-47878556D01*
X155992569Y-47841500D01*
X155767431Y-47841500D01*
X155545362Y-47878556D01*
X155332430Y-47951656D01*
X155332419Y-47951661D01*
X155134427Y-48058808D01*
X155134422Y-48058812D01*
X154956761Y-48197092D01*
X154956756Y-48197097D01*
X154804284Y-48362723D01*
X154804276Y-48362734D01*
X154713808Y-48501206D01*
X154660662Y-48546562D01*
X154591431Y-48555986D01*
X154528095Y-48526484D01*
X154506192Y-48501206D01*
X154415723Y-48362734D01*
X154415715Y-48362723D01*
X154263243Y-48197097D01*
X154263238Y-48197092D01*
X154085577Y-48058812D01*
X154085572Y-48058808D01*
X153887580Y-47951661D01*
X153887577Y-47951659D01*
X153887574Y-47951658D01*
X153887571Y-47951657D01*
X153887569Y-47951656D01*
X153674637Y-47878556D01*
X153452569Y-47841500D01*
X153227431Y-47841500D01*
X153005362Y-47878556D01*
X152792430Y-47951656D01*
X152792419Y-47951661D01*
X152594427Y-48058808D01*
X152594422Y-48058812D01*
X152416761Y-48197092D01*
X152416756Y-48197097D01*
X152264284Y-48362723D01*
X152264276Y-48362734D01*
X152173808Y-48501206D01*
X152120662Y-48546562D01*
X152051431Y-48555986D01*
X151988095Y-48526484D01*
X151966192Y-48501206D01*
X151875723Y-48362734D01*
X151875715Y-48362723D01*
X151723243Y-48197097D01*
X151723238Y-48197092D01*
X151545577Y-48058812D01*
X151545572Y-48058808D01*
X151347580Y-47951661D01*
X151347577Y-47951659D01*
X151347574Y-47951658D01*
X151347571Y-47951657D01*
X151347569Y-47951656D01*
X151134637Y-47878556D01*
X150912569Y-47841500D01*
X150687431Y-47841500D01*
X150465362Y-47878556D01*
X150252430Y-47951656D01*
X150252419Y-47951661D01*
X150054427Y-48058808D01*
X150054422Y-48058812D01*
X149876761Y-48197092D01*
X149876756Y-48197097D01*
X149724284Y-48362723D01*
X149724276Y-48362734D01*
X149633808Y-48501206D01*
X149580662Y-48546562D01*
X149511431Y-48555986D01*
X149448095Y-48526484D01*
X149426192Y-48501206D01*
X149335723Y-48362734D01*
X149335715Y-48362723D01*
X149183243Y-48197097D01*
X149183238Y-48197092D01*
X149005577Y-48058812D01*
X149005572Y-48058808D01*
X148807580Y-47951661D01*
X148807577Y-47951659D01*
X148807574Y-47951658D01*
X148807571Y-47951657D01*
X148807569Y-47951656D01*
X148594637Y-47878556D01*
X148372569Y-47841500D01*
X148147431Y-47841500D01*
X147925362Y-47878556D01*
X147712430Y-47951656D01*
X147712419Y-47951661D01*
X147514427Y-48058808D01*
X147514422Y-48058812D01*
X147336761Y-48197092D01*
X147273548Y-48265760D01*
X147213661Y-48301750D01*
X147143823Y-48299649D01*
X147086207Y-48260124D01*
X147066138Y-48225110D01*
X147020889Y-48103796D01*
X146987214Y-48058812D01*
X146933261Y-47986739D01*
X146816204Y-47899111D01*
X146679203Y-47848011D01*
X146618654Y-47841500D01*
X146618638Y-47841500D01*
X144821362Y-47841500D01*
X144821345Y-47841500D01*
X144760797Y-47848011D01*
X144760795Y-47848011D01*
X144623795Y-47899111D01*
X144506739Y-47986739D01*
X144419111Y-48103795D01*
X144368011Y-48240795D01*
X144368011Y-48240797D01*
X144361500Y-48301345D01*
X142675212Y-48301345D01*
X142579243Y-48197097D01*
X142579238Y-48197092D01*
X142401577Y-48058812D01*
X142401572Y-48058808D01*
X142203580Y-47951661D01*
X142203577Y-47951659D01*
X142203574Y-47951658D01*
X142203571Y-47951657D01*
X142203569Y-47951656D01*
X141990637Y-47878556D01*
X141768569Y-47841500D01*
X141543431Y-47841500D01*
X141321362Y-47878556D01*
X141108430Y-47951656D01*
X141108419Y-47951661D01*
X140910427Y-48058808D01*
X140910422Y-48058812D01*
X140732761Y-48197092D01*
X140732756Y-48197097D01*
X140580284Y-48362723D01*
X140580276Y-48362734D01*
X140489808Y-48501206D01*
X140436662Y-48546562D01*
X140367431Y-48555986D01*
X140304095Y-48526484D01*
X140282192Y-48501206D01*
X140191723Y-48362734D01*
X140191715Y-48362723D01*
X140039243Y-48197097D01*
X140039238Y-48197092D01*
X139861577Y-48058812D01*
X139861572Y-48058808D01*
X139663580Y-47951661D01*
X139663577Y-47951659D01*
X139663574Y-47951658D01*
X139663571Y-47951657D01*
X139663569Y-47951656D01*
X139450637Y-47878556D01*
X139228569Y-47841500D01*
X139003431Y-47841500D01*
X138781362Y-47878556D01*
X138568430Y-47951656D01*
X138568419Y-47951661D01*
X138370427Y-48058808D01*
X138370422Y-48058812D01*
X138192761Y-48197092D01*
X138192756Y-48197097D01*
X138040284Y-48362723D01*
X138040276Y-48362734D01*
X137949808Y-48501206D01*
X137896662Y-48546562D01*
X137827431Y-48555986D01*
X137764095Y-48526484D01*
X137742192Y-48501206D01*
X137651723Y-48362734D01*
X137651715Y-48362723D01*
X137499243Y-48197097D01*
X137499238Y-48197092D01*
X137321577Y-48058812D01*
X137321572Y-48058808D01*
X137123580Y-47951661D01*
X137123577Y-47951659D01*
X137123574Y-47951658D01*
X137123571Y-47951657D01*
X137123569Y-47951656D01*
X136910637Y-47878556D01*
X136688569Y-47841500D01*
X136463431Y-47841500D01*
X136241362Y-47878556D01*
X136028430Y-47951656D01*
X136028419Y-47951661D01*
X135830427Y-48058808D01*
X135830422Y-48058812D01*
X135652761Y-48197092D01*
X135652756Y-48197097D01*
X135500284Y-48362723D01*
X135500276Y-48362734D01*
X135409808Y-48501206D01*
X135356662Y-48546562D01*
X135287431Y-48555986D01*
X135224095Y-48526484D01*
X135202192Y-48501206D01*
X135111723Y-48362734D01*
X135111715Y-48362723D01*
X134959243Y-48197097D01*
X134959238Y-48197092D01*
X134781577Y-48058812D01*
X134781572Y-48058808D01*
X134583580Y-47951661D01*
X134583577Y-47951659D01*
X134583574Y-47951658D01*
X134583571Y-47951657D01*
X134583569Y-47951656D01*
X134370637Y-47878556D01*
X134148569Y-47841500D01*
X133923431Y-47841500D01*
X133701362Y-47878556D01*
X133488430Y-47951656D01*
X133488419Y-47951661D01*
X133290427Y-48058808D01*
X133290422Y-48058812D01*
X133112761Y-48197092D01*
X133112756Y-48197097D01*
X132960284Y-48362723D01*
X132960276Y-48362734D01*
X132869808Y-48501206D01*
X132816662Y-48546562D01*
X132747431Y-48555986D01*
X132684095Y-48526484D01*
X132662192Y-48501206D01*
X132571723Y-48362734D01*
X132571715Y-48362723D01*
X132419243Y-48197097D01*
X132419238Y-48197092D01*
X132241577Y-48058812D01*
X132241572Y-48058808D01*
X132043580Y-47951661D01*
X132043577Y-47951659D01*
X132043574Y-47951658D01*
X132043571Y-47951657D01*
X132043569Y-47951656D01*
X131830637Y-47878556D01*
X131608569Y-47841500D01*
X131383431Y-47841500D01*
X131161362Y-47878556D01*
X130948430Y-47951656D01*
X130948419Y-47951661D01*
X130750427Y-48058808D01*
X130750422Y-48058812D01*
X130572761Y-48197092D01*
X130572756Y-48197097D01*
X130420284Y-48362723D01*
X130420276Y-48362734D01*
X130329808Y-48501206D01*
X130276662Y-48546562D01*
X130207431Y-48555986D01*
X130144095Y-48526484D01*
X130122192Y-48501206D01*
X130031723Y-48362734D01*
X130031715Y-48362723D01*
X129879243Y-48197097D01*
X129879238Y-48197092D01*
X129701577Y-48058812D01*
X129701572Y-48058808D01*
X129503580Y-47951661D01*
X129503577Y-47951659D01*
X129503574Y-47951658D01*
X129503571Y-47951657D01*
X129503569Y-47951656D01*
X129290637Y-47878556D01*
X129068569Y-47841500D01*
X128843431Y-47841500D01*
X128621362Y-47878556D01*
X128408430Y-47951656D01*
X128408419Y-47951661D01*
X128210427Y-48058808D01*
X128210422Y-48058812D01*
X128032761Y-48197092D01*
X128032756Y-48197097D01*
X127880284Y-48362723D01*
X127880276Y-48362734D01*
X127786251Y-48506650D01*
X127733105Y-48552007D01*
X127663873Y-48561430D01*
X127600538Y-48531928D01*
X127580868Y-48509951D01*
X127454113Y-48328926D01*
X127454108Y-48328920D01*
X127287082Y-48161894D01*
X127093578Y-48026399D01*
X126879492Y-47926570D01*
X126879486Y-47926567D01*
X126666000Y-47869364D01*
X126666000Y-48766988D01*
X126608993Y-48734075D01*
X126481826Y-48700000D01*
X126350174Y-48700000D01*
X126223007Y-48734075D01*
X126166000Y-48766988D01*
X126166000Y-47869364D01*
X126165999Y-47869364D01*
X125952513Y-47926567D01*
X125952507Y-47926570D01*
X125738422Y-48026399D01*
X125738420Y-48026400D01*
X125544926Y-48161886D01*
X125544920Y-48161891D01*
X125377891Y-48328920D01*
X125377890Y-48328922D01*
X125251131Y-48509952D01*
X125196554Y-48553577D01*
X125127055Y-48560769D01*
X125064701Y-48529247D01*
X125045752Y-48506656D01*
X124951722Y-48362732D01*
X124951715Y-48362725D01*
X124951715Y-48362723D01*
X124799243Y-48197097D01*
X124799238Y-48197092D01*
X124621577Y-48058812D01*
X124621572Y-48058808D01*
X124423580Y-47951661D01*
X124423577Y-47951659D01*
X124423574Y-47951658D01*
X124423571Y-47951657D01*
X124423569Y-47951656D01*
X124210637Y-47878556D01*
X123988569Y-47841500D01*
X123763431Y-47841500D01*
X123541362Y-47878556D01*
X123328430Y-47951656D01*
X123328419Y-47951661D01*
X123130427Y-48058808D01*
X123130422Y-48058812D01*
X122952761Y-48197092D01*
X122952756Y-48197097D01*
X122800284Y-48362723D01*
X122800276Y-48362734D01*
X122709808Y-48501206D01*
X122656662Y-48546562D01*
X122587431Y-48555986D01*
X122524095Y-48526484D01*
X122502192Y-48501206D01*
X122411723Y-48362734D01*
X122411715Y-48362723D01*
X122259243Y-48197097D01*
X122259238Y-48197092D01*
X122081577Y-48058812D01*
X122081572Y-48058808D01*
X121883580Y-47951661D01*
X121883577Y-47951659D01*
X121883574Y-47951658D01*
X121883571Y-47951657D01*
X121883569Y-47951656D01*
X121670637Y-47878556D01*
X121448569Y-47841500D01*
X121223431Y-47841500D01*
X121001362Y-47878556D01*
X120788430Y-47951656D01*
X120788419Y-47951661D01*
X120590427Y-48058808D01*
X120590422Y-48058812D01*
X120412761Y-48197092D01*
X120349548Y-48265760D01*
X120289661Y-48301750D01*
X120219823Y-48299649D01*
X120162207Y-48260124D01*
X120142138Y-48225110D01*
X120096889Y-48103796D01*
X120063214Y-48058812D01*
X120009261Y-47986739D01*
X119892204Y-47899111D01*
X119755203Y-47848011D01*
X119694654Y-47841500D01*
X119694638Y-47841500D01*
X117897362Y-47841500D01*
X117897345Y-47841500D01*
X117836797Y-47848011D01*
X117836795Y-47848011D01*
X117699795Y-47899111D01*
X117582739Y-47986739D01*
X117495111Y-48103795D01*
X117444011Y-48240795D01*
X117444011Y-48240797D01*
X117437500Y-48301345D01*
X100075500Y-48301345D01*
X100075500Y-47428092D01*
X100076097Y-47415938D01*
X100087494Y-47300222D01*
X100092234Y-47276389D01*
X100124216Y-47170959D01*
X100133508Y-47148526D01*
X100185442Y-47051365D01*
X100198938Y-47031166D01*
X100268827Y-46946006D01*
X100286006Y-46928827D01*
X100371166Y-46858938D01*
X100391365Y-46845442D01*
X100488526Y-46793508D01*
X100510959Y-46784216D01*
X100616389Y-46752234D01*
X100640220Y-46747494D01*
X100755939Y-46736097D01*
X100768093Y-46735500D01*
X100786531Y-46735500D01*
X163417365Y-46735500D01*
X163484404Y-46755185D01*
G37*
%TD.AperFunction*%
%TD*%
M02*
