%TF.GenerationSoftware,KiCad,Pcbnew,8.0.8*%
%TF.CreationDate,2025-02-03T13:38:40-07:00*%
%TF.ProjectId,Uno_Shield_ThermoProbe,556e6f5f-5368-4696-956c-645f54686572,rev?*%
%TF.SameCoordinates,Original*%
%TF.FileFunction,Legend,Top*%
%TF.FilePolarity,Positive*%
%FSLAX46Y46*%
G04 Gerber Fmt 4.6, Leading zero omitted, Abs format (unit mm)*
G04 Created by KiCad (PCBNEW 8.0.8) date 2025-02-03 13:38:40*
%MOMM*%
%LPD*%
G01*
G04 APERTURE LIST*
%ADD10C,0.150000*%
%ADD11C,0.120000*%
G04 APERTURE END LIST*
D10*
X101369819Y-66306077D02*
X101369819Y-65734649D01*
X102369819Y-66020363D02*
X101369819Y-66020363D01*
X102369819Y-65401315D02*
X101369819Y-65401315D01*
X102369819Y-64972744D02*
X101846009Y-64972744D01*
X101846009Y-64972744D02*
X101750771Y-65020363D01*
X101750771Y-65020363D02*
X101703152Y-65115601D01*
X101703152Y-65115601D02*
X101703152Y-65258458D01*
X101703152Y-65258458D02*
X101750771Y-65353696D01*
X101750771Y-65353696D02*
X101798390Y-65401315D01*
X102322200Y-64115601D02*
X102369819Y-64210839D01*
X102369819Y-64210839D02*
X102369819Y-64401315D01*
X102369819Y-64401315D02*
X102322200Y-64496553D01*
X102322200Y-64496553D02*
X102226961Y-64544172D01*
X102226961Y-64544172D02*
X101846009Y-64544172D01*
X101846009Y-64544172D02*
X101750771Y-64496553D01*
X101750771Y-64496553D02*
X101703152Y-64401315D01*
X101703152Y-64401315D02*
X101703152Y-64210839D01*
X101703152Y-64210839D02*
X101750771Y-64115601D01*
X101750771Y-64115601D02*
X101846009Y-64067982D01*
X101846009Y-64067982D02*
X101941247Y-64067982D01*
X101941247Y-64067982D02*
X102036485Y-64544172D01*
X102369819Y-63639410D02*
X101703152Y-63639410D01*
X101893628Y-63639410D02*
X101798390Y-63591791D01*
X101798390Y-63591791D02*
X101750771Y-63544172D01*
X101750771Y-63544172D02*
X101703152Y-63448934D01*
X101703152Y-63448934D02*
X101703152Y-63353696D01*
X102369819Y-63020362D02*
X101703152Y-63020362D01*
X101798390Y-63020362D02*
X101750771Y-62972743D01*
X101750771Y-62972743D02*
X101703152Y-62877505D01*
X101703152Y-62877505D02*
X101703152Y-62734648D01*
X101703152Y-62734648D02*
X101750771Y-62639410D01*
X101750771Y-62639410D02*
X101846009Y-62591791D01*
X101846009Y-62591791D02*
X102369819Y-62591791D01*
X101846009Y-62591791D02*
X101750771Y-62544172D01*
X101750771Y-62544172D02*
X101703152Y-62448934D01*
X101703152Y-62448934D02*
X101703152Y-62306077D01*
X101703152Y-62306077D02*
X101750771Y-62210838D01*
X101750771Y-62210838D02*
X101846009Y-62163219D01*
X101846009Y-62163219D02*
X102369819Y-62163219D01*
X102369819Y-61544172D02*
X102322200Y-61639410D01*
X102322200Y-61639410D02*
X102274580Y-61687029D01*
X102274580Y-61687029D02*
X102179342Y-61734648D01*
X102179342Y-61734648D02*
X101893628Y-61734648D01*
X101893628Y-61734648D02*
X101798390Y-61687029D01*
X101798390Y-61687029D02*
X101750771Y-61639410D01*
X101750771Y-61639410D02*
X101703152Y-61544172D01*
X101703152Y-61544172D02*
X101703152Y-61401315D01*
X101703152Y-61401315D02*
X101750771Y-61306077D01*
X101750771Y-61306077D02*
X101798390Y-61258458D01*
X101798390Y-61258458D02*
X101893628Y-61210839D01*
X101893628Y-61210839D02*
X102179342Y-61210839D01*
X102179342Y-61210839D02*
X102274580Y-61258458D01*
X102274580Y-61258458D02*
X102322200Y-61306077D01*
X102322200Y-61306077D02*
X102369819Y-61401315D01*
X102369819Y-61401315D02*
X102369819Y-61544172D01*
X102369819Y-60782267D02*
X101369819Y-60782267D01*
X101369819Y-60782267D02*
X101369819Y-60401315D01*
X101369819Y-60401315D02*
X101417438Y-60306077D01*
X101417438Y-60306077D02*
X101465057Y-60258458D01*
X101465057Y-60258458D02*
X101560295Y-60210839D01*
X101560295Y-60210839D02*
X101703152Y-60210839D01*
X101703152Y-60210839D02*
X101798390Y-60258458D01*
X101798390Y-60258458D02*
X101846009Y-60306077D01*
X101846009Y-60306077D02*
X101893628Y-60401315D01*
X101893628Y-60401315D02*
X101893628Y-60782267D01*
X102369819Y-59782267D02*
X101703152Y-59782267D01*
X101893628Y-59782267D02*
X101798390Y-59734648D01*
X101798390Y-59734648D02*
X101750771Y-59687029D01*
X101750771Y-59687029D02*
X101703152Y-59591791D01*
X101703152Y-59591791D02*
X101703152Y-59496553D01*
X102369819Y-59020362D02*
X102322200Y-59115600D01*
X102322200Y-59115600D02*
X102274580Y-59163219D01*
X102274580Y-59163219D02*
X102179342Y-59210838D01*
X102179342Y-59210838D02*
X101893628Y-59210838D01*
X101893628Y-59210838D02*
X101798390Y-59163219D01*
X101798390Y-59163219D02*
X101750771Y-59115600D01*
X101750771Y-59115600D02*
X101703152Y-59020362D01*
X101703152Y-59020362D02*
X101703152Y-58877505D01*
X101703152Y-58877505D02*
X101750771Y-58782267D01*
X101750771Y-58782267D02*
X101798390Y-58734648D01*
X101798390Y-58734648D02*
X101893628Y-58687029D01*
X101893628Y-58687029D02*
X102179342Y-58687029D01*
X102179342Y-58687029D02*
X102274580Y-58734648D01*
X102274580Y-58734648D02*
X102322200Y-58782267D01*
X102322200Y-58782267D02*
X102369819Y-58877505D01*
X102369819Y-58877505D02*
X102369819Y-59020362D01*
X102369819Y-58258457D02*
X101369819Y-58258457D01*
X101750771Y-58258457D02*
X101703152Y-58163219D01*
X101703152Y-58163219D02*
X101703152Y-57972743D01*
X101703152Y-57972743D02*
X101750771Y-57877505D01*
X101750771Y-57877505D02*
X101798390Y-57829886D01*
X101798390Y-57829886D02*
X101893628Y-57782267D01*
X101893628Y-57782267D02*
X102179342Y-57782267D01*
X102179342Y-57782267D02*
X102274580Y-57829886D01*
X102274580Y-57829886D02*
X102322200Y-57877505D01*
X102322200Y-57877505D02*
X102369819Y-57972743D01*
X102369819Y-57972743D02*
X102369819Y-58163219D01*
X102369819Y-58163219D02*
X102322200Y-58258457D01*
X102322200Y-56972743D02*
X102369819Y-57067981D01*
X102369819Y-57067981D02*
X102369819Y-57258457D01*
X102369819Y-57258457D02*
X102322200Y-57353695D01*
X102322200Y-57353695D02*
X102226961Y-57401314D01*
X102226961Y-57401314D02*
X101846009Y-57401314D01*
X101846009Y-57401314D02*
X101750771Y-57353695D01*
X101750771Y-57353695D02*
X101703152Y-57258457D01*
X101703152Y-57258457D02*
X101703152Y-57067981D01*
X101703152Y-57067981D02*
X101750771Y-56972743D01*
X101750771Y-56972743D02*
X101846009Y-56925124D01*
X101846009Y-56925124D02*
X101941247Y-56925124D01*
X101941247Y-56925124D02*
X102036485Y-57401314D01*
X101369819Y-55734647D02*
X102179342Y-55734647D01*
X102179342Y-55734647D02*
X102274580Y-55687028D01*
X102274580Y-55687028D02*
X102322200Y-55639409D01*
X102322200Y-55639409D02*
X102369819Y-55544171D01*
X102369819Y-55544171D02*
X102369819Y-55353695D01*
X102369819Y-55353695D02*
X102322200Y-55258457D01*
X102322200Y-55258457D02*
X102274580Y-55210838D01*
X102274580Y-55210838D02*
X102179342Y-55163219D01*
X102179342Y-55163219D02*
X101369819Y-55163219D01*
X101703152Y-54687028D02*
X102369819Y-54687028D01*
X101798390Y-54687028D02*
X101750771Y-54639409D01*
X101750771Y-54639409D02*
X101703152Y-54544171D01*
X101703152Y-54544171D02*
X101703152Y-54401314D01*
X101703152Y-54401314D02*
X101750771Y-54306076D01*
X101750771Y-54306076D02*
X101846009Y-54258457D01*
X101846009Y-54258457D02*
X102369819Y-54258457D01*
X102369819Y-53639409D02*
X102322200Y-53734647D01*
X102322200Y-53734647D02*
X102274580Y-53782266D01*
X102274580Y-53782266D02*
X102179342Y-53829885D01*
X102179342Y-53829885D02*
X101893628Y-53829885D01*
X101893628Y-53829885D02*
X101798390Y-53782266D01*
X101798390Y-53782266D02*
X101750771Y-53734647D01*
X101750771Y-53734647D02*
X101703152Y-53639409D01*
X101703152Y-53639409D02*
X101703152Y-53496552D01*
X101703152Y-53496552D02*
X101750771Y-53401314D01*
X101750771Y-53401314D02*
X101798390Y-53353695D01*
X101798390Y-53353695D02*
X101893628Y-53306076D01*
X101893628Y-53306076D02*
X102179342Y-53306076D01*
X102179342Y-53306076D02*
X102274580Y-53353695D01*
X102274580Y-53353695D02*
X102322200Y-53401314D01*
X102322200Y-53401314D02*
X102369819Y-53496552D01*
X102369819Y-53496552D02*
X102369819Y-53639409D01*
X102322200Y-52163218D02*
X102369819Y-52020361D01*
X102369819Y-52020361D02*
X102369819Y-51782266D01*
X102369819Y-51782266D02*
X102322200Y-51687028D01*
X102322200Y-51687028D02*
X102274580Y-51639409D01*
X102274580Y-51639409D02*
X102179342Y-51591790D01*
X102179342Y-51591790D02*
X102084104Y-51591790D01*
X102084104Y-51591790D02*
X101988866Y-51639409D01*
X101988866Y-51639409D02*
X101941247Y-51687028D01*
X101941247Y-51687028D02*
X101893628Y-51782266D01*
X101893628Y-51782266D02*
X101846009Y-51972742D01*
X101846009Y-51972742D02*
X101798390Y-52067980D01*
X101798390Y-52067980D02*
X101750771Y-52115599D01*
X101750771Y-52115599D02*
X101655533Y-52163218D01*
X101655533Y-52163218D02*
X101560295Y-52163218D01*
X101560295Y-52163218D02*
X101465057Y-52115599D01*
X101465057Y-52115599D02*
X101417438Y-52067980D01*
X101417438Y-52067980D02*
X101369819Y-51972742D01*
X101369819Y-51972742D02*
X101369819Y-51734647D01*
X101369819Y-51734647D02*
X101417438Y-51591790D01*
X102369819Y-51163218D02*
X101369819Y-51163218D01*
X102369819Y-50734647D02*
X101846009Y-50734647D01*
X101846009Y-50734647D02*
X101750771Y-50782266D01*
X101750771Y-50782266D02*
X101703152Y-50877504D01*
X101703152Y-50877504D02*
X101703152Y-51020361D01*
X101703152Y-51020361D02*
X101750771Y-51115599D01*
X101750771Y-51115599D02*
X101798390Y-51163218D01*
X102369819Y-50258456D02*
X101703152Y-50258456D01*
X101369819Y-50258456D02*
X101417438Y-50306075D01*
X101417438Y-50306075D02*
X101465057Y-50258456D01*
X101465057Y-50258456D02*
X101417438Y-50210837D01*
X101417438Y-50210837D02*
X101369819Y-50258456D01*
X101369819Y-50258456D02*
X101465057Y-50258456D01*
X102322200Y-49401314D02*
X102369819Y-49496552D01*
X102369819Y-49496552D02*
X102369819Y-49687028D01*
X102369819Y-49687028D02*
X102322200Y-49782266D01*
X102322200Y-49782266D02*
X102226961Y-49829885D01*
X102226961Y-49829885D02*
X101846009Y-49829885D01*
X101846009Y-49829885D02*
X101750771Y-49782266D01*
X101750771Y-49782266D02*
X101703152Y-49687028D01*
X101703152Y-49687028D02*
X101703152Y-49496552D01*
X101703152Y-49496552D02*
X101750771Y-49401314D01*
X101750771Y-49401314D02*
X101846009Y-49353695D01*
X101846009Y-49353695D02*
X101941247Y-49353695D01*
X101941247Y-49353695D02*
X102036485Y-49829885D01*
X102369819Y-48782266D02*
X102322200Y-48877504D01*
X102322200Y-48877504D02*
X102226961Y-48925123D01*
X102226961Y-48925123D02*
X101369819Y-48925123D01*
X102369819Y-47972742D02*
X101369819Y-47972742D01*
X102322200Y-47972742D02*
X102369819Y-48067980D01*
X102369819Y-48067980D02*
X102369819Y-48258456D01*
X102369819Y-48258456D02*
X102322200Y-48353694D01*
X102322200Y-48353694D02*
X102274580Y-48401313D01*
X102274580Y-48401313D02*
X102179342Y-48448932D01*
X102179342Y-48448932D02*
X101893628Y-48448932D01*
X101893628Y-48448932D02*
X101798390Y-48401313D01*
X101798390Y-48401313D02*
X101750771Y-48353694D01*
X101750771Y-48353694D02*
X101703152Y-48258456D01*
X101703152Y-48258456D02*
X101703152Y-48067980D01*
X101703152Y-48067980D02*
X101750771Y-47972742D01*
X103027255Y-70269819D02*
X103217731Y-70269819D01*
X103217731Y-70269819D02*
X103312969Y-70317438D01*
X103312969Y-70317438D02*
X103408207Y-70412676D01*
X103408207Y-70412676D02*
X103455826Y-70603152D01*
X103455826Y-70603152D02*
X103455826Y-70936485D01*
X103455826Y-70936485D02*
X103408207Y-71126961D01*
X103408207Y-71126961D02*
X103312969Y-71222200D01*
X103312969Y-71222200D02*
X103217731Y-71269819D01*
X103217731Y-71269819D02*
X103027255Y-71269819D01*
X103027255Y-71269819D02*
X102932017Y-71222200D01*
X102932017Y-71222200D02*
X102836779Y-71126961D01*
X102836779Y-71126961D02*
X102789160Y-70936485D01*
X102789160Y-70936485D02*
X102789160Y-70603152D01*
X102789160Y-70603152D02*
X102836779Y-70412676D01*
X102836779Y-70412676D02*
X102932017Y-70317438D01*
X102932017Y-70317438D02*
X103027255Y-70269819D01*
X104360588Y-71269819D02*
X103884398Y-71269819D01*
X103884398Y-71269819D02*
X103884398Y-70269819D01*
X104693922Y-70746009D02*
X105027255Y-70746009D01*
X105170112Y-71269819D02*
X104693922Y-71269819D01*
X104693922Y-71269819D02*
X104693922Y-70269819D01*
X104693922Y-70269819D02*
X105170112Y-70269819D01*
X105598684Y-71269819D02*
X105598684Y-70269819D01*
X105598684Y-70269819D02*
X105836779Y-70269819D01*
X105836779Y-70269819D02*
X105979636Y-70317438D01*
X105979636Y-70317438D02*
X106074874Y-70412676D01*
X106074874Y-70412676D02*
X106122493Y-70507914D01*
X106122493Y-70507914D02*
X106170112Y-70698390D01*
X106170112Y-70698390D02*
X106170112Y-70841247D01*
X106170112Y-70841247D02*
X106122493Y-71031723D01*
X106122493Y-71031723D02*
X106074874Y-71126961D01*
X106074874Y-71126961D02*
X105979636Y-71222200D01*
X105979636Y-71222200D02*
X105836779Y-71269819D01*
X105836779Y-71269819D02*
X105598684Y-71269819D01*
X124836779Y-67894819D02*
X124836779Y-66894819D01*
X124836779Y-66894819D02*
X125170112Y-67609104D01*
X125170112Y-67609104D02*
X125503445Y-66894819D01*
X125503445Y-66894819D02*
X125503445Y-67894819D01*
X125979636Y-67894819D02*
X125979636Y-66894819D01*
X125979636Y-66894819D02*
X126360588Y-66894819D01*
X126360588Y-66894819D02*
X126455826Y-66942438D01*
X126455826Y-66942438D02*
X126503445Y-66990057D01*
X126503445Y-66990057D02*
X126551064Y-67085295D01*
X126551064Y-67085295D02*
X126551064Y-67228152D01*
X126551064Y-67228152D02*
X126503445Y-67323390D01*
X126503445Y-67323390D02*
X126455826Y-67371009D01*
X126455826Y-67371009D02*
X126360588Y-67418628D01*
X126360588Y-67418628D02*
X125979636Y-67418628D01*
X126979636Y-66894819D02*
X126979636Y-67704342D01*
X126979636Y-67704342D02*
X127027255Y-67799580D01*
X127027255Y-67799580D02*
X127074874Y-67847200D01*
X127074874Y-67847200D02*
X127170112Y-67894819D01*
X127170112Y-67894819D02*
X127360588Y-67894819D01*
X127360588Y-67894819D02*
X127455826Y-67847200D01*
X127455826Y-67847200D02*
X127503445Y-67799580D01*
X127503445Y-67799580D02*
X127551064Y-67704342D01*
X127551064Y-67704342D02*
X127551064Y-66894819D01*
X128455826Y-66894819D02*
X128265350Y-66894819D01*
X128265350Y-66894819D02*
X128170112Y-66942438D01*
X128170112Y-66942438D02*
X128122493Y-66990057D01*
X128122493Y-66990057D02*
X128027255Y-67132914D01*
X128027255Y-67132914D02*
X127979636Y-67323390D01*
X127979636Y-67323390D02*
X127979636Y-67704342D01*
X127979636Y-67704342D02*
X128027255Y-67799580D01*
X128027255Y-67799580D02*
X128074874Y-67847200D01*
X128074874Y-67847200D02*
X128170112Y-67894819D01*
X128170112Y-67894819D02*
X128360588Y-67894819D01*
X128360588Y-67894819D02*
X128455826Y-67847200D01*
X128455826Y-67847200D02*
X128503445Y-67799580D01*
X128503445Y-67799580D02*
X128551064Y-67704342D01*
X128551064Y-67704342D02*
X128551064Y-67466247D01*
X128551064Y-67466247D02*
X128503445Y-67371009D01*
X128503445Y-67371009D02*
X128455826Y-67323390D01*
X128455826Y-67323390D02*
X128360588Y-67275771D01*
X128360588Y-67275771D02*
X128170112Y-67275771D01*
X128170112Y-67275771D02*
X128074874Y-67323390D01*
X128074874Y-67323390D02*
X128027255Y-67371009D01*
X128027255Y-67371009D02*
X127979636Y-67466247D01*
X129170112Y-66894819D02*
X129265350Y-66894819D01*
X129265350Y-66894819D02*
X129360588Y-66942438D01*
X129360588Y-66942438D02*
X129408207Y-66990057D01*
X129408207Y-66990057D02*
X129455826Y-67085295D01*
X129455826Y-67085295D02*
X129503445Y-67275771D01*
X129503445Y-67275771D02*
X129503445Y-67513866D01*
X129503445Y-67513866D02*
X129455826Y-67704342D01*
X129455826Y-67704342D02*
X129408207Y-67799580D01*
X129408207Y-67799580D02*
X129360588Y-67847200D01*
X129360588Y-67847200D02*
X129265350Y-67894819D01*
X129265350Y-67894819D02*
X129170112Y-67894819D01*
X129170112Y-67894819D02*
X129074874Y-67847200D01*
X129074874Y-67847200D02*
X129027255Y-67799580D01*
X129027255Y-67799580D02*
X128979636Y-67704342D01*
X128979636Y-67704342D02*
X128932017Y-67513866D01*
X128932017Y-67513866D02*
X128932017Y-67275771D01*
X128932017Y-67275771D02*
X128979636Y-67085295D01*
X128979636Y-67085295D02*
X129027255Y-66990057D01*
X129027255Y-66990057D02*
X129074874Y-66942438D01*
X129074874Y-66942438D02*
X129170112Y-66894819D01*
X130408207Y-66894819D02*
X129932017Y-66894819D01*
X129932017Y-66894819D02*
X129884398Y-67371009D01*
X129884398Y-67371009D02*
X129932017Y-67323390D01*
X129932017Y-67323390D02*
X130027255Y-67275771D01*
X130027255Y-67275771D02*
X130265350Y-67275771D01*
X130265350Y-67275771D02*
X130360588Y-67323390D01*
X130360588Y-67323390D02*
X130408207Y-67371009D01*
X130408207Y-67371009D02*
X130455826Y-67466247D01*
X130455826Y-67466247D02*
X130455826Y-67704342D01*
X130455826Y-67704342D02*
X130408207Y-67799580D01*
X130408207Y-67799580D02*
X130360588Y-67847200D01*
X130360588Y-67847200D02*
X130265350Y-67894819D01*
X130265350Y-67894819D02*
X130027255Y-67894819D01*
X130027255Y-67894819D02*
X129932017Y-67847200D01*
X129932017Y-67847200D02*
X129884398Y-67799580D01*
X131074874Y-66894819D02*
X131170112Y-66894819D01*
X131170112Y-66894819D02*
X131265350Y-66942438D01*
X131265350Y-66942438D02*
X131312969Y-66990057D01*
X131312969Y-66990057D02*
X131360588Y-67085295D01*
X131360588Y-67085295D02*
X131408207Y-67275771D01*
X131408207Y-67275771D02*
X131408207Y-67513866D01*
X131408207Y-67513866D02*
X131360588Y-67704342D01*
X131360588Y-67704342D02*
X131312969Y-67799580D01*
X131312969Y-67799580D02*
X131265350Y-67847200D01*
X131265350Y-67847200D02*
X131170112Y-67894819D01*
X131170112Y-67894819D02*
X131074874Y-67894819D01*
X131074874Y-67894819D02*
X130979636Y-67847200D01*
X130979636Y-67847200D02*
X130932017Y-67799580D01*
X130932017Y-67799580D02*
X130884398Y-67704342D01*
X130884398Y-67704342D02*
X130836779Y-67513866D01*
X130836779Y-67513866D02*
X130836779Y-67275771D01*
X130836779Y-67275771D02*
X130884398Y-67085295D01*
X130884398Y-67085295D02*
X130932017Y-66990057D01*
X130932017Y-66990057D02*
X130979636Y-66942438D01*
X130979636Y-66942438D02*
X131074874Y-66894819D01*
X128200000Y-92900000D02*
X128200000Y-88900000D01*
X118770000Y-95900000D02*
X122770000Y-95900000D01*
X101200000Y-69000000D02*
X101200000Y-73000000D01*
X101200000Y-69000000D02*
X105200000Y-69000000D01*
X132000000Y-68100000D02*
X128000000Y-68100000D01*
X132000000Y-68100000D02*
X132000000Y-64000000D01*
X110900000Y-52000000D02*
X114900000Y-52000000D01*
X110900000Y-52000000D02*
X110900000Y-56000000D01*
X107564819Y-71233333D02*
X108279104Y-71233333D01*
X108279104Y-71233333D02*
X108421961Y-71280952D01*
X108421961Y-71280952D02*
X108517200Y-71376190D01*
X108517200Y-71376190D02*
X108564819Y-71519047D01*
X108564819Y-71519047D02*
X108564819Y-71614285D01*
X107564819Y-70852380D02*
X107564819Y-70185714D01*
X107564819Y-70185714D02*
X108564819Y-70614285D01*
X152004819Y-60083333D02*
X152719104Y-60083333D01*
X152719104Y-60083333D02*
X152861961Y-60130952D01*
X152861961Y-60130952D02*
X152957200Y-60226190D01*
X152957200Y-60226190D02*
X153004819Y-60369047D01*
X153004819Y-60369047D02*
X153004819Y-60464285D01*
X152004819Y-59130952D02*
X152004819Y-59607142D01*
X152004819Y-59607142D02*
X152481009Y-59654761D01*
X152481009Y-59654761D02*
X152433390Y-59607142D01*
X152433390Y-59607142D02*
X152385771Y-59511904D01*
X152385771Y-59511904D02*
X152385771Y-59273809D01*
X152385771Y-59273809D02*
X152433390Y-59178571D01*
X152433390Y-59178571D02*
X152481009Y-59130952D01*
X152481009Y-59130952D02*
X152576247Y-59083333D01*
X152576247Y-59083333D02*
X152814342Y-59083333D01*
X152814342Y-59083333D02*
X152909580Y-59130952D01*
X152909580Y-59130952D02*
X152957200Y-59178571D01*
X152957200Y-59178571D02*
X153004819Y-59273809D01*
X153004819Y-59273809D02*
X153004819Y-59511904D01*
X153004819Y-59511904D02*
X152957200Y-59607142D01*
X152957200Y-59607142D02*
X152909580Y-59654761D01*
X137652843Y-62601890D02*
X137652843Y-61601890D01*
X137652843Y-61601890D02*
X137890938Y-61601890D01*
X137890938Y-61601890D02*
X138033795Y-61649509D01*
X138033795Y-61649509D02*
X138129033Y-61744747D01*
X138129033Y-61744747D02*
X138176652Y-61839985D01*
X138176652Y-61839985D02*
X138224271Y-62030461D01*
X138224271Y-62030461D02*
X138224271Y-62173318D01*
X138224271Y-62173318D02*
X138176652Y-62363794D01*
X138176652Y-62363794D02*
X138129033Y-62459032D01*
X138129033Y-62459032D02*
X138033795Y-62554271D01*
X138033795Y-62554271D02*
X137890938Y-62601890D01*
X137890938Y-62601890D02*
X137652843Y-62601890D01*
X139176652Y-62601890D02*
X138605224Y-62601890D01*
X138890938Y-62601890D02*
X138890938Y-61601890D01*
X138890938Y-61601890D02*
X138795700Y-61744747D01*
X138795700Y-61744747D02*
X138700462Y-61839985D01*
X138700462Y-61839985D02*
X138605224Y-61887604D01*
X132514819Y-54358333D02*
X133229104Y-54358333D01*
X133229104Y-54358333D02*
X133371961Y-54405952D01*
X133371961Y-54405952D02*
X133467200Y-54501190D01*
X133467200Y-54501190D02*
X133514819Y-54644047D01*
X133514819Y-54644047D02*
X133514819Y-54739285D01*
X132514819Y-53453571D02*
X132514819Y-53644047D01*
X132514819Y-53644047D02*
X132562438Y-53739285D01*
X132562438Y-53739285D02*
X132610057Y-53786904D01*
X132610057Y-53786904D02*
X132752914Y-53882142D01*
X132752914Y-53882142D02*
X132943390Y-53929761D01*
X132943390Y-53929761D02*
X133324342Y-53929761D01*
X133324342Y-53929761D02*
X133419580Y-53882142D01*
X133419580Y-53882142D02*
X133467200Y-53834523D01*
X133467200Y-53834523D02*
X133514819Y-53739285D01*
X133514819Y-53739285D02*
X133514819Y-53548809D01*
X133514819Y-53548809D02*
X133467200Y-53453571D01*
X133467200Y-53453571D02*
X133419580Y-53405952D01*
X133419580Y-53405952D02*
X133324342Y-53358333D01*
X133324342Y-53358333D02*
X133086247Y-53358333D01*
X133086247Y-53358333D02*
X132991009Y-53405952D01*
X132991009Y-53405952D02*
X132943390Y-53453571D01*
X132943390Y-53453571D02*
X132895771Y-53548809D01*
X132895771Y-53548809D02*
X132895771Y-53739285D01*
X132895771Y-53739285D02*
X132943390Y-53834523D01*
X132943390Y-53834523D02*
X132991009Y-53882142D01*
X132991009Y-53882142D02*
X133086247Y-53929761D01*
D11*
%TO.C,SW5*%
X134500000Y-79000000D02*
X136000000Y-79000000D01*
X138500000Y-77750000D02*
X138500000Y-73250000D01*
X132000000Y-73250000D02*
X132000000Y-77750000D01*
X136000000Y-72000000D02*
X134500000Y-72000000D01*
%TO.C,SW4*%
X138250000Y-89000000D02*
X138250000Y-90500000D01*
X139500000Y-93000000D02*
X144000000Y-93000000D01*
X144000000Y-86500000D02*
X139500000Y-86500000D01*
X145250000Y-90500000D02*
X145250000Y-89000000D01*
%TO.C,SW3*%
X147250000Y-78000000D02*
X148750000Y-78000000D01*
X151250000Y-76750000D02*
X151250000Y-72250000D01*
X144750000Y-72250000D02*
X144750000Y-76750000D01*
X148750000Y-71000000D02*
X147250000Y-71000000D01*
%TO.C,SW2*%
X162500000Y-55250000D02*
X161000000Y-55250000D01*
X158500000Y-56500000D02*
X158500000Y-61000000D01*
X165000000Y-61000000D02*
X165000000Y-56500000D01*
X161000000Y-62250000D02*
X162500000Y-62250000D01*
%TO.C,SW1*%
X163500000Y-70500000D02*
X162000000Y-70500000D01*
X159500000Y-71750000D02*
X159500000Y-76250000D01*
X166000000Y-76250000D02*
X166000000Y-71750000D01*
X162000000Y-77500000D02*
X163500000Y-77500000D01*
%TO.C,RV1*%
X165505000Y-83560000D02*
X155735000Y-83560000D01*
X165505000Y-83560000D02*
X165505000Y-93330000D01*
X155735000Y-83560000D02*
X155735000Y-93330000D01*
X165505000Y-93330000D02*
X155735000Y-93330000D01*
%TO.C,R6*%
X130000000Y-71380000D02*
X130000000Y-72150000D01*
X131370000Y-72150000D02*
X128630000Y-72150000D01*
X128630000Y-72150000D02*
X128630000Y-78690000D01*
X131370000Y-78690000D02*
X131370000Y-72150000D01*
X128630000Y-78690000D02*
X131370000Y-78690000D01*
X130000000Y-79460000D02*
X130000000Y-78690000D01*
%TO.C,R5*%
X137570000Y-84360000D02*
X138340000Y-84360000D01*
X138340000Y-82990000D02*
X138340000Y-85730000D01*
X138340000Y-85730000D02*
X144880000Y-85730000D01*
X144880000Y-82990000D02*
X138340000Y-82990000D01*
X144880000Y-85730000D02*
X144880000Y-82990000D01*
X145650000Y-84360000D02*
X144880000Y-84360000D01*
%TO.C,R4*%
X142660000Y-78600000D02*
X142660000Y-77830000D01*
X141290000Y-77830000D02*
X144030000Y-77830000D01*
X144030000Y-77830000D02*
X144030000Y-71290000D01*
X141290000Y-71290000D02*
X141290000Y-77830000D01*
X144030000Y-71290000D02*
X141290000Y-71290000D01*
X142660000Y-70520000D02*
X142660000Y-71290000D01*
%TO.C,R3*%
X156500000Y-55040000D02*
X156500000Y-55810000D01*
X157870000Y-55810000D02*
X155130000Y-55810000D01*
X155130000Y-55810000D02*
X155130000Y-62350000D01*
X157870000Y-62350000D02*
X157870000Y-55810000D01*
X155130000Y-62350000D02*
X157870000Y-62350000D01*
X156500000Y-63120000D02*
X156500000Y-62350000D01*
%TO.C,R2*%
X157500000Y-70210000D02*
X157500000Y-70980000D01*
X158870000Y-70980000D02*
X156130000Y-70980000D01*
X156130000Y-70980000D02*
X156130000Y-77520000D01*
X158870000Y-77520000D02*
X158870000Y-70980000D01*
X156130000Y-77520000D02*
X158870000Y-77520000D01*
X157500000Y-78290000D02*
X157500000Y-77520000D01*
%TO.C,R1*%
X141500000Y-55710000D02*
X141500000Y-56480000D01*
X142870000Y-56480000D02*
X140130000Y-56480000D01*
X140130000Y-56480000D02*
X140130000Y-63020000D01*
X142870000Y-63020000D02*
X142870000Y-56480000D01*
X140130000Y-63020000D02*
X142870000Y-63020000D01*
X141500000Y-63790000D02*
X141500000Y-63020000D01*
%TO.C,J7*%
X112150000Y-72230000D02*
X119830000Y-72230000D01*
X112150000Y-72230000D02*
X112150000Y-69570000D01*
X119830000Y-72230000D02*
X119830000Y-69570000D01*
X109550000Y-70900000D02*
X109550000Y-69570000D01*
X109550000Y-69570000D02*
X110880000Y-69570000D01*
X112150000Y-69570000D02*
X119830000Y-69570000D01*
%TO.C,J5*%
X151750000Y-54400000D02*
X150500000Y-54400000D01*
X151460000Y-54690000D02*
X145490000Y-54690000D01*
X145490000Y-54690000D02*
X145490000Y-64810000D01*
X151450000Y-54700000D02*
X150700000Y-54700000D01*
X150700000Y-54700000D02*
X150700000Y-56500000D01*
X149200000Y-54700000D02*
X149200000Y-55450000D01*
X149200000Y-55450000D02*
X146250000Y-55450000D01*
X146250000Y-55450000D02*
X146250000Y-59750000D01*
X151750000Y-55650000D02*
X151750000Y-54400000D01*
X151450000Y-56500000D02*
X151450000Y-54700000D01*
X150700000Y-56500000D02*
X151450000Y-56500000D01*
X151450000Y-58000000D02*
X150700000Y-58000000D01*
X150700000Y-58000000D02*
X150700000Y-61500000D01*
X151450000Y-61500000D02*
X151450000Y-58000000D01*
X150700000Y-61500000D02*
X151450000Y-61500000D01*
X151450000Y-63000000D02*
X150700000Y-63000000D01*
X150700000Y-63000000D02*
X150700000Y-64800000D01*
X149200000Y-64050000D02*
X146250000Y-64050000D01*
X146250000Y-64050000D02*
X146250000Y-59750000D01*
X151450000Y-64800000D02*
X151450000Y-63000000D01*
X150700000Y-64800000D02*
X151450000Y-64800000D01*
X149200000Y-64800000D02*
X149200000Y-64050000D01*
X151460000Y-64810000D02*
X151460000Y-54690000D01*
X145490000Y-64810000D02*
X151460000Y-64810000D01*
%TO.C,D1*%
X133935000Y-56625000D02*
X133935000Y-59715000D01*
X133935000Y-56625170D02*
G75*
G02*
X139485000Y-58169952I2560000J-1544830D01*
G01*
X139485000Y-58170048D02*
G75*
G02*
X133935000Y-59714830I-2990000J48D01*
G01*
X138995000Y-58170000D02*
G75*
G02*
X133995000Y-58170000I-2500000J0D01*
G01*
X133995000Y-58170000D02*
G75*
G02*
X138995000Y-58170000I2500000J0D01*
G01*
%TO.C,J1*%
X126610000Y-96130000D02*
X127940000Y-96130000D01*
X126610000Y-97460000D02*
X126610000Y-96130000D01*
X129210000Y-96130000D02*
X147050000Y-96130000D01*
X129210000Y-98790000D02*
X129210000Y-96130000D01*
X129210000Y-98790000D02*
X147050000Y-98790000D01*
X147050000Y-98790000D02*
X147050000Y-96130000D01*
%TO.C,J3*%
X149470000Y-96130000D02*
X150800000Y-96130000D01*
X149470000Y-97460000D02*
X149470000Y-96130000D01*
X152070000Y-96130000D02*
X164830000Y-96130000D01*
X152070000Y-98790000D02*
X152070000Y-96130000D01*
X152070000Y-98790000D02*
X164830000Y-98790000D01*
X164830000Y-98790000D02*
X164830000Y-96130000D01*
%TO.C,J2*%
X142986000Y-50530000D02*
X142986000Y-47870000D01*
X120066000Y-50530000D02*
X142986000Y-50530000D01*
X120066000Y-50530000D02*
X120066000Y-47870000D01*
X120066000Y-47870000D02*
X142986000Y-47870000D01*
X117466000Y-49200000D02*
X117466000Y-47870000D01*
X117466000Y-47870000D02*
X118796000Y-47870000D01*
%TO.C,J4*%
X164830000Y-50530000D02*
X164830000Y-47870000D01*
X146990000Y-50530000D02*
X164830000Y-50530000D01*
X146990000Y-50530000D02*
X146990000Y-47870000D01*
X146990000Y-47870000D02*
X164830000Y-47870000D01*
X144390000Y-49200000D02*
X144390000Y-47870000D01*
X144390000Y-47870000D02*
X145720000Y-47870000D01*
%TO.C,J6*%
X129020000Y-52695000D02*
X111180000Y-52695000D01*
X129020000Y-52695000D02*
X129020000Y-55355000D01*
X111180000Y-52695000D02*
X111180000Y-55355000D01*
X131620000Y-54025000D02*
X131620000Y-55355000D01*
X131620000Y-55355000D02*
X130290000Y-55355000D01*
X129020000Y-55355000D02*
X111180000Y-55355000D01*
%TD*%
M02*
