%TF.GenerationSoftware,KiCad,Pcbnew,8.0.8*%
%TF.CreationDate,2025-02-03T21:16:33-07:00*%
%TF.ProjectId,Uno_Shield_ThermoProbe,556e6f5f-5368-4696-956c-645f54686572,rev?*%
%TF.SameCoordinates,Original*%
%TF.FileFunction,Copper,L1,Top*%
%TF.FilePolarity,Positive*%
%FSLAX46Y46*%
G04 Gerber Fmt 4.6, Leading zero omitted, Abs format (unit mm)*
G04 Created by KiCad (PCBNEW 8.0.8) date 2025-02-03 21:16:33*
%MOMM*%
%LPD*%
G01*
G04 APERTURE LIST*
G04 Aperture macros list*
%AMRoundRect*
0 Rectangle with rounded corners*
0 $1 Rounding radius*
0 $2 $3 $4 $5 $6 $7 $8 $9 X,Y pos of 4 corners*
0 Add a 4 corners polygon primitive as box body*
4,1,4,$2,$3,$4,$5,$6,$7,$8,$9,$2,$3,0*
0 Add four circle primitives for the rounded corners*
1,1,$1+$1,$2,$3*
1,1,$1+$1,$4,$5*
1,1,$1+$1,$6,$7*
1,1,$1+$1,$8,$9*
0 Add four rect primitives between the rounded corners*
20,1,$1+$1,$2,$3,$4,$5,0*
20,1,$1+$1,$4,$5,$6,$7,0*
20,1,$1+$1,$6,$7,$8,$9,0*
20,1,$1+$1,$8,$9,$2,$3,0*%
G04 Aperture macros list end*
%TA.AperFunction,ComponentPad*%
%ADD10R,1.700000X1.700000*%
%TD*%
%TA.AperFunction,ComponentPad*%
%ADD11O,1.700000X1.700000*%
%TD*%
%TA.AperFunction,ComponentPad*%
%ADD12C,1.600000*%
%TD*%
%TA.AperFunction,ComponentPad*%
%ADD13O,1.600000X1.600000*%
%TD*%
%TA.AperFunction,ComponentPad*%
%ADD14C,2.000000*%
%TD*%
%TA.AperFunction,ComponentPad*%
%ADD15RoundRect,0.250000X-0.725000X0.600000X-0.725000X-0.600000X0.725000X-0.600000X0.725000X0.600000X0*%
%TD*%
%TA.AperFunction,ComponentPad*%
%ADD16O,1.950000X1.700000*%
%TD*%
%TA.AperFunction,ComponentPad*%
%ADD17R,1.800000X1.800000*%
%TD*%
%TA.AperFunction,ComponentPad*%
%ADD18C,1.800000*%
%TD*%
%TA.AperFunction,ComponentPad*%
%ADD19C,1.440000*%
%TD*%
%TA.AperFunction,Conductor*%
%ADD20C,0.508000*%
%TD*%
G04 APERTURE END LIST*
D10*
%TO.P,J1,1,Pin_1*%
%TO.N,unconnected-(J1-Pin_1-Pad1)*%
X127940000Y-97460000D03*
D11*
%TO.P,J1,2,Pin_2*%
%TO.N,/IOREF*%
X130480000Y-97460000D03*
%TO.P,J1,3,Pin_3*%
%TO.N,/~{RESET}*%
X133020000Y-97460000D03*
%TO.P,J1,4,Pin_4*%
%TO.N,+3V3*%
X135560000Y-97460000D03*
%TO.P,J1,5,Pin_5*%
%TO.N,+5V*%
X138100000Y-97460000D03*
%TO.P,J1,6,Pin_6*%
%TO.N,GND*%
X140640000Y-97460000D03*
%TO.P,J1,7,Pin_7*%
X143180000Y-97460000D03*
%TO.P,J1,8,Pin_8*%
%TO.N,VCC*%
X145720000Y-97460000D03*
%TD*%
D10*
%TO.P,J3,1,Pin_1*%
%TO.N,/Temp_POT*%
X150800000Y-97460000D03*
D11*
%TO.P,J3,2,Pin_2*%
%TO.N,/A1*%
X153340000Y-97460000D03*
%TO.P,J3,3,Pin_3*%
%TO.N,/A2*%
X155880000Y-97460000D03*
%TO.P,J3,4,Pin_4*%
%TO.N,/A3*%
X158420000Y-97460000D03*
%TO.P,J3,5,Pin_5*%
%TO.N,/SDA{slash}A4*%
X160960000Y-97460000D03*
%TO.P,J3,6,Pin_6*%
%TO.N,/SCL{slash}A5*%
X163500000Y-97460000D03*
%TD*%
D10*
%TO.P,J2,1,Pin_1*%
%TO.N,/I2C_SCL*%
X118796000Y-49200000D03*
D11*
%TO.P,J2,2,Pin_2*%
%TO.N,/I2C_SDA*%
X121336000Y-49200000D03*
%TO.P,J2,3,Pin_3*%
%TO.N,/AREF*%
X123876000Y-49200000D03*
%TO.P,J2,4,Pin_4*%
%TO.N,GND*%
X126416000Y-49200000D03*
%TO.P,J2,5,Pin_5*%
%TO.N,/Button_Light*%
X128956000Y-49200000D03*
%TO.P,J2,6,Pin_6*%
%TO.N,/12*%
X131496000Y-49200000D03*
%TO.P,J2,7,Pin_7*%
%TO.N,/\u002A11*%
X134036000Y-49200000D03*
%TO.P,J2,8,Pin_8*%
%TO.N,/\u002A10*%
X136576000Y-49200000D03*
%TO.P,J2,9,Pin_9*%
%TO.N,/LED_Backlight*%
X139116000Y-49200000D03*
%TO.P,J2,10,Pin_10*%
%TO.N,/Temp_Sensor*%
X141656000Y-49200000D03*
%TD*%
D10*
%TO.P,J4,1,Pin_1*%
%TO.N,/7*%
X145720000Y-49200000D03*
D11*
%TO.P,J4,2,Pin_2*%
%TO.N,unconnected-(J4-Pin_2-Pad2)*%
X148260000Y-49200000D03*
%TO.P,J4,3,Pin_3*%
%TO.N,/Button_Units*%
X150800000Y-49200000D03*
%TO.P,J4,4,Pin_4*%
%TO.N,/Button_OnOff*%
X153340000Y-49200000D03*
%TO.P,J4,5,Pin_5*%
%TO.N,/Button_Lock*%
X155880000Y-49200000D03*
%TO.P,J4,6,Pin_6*%
%TO.N,/Button_Cal*%
X158420000Y-49200000D03*
%TO.P,J4,7,Pin_7*%
%TO.N,/TX{slash}1*%
X160960000Y-49200000D03*
%TO.P,J4,8,Pin_8*%
%TO.N,/RX{slash}0*%
X163500000Y-49200000D03*
%TD*%
D12*
%TO.P,R6,1*%
%TO.N,/Button_Light*%
X130000000Y-80500000D03*
D13*
%TO.P,R6,2*%
%TO.N,GND*%
X130000000Y-70340000D03*
%TD*%
D14*
%TO.P,SW4,1,A*%
%TO.N,/Button_OnOff*%
X138500000Y-87500000D03*
X145000000Y-87500000D03*
%TO.P,SW4,2,B*%
%TO.N,+5V*%
X138500000Y-92000000D03*
X145000000Y-92000000D03*
%TD*%
D12*
%TO.P,R5,1*%
%TO.N,/Button_OnOff*%
X136530000Y-84360000D03*
D13*
%TO.P,R5,2*%
%TO.N,GND*%
X146690000Y-84360000D03*
%TD*%
D15*
%TO.P,J5,1,Pin_1*%
%TO.N,GND*%
X149000000Y-57250000D03*
D16*
%TO.P,J5,2,Pin_2*%
%TO.N,/Temp_Sensor*%
X149000000Y-59750000D03*
%TO.P,J5,3,Pin_3*%
%TO.N,+5V*%
X149000000Y-62250000D03*
%TD*%
D12*
%TO.P,R2,1*%
%TO.N,/Button_Lock*%
X157500000Y-79330000D03*
D13*
%TO.P,R2,2*%
%TO.N,GND*%
X157500000Y-69170000D03*
%TD*%
D12*
%TO.P,R4,1*%
%TO.N,/Button_Units*%
X142660000Y-79640000D03*
D13*
%TO.P,R4,2*%
%TO.N,GND*%
X142660000Y-69480000D03*
%TD*%
D12*
%TO.P,R1,1*%
%TO.N,/LED_Backlight*%
X141500000Y-54670000D03*
D13*
%TO.P,R1,2*%
%TO.N,Net-(D1-A)*%
X141500000Y-64830000D03*
%TD*%
D17*
%TO.P,D1,1,K*%
%TO.N,GND*%
X135225000Y-58170000D03*
D18*
%TO.P,D1,2,A*%
%TO.N,Net-(D1-A)*%
X137765000Y-58170000D03*
%TD*%
D11*
%TO.P,J6,8,Pin_8*%
%TO.N,unconnected-(J6-Pin_8-Pad8)*%
X130340000Y-65900000D03*
%TO.P,J6,7,Pin_7*%
%TO.N,unconnected-(J6-Pin_7-Pad7)*%
X127800000Y-65900000D03*
%TO.P,J6,6,Pin_6*%
%TO.N,unconnected-(J6-Pin_6-Pad6)*%
X125260000Y-65900000D03*
%TO.P,J6,5,Pin_5*%
%TO.N,unconnected-(J6-Pin_5-Pad5)*%
X122720000Y-65900000D03*
%TO.P,J6,4,Pin_4*%
%TO.N,/I2C_SDA*%
X120180000Y-65900000D03*
%TO.P,J6,3,Pin_3*%
%TO.N,/I2C_SCL*%
X117640000Y-65900000D03*
%TO.P,J6,2,Pin_2*%
%TO.N,GND*%
X115100000Y-65900000D03*
D10*
%TO.P,J6,1,Pin_1*%
%TO.N,+5V*%
X112560000Y-65900000D03*
%TD*%
D12*
%TO.P,R3,1*%
%TO.N,/Button_Cal*%
X156500000Y-64160000D03*
D13*
%TO.P,R3,2*%
%TO.N,GND*%
X156500000Y-54000000D03*
%TD*%
D14*
%TO.P,SW2,1,A*%
%TO.N,/Button_Cal*%
X159500000Y-62000000D03*
X159500000Y-55500000D03*
%TO.P,SW2,2,B*%
%TO.N,+5V*%
X164000000Y-62000000D03*
X164000000Y-55500000D03*
%TD*%
%TO.P,SW5,1,A*%
%TO.N,/Button_Light*%
X133000000Y-78750000D03*
X133000000Y-72250000D03*
%TO.P,SW5,2,B*%
%TO.N,+5V*%
X137500000Y-78750000D03*
X137500000Y-72250000D03*
%TD*%
%TO.P,SW3,1,A*%
%TO.N,/Button_Units*%
X145750000Y-77750000D03*
X145750000Y-71250000D03*
%TO.P,SW3,2,B*%
%TO.N,+5V*%
X150250000Y-77750000D03*
X150250000Y-71250000D03*
%TD*%
%TO.P,SW1,1,A*%
%TO.N,/Button_Lock*%
X160500000Y-77250000D03*
X160500000Y-70750000D03*
%TO.P,SW1,2,B*%
%TO.N,+5V*%
X165000000Y-77250000D03*
X165000000Y-70750000D03*
%TD*%
D10*
%TO.P,J7,1,Pin_1*%
%TO.N,GND*%
X111100000Y-71475000D03*
D11*
%TO.P,J7,2,Pin_2*%
%TO.N,+5V*%
X113640000Y-71475000D03*
%TO.P,J7,3,Pin_3*%
%TO.N,/I2C_SCL*%
X116180000Y-71475000D03*
%TO.P,J7,4,Pin_4*%
%TO.N,/I2C_SDA*%
X118720000Y-71475000D03*
%TD*%
D19*
%TO.P,RV1,1,1*%
%TO.N,+5V*%
X158080000Y-88460000D03*
%TO.P,RV1,2,2*%
%TO.N,/Temp_POT*%
X160620000Y-91000000D03*
%TO.P,RV1,3,3*%
%TO.N,GND*%
X163160000Y-88460000D03*
%TD*%
D20*
%TO.N,/I2C_SDA*%
X121400000Y-66899953D02*
G75*
G02*
X120059984Y-70134984I-4575100J53D01*
G01*
X121336000Y-58621835D02*
G75*
G02*
X120740490Y-60059490I-2033200J35D01*
G01*
X120772500Y-63327500D02*
G75*
G02*
X121399992Y-64842419I-1514900J-1514900D01*
G01*
X120740500Y-60059500D02*
G75*
G03*
X120144985Y-61497164I1437700J-1437700D01*
G01*
X120772500Y-63327500D02*
G75*
G03*
X120145046Y-63587419I-259900J-259900D01*
G01*
X120145000Y-61812580D02*
G75*
G03*
X120772494Y-63327506I2142400J-20D01*
G01*
X120145000Y-63587419D02*
X120145000Y-61812580D01*
%TO.N,/I2C_SCL*%
X118200500Y-59809500D02*
G75*
G03*
X117604985Y-61247164I1437700J-1437700D01*
G01*
X118240500Y-63140500D02*
G75*
G02*
X118875986Y-64674732I-1534200J-1534200D01*
G01*
X118876000Y-66872640D02*
G75*
G02*
X117527988Y-70126988I-4602400J40D01*
G01*
X118796000Y-58371835D02*
G75*
G02*
X118200490Y-59809490I-2033200J35D01*
G01*
X117605000Y-62502500D02*
G75*
G03*
X117606774Y-62506760I6000J0D01*
G01*
X117605000Y-62502500D02*
X117605000Y-62497500D01*
X117605000Y-62497500D02*
X117605000Y-62502500D01*
%TO.N,/Button_Lock*%
X154500000Y-63956497D02*
G75*
G03*
X155449999Y-66250001I3243500J-3D01*
G01*
X160050000Y-67650000D02*
G75*
G03*
X158963603Y-67199998I-1086400J-1086400D01*
G01*
X160050000Y-67650000D02*
G75*
G02*
X160500002Y-68736396I-1086400J-1086400D01*
G01*
X155450000Y-66250000D02*
G75*
G03*
X157743502Y-67199999I2293500J2293500D01*
G01*
%TO.N,+5V*%
X112660000Y-74860000D02*
G75*
G03*
X110825197Y-74100001I-1834800J-1834800D01*
G01*
X109916223Y-68543776D02*
G75*
G03*
X108699985Y-71480000I2936177J-2936224D01*
G01*
X108700000Y-72563603D02*
G75*
G03*
X109150001Y-73649999I1536400J3D01*
G01*
X113144228Y-75344228D02*
G75*
G02*
X113420013Y-76010000I-665728J-665772D01*
G01*
X109150000Y-73650000D02*
G75*
G03*
X110236396Y-74100002I1086400J1086400D01*
G01*
X125645000Y-86500000D02*
X125215000Y-86500000D01*
X126855000Y-86500000D02*
X126285000Y-86500000D01*
X124785000Y-86500000D02*
X125215000Y-86500000D01*
X125215000Y-86500000D02*
X124785000Y-86500000D01*
%TO.N,/Button_Lock*%
X158963603Y-67200000D02*
X157743502Y-67200000D01*
X155190000Y-49890000D02*
X155880000Y-49200000D01*
X154500000Y-63956497D02*
X154500000Y-51555807D01*
X155190000Y-49890000D02*
G75*
G03*
X154500003Y-51555807I1665800J-1665800D01*
G01*
X160500000Y-68736396D02*
X160500000Y-70750000D01*
%TO.N,+5V*%
X109916223Y-68543776D02*
X112560000Y-65900000D01*
X110825197Y-74100000D02*
X110236396Y-74100000D01*
X108700000Y-71480000D02*
X108700000Y-72563603D01*
X113420000Y-76266982D02*
X113420000Y-76010000D01*
X113420000Y-76266982D02*
X113420000Y-70900000D01*
X113420000Y-76666036D02*
X113420000Y-76533018D01*
X112660000Y-74860000D02*
X113144228Y-75344228D01*
%TO.N,/I2C_SDA*%
X120060000Y-70135000D02*
X118720000Y-71475000D01*
X121400000Y-66899953D02*
X121400000Y-64842419D01*
X120145000Y-63587419D02*
X120145000Y-66575000D01*
X120145000Y-61497164D02*
X120145000Y-61812580D01*
%TO.N,/I2C_SCL*%
X118876000Y-64674732D02*
X118876000Y-66872640D01*
X118240500Y-63140500D02*
X117606767Y-62506767D01*
X117528000Y-70127000D02*
X116180000Y-71475000D01*
X117605000Y-62502500D02*
X117605000Y-66575000D01*
X117605000Y-61247164D02*
X117605000Y-62497500D01*
X118796000Y-58371835D02*
X118796000Y-49200000D01*
%TO.N,/I2C_SDA*%
X121336000Y-58621835D02*
X121336000Y-49200000D01*
%TO.N,/Button_Light*%
X131308058Y-79191941D02*
G75*
G02*
X132375000Y-78750004I1066942J-1066959D01*
G01*
%TO.N,/Button_Cal*%
X158363015Y-62296984D02*
G75*
G02*
X159080000Y-62000008I716985J-717016D01*
G01*
X159500000Y-51043675D02*
G75*
G03*
X158959993Y-49740007I-1843700J-25D01*
G01*
%TO.N,/Button_Units*%
X143260000Y-79640000D02*
G75*
G03*
X144284259Y-79215730I0J1448500D01*
G01*
X150800000Y-63946036D02*
G75*
G02*
X149206200Y-67793785I-5441600J36D01*
G01*
%TO.N,/Button_Lock*%
X159254730Y-77575269D02*
G75*
G02*
X160040000Y-77249988I785270J-785231D01*
G01*
%TO.N,/Button_OnOff*%
X136530000Y-84945000D02*
G75*
G03*
X136943660Y-85943654I1412300J0D01*
G01*
X153340000Y-78320249D02*
G75*
G02*
X151746193Y-82167991I-5441600J49D01*
G01*
X146914212Y-87000000D02*
G75*
G02*
X145707106Y-87500006I-1207112J1207100D01*
G01*
%TO.N,/Temp_POT*%
X158940000Y-91000000D02*
G75*
G03*
X156072056Y-92187935I0J-4055900D01*
G01*
%TO.N,/LED_Backlight*%
X140408934Y-50492934D02*
G75*
G02*
X141500009Y-53127000I-2634034J-2634066D01*
G01*
%TO.N,/Temp_Sensor*%
X143639492Y-54389492D02*
G75*
G02*
X142506005Y-51653000I2736508J2736492D01*
G01*
X142081000Y-49625000D02*
G75*
G02*
X142505983Y-50651040I-1026000J-1026000D01*
G01*
%TO.N,Net-(D1-A)*%
X137765000Y-59632500D02*
G75*
G03*
X138799140Y-62129146I3530800J0D01*
G01*
%TO.N,+5V*%
X132125000Y-84875000D02*
G75*
G03*
X132655322Y-86155338I1810700J0D01*
G01*
X159880086Y-82000000D02*
G75*
G03*
X162645455Y-80854552I14J3910800D01*
G01*
X136585786Y-81375000D02*
G75*
G03*
X139000004Y-80375004I14J3414200D01*
G01*
X153047939Y-93492060D02*
G75*
G02*
X150180000Y-94679993I-2867939J2867960D01*
G01*
X113420000Y-76666036D02*
G75*
G03*
X115013800Y-80513784I5441600J36D01*
G01*
X139499827Y-94680000D02*
G75*
G03*
X138509992Y-95089992I-27J-1399800D01*
G01*
X147804238Y-62562337D02*
G75*
G02*
X148558288Y-62249995I754062J-754063D01*
G01*
X164558058Y-78941941D02*
G75*
G03*
X164999994Y-77875000I-1066958J1066941D01*
G01*
X133030330Y-89530330D02*
G75*
G03*
X131750000Y-89000012I-1280330J-1280370D01*
G01*
X165292893Y-82000000D02*
G75*
G03*
X166500002Y-81500002I7J1707100D01*
G01*
X137781801Y-94281801D02*
G75*
G02*
X138099999Y-95050000I-768201J-768199D01*
G01*
X154406206Y-83593792D02*
G75*
G02*
X158253963Y-81999988I3847794J-3847808D01*
G01*
X133770145Y-82479854D02*
G75*
G02*
X136437500Y-81374997I2667355J-2667346D01*
G01*
X138100000Y-95950000D02*
G75*
G02*
X138418198Y-95181801I1086400J0D01*
G01*
X138418198Y-95181801D02*
G75*
G02*
X138100007Y-95050000I-131798J131801D01*
G01*
X128941941Y-86941941D02*
G75*
G03*
X127875000Y-86500005I-1066941J-1066959D01*
G01*
X129125000Y-86500000D02*
G75*
G03*
X128941921Y-86941961I0J-258900D01*
G01*
X166500000Y-81500000D02*
G75*
G03*
X166999997Y-80292893I-1207100J1207100D01*
G01*
X148933137Y-94566862D02*
G75*
G02*
X148660000Y-94679992I-273137J273162D01*
G01*
X153093792Y-84906207D02*
G75*
G03*
X151499959Y-88753963I3847708J-3847793D01*
G01*
X140000000Y-72620539D02*
G75*
G02*
X141593783Y-68772774I5441500J39D01*
G01*
X144371036Y-81375000D02*
G75*
G03*
X148218785Y-79781200I-36J5441600D01*
G01*
X129125000Y-86500000D02*
G75*
G03*
X130191945Y-86058062I0J1508900D01*
G01*
X140000000Y-77960786D02*
G75*
G02*
X139000004Y-80375004I-3414200J-14D01*
G01*
X130469669Y-88469669D02*
G75*
G03*
X131750000Y-88999988I1280331J1280369D01*
G01*
X167000000Y-67121320D02*
G75*
G03*
X165500006Y-63499994I-5121300J20D01*
G01*
X151500000Y-90104953D02*
G75*
G02*
X150159984Y-93339984I-4575100J53D01*
G01*
X131594669Y-84655330D02*
G75*
G02*
X132124933Y-84875000I219631J-219670D01*
G01*
X132655330Y-83594669D02*
G75*
G03*
X132125011Y-84875000I1280370J-1280331D01*
G01*
X122500000Y-86500000D02*
G75*
G02*
X119939343Y-85439335I0J3621300D01*
G01*
X139499827Y-94680000D02*
X148660000Y-94680000D01*
X159880086Y-82000000D02*
X165292893Y-82000000D01*
X144371036Y-81375000D02*
X136585786Y-81375000D01*
X125645000Y-86500000D02*
X126285000Y-86500000D01*
X137500000Y-78750000D02*
X133770145Y-82479854D01*
X138100000Y-95950000D02*
X138100000Y-95050000D01*
X122500000Y-86500000D02*
X124785000Y-86500000D01*
X129125000Y-86500000D02*
X127875000Y-86500000D01*
X131594669Y-84655330D02*
X132655330Y-83594669D01*
X151500000Y-88753963D02*
X151500000Y-90104953D01*
X137500000Y-78750000D02*
X137500000Y-72250000D01*
X133770145Y-82479854D02*
X132655330Y-83594669D01*
X148218792Y-79781207D02*
X150250000Y-77750000D01*
X115013792Y-80513792D02*
X119939339Y-85439339D01*
X138500000Y-92000000D02*
X145000000Y-92000000D01*
X130469669Y-88469669D02*
X128941941Y-86941941D01*
X138509999Y-95089999D02*
X138418198Y-95181801D01*
X164000000Y-62000000D02*
X165500000Y-63500000D01*
X140000000Y-77960786D02*
X140000000Y-72620539D01*
X132655330Y-86155330D02*
X138500000Y-92000000D01*
X137781801Y-94281801D02*
X133030330Y-89530330D01*
X150180000Y-94680000D02*
X148660000Y-94680000D01*
X136437500Y-81375000D02*
X136585786Y-81375000D01*
X141593792Y-68772783D02*
X147804238Y-62562337D01*
X126855000Y-86500000D02*
X127140000Y-86500000D01*
X153093792Y-84906207D02*
X154406206Y-83593792D01*
X159880086Y-82000000D02*
X158253963Y-82000000D01*
X130191941Y-86058058D02*
X131594669Y-84655330D01*
X167000000Y-67121320D02*
X167000000Y-80292893D01*
X138100000Y-95950000D02*
X138100000Y-97460000D01*
X162645451Y-80854548D02*
X164558058Y-78941941D01*
X150160000Y-93340000D02*
X148933137Y-94566862D01*
X150250000Y-77750000D02*
X150250000Y-71250000D01*
X153047939Y-93492060D02*
X158080000Y-88460000D01*
X165000000Y-77250000D02*
X165000000Y-70750000D01*
X125215000Y-86500000D02*
X127875000Y-86500000D01*
X164000000Y-62000000D02*
X164000000Y-55500000D01*
%TO.N,Net-(D1-A)*%
X138799143Y-62129143D02*
X141500000Y-64830000D01*
X137765000Y-59632500D02*
X137765000Y-58170000D01*
%TO.N,/Temp_Sensor*%
X143639492Y-54389492D02*
X149000000Y-59750000D01*
X142081000Y-49625000D02*
X141656000Y-49200000D01*
X142506000Y-51653000D02*
X142506000Y-50651040D01*
%TO.N,/LED_Backlight*%
X140408934Y-50492934D02*
X139116000Y-49200000D01*
X141500000Y-53127000D02*
X141500000Y-54670000D01*
%TO.N,/Temp_POT*%
X156072060Y-92187939D02*
X150800000Y-97460000D01*
X158940000Y-91000000D02*
X160620000Y-91000000D01*
%TO.N,/Button_OnOff*%
X146914212Y-87000000D02*
X151746207Y-82168005D01*
X136530000Y-84945000D02*
X136530000Y-84360000D01*
X153340000Y-78320249D02*
X153340000Y-49200000D01*
X138500000Y-87500000D02*
X144292893Y-87500000D01*
X136943657Y-85943657D02*
X138500000Y-87500000D01*
%TO.N,/Button_Lock*%
X160500000Y-76790000D02*
X160500000Y-71158288D01*
X159254730Y-77575269D02*
X157500000Y-79330000D01*
%TO.N,/Button_Units*%
X150800000Y-63946036D02*
X150800000Y-49200000D01*
X145750000Y-71250000D02*
X149206207Y-67793792D01*
X145750000Y-77750000D02*
X144284264Y-79215735D01*
X145750000Y-71250000D02*
X145750000Y-77750000D01*
X143260000Y-79640000D02*
X142660000Y-79640000D01*
%TO.N,/Button_Cal*%
X159500000Y-55500000D02*
X159500000Y-61580000D01*
X158960000Y-49740000D02*
X158420000Y-49200000D01*
X158363015Y-62296984D02*
X156500000Y-64160000D01*
X159500000Y-51043675D02*
X159500000Y-55500000D01*
%TO.N,/Button_Light*%
X131308058Y-79191941D02*
X130000000Y-80500000D01*
X133000000Y-72250000D02*
X133000000Y-78125000D01*
X131406207Y-51650207D02*
X128956000Y-49200000D01*
X133000000Y-72250000D02*
X133000000Y-55497963D01*
X131406207Y-51650207D02*
G75*
G02*
X133000011Y-55497963I-3847807J-3847793D01*
G01*
%TO.N,+5V*%
X113420000Y-76266982D02*
X113420000Y-76533018D01*
%TD*%
M02*
